%TF.GenerationSoftware,KiCad,Pcbnew,9.0.7*%
%TF.CreationDate,2026-07-19T17:18:16+02:00*%
%TF.ProjectId,MSBE_V3,4d534245-5f56-4332-9e6b-696361645f70,rev?*%
%TF.SameCoordinates,Original*%
%TF.FileFunction,Soldermask,Top*%
%TF.FilePolarity,Negative*%
%FSLAX46Y46*%
G04 Gerber Fmt 4.6, Leading zero omitted, Abs format (unit mm)*
G04 Created by KiCad (PCBNEW 9.0.7) date 2026-07-19 17:18:16*
%MOMM*%
%LPD*%
G01*
G04 APERTURE LIST*
G04 Aperture macros list*
%AMRoundRect*
0 Rectangle with rounded corners*
0 $1 Rounding radius*
0 $2 $3 $4 $5 $6 $7 $8 $9 X,Y pos of 4 corners*
0 Add a 4 corners polygon primitive as box body*
4,1,4,$2,$3,$4,$5,$6,$7,$8,$9,$2,$3,0*
0 Add four circle primitives for the rounded corners*
1,1,$1+$1,$2,$3*
1,1,$1+$1,$4,$5*
1,1,$1+$1,$6,$7*
1,1,$1+$1,$8,$9*
0 Add four rect primitives between the rounded corners*
20,1,$1+$1,$2,$3,$4,$5,0*
20,1,$1+$1,$4,$5,$6,$7,0*
20,1,$1+$1,$6,$7,$8,$9,0*
20,1,$1+$1,$8,$9,$2,$3,0*%
G04 Aperture macros list end*
%ADD10C,0.000000*%
%ADD11R,0.736600X0.533400*%
%ADD12R,0.451168X0.236418*%
%ADD13R,0.800000X1.524000*%
%ADD14RoundRect,0.218750X0.218750X0.256250X-0.218750X0.256250X-0.218750X-0.256250X0.218750X-0.256250X0*%
%ADD15RoundRect,0.225000X-0.250000X0.225000X-0.250000X-0.225000X0.250000X-0.225000X0.250000X0.225000X0*%
%ADD16C,0.650000*%
%ADD17RoundRect,0.150000X-0.425000X0.150000X-0.425000X-0.150000X0.425000X-0.150000X0.425000X0.150000X0*%
%ADD18RoundRect,0.075000X-0.500000X0.075000X-0.500000X-0.075000X0.500000X-0.075000X0.500000X0.075000X0*%
%ADD19RoundRect,0.250000X-0.750000X0.840000X-0.750000X-0.840000X0.750000X-0.840000X0.750000X0.840000X0*%
%ADD20RoundRect,0.102000X0.500000X-0.250000X0.500000X0.250000X-0.500000X0.250000X-0.500000X-0.250000X0*%
%ADD21C,0.424000*%
%ADD22RoundRect,0.200000X-0.275000X0.200000X-0.275000X-0.200000X0.275000X-0.200000X0.275000X0.200000X0*%
%ADD23R,0.279400X0.279400*%
%ADD24RoundRect,0.200000X0.275000X-0.200000X0.275000X0.200000X-0.275000X0.200000X-0.275000X-0.200000X0*%
%ADD25RoundRect,0.225000X-0.225000X-0.250000X0.225000X-0.250000X0.225000X0.250000X-0.225000X0.250000X0*%
%ADD26RoundRect,0.225000X0.250000X-0.225000X0.250000X0.225000X-0.250000X0.225000X-0.250000X-0.225000X0*%
%ADD27R,1.397000X0.939800*%
%ADD28R,0.787400X0.228600*%
%ADD29R,0.228600X0.787400*%
%ADD30R,0.787400X0.787400*%
%ADD31RoundRect,0.218750X0.256250X-0.218750X0.256250X0.218750X-0.256250X0.218750X-0.256250X-0.218750X0*%
%ADD32RoundRect,0.200000X0.200000X0.275000X-0.200000X0.275000X-0.200000X-0.275000X0.200000X-0.275000X0*%
%ADD33RoundRect,0.200000X-0.200000X-0.275000X0.200000X-0.275000X0.200000X0.275000X-0.200000X0.275000X0*%
%ADD34RoundRect,0.225000X0.225000X0.250000X-0.225000X0.250000X-0.225000X-0.250000X0.225000X-0.250000X0*%
%ADD35C,0.400000*%
%ADD36C,0.200000*%
%ADD37R,5.400000X5.000000*%
%ADD38C,0.454000*%
%ADD39RoundRect,0.218750X-0.256250X0.218750X-0.256250X-0.218750X0.256250X-0.218750X0.256250X0.218750X0*%
%ADD40R,1.524000X0.800000*%
%ADD41R,1.700000X1.700000*%
%ADD42C,1.700000*%
G04 APERTURE END LIST*
D10*
%TO.C,LS1*%
G36*
X150113669Y-80800381D02*
G01*
X150340252Y-80915831D01*
X150520069Y-81095648D01*
X150635519Y-81322231D01*
X150675300Y-81573400D01*
X150635519Y-81824569D01*
X150520069Y-82051152D01*
X150340252Y-82230969D01*
X150113669Y-82346419D01*
X149862500Y-82386200D01*
X149791660Y-82383107D01*
X149818225Y-82079467D01*
X149862500Y-82081400D01*
X150019481Y-82056537D01*
X150161095Y-81984381D01*
X150273481Y-81871995D01*
X150345637Y-81730381D01*
X150370500Y-81573400D01*
X150345637Y-81416419D01*
X150273481Y-81274805D01*
X150161095Y-81162419D01*
X150019481Y-81090263D01*
X149862500Y-81065400D01*
X149818225Y-81067333D01*
X149791660Y-80763693D01*
X149862500Y-80760600D01*
X150113669Y-80800381D01*
G37*
G36*
X149933340Y-80763693D02*
G01*
X149906775Y-81067333D01*
X149862500Y-81065400D01*
X149705519Y-81090263D01*
X149563905Y-81162419D01*
X149451519Y-81274805D01*
X149379363Y-81416419D01*
X149354500Y-81573400D01*
X149379363Y-81730381D01*
X149451519Y-81871995D01*
X149563905Y-81984381D01*
X149705519Y-82056537D01*
X149862500Y-82081400D01*
X149906775Y-82079467D01*
X149933340Y-82383107D01*
X149862500Y-82386200D01*
X149611331Y-82346419D01*
X149384748Y-82230969D01*
X149204931Y-82051152D01*
X149089481Y-81824569D01*
X149049700Y-81573400D01*
X149089481Y-81322231D01*
X149204931Y-81095648D01*
X149384748Y-80915831D01*
X149611331Y-80800381D01*
X149862500Y-80760600D01*
X149933340Y-80763693D01*
G37*
G36*
X94213669Y-80775381D02*
G01*
X94440252Y-80890831D01*
X94620069Y-81070648D01*
X94735519Y-81297231D01*
X94775300Y-81548400D01*
X94735519Y-81799569D01*
X94620069Y-82026152D01*
X94440252Y-82205969D01*
X94213669Y-82321419D01*
X93962500Y-82361200D01*
X93891660Y-82358107D01*
X93918225Y-82054467D01*
X93962500Y-82056400D01*
X94119481Y-82031537D01*
X94261095Y-81959381D01*
X94373481Y-81846995D01*
X94445637Y-81705381D01*
X94470500Y-81548400D01*
X94445637Y-81391419D01*
X94373481Y-81249805D01*
X94261095Y-81137419D01*
X94119481Y-81065263D01*
X93962500Y-81040400D01*
X93918225Y-81042333D01*
X93891660Y-80738693D01*
X93962500Y-80735600D01*
X94213669Y-80775381D01*
G37*
G36*
X94033340Y-80738693D02*
G01*
X94006775Y-81042333D01*
X93962500Y-81040400D01*
X93805519Y-81065263D01*
X93663905Y-81137419D01*
X93551519Y-81249805D01*
X93479363Y-81391419D01*
X93454500Y-81548400D01*
X93479363Y-81705381D01*
X93551519Y-81846995D01*
X93663905Y-81959381D01*
X93805519Y-82031537D01*
X93962500Y-82056400D01*
X94006775Y-82054467D01*
X94033340Y-82358107D01*
X93962500Y-82361200D01*
X93711331Y-82321419D01*
X93484748Y-82205969D01*
X93304931Y-82026152D01*
X93189481Y-81799569D01*
X93149700Y-81548400D01*
X93189481Y-81297231D01*
X93304931Y-81070648D01*
X93484748Y-80890831D01*
X93711331Y-80775381D01*
X93962500Y-80735600D01*
X94033340Y-80738693D01*
G37*
%TD*%
D11*
%TO.C,LS1*%
X149025000Y-79499400D03*
X149025000Y-80321400D03*
D12*
X149888084Y-82228209D03*
D11*
X150700000Y-80321400D03*
X150700000Y-79499400D03*
%TD*%
D13*
%TO.C,J2*%
X145860000Y-85230000D03*
X147130000Y-85230000D03*
X148400000Y-85230000D03*
%TD*%
D14*
%TO.C,L2*%
X166587500Y-74950000D03*
X165012500Y-74950000D03*
%TD*%
D15*
%TO.C,C10*%
X138850000Y-62310000D03*
X138850000Y-63860000D03*
%TD*%
D16*
%TO.C,J1*%
X134055000Y-69080000D03*
X134055000Y-74860000D03*
D17*
X135130000Y-68770000D03*
X135130000Y-69570000D03*
D18*
X135130000Y-70720000D03*
X135130000Y-71720000D03*
X135130000Y-72220000D03*
X135130000Y-73220000D03*
D17*
X135130000Y-74370000D03*
X135130000Y-75170000D03*
X135130000Y-75170000D03*
X135130000Y-74370000D03*
D18*
X135130000Y-73720000D03*
X135130000Y-72720000D03*
X135130000Y-71220000D03*
X135130000Y-70220000D03*
D17*
X135130000Y-69570000D03*
X135130000Y-68770000D03*
D19*
X134555000Y-66860000D03*
X130625000Y-66860000D03*
X134555000Y-77080000D03*
X130625000Y-77080000D03*
%TD*%
D13*
%TO.C,LS5*%
X173530000Y-78530000D03*
X174800000Y-78530000D03*
%TD*%
%TO.C,LS4*%
X173530000Y-76120000D03*
X174800000Y-76120000D03*
%TD*%
D15*
%TO.C,C3*%
X166910000Y-76655000D03*
X166910000Y-78205000D03*
%TD*%
D20*
%TO.C,Y2*%
X151770000Y-73550000D03*
X151770000Y-72450000D03*
%TD*%
D21*
%TO.C,U4*%
X147760000Y-59040000D03*
X147760000Y-59440000D03*
X147760000Y-59840000D03*
X147760000Y-60240000D03*
X147760000Y-60640000D03*
X147360000Y-59040000D03*
X147360000Y-59440000D03*
X147360000Y-59840000D03*
X147360000Y-60240000D03*
X147360000Y-60640000D03*
X146960000Y-59040000D03*
X146960000Y-59440000D03*
X146960000Y-59840000D03*
X146960000Y-60240000D03*
X146960000Y-60640000D03*
X146560000Y-59040000D03*
X146560000Y-59440000D03*
X146560000Y-59840000D03*
X146560000Y-60240000D03*
X146560000Y-60640000D03*
X146160000Y-59040000D03*
X146160000Y-59440000D03*
X146160000Y-59840000D03*
X146160000Y-60240000D03*
X146160000Y-60640000D03*
%TD*%
D22*
%TO.C,R5*%
X143990000Y-54075000D03*
X143990000Y-55725000D03*
%TD*%
D23*
%TO.C,U1*%
X140598000Y-65758101D03*
X141110000Y-65770100D03*
X141610000Y-65770100D03*
X142122000Y-65758101D03*
X142122000Y-65258100D03*
X142122000Y-64758100D03*
X142110001Y-64246100D03*
X141610000Y-64246100D03*
X141110000Y-64246100D03*
X140598000Y-64258099D03*
X140598000Y-64758100D03*
X140598000Y-65258100D03*
%TD*%
D24*
%TO.C,R34*%
X171250000Y-69770000D03*
X171250000Y-68120000D03*
%TD*%
D25*
%TO.C,C4*%
X169825000Y-62060000D03*
X171375000Y-62060000D03*
%TD*%
D26*
%TO.C,C12*%
X158530000Y-67433000D03*
X158530000Y-65883000D03*
%TD*%
D27*
%TO.C,Y1*%
X163158100Y-66060000D03*
X160541900Y-66060000D03*
X160541900Y-67710000D03*
X163158100Y-67710000D03*
%TD*%
D28*
%TO.C,U2*%
X141840000Y-80539999D03*
X141840000Y-80940001D03*
X141840000Y-81340000D03*
X141840000Y-81739999D03*
X141840000Y-82140001D03*
D29*
X142449699Y-82749700D03*
X142849701Y-82749700D03*
X143249700Y-82749700D03*
X143649699Y-82749700D03*
X144049701Y-82749700D03*
D28*
X144659400Y-82140001D03*
X144659400Y-81739999D03*
X144659400Y-81340000D03*
X144659400Y-80940001D03*
X144659400Y-80539999D03*
D29*
X144049701Y-79930300D03*
X143649699Y-79930300D03*
X143249700Y-79930300D03*
X142849701Y-79930300D03*
X142449699Y-79930300D03*
D30*
X143249700Y-81340000D03*
%TD*%
D31*
%TO.C,L5*%
X149960000Y-63050000D03*
X149960000Y-61475000D03*
%TD*%
D32*
%TO.C,R1*%
X142750000Y-84585000D03*
X141100000Y-84585000D03*
%TD*%
D33*
%TO.C,R10*%
X144810000Y-68160000D03*
X146460000Y-68160000D03*
%TD*%
D24*
%TO.C,R11*%
X141470000Y-59045000D03*
X141470000Y-57395000D03*
%TD*%
D26*
%TO.C,C15*%
X153570000Y-67420000D03*
X153570000Y-65870000D03*
%TD*%
D33*
%TO.C,R8*%
X173395000Y-72480000D03*
X175045000Y-72480000D03*
%TD*%
D34*
%TO.C,C37*%
X151895000Y-75250000D03*
X150345000Y-75250000D03*
%TD*%
D25*
%TO.C,C7*%
X161575000Y-64185000D03*
X163125000Y-64185000D03*
%TD*%
D32*
%TO.C,R2*%
X139535000Y-70100000D03*
X137885000Y-70100000D03*
%TD*%
D13*
%TO.C,J3*%
X154060000Y-85230000D03*
X155330000Y-85230000D03*
X156600000Y-85230000D03*
%TD*%
D35*
%TO.C,U3*%
X154265000Y-69898000D03*
X154265000Y-76298000D03*
X160665000Y-69898000D03*
X160665000Y-76298000D03*
D36*
X155265000Y-69898000D03*
X156865000Y-69898000D03*
X157265000Y-69898000D03*
X157665000Y-69898000D03*
X158065000Y-69898000D03*
X158465000Y-69898000D03*
X158865000Y-69898000D03*
X159265000Y-69898000D03*
X159665000Y-69898000D03*
X154265000Y-74098000D03*
X160665000Y-74098000D03*
X154665000Y-74298000D03*
X154265000Y-74498000D03*
X160665000Y-74498000D03*
X154665000Y-74698000D03*
X154265000Y-74898000D03*
X160665000Y-74898000D03*
X154665000Y-75098000D03*
X154265000Y-75298000D03*
X160665000Y-75298000D03*
X154665000Y-75498000D03*
X154265000Y-75698000D03*
X160665000Y-75698000D03*
X154665000Y-75898000D03*
X155065000Y-75898000D03*
X155465000Y-75898000D03*
X155865000Y-75898000D03*
X156265000Y-75898000D03*
X156665000Y-75898000D03*
X157065000Y-75898000D03*
X157465000Y-75898000D03*
X157865000Y-75898000D03*
X158265000Y-75898000D03*
X158665000Y-75898000D03*
X159065000Y-75898000D03*
X159465000Y-75898000D03*
X159865000Y-75898000D03*
X160265000Y-75898000D03*
X154865000Y-76298000D03*
X155265000Y-76298000D03*
X155665000Y-76298000D03*
X156065000Y-76298000D03*
X156465000Y-76298000D03*
X156865000Y-76298000D03*
X157265000Y-76298000D03*
X157665000Y-76298000D03*
X158065000Y-76298000D03*
X158465000Y-76298000D03*
X158865000Y-76298000D03*
X159265000Y-76298000D03*
X159665000Y-76298000D03*
X160065000Y-76298000D03*
X154665000Y-70298000D03*
X155065000Y-70298000D03*
X155465000Y-70298000D03*
X155865000Y-70298000D03*
X156265000Y-70298000D03*
X156665000Y-70298000D03*
X157065000Y-70298000D03*
X157465000Y-70298000D03*
X157865000Y-70298000D03*
X158265000Y-70298000D03*
X158665000Y-70298000D03*
X159065000Y-70298000D03*
X159465000Y-70298000D03*
X159865000Y-70298000D03*
X160265000Y-70298000D03*
X154265000Y-70498000D03*
X160665000Y-70498000D03*
X154665000Y-70698000D03*
X154265000Y-70898000D03*
X160665000Y-70898000D03*
D37*
X157665000Y-73098000D03*
D36*
X154665000Y-71098000D03*
X154265000Y-71298000D03*
X160665000Y-71298000D03*
X154665000Y-71498000D03*
X154265000Y-71698000D03*
X160665000Y-71698000D03*
X154665000Y-71898000D03*
X154265000Y-72098000D03*
X160665000Y-72098000D03*
X154665000Y-72298000D03*
X154265000Y-72498000D03*
X160665000Y-72498000D03*
X154665000Y-72698000D03*
X154265000Y-72898000D03*
X160665000Y-72898000D03*
X154665000Y-73098000D03*
X154265000Y-73298000D03*
X160665000Y-73298000D03*
X154665000Y-73498000D03*
X154265000Y-73698000D03*
X160665000Y-73698000D03*
X154665000Y-73898000D03*
%TD*%
D34*
%TO.C,C17*%
X158297500Y-63830000D03*
X156747500Y-63830000D03*
%TD*%
%TO.C,C33*%
X151895000Y-69730000D03*
X150345000Y-69730000D03*
%TD*%
D22*
%TO.C,R6*%
X145620000Y-54075000D03*
X145620000Y-55725000D03*
%TD*%
D13*
%TO.C,BT1*%
X163620000Y-85240000D03*
X161080000Y-85240000D03*
%TD*%
D24*
%TO.C,R12*%
X143300000Y-59050000D03*
X143300000Y-57400000D03*
%TD*%
D25*
%TO.C,C5*%
X169825000Y-60535000D03*
X171375000Y-60535000D03*
%TD*%
D38*
%TO.C,U6*%
X173880000Y-69430000D03*
X174280000Y-69430000D03*
X174680000Y-69430000D03*
X173880000Y-69830000D03*
X174280000Y-69830000D03*
X174680000Y-69830000D03*
X173880000Y-70230000D03*
X174280000Y-70230000D03*
X174680000Y-70230000D03*
%TD*%
D15*
%TO.C,C14*%
X153545000Y-62255000D03*
X153545000Y-63805000D03*
%TD*%
%TO.C,C34*%
X156240000Y-78835000D03*
X156240000Y-80385000D03*
%TD*%
D31*
%TO.C,D1*%
X143310000Y-62132500D03*
X143310000Y-60557500D03*
%TD*%
D25*
%TO.C,C23*%
X173480000Y-66780000D03*
X175030000Y-66780000D03*
%TD*%
D15*
%TO.C,C31*%
X162960000Y-76295000D03*
X162960000Y-77845000D03*
%TD*%
%TO.C,C11*%
X139289700Y-78820000D03*
X139289700Y-80370000D03*
%TD*%
D13*
%TO.C,J4*%
X172235000Y-85230000D03*
X170965000Y-85230000D03*
X169695000Y-85230000D03*
X168425000Y-85230000D03*
X167150000Y-85230000D03*
%TD*%
D15*
%TO.C,C28*%
X150510000Y-54160000D03*
X150510000Y-55710000D03*
%TD*%
%TO.C,C36*%
X157860000Y-78835000D03*
X157860000Y-80385000D03*
%TD*%
D31*
%TO.C,L3*%
X165075000Y-69572500D03*
X165075000Y-67997500D03*
%TD*%
D24*
%TO.C,R4*%
X153540000Y-60785000D03*
X153540000Y-59135000D03*
%TD*%
D34*
%TO.C,C1*%
X141717000Y-67778101D03*
X140167000Y-67778101D03*
%TD*%
%TO.C,C2*%
X140125000Y-82985000D03*
X138575000Y-82985000D03*
%TD*%
D26*
%TO.C,C13*%
X166975000Y-69535000D03*
X166975000Y-67985000D03*
%TD*%
D25*
%TO.C,C19*%
X163585000Y-71180000D03*
X165135000Y-71180000D03*
%TD*%
D31*
%TO.C,D2*%
X141480000Y-62132500D03*
X141480000Y-60557500D03*
%TD*%
D25*
%TO.C,C30*%
X163585000Y-72990000D03*
X165135000Y-72990000D03*
%TD*%
D32*
%TO.C,R3*%
X139585000Y-74340000D03*
X137935000Y-74340000D03*
%TD*%
D39*
%TO.C,L1*%
X168275000Y-60522500D03*
X168275000Y-62097500D03*
%TD*%
D15*
%TO.C,C6*%
X165100000Y-76665000D03*
X165100000Y-78215000D03*
%TD*%
D25*
%TO.C,C8*%
X165200000Y-65985000D03*
X166750000Y-65985000D03*
%TD*%
D26*
%TO.C,C20*%
X156895000Y-67433000D03*
X156895000Y-65883000D03*
%TD*%
D34*
%TO.C,C35*%
X151895000Y-76870000D03*
X150345000Y-76870000D03*
%TD*%
D26*
%TO.C,C16*%
X155245000Y-67433000D03*
X155245000Y-65883000D03*
%TD*%
D14*
%TO.C,L4*%
X158307500Y-62250000D03*
X156732500Y-62250000D03*
%TD*%
D15*
%TO.C,C9*%
X152870000Y-80375000D03*
X152870000Y-81925000D03*
%TD*%
D26*
%TO.C,C38*%
X159940000Y-63115000D03*
X159940000Y-61565000D03*
%TD*%
D15*
%TO.C,C21*%
X147220000Y-54135000D03*
X147220000Y-55685000D03*
%TD*%
D33*
%TO.C,R9*%
X144810000Y-66390000D03*
X146460000Y-66390000D03*
%TD*%
D25*
%TO.C,C27*%
X146795000Y-63060000D03*
X148345000Y-63060000D03*
%TD*%
%TO.C,C25*%
X173480000Y-64960000D03*
X175030000Y-64960000D03*
%TD*%
D15*
%TO.C,C26*%
X148810000Y-54125000D03*
X148810000Y-55675000D03*
%TD*%
D25*
%TO.C,C32*%
X173480000Y-63040000D03*
X175030000Y-63040000D03*
%TD*%
D15*
%TO.C,C18*%
X155140000Y-62255000D03*
X155140000Y-63805000D03*
%TD*%
D11*
%TO.C,LS1*%
X93125000Y-79474400D03*
X93125000Y-80296400D03*
D12*
X93988084Y-82203209D03*
D11*
X94800000Y-80296400D03*
X94800000Y-79474400D03*
%TD*%
D15*
%TO.C,C9*%
X96970000Y-80350000D03*
X96970000Y-81900000D03*
%TD*%
D35*
%TO.C,U3*%
X98365000Y-69873000D03*
X98365000Y-76273000D03*
X104765000Y-69873000D03*
X104765000Y-76273000D03*
D36*
X99365000Y-69873000D03*
X100965000Y-69873000D03*
X101365000Y-69873000D03*
X101765000Y-69873000D03*
X102165000Y-69873000D03*
X102565000Y-69873000D03*
X102965000Y-69873000D03*
X103365000Y-69873000D03*
X103765000Y-69873000D03*
X98365000Y-74073000D03*
X104765000Y-74073000D03*
X98765000Y-74273000D03*
X98365000Y-74473000D03*
X104765000Y-74473000D03*
X98765000Y-74673000D03*
X98365000Y-74873000D03*
X104765000Y-74873000D03*
X98765000Y-75073000D03*
X98365000Y-75273000D03*
X104765000Y-75273000D03*
X98765000Y-75473000D03*
X98365000Y-75673000D03*
X104765000Y-75673000D03*
X98765000Y-75873000D03*
X99165000Y-75873000D03*
X99565000Y-75873000D03*
X99965000Y-75873000D03*
X100365000Y-75873000D03*
X100765000Y-75873000D03*
X101165000Y-75873000D03*
X101565000Y-75873000D03*
X101965000Y-75873000D03*
X102365000Y-75873000D03*
X102765000Y-75873000D03*
X103165000Y-75873000D03*
X103565000Y-75873000D03*
X103965000Y-75873000D03*
X104365000Y-75873000D03*
X98965000Y-76273000D03*
X99365000Y-76273000D03*
X99765000Y-76273000D03*
X100165000Y-76273000D03*
X100565000Y-76273000D03*
X100965000Y-76273000D03*
X101365000Y-76273000D03*
X101765000Y-76273000D03*
X102165000Y-76273000D03*
X102565000Y-76273000D03*
X102965000Y-76273000D03*
X103365000Y-76273000D03*
X103765000Y-76273000D03*
X104165000Y-76273000D03*
X98765000Y-70273000D03*
X99165000Y-70273000D03*
X99565000Y-70273000D03*
X99965000Y-70273000D03*
X100365000Y-70273000D03*
X100765000Y-70273000D03*
X101165000Y-70273000D03*
X101565000Y-70273000D03*
X101965000Y-70273000D03*
X102365000Y-70273000D03*
X102765000Y-70273000D03*
X103165000Y-70273000D03*
X103565000Y-70273000D03*
X103965000Y-70273000D03*
X104365000Y-70273000D03*
X98365000Y-70473000D03*
X104765000Y-70473000D03*
X98765000Y-70673000D03*
X98365000Y-70873000D03*
X104765000Y-70873000D03*
D37*
X101765000Y-73073000D03*
D36*
X98765000Y-71073000D03*
X98365000Y-71273000D03*
X104765000Y-71273000D03*
X98765000Y-71473000D03*
X98365000Y-71673000D03*
X104765000Y-71673000D03*
X98765000Y-71873000D03*
X98365000Y-72073000D03*
X104765000Y-72073000D03*
X98765000Y-72273000D03*
X98365000Y-72473000D03*
X104765000Y-72473000D03*
X98765000Y-72673000D03*
X98365000Y-72873000D03*
X104765000Y-72873000D03*
X98765000Y-73073000D03*
X98365000Y-73273000D03*
X104765000Y-73273000D03*
X98765000Y-73473000D03*
X98365000Y-73673000D03*
X104765000Y-73673000D03*
X98765000Y-73873000D03*
%TD*%
D34*
%TO.C,C17*%
X102397500Y-63805000D03*
X100847500Y-63805000D03*
%TD*%
D25*
%TO.C,C50*%
X119785000Y-96045000D03*
X121335000Y-96045000D03*
%TD*%
%TO.C,C25*%
X117580000Y-64935000D03*
X119130000Y-64935000D03*
%TD*%
%TO.C,C27*%
X90895000Y-63035000D03*
X92445000Y-63035000D03*
%TD*%
D33*
%TO.C,R9*%
X88910000Y-66365000D03*
X90560000Y-66365000D03*
%TD*%
D15*
%TO.C,C21*%
X91320000Y-54110000D03*
X91320000Y-55660000D03*
%TD*%
D26*
%TO.C,C38*%
X104040000Y-63090000D03*
X104040000Y-61540000D03*
%TD*%
D33*
%TO.C,R15*%
X125985000Y-93570000D03*
X127635000Y-93570000D03*
%TD*%
D15*
%TO.C,C51*%
X124335000Y-99920000D03*
X124335000Y-101470000D03*
%TD*%
%TO.C,C18*%
X99240000Y-62230000D03*
X99240000Y-63780000D03*
%TD*%
D32*
%TO.C,R24*%
X123160000Y-97820000D03*
X121510000Y-97820000D03*
%TD*%
D15*
%TO.C,C26*%
X92910000Y-54100000D03*
X92910000Y-55650000D03*
%TD*%
D25*
%TO.C,C32*%
X117580000Y-63015000D03*
X119130000Y-63015000D03*
%TD*%
D24*
%TO.C,R19*%
X121135000Y-94170000D03*
X121135000Y-92520000D03*
%TD*%
D40*
%TO.C,J6*%
X114660000Y-94140000D03*
X114660000Y-95415000D03*
X114660000Y-96685000D03*
X114660000Y-97955000D03*
X114660000Y-99225000D03*
%TD*%
D33*
%TO.C,R23*%
X125935000Y-99795000D03*
X127585000Y-99795000D03*
%TD*%
D15*
%TO.C,C34*%
X100340000Y-78810000D03*
X100340000Y-80360000D03*
%TD*%
%TO.C,C14*%
X97645000Y-62230000D03*
X97645000Y-63780000D03*
%TD*%
%TO.C,C28*%
X94610000Y-54135000D03*
X94610000Y-55685000D03*
%TD*%
D25*
%TO.C,C23*%
X117580000Y-66755000D03*
X119130000Y-66755000D03*
%TD*%
D38*
%TO.C,U6*%
X117980000Y-69405000D03*
X118380000Y-69405000D03*
X118780000Y-69405000D03*
X117980000Y-69805000D03*
X118380000Y-69805000D03*
X118780000Y-69805000D03*
X117980000Y-70205000D03*
X118380000Y-70205000D03*
X118780000Y-70205000D03*
%TD*%
D15*
%TO.C,C11*%
X83389700Y-78795000D03*
X83389700Y-80345000D03*
%TD*%
D13*
%TO.C,J4*%
X116335000Y-85205000D03*
X115065000Y-85205000D03*
X113795000Y-85205000D03*
X112525000Y-85205000D03*
X111250000Y-85205000D03*
%TD*%
D31*
%TO.C,D1*%
X87410000Y-62107500D03*
X87410000Y-60532500D03*
%TD*%
D24*
%TO.C,R12*%
X87400000Y-59025000D03*
X87400000Y-57375000D03*
%TD*%
D25*
%TO.C,C5*%
X113925000Y-60510000D03*
X115475000Y-60510000D03*
%TD*%
D13*
%TO.C,BT1*%
X107720000Y-85215000D03*
X105180000Y-85215000D03*
%TD*%
D15*
%TO.C,C31*%
X107060000Y-76270000D03*
X107060000Y-77820000D03*
%TD*%
D22*
%TO.C,R6*%
X89720000Y-54050000D03*
X89720000Y-55700000D03*
%TD*%
D33*
%TO.C,R16*%
X119660000Y-101570000D03*
X121310000Y-101570000D03*
%TD*%
D34*
%TO.C,C33*%
X95995000Y-69705000D03*
X94445000Y-69705000D03*
%TD*%
D15*
%TO.C,C42*%
X117910000Y-99970000D03*
X117910000Y-101520000D03*
%TD*%
%TO.C,C6*%
X109200000Y-76640000D03*
X109200000Y-78190000D03*
%TD*%
D14*
%TO.C,L4*%
X102407500Y-62225000D03*
X100832500Y-62225000D03*
%TD*%
D26*
%TO.C,C20*%
X100995000Y-67408000D03*
X100995000Y-65858000D03*
%TD*%
D39*
%TO.C,L1*%
X112375000Y-60497500D03*
X112375000Y-62072500D03*
%TD*%
D31*
%TO.C,D2*%
X85580000Y-62107500D03*
X85580000Y-60532500D03*
%TD*%
D25*
%TO.C,C30*%
X107685000Y-72965000D03*
X109235000Y-72965000D03*
%TD*%
D26*
%TO.C,C16*%
X99345000Y-67408000D03*
X99345000Y-65858000D03*
%TD*%
D25*
%TO.C,C19*%
X107685000Y-71155000D03*
X109235000Y-71155000D03*
%TD*%
D34*
%TO.C,C35*%
X95995000Y-76845000D03*
X94445000Y-76845000D03*
%TD*%
D32*
%TO.C,R3*%
X83685000Y-74315000D03*
X82035000Y-74315000D03*
%TD*%
D26*
%TO.C,C13*%
X111075000Y-69510000D03*
X111075000Y-67960000D03*
%TD*%
D34*
%TO.C,C2*%
X84225000Y-82960000D03*
X82675000Y-82960000D03*
%TD*%
D25*
%TO.C,C8*%
X109300000Y-65960000D03*
X110850000Y-65960000D03*
%TD*%
D31*
%TO.C,L3*%
X109175000Y-69547500D03*
X109175000Y-67972500D03*
%TD*%
D24*
%TO.C,R4*%
X97640000Y-60760000D03*
X97640000Y-59110000D03*
%TD*%
D15*
%TO.C,C36*%
X101960000Y-78810000D03*
X101960000Y-80360000D03*
%TD*%
D34*
%TO.C,C1*%
X85817000Y-67753101D03*
X84267000Y-67753101D03*
%TD*%
D33*
%TO.C,R25*%
X125960000Y-101595000D03*
X127610000Y-101595000D03*
%TD*%
D25*
%TO.C,C7*%
X105675000Y-64160000D03*
X107225000Y-64160000D03*
%TD*%
D33*
%TO.C,R14*%
X119660000Y-99895000D03*
X121310000Y-99895000D03*
%TD*%
D32*
%TO.C,R2*%
X83635000Y-70075000D03*
X81985000Y-70075000D03*
%TD*%
D41*
%TO.C,J9*%
X133510000Y-91590000D03*
D42*
X133510000Y-94130000D03*
X133510000Y-96670000D03*
X133510000Y-99210000D03*
X133510000Y-101750000D03*
%TD*%
D33*
%TO.C,R8*%
X117495000Y-72455000D03*
X119145000Y-72455000D03*
%TD*%
D25*
%TO.C,C49*%
X117885000Y-94195000D03*
X119435000Y-94195000D03*
%TD*%
D13*
%TO.C,J3*%
X98160000Y-85205000D03*
X99430000Y-85205000D03*
X100700000Y-85205000D03*
%TD*%
D33*
%TO.C,R18*%
X117835000Y-92445000D03*
X119485000Y-92445000D03*
%TD*%
D26*
%TO.C,C15*%
X97670000Y-67395000D03*
X97670000Y-65845000D03*
%TD*%
D34*
%TO.C,C37*%
X95995000Y-75225000D03*
X94445000Y-75225000D03*
%TD*%
D33*
%TO.C,R10*%
X88910000Y-68135000D03*
X90560000Y-68135000D03*
%TD*%
D24*
%TO.C,R11*%
X85570000Y-59020000D03*
X85570000Y-57370000D03*
%TD*%
D31*
%TO.C,L5*%
X94060000Y-63025000D03*
X94060000Y-61450000D03*
%TD*%
D28*
%TO.C,U2*%
X85940000Y-80514999D03*
X85940000Y-80915001D03*
X85940000Y-81315000D03*
X85940000Y-81714999D03*
X85940000Y-82115001D03*
D29*
X86549699Y-82724700D03*
X86949701Y-82724700D03*
X87349700Y-82724700D03*
X87749699Y-82724700D03*
X88149701Y-82724700D03*
D28*
X88759400Y-82115001D03*
X88759400Y-81714999D03*
X88759400Y-81315000D03*
X88759400Y-80915001D03*
X88759400Y-80514999D03*
D29*
X88149701Y-79905300D03*
X87749699Y-79905300D03*
X87349700Y-79905300D03*
X86949701Y-79905300D03*
X86549699Y-79905300D03*
D30*
X87349700Y-81315000D03*
%TD*%
D32*
%TO.C,R1*%
X86850000Y-84560000D03*
X85200000Y-84560000D03*
%TD*%
D27*
%TO.C,Y1*%
X107258100Y-66035000D03*
X104641900Y-66035000D03*
X104641900Y-67685000D03*
X107258100Y-67685000D03*
%TD*%
D33*
%TO.C,R17*%
X125985000Y-95345000D03*
X127635000Y-95345000D03*
%TD*%
%TO.C,R22*%
X117835000Y-97820000D03*
X119485000Y-97820000D03*
%TD*%
D15*
%TO.C,C3*%
X111010000Y-76630000D03*
X111010000Y-78180000D03*
%TD*%
D21*
%TO.C,U4*%
X91860000Y-59015000D03*
X91860000Y-59415000D03*
X91860000Y-59815000D03*
X91860000Y-60215000D03*
X91860000Y-60615000D03*
X91460000Y-59015000D03*
X91460000Y-59415000D03*
X91460000Y-59815000D03*
X91460000Y-60215000D03*
X91460000Y-60615000D03*
X91060000Y-59015000D03*
X91060000Y-59415000D03*
X91060000Y-59815000D03*
X91060000Y-60215000D03*
X91060000Y-60615000D03*
X90660000Y-59015000D03*
X90660000Y-59415000D03*
X90660000Y-59815000D03*
X90660000Y-60215000D03*
X90660000Y-60615000D03*
X90260000Y-59015000D03*
X90260000Y-59415000D03*
X90260000Y-59815000D03*
X90260000Y-60215000D03*
X90260000Y-60615000D03*
%TD*%
D25*
%TO.C,C4*%
X113925000Y-62035000D03*
X115475000Y-62035000D03*
%TD*%
D24*
%TO.C,R34*%
X115350000Y-69745000D03*
X115350000Y-68095000D03*
%TD*%
D26*
%TO.C,C12*%
X102630000Y-67408000D03*
X102630000Y-65858000D03*
%TD*%
D20*
%TO.C,Y2*%
X95870000Y-73525000D03*
X95870000Y-72425000D03*
%TD*%
D15*
%TO.C,C45*%
X124410000Y-93695000D03*
X124410000Y-95245000D03*
%TD*%
D13*
%TO.C,LS4*%
X117630000Y-76095000D03*
X118900000Y-76095000D03*
%TD*%
%TO.C,LS5*%
X117630000Y-78505000D03*
X118900000Y-78505000D03*
%TD*%
D40*
%TO.C,J8*%
X129985000Y-99212500D03*
X129985000Y-97942500D03*
X129985000Y-96672500D03*
X129985000Y-95402500D03*
X129985000Y-94127500D03*
%TD*%
D23*
%TO.C,U1*%
X84698000Y-65733101D03*
X85210000Y-65745100D03*
X85710000Y-65745100D03*
X86222000Y-65733101D03*
X86222000Y-65233100D03*
X86222000Y-64733100D03*
X86210001Y-64221100D03*
X85710000Y-64221100D03*
X85210000Y-64221100D03*
X84698000Y-64233099D03*
X84698000Y-64733100D03*
X84698000Y-65233100D03*
%TD*%
D16*
%TO.C,J1*%
X78155000Y-69055000D03*
X78155000Y-74835000D03*
D17*
X79230000Y-68745000D03*
X79230000Y-69545000D03*
D18*
X79230000Y-70695000D03*
X79230000Y-71695000D03*
X79230000Y-72195000D03*
X79230000Y-73195000D03*
D17*
X79230000Y-74345000D03*
X79230000Y-75145000D03*
X79230000Y-75145000D03*
X79230000Y-74345000D03*
D18*
X79230000Y-73695000D03*
X79230000Y-72695000D03*
X79230000Y-71195000D03*
X79230000Y-70195000D03*
D17*
X79230000Y-69545000D03*
X79230000Y-68745000D03*
D19*
X78655000Y-66835000D03*
X74725000Y-66835000D03*
X78655000Y-77055000D03*
X74725000Y-77055000D03*
%TD*%
D22*
%TO.C,R5*%
X88090000Y-54050000D03*
X88090000Y-55700000D03*
%TD*%
D15*
%TO.C,C10*%
X82950000Y-62285000D03*
X82950000Y-63835000D03*
%TD*%
D13*
%TO.C,J2*%
X89960000Y-85205000D03*
X91230000Y-85205000D03*
X92500000Y-85205000D03*
%TD*%
D14*
%TO.C,L2*%
X110687500Y-74925000D03*
X109112500Y-74925000D03*
%TD*%
M02*
