%TF.GenerationSoftware,KiCad,Pcbnew,9.0.7*%
%TF.CreationDate,2026-07-19T17:18:16+02:00*%
%TF.ProjectId,MSBE_V3,4d534245-5f56-4332-9e6b-696361645f70,rev?*%
%TF.SameCoordinates,Original*%
%TF.FileFunction,Copper,L4,Bot*%
%TF.FilePolarity,Positive*%
%FSLAX46Y46*%
G04 Gerber Fmt 4.6, Leading zero omitted, Abs format (unit mm)*
G04 Created by KiCad (PCBNEW 9.0.7) date 2026-07-19 17:18:16*
%MOMM*%
%LPD*%
G01*
G04 APERTURE LIST*
%TA.AperFunction,SMDPad,CuDef*%
%ADD10R,0.800000X1.524000*%
%TD*%
%TA.AperFunction,ComponentPad*%
%ADD11R,0.900000X0.500000*%
%TD*%
%TA.AperFunction,ComponentPad*%
%ADD12R,1.700000X1.700000*%
%TD*%
%TA.AperFunction,ComponentPad*%
%ADD13C,1.700000*%
%TD*%
%TA.AperFunction,ViaPad*%
%ADD14C,0.500000*%
%TD*%
%TA.AperFunction,ViaPad*%
%ADD15C,0.400000*%
%TD*%
%TA.AperFunction,ViaPad*%
%ADD16C,0.300000*%
%TD*%
%TA.AperFunction,ViaPad*%
%ADD17C,0.250000*%
%TD*%
%TA.AperFunction,ViaPad*%
%ADD18C,0.600000*%
%TD*%
%TA.AperFunction,Conductor*%
%ADD19C,0.300000*%
%TD*%
%TA.AperFunction,Conductor*%
%ADD20C,0.250000*%
%TD*%
%TA.AperFunction,Conductor*%
%ADD21C,0.200000*%
%TD*%
G04 APERTURE END LIST*
D10*
%TO.P,,1*%
%TO.N,Net-(J2-Pin_3)*%
X155770000Y-93370000D03*
%TD*%
%TO.P,,1*%
%TO.N,Net-(J2-Pin_1)*%
X151845000Y-93395000D03*
%TD*%
%TO.P,REF\u002A\u002A,1*%
%TO.N,Net-(J2-Pin_2)*%
X153795000Y-93370000D03*
%TD*%
%TO.P,,1*%
%TO.N,Net-(J2-Pin_3)*%
X98400000Y-93370000D03*
%TD*%
%TO.P,REF\u002A\u002A,1*%
%TO.N,Net-(J2-Pin_2)*%
X96425000Y-93370000D03*
%TD*%
D11*
%TO.P,AE1,2,Shield*%
%TO.N,GND*%
X170460000Y-59160000D03*
%TD*%
%TO.P,AE1,2,Shield*%
%TO.N,GND*%
X114560000Y-59135000D03*
%TD*%
D12*
%TO.P,J9,1,Pin_1*%
%TO.N,/B5*%
X133510000Y-91590000D03*
D13*
%TO.P,J9,2,Pin_2*%
%TO.N,/B4*%
X133510000Y-94130000D03*
%TO.P,J9,3,Pin_3*%
%TO.N,/B3*%
X133510000Y-96670000D03*
%TO.P,J9,4,Pin_4*%
%TO.N,/B2*%
X133510000Y-99210000D03*
%TO.P,J9,5,Pin_5*%
%TO.N,/B1*%
X133510000Y-101750000D03*
%TD*%
D10*
%TO.P,,1*%
%TO.N,Net-(J2-Pin_1)*%
X94475000Y-93395000D03*
%TD*%
D14*
%TO.N,*%
X138570000Y-93265000D03*
X138570000Y-90945000D03*
X138570000Y-90945000D03*
X138570000Y-92685000D03*
X135840000Y-93265000D03*
X135840000Y-92105000D03*
X135840000Y-90945000D03*
X135840000Y-92685000D03*
X135840000Y-93265000D03*
X135840000Y-91525000D03*
X138570000Y-91525000D03*
X138570000Y-92105000D03*
X113085000Y-91525000D03*
X113085000Y-93265000D03*
X113085000Y-90945000D03*
X113085000Y-92105000D03*
X113085000Y-90945000D03*
X113085000Y-92685000D03*
X111600000Y-92685000D03*
X111600000Y-90945000D03*
X111600000Y-93265000D03*
X111600000Y-92105000D03*
X111600000Y-93265000D03*
X111600000Y-91525000D03*
X116690000Y-87295000D03*
X114950000Y-87295000D03*
X115530000Y-87295000D03*
X116110000Y-87295000D03*
X115530000Y-89245000D03*
X114370000Y-89245000D03*
X116690000Y-89245000D03*
X116110000Y-89245000D03*
X116690000Y-89245000D03*
X114370000Y-87295000D03*
X114370000Y-87295000D03*
X114950000Y-89245000D03*
X134430000Y-87325000D03*
X132690000Y-87325000D03*
X133270000Y-87325000D03*
X133850000Y-87325000D03*
X133270000Y-89275000D03*
X132110000Y-89275000D03*
X134430000Y-89275000D03*
X133850000Y-89275000D03*
X134430000Y-89275000D03*
X132110000Y-87325000D03*
X132110000Y-87325000D03*
X132690000Y-89275000D03*
X164320000Y-87325000D03*
X162580000Y-87325000D03*
X163160000Y-87325000D03*
X163740000Y-87325000D03*
X163160000Y-89275000D03*
X162000000Y-89275000D03*
X164320000Y-89275000D03*
X163740000Y-89275000D03*
X164320000Y-89275000D03*
X162000000Y-87325000D03*
X162000000Y-87325000D03*
X162580000Y-89275000D03*
X149050000Y-87319540D03*
X147310000Y-87319540D03*
X147890000Y-87319540D03*
X148470000Y-87319540D03*
X147890000Y-89269540D03*
X146730000Y-89269540D03*
X149050000Y-89269540D03*
X148470000Y-89269540D03*
X149050000Y-89269540D03*
X146730000Y-87319540D03*
X146730000Y-87319540D03*
X147310000Y-89269540D03*
X105590000Y-87295000D03*
X103850000Y-87295000D03*
X104430000Y-87295000D03*
X105010000Y-87295000D03*
X104430000Y-89245000D03*
X103270000Y-89245000D03*
X105590000Y-89245000D03*
X105010000Y-89245000D03*
X105590000Y-89245000D03*
X103270000Y-87295000D03*
X103270000Y-87295000D03*
X103850000Y-89245000D03*
X86260000Y-87295000D03*
X88000000Y-87295000D03*
X85680000Y-87295000D03*
X86840000Y-87295000D03*
X85680000Y-87295000D03*
X87420000Y-87295000D03*
X87420000Y-89245000D03*
X85680000Y-89245000D03*
X88000000Y-89245000D03*
X86840000Y-89245000D03*
X88000000Y-89245000D03*
X86260000Y-89245000D03*
X121370000Y-78470000D03*
X121370000Y-79630000D03*
X121370000Y-79050000D03*
X121370000Y-77890000D03*
X121370000Y-79630000D03*
X121370000Y-77310000D03*
X127550000Y-78470000D03*
X127550000Y-77310000D03*
X127550000Y-77890000D03*
X127550000Y-79050000D03*
X127550000Y-77310000D03*
X127550000Y-79630000D03*
X127550000Y-61235000D03*
X127550000Y-60075000D03*
X127550000Y-60655000D03*
X127550000Y-61815000D03*
X127550000Y-60075000D03*
X127550000Y-62395000D03*
X121370000Y-60075000D03*
X121370000Y-62395000D03*
X121370000Y-60655000D03*
X121370000Y-61815000D03*
X121370000Y-62395000D03*
X121370000Y-61235000D03*
D15*
%TO.N,/B1*%
X128035000Y-98545000D03*
X120460000Y-100770000D03*
%TO.N,/B5*%
X128835000Y-94120000D03*
X126685000Y-100745000D03*
%TO.N,/A5*%
X123010000Y-99095000D03*
X115935000Y-94140000D03*
%TO.N,/A4*%
X123185000Y-93795000D03*
X116410000Y-95620000D03*
%TO.N,Net-(J2-Pin_1)*%
X147420000Y-93370000D03*
%TO.N,Net-(J2-Pin_2)*%
X153795000Y-93370000D03*
%TO.N,Net-(J2-Pin_3)*%
X161720000Y-93245000D03*
%TO.N,Net-(J2-Pin_1)*%
X90050000Y-93370000D03*
%TO.N,Net-(J2-Pin_2)*%
X96425000Y-93370000D03*
%TO.N,Net-(J2-Pin_3)*%
X104350000Y-93245000D03*
%TO.N,+3.3V*%
X171275000Y-79535000D03*
%TO.N,GND*%
X173400000Y-73485000D03*
D16*
%TO.N,/I2C_SDA*%
X140525000Y-80885000D03*
%TO.N,GND*%
X161075000Y-85235000D03*
D15*
%TO.N,+3.3V*%
X147200000Y-56635000D03*
X172425000Y-63410000D03*
X175350000Y-68685000D03*
X169750000Y-79535000D03*
D16*
X163625000Y-85235000D03*
%TO.N,GND*%
X156600000Y-85235000D03*
%TO.N,/nRESET*%
X161325000Y-74860000D03*
%TO.N,GND*%
X151150000Y-68935000D03*
%TO.N,/SWDIO*%
X170850000Y-83885000D03*
%TO.N,/I2C_SCL*%
X149412500Y-72822500D03*
%TO.N,GND*%
X168425000Y-85235000D03*
%TO.N,/SWDIO*%
X161775003Y-74860000D03*
%TO.N,/SWDCLK*%
X169650000Y-83410000D03*
X161750000Y-74060000D03*
%TO.N,/nRESET*%
X167150000Y-83810000D03*
%TO.N,/I2C_SCL*%
X140875000Y-80485000D03*
%TO.N,/I2C_SDA*%
X149450000Y-73510000D03*
%TO.N,/INT1*%
X143125000Y-65085000D03*
%TO.N,/INT2*%
X143075000Y-64510000D03*
%TO.N,VDD*%
X142800000Y-63810000D03*
%TO.N,/I2C_SDA*%
X142125000Y-66660000D03*
D17*
%TO.N,/TX*%
X152904000Y-76564000D03*
D16*
%TO.N,VDD*%
X141560000Y-68685000D03*
%TO.N,/I2C_SCL*%
X144000000Y-66360000D03*
%TO.N,/INT1*%
X153000000Y-71135000D03*
%TO.N,/I2C_SCL*%
X139875000Y-65560000D03*
%TO.N,VDD*%
X142725000Y-67660000D03*
D17*
%TO.N,/RX*%
X153325000Y-76960000D03*
D16*
%TO.N,/INT2*%
X152900000Y-70560000D03*
D17*
%TO.N,/TX*%
X154050000Y-84035000D03*
D16*
%TO.N,/I2C_SDA*%
X143900000Y-68285000D03*
X141175000Y-66485000D03*
%TO.N,VDD*%
X139850000Y-63860000D03*
X151895000Y-69730000D03*
D17*
%TO.N,/TX*%
X152475000Y-77660000D03*
X154665000Y-72298000D03*
%TO.N,/RX*%
X154665000Y-72698000D03*
D16*
%TO.N,/D-*%
X136325000Y-71235000D03*
%TO.N,/D+*%
X149075000Y-59410000D03*
D17*
%TO.N,/MIC_DATA*%
X159865000Y-75898000D03*
D15*
%TO.N,GND*%
X136000000Y-68085000D03*
X172400000Y-61260000D03*
D16*
X138175000Y-80385000D03*
X139450000Y-84410000D03*
D15*
X175025000Y-67785000D03*
X134555000Y-66860000D03*
D16*
%TO.N,/MIC_CLOCK*%
X160065000Y-77025000D03*
D15*
%TO.N,GND*%
X130625000Y-77080000D03*
D17*
%TO.N,/RX*%
X152875000Y-78210000D03*
D16*
%TO.N,/D+*%
X136825000Y-72435000D03*
D15*
%TO.N,GND*%
X175025000Y-62035000D03*
D17*
%TO.N,/RX*%
X155325000Y-83960000D03*
D15*
%TO.N,GND*%
X134555000Y-77080000D03*
D16*
X155225000Y-80385000D03*
%TO.N,/D+*%
X149350000Y-58410000D03*
D15*
%TO.N,GND*%
X130625000Y-66860000D03*
%TO.N,/MIC_DATA*%
X151325000Y-78110000D03*
D16*
%TO.N,GND*%
X151850000Y-81935000D03*
%TO.N,/MIC_CLOCK*%
X151713600Y-80321400D03*
%TO.N,/D-*%
X148775000Y-58935000D03*
D15*
%TO.N,GND*%
X136375000Y-75185000D03*
X140425000Y-74335000D03*
X149425000Y-76035000D03*
X166750000Y-65035000D03*
X164050000Y-64185000D03*
X162792195Y-69366000D03*
X160250000Y-65035000D03*
X154250000Y-64885000D03*
X156000000Y-64885000D03*
%TO.N,VBUS*%
X148312500Y-57972500D03*
%TO.N,GND*%
X140400000Y-70110000D03*
X155140000Y-64835000D03*
%TO.N,VBUS*%
X153550000Y-57885000D03*
X149825000Y-56935000D03*
D16*
%TO.N,/SD_MODE*%
X170100000Y-69335000D03*
D15*
%TO.N,VBUS*%
X136660000Y-74370000D03*
D17*
%TO.N,/SD_MODE*%
X157465000Y-75898000D03*
D15*
%TO.N,VBUS*%
X137875000Y-68235000D03*
D17*
%TO.N,/INT1*%
X154665000Y-74298000D03*
D16*
%TO.N,/LRCLK*%
X174700000Y-70760000D03*
%TO.N,/SCK*%
X173150000Y-70335000D03*
D17*
%TO.N,/ISET*%
X157865000Y-75898000D03*
%TO.N,Net-(U6-GAIN_SLOT)*%
X175275000Y-71235000D03*
X174280000Y-69830000D03*
%TO.N,/I2C_SCL*%
X154665000Y-73498000D03*
D16*
%TO.N,Net-(U3D-XC1)*%
X161325000Y-69485000D03*
D17*
%TO.N,/I2C_SDA*%
X154665000Y-73898000D03*
D16*
%TO.N,VSYS*%
X144975000Y-57410000D03*
%TO.N,/D+*%
X154740000Y-69690000D03*
D17*
%TO.N,Net-(U3D-ANT)*%
X161412000Y-72098000D03*
D16*
%TO.N,/D-*%
X155065000Y-70298000D03*
%TO.N,Net-(U3A-DCCD)*%
X156430000Y-68680000D03*
%TO.N,Net-(U3D-XC1)*%
X164225000Y-66060000D03*
%TO.N,Net-(U3A-DECN)*%
X159125000Y-68185000D03*
%TO.N,Net-(U3A-DECD)*%
X157830000Y-64880000D03*
%TO.N,Net-(U3A-VBUS)*%
X152530000Y-62610000D03*
D17*
%TO.N,/INT2*%
X154665000Y-74698000D03*
D16*
%TO.N,Net-(U3A-DCCR)*%
X163925000Y-69335000D03*
X158637500Y-69222500D03*
D17*
%TO.N,Net-(U3D-ANT)*%
X161625000Y-72910000D03*
%TO.N,/SDOUT*%
X157465000Y-70298000D03*
D16*
%TO.N,/IRQ*%
X157025000Y-76785000D03*
%TO.N,/SDOUT*%
X173100000Y-69610000D03*
D17*
%TO.N,/SCK*%
X157865000Y-70298000D03*
D16*
%TO.N,Net-(U3A-DCCD)*%
X155940000Y-62990000D03*
D17*
%TO.N,/LRCLK*%
X157665000Y-69898000D03*
D16*
%TO.N,Net-(U3A-DECN)*%
X154790000Y-61200000D03*
%TO.N,/ISET*%
X146675000Y-61235000D03*
%TO.N,/IRQ*%
X141725000Y-79910000D03*
%TO.N,Net-(U3A-DECD)*%
X157275000Y-68485000D03*
%TO.N,VSYS*%
X147475000Y-57410000D03*
D15*
%TO.N,VDD*%
X159340000Y-63950000D03*
D16*
%TO.N,Net-(U3A-DECR)*%
X159820000Y-69340000D03*
D17*
%TO.N,VDD*%
X161510000Y-70898000D03*
D15*
X171240000Y-70810000D03*
D17*
X146960000Y-59840000D03*
D16*
X153450000Y-72050000D03*
X140275000Y-78710000D03*
X154760000Y-68300000D03*
X151800000Y-74435000D03*
X157825000Y-68735000D03*
X152430000Y-66435000D03*
%TO.N,Net-(U3A-DECR)*%
X162680000Y-71340000D03*
D17*
%TO.N,VDD*%
X159860000Y-70310000D03*
D16*
X162430000Y-72498000D03*
X156000000Y-69110000D03*
X153708000Y-75298000D03*
X142325000Y-78935000D03*
X154795000Y-79195000D03*
X172125000Y-83435000D03*
X162363000Y-75698000D03*
%TO.N,GND*%
X153540000Y-71300000D03*
D18*
X157665000Y-73098000D03*
D16*
X146450000Y-54075000D03*
D18*
X159300000Y-71670000D03*
D16*
X145800000Y-61010000D03*
X151425000Y-54135000D03*
D18*
X159290000Y-73090000D03*
D16*
X143175000Y-54060000D03*
%TO.N,VDD*%
X147575000Y-61360000D03*
D18*
%TO.N,GND*%
X156160000Y-73090000D03*
D17*
X147360000Y-60240000D03*
X146575000Y-60240000D03*
X156665000Y-70298000D03*
D18*
X159290000Y-74490000D03*
X156160000Y-71670000D03*
D16*
X148100000Y-60960000D03*
X149650000Y-54075000D03*
X153800000Y-73820000D03*
D18*
X157670000Y-74490000D03*
D17*
%TO.N,VDD*%
X149270000Y-63850000D03*
D18*
%TO.N,GND*%
X157680000Y-71670000D03*
X156160000Y-74490000D03*
D16*
%TO.N,Net-(U3A-DECR)*%
X161675000Y-71330000D03*
D15*
%TO.N,GND*%
X166025000Y-71660000D03*
X161793968Y-71815643D03*
D16*
%TO.N,Net-(U3A-VBUS)*%
X155180000Y-69230000D03*
D15*
%TO.N,GND*%
X161000000Y-61560000D03*
X139275000Y-67760000D03*
X165100000Y-79135000D03*
X166900000Y-79135000D03*
X140050000Y-61610000D03*
%TO.N,VDD*%
X147542500Y-65577500D03*
X91642500Y-65552500D03*
%TO.N,GND*%
X83375000Y-67735000D03*
X84150000Y-61585000D03*
X117500000Y-73460000D03*
X110125000Y-71635000D03*
X105893968Y-71790643D03*
X109200000Y-79110000D03*
X111000000Y-79110000D03*
X105100000Y-61535000D03*
X110850000Y-65010000D03*
X108150000Y-64160000D03*
X106892195Y-69341000D03*
X104350000Y-65010000D03*
X98350000Y-64860000D03*
X100100000Y-64860000D03*
X99240000Y-64810000D03*
%TO.N,VBUS*%
X97650000Y-57860000D03*
X93925000Y-56910000D03*
X80760000Y-74345000D03*
X92412500Y-57947500D03*
X81975000Y-68210000D03*
%TO.N,GND*%
X84525000Y-74310000D03*
X84500000Y-70085000D03*
X93525000Y-76010000D03*
%TO.N,+3.3V*%
X91300000Y-56610000D03*
X116525000Y-63385000D03*
X119450000Y-68660000D03*
X115375000Y-79510000D03*
X113850000Y-79510000D03*
D16*
X107725000Y-85210000D03*
%TO.N,GND*%
X100700000Y-85210000D03*
X105175000Y-85210000D03*
X112525000Y-85210000D03*
%TO.N,/SWDCLK*%
X113750000Y-83385000D03*
X105850000Y-74035000D03*
%TO.N,/SWDIO*%
X114950000Y-83860000D03*
X105875003Y-74835000D03*
%TO.N,/nRESET*%
X111250000Y-83785000D03*
X105425000Y-74835000D03*
%TO.N,/I2C_SCL*%
X93512500Y-72797500D03*
%TO.N,/I2C_SDA*%
X93550000Y-73485000D03*
X84625000Y-80860000D03*
%TO.N,/I2C_SCL*%
X84975000Y-80460000D03*
%TO.N,GND*%
X95250000Y-68910000D03*
%TO.N,VDD*%
X95995000Y-69705000D03*
%TO.N,/INT1*%
X87225000Y-65060000D03*
%TO.N,/INT2*%
X87175000Y-64485000D03*
X97000000Y-70535000D03*
%TO.N,/INT1*%
X97100000Y-71110000D03*
%TO.N,/I2C_SCL*%
X83975000Y-65535000D03*
%TO.N,VDD*%
X83950000Y-63835000D03*
X86900000Y-63785000D03*
%TO.N,/I2C_SDA*%
X85275000Y-66460000D03*
X86225000Y-66635000D03*
%TO.N,VDD*%
X85660000Y-68660000D03*
X86825000Y-67635000D03*
%TO.N,/I2C_SDA*%
X88000000Y-68260000D03*
%TO.N,/I2C_SCL*%
X88100000Y-66335000D03*
D17*
%TO.N,/RX*%
X97425000Y-76935000D03*
%TO.N,/TX*%
X97004000Y-76539000D03*
X98150000Y-84010000D03*
%TO.N,/RX*%
X99425000Y-83935000D03*
%TO.N,/TX*%
X98765000Y-72273000D03*
%TO.N,/RX*%
X98765000Y-72673000D03*
D16*
%TO.N,/D+*%
X93450000Y-58385000D03*
%TO.N,/D-*%
X80425000Y-71210000D03*
%TO.N,/D+*%
X80925000Y-72410000D03*
%TO.N,/D-*%
X92875000Y-58910000D03*
%TO.N,/D+*%
X93175000Y-59385000D03*
D15*
%TO.N,GND*%
X80475000Y-75160000D03*
X80100000Y-68060000D03*
X74725000Y-66835000D03*
X78655000Y-66835000D03*
X74725000Y-77055000D03*
X78655000Y-77055000D03*
D16*
X82275000Y-80360000D03*
X83550000Y-84385000D03*
X99325000Y-80360000D03*
X95950000Y-81910000D03*
%TO.N,/MIC_CLOCK*%
X104165000Y-77000000D03*
X95813600Y-80296400D03*
D17*
%TO.N,/MIC_DATA*%
X103965000Y-75873000D03*
D15*
X95425000Y-78085000D03*
%TO.N,GND*%
X116500000Y-61235000D03*
X119125000Y-62010000D03*
X119125000Y-67760000D03*
D18*
X101780000Y-71645000D03*
D16*
X87275000Y-54035000D03*
X97900000Y-73795000D03*
D18*
X101770000Y-74465000D03*
D17*
X91460000Y-60215000D03*
D16*
X93750000Y-54050000D03*
D18*
X100260000Y-74465000D03*
D17*
X100765000Y-70273000D03*
D18*
X100260000Y-73065000D03*
X103400000Y-71645000D03*
D16*
X92200000Y-60935000D03*
D18*
X100260000Y-71645000D03*
D16*
X95525000Y-54110000D03*
D18*
X103390000Y-74465000D03*
D16*
X90550000Y-54050000D03*
D17*
X90675000Y-60215000D03*
D18*
X101765000Y-73073000D03*
D16*
X97640000Y-71275000D03*
D18*
X103390000Y-73065000D03*
D16*
X89900000Y-60985000D03*
%TO.N,VDD*%
X91675000Y-61335000D03*
D17*
X93370000Y-63825000D03*
D16*
X106463000Y-75673000D03*
X95900000Y-74410000D03*
D17*
X103960000Y-70285000D03*
D15*
X103440000Y-63925000D03*
D16*
X96530000Y-66410000D03*
X100100000Y-69085000D03*
X106530000Y-72473000D03*
X101925000Y-68710000D03*
X98860000Y-68275000D03*
X97550000Y-72025000D03*
X84375000Y-78685000D03*
D17*
X91060000Y-59815000D03*
D16*
X116225000Y-83410000D03*
X98895000Y-79170000D03*
D15*
X115340000Y-70785000D03*
D16*
X86425000Y-78910000D03*
D17*
X105610000Y-70873000D03*
D16*
X97808000Y-75273000D03*
%TO.N,Net-(U3A-DECR)*%
X103920000Y-69315000D03*
X106780000Y-71315000D03*
X105775000Y-71305000D03*
%TO.N,Net-(U3A-VBUS)*%
X99280000Y-69205000D03*
X96630000Y-62585000D03*
%TO.N,Net-(U3A-DECD)*%
X101930000Y-64855000D03*
X101375000Y-68460000D03*
%TO.N,Net-(U3A-DECN)*%
X103225000Y-68160000D03*
X98890000Y-61175000D03*
D17*
%TO.N,Net-(U3D-ANT)*%
X105512000Y-72073000D03*
X105725000Y-72885000D03*
D16*
%TO.N,Net-(U3D-XC1)*%
X108325000Y-66035000D03*
X105425000Y-69460000D03*
%TO.N,Net-(U3A-DCCR)*%
X108025000Y-69310000D03*
X102737500Y-69197500D03*
%TO.N,Net-(U3A-DCCD)*%
X100530000Y-68655000D03*
X100040000Y-62965000D03*
%TO.N,/D-*%
X99165000Y-70273000D03*
%TO.N,/D+*%
X98840000Y-69665000D03*
%TO.N,VSYS*%
X91575000Y-57385000D03*
X89075000Y-57385000D03*
D17*
%TO.N,/I2C_SCL*%
X98765000Y-73473000D03*
%TO.N,/I2C_SDA*%
X98765000Y-73873000D03*
%TO.N,Net-(U6-GAIN_SLOT)*%
X118380000Y-69805000D03*
X119375000Y-71210000D03*
%TO.N,/INT2*%
X98765000Y-74673000D03*
D16*
%TO.N,/IRQ*%
X85825000Y-79885000D03*
X101125000Y-76760000D03*
D17*
%TO.N,/ISET*%
X101965000Y-75873000D03*
D16*
X90775000Y-61210000D03*
%TO.N,/SDOUT*%
X117200000Y-69585000D03*
D17*
X101565000Y-70273000D03*
D16*
%TO.N,/SCK*%
X117250000Y-70310000D03*
D17*
X101965000Y-70273000D03*
D16*
%TO.N,/LRCLK*%
X118800000Y-70735000D03*
D17*
X101765000Y-69873000D03*
%TO.N,/SD_MODE*%
X101565000Y-75873000D03*
D16*
X114200000Y-69310000D03*
D17*
%TO.N,/INT1*%
X98765000Y-74273000D03*
%TO.N,/TX*%
X96575000Y-77635000D03*
%TO.N,/RX*%
X96975000Y-78185000D03*
%TD*%
D19*
%TO.N,/A5*%
X119209005Y-99095000D02*
X123010000Y-99095000D01*
X115935000Y-94140000D02*
X115932000Y-94143000D01*
X115932000Y-94143000D02*
X115932000Y-95817995D01*
X115932000Y-95817995D02*
X119209005Y-99095000D01*
%TO.N,/B1*%
X125810000Y-100770000D02*
X128035000Y-98545000D01*
X120460000Y-100770000D02*
X125810000Y-100770000D01*
%TO.N,/B5*%
X128835000Y-98595000D02*
X128835000Y-94120000D01*
X126685000Y-100745000D02*
X128835000Y-98595000D01*
%TO.N,/A4*%
X116410000Y-95620000D02*
X121360000Y-95620000D01*
X121360000Y-95620000D02*
X123185000Y-93795000D01*
%TO.N,Net-(J2-Pin_1)*%
X147445000Y-93395000D02*
X147420000Y-93370000D01*
%TO.N,Net-(J2-Pin_3)*%
X161595000Y-93370000D02*
X155770000Y-93370000D01*
%TO.N,Net-(J2-Pin_1)*%
X151845000Y-93395000D02*
X147445000Y-93395000D01*
%TO.N,Net-(J2-Pin_3)*%
X161720000Y-93245000D02*
X161595000Y-93370000D01*
%TO.N,Net-(J2-Pin_1)*%
X90075000Y-93395000D02*
X90050000Y-93370000D01*
X94475000Y-93395000D02*
X90075000Y-93395000D01*
%TO.N,Net-(J2-Pin_3)*%
X104225000Y-93370000D02*
X98400000Y-93370000D01*
X104350000Y-93245000D02*
X104225000Y-93370000D01*
%TO.N,/D+*%
X151050000Y-66000000D02*
X154740000Y-69690000D01*
X151050000Y-59282358D02*
X151050000Y-66000000D01*
X149350000Y-58410000D02*
X150177642Y-58410000D01*
X150177642Y-58410000D02*
X151050000Y-59282358D01*
%TO.N,/D-*%
X155065000Y-70298000D02*
X154630189Y-70298000D01*
X149950000Y-58935000D02*
X148775000Y-58935000D01*
X150575000Y-59560000D02*
X149950000Y-58935000D01*
X150575000Y-66242811D02*
X150575000Y-59560000D01*
X154630189Y-70298000D02*
X150575000Y-66242811D01*
D20*
%TO.N,/SD_MODE*%
X158350000Y-76310000D02*
X161403950Y-73256050D01*
X162856000Y-72674455D02*
X162856000Y-72354000D01*
X161403950Y-73256050D02*
X161458900Y-73311000D01*
X162026000Y-72924000D02*
X162606455Y-72924000D01*
X162606455Y-72924000D02*
X162856000Y-72674455D01*
X157465000Y-76075000D02*
X157700000Y-76310000D01*
X162856000Y-72354000D02*
X165875000Y-69335000D01*
X165875000Y-69335000D02*
X170100000Y-69335000D01*
X157700000Y-76310000D02*
X158350000Y-76310000D01*
X161791100Y-73311000D02*
X162026000Y-73076100D01*
X162026000Y-73076100D02*
X162026000Y-72924000D01*
X157465000Y-75898000D02*
X157465000Y-76075000D01*
X161458900Y-73311000D02*
X161791100Y-73311000D01*
D21*
%TO.N,/SCK*%
X163030000Y-68934000D02*
X171749000Y-68934000D01*
X158862000Y-70298000D02*
X159412500Y-69747500D01*
X159653900Y-68939000D02*
X163025000Y-68939000D01*
X171749000Y-68934000D02*
X173150000Y-70335000D01*
D20*
%TO.N,Net-(U6-GAIN_SLOT)*%
X174280000Y-69830000D02*
X174372455Y-69830000D01*
D21*
%TO.N,/SCK*%
X163025000Y-68939000D02*
X163030000Y-68934000D01*
X159412500Y-69180400D02*
X159653900Y-68939000D01*
%TO.N,/SDOUT*%
X157465000Y-70298000D02*
X157289000Y-70122000D01*
D20*
%TO.N,Net-(U6-GAIN_SLOT)*%
X175275000Y-70732545D02*
X175275000Y-71235000D01*
D21*
%TO.N,/SDOUT*%
X159061138Y-69635000D02*
X159084500Y-69611638D01*
X157820745Y-69522000D02*
X157933745Y-69635000D01*
D20*
%TO.N,/ISET*%
X157865000Y-75185000D02*
X157865000Y-75898000D01*
D21*
%TO.N,/SDOUT*%
X157289000Y-70122000D02*
X157289000Y-69742255D01*
X159569038Y-68560000D02*
X172125000Y-68560000D01*
X157289000Y-69742255D02*
X157509255Y-69522000D01*
D20*
%TO.N,/ISET*%
X155607000Y-74719061D02*
X156072939Y-75185000D01*
D21*
%TO.N,/SDOUT*%
X157933745Y-69635000D02*
X159061138Y-69635000D01*
D20*
%TO.N,/ISET*%
X146675000Y-61235000D02*
X146675000Y-63610000D01*
X155607000Y-72542000D02*
X155607000Y-74719061D01*
X156072939Y-75185000D02*
X157865000Y-75185000D01*
D21*
%TO.N,/SCK*%
X157865000Y-70298000D02*
X158862000Y-70298000D01*
X159412500Y-69747500D02*
X159412500Y-69180400D01*
%TO.N,/SDOUT*%
X159084500Y-69044538D02*
X159569038Y-68560000D01*
D20*
%TO.N,Net-(U6-GAIN_SLOT)*%
X174372455Y-69830000D02*
X175275000Y-70732545D01*
D21*
%TO.N,/SDOUT*%
X157509255Y-69522000D02*
X157820745Y-69522000D01*
X173100000Y-69535000D02*
X173100000Y-69610000D01*
X172125000Y-68560000D02*
X173100000Y-69535000D01*
D20*
%TO.N,/ISET*%
X146675000Y-63610000D02*
X155607000Y-72542000D01*
D21*
%TO.N,/SDOUT*%
X159084500Y-69611638D02*
X159084500Y-69044538D01*
D20*
%TO.N,/MIC_CLOCK*%
X160075000Y-79810000D02*
X160075000Y-77040000D01*
X158125000Y-81760000D02*
X160075000Y-79810000D01*
%TO.N,/MIC_DATA*%
X159865000Y-75898000D02*
X159862000Y-75898000D01*
%TO.N,/MIC_CLOCK*%
X153152200Y-81760000D02*
X158125000Y-81760000D01*
%TO.N,/MIC_DATA*%
X151325000Y-79285000D02*
X151325000Y-78110000D01*
X153422000Y-81382000D02*
X151325000Y-79285000D01*
X159575000Y-79535000D02*
X157728000Y-81382000D01*
%TO.N,/MIC_CLOCK*%
X151713600Y-80321400D02*
X153152200Y-81760000D01*
%TO.N,/MIC_DATA*%
X159862000Y-75898000D02*
X159575000Y-76185000D01*
%TO.N,/MIC_CLOCK*%
X160075000Y-77040000D02*
X160060000Y-77025000D01*
%TO.N,/MIC_DATA*%
X159575000Y-76185000D02*
X159575000Y-79535000D01*
X157728000Y-81382000D02*
X153422000Y-81382000D01*
%TO.N,/MIC_CLOCK*%
X160060000Y-77025000D02*
X160065000Y-77025000D01*
%TO.N,Net-(U3A-DECR)*%
X162670000Y-71330000D02*
X162680000Y-71340000D01*
X162050000Y-70870900D02*
X162050000Y-71330000D01*
D21*
%TO.N,Net-(U3A-DCCD)*%
X155940000Y-63050000D02*
X156970000Y-64080000D01*
X155940000Y-62990000D02*
X155940000Y-63050000D01*
X156970000Y-64080000D02*
X156970000Y-68140000D01*
X156970000Y-68140000D02*
X156430000Y-68680000D01*
D20*
%TO.N,Net-(U3A-VBUS)*%
X152530000Y-62610000D02*
X152530000Y-64410000D01*
X154334000Y-66214000D02*
X154334000Y-68476455D01*
%TO.N,Net-(U3A-DECR)*%
X159820000Y-69340000D02*
X160519100Y-69340000D01*
D21*
%TO.N,Net-(U3A-DECD)*%
X157660000Y-68100000D02*
X157660000Y-68075000D01*
D20*
%TO.N,Net-(U3A-VBUS)*%
X155087545Y-69230000D02*
X155180000Y-69230000D01*
D21*
%TO.N,Net-(U3A-DECD)*%
X158190000Y-65240000D02*
X157830000Y-64880000D01*
D20*
%TO.N,Net-(U3A-DECR)*%
X162050000Y-71330000D02*
X162670000Y-71330000D01*
%TO.N,Net-(U3A-VBUS)*%
X154334000Y-68476455D02*
X155087545Y-69230000D01*
%TO.N,Net-(U3A-DECN)*%
X158560000Y-64970000D02*
X154790000Y-61200000D01*
%TO.N,Net-(U3A-DECR)*%
X160519100Y-69340000D02*
X162050000Y-70870900D01*
%TO.N,Net-(U3A-DECN)*%
X159125000Y-68185000D02*
X158560000Y-67620000D01*
D21*
%TO.N,Net-(U3A-DECD)*%
X157660000Y-68075000D02*
X158190000Y-67545000D01*
D20*
%TO.N,Net-(U3A-VBUS)*%
X152530000Y-64410000D02*
X154334000Y-66214000D01*
%TO.N,Net-(U3A-DECN)*%
X158560000Y-67620000D02*
X158560000Y-64970000D01*
D21*
%TO.N,Net-(U3A-DECD)*%
X158190000Y-67545000D02*
X158190000Y-65240000D01*
X157275000Y-68485000D02*
X157660000Y-68100000D01*
%TO.N,VDD*%
X160922000Y-70310000D02*
X161510000Y-70898000D01*
X159860000Y-70310000D02*
X160922000Y-70310000D01*
D20*
%TO.N,Net-(U3D-ANT)*%
X161425000Y-72710000D02*
X161625000Y-72910000D01*
X161412000Y-72098000D02*
X161425000Y-72111000D01*
X161425000Y-72111000D02*
X161425000Y-72710000D01*
%TO.N,Net-(U3A-DECR)*%
X161675000Y-71330000D02*
X162050000Y-71330000D01*
D19*
%TO.N,/D+*%
X137377284Y-64838000D02*
X136978497Y-65236787D01*
X136978497Y-68387780D02*
X136825000Y-68541277D01*
X136825000Y-68541277D02*
X136825000Y-72435000D01*
%TO.N,/D-*%
X137200000Y-64410000D02*
X136550000Y-65060000D01*
X140350994Y-64410000D02*
X137200000Y-64410000D01*
%TO.N,/D+*%
X145956279Y-59410000D02*
X140528277Y-64838000D01*
%TO.N,/D-*%
X148775000Y-58935000D02*
X145825995Y-58935000D01*
X136550497Y-68210497D02*
X136325000Y-68435995D01*
X136550000Y-65060000D02*
X136550000Y-65410000D01*
X145825995Y-58935000D02*
X140350994Y-64410000D01*
%TO.N,/D+*%
X136978497Y-65236787D02*
X136978497Y-68387780D01*
%TO.N,/D-*%
X136325000Y-68435995D02*
X136325000Y-71235000D01*
%TO.N,/D+*%
X149075000Y-59410000D02*
X145956279Y-59410000D01*
X140528277Y-64838000D02*
X137377284Y-64838000D01*
%TO.N,/D-*%
X136550000Y-65410000D02*
X136550497Y-65410497D01*
X136550497Y-65410497D02*
X136550497Y-68210497D01*
D20*
%TO.N,/I2C_SDA*%
X141950000Y-66485000D02*
X142125000Y-66660000D01*
X141175000Y-66485000D02*
X141950000Y-66485000D01*
X153436000Y-74246000D02*
X153025000Y-73835000D01*
X154665000Y-73898000D02*
X154362000Y-73898000D01*
X144225000Y-68285000D02*
X143900000Y-68285000D01*
%TO.N,/I2C_SCL*%
X144000000Y-67410000D02*
X149412500Y-72822500D01*
X144000000Y-66360000D02*
X144000000Y-67410000D01*
%TO.N,/I2C_SDA*%
X149775000Y-73835000D02*
X149450000Y-73510000D01*
%TO.N,/I2C_SCL*%
X154561000Y-73394000D02*
X154665000Y-73498000D01*
%TO.N,/I2C_SDA*%
X154362000Y-73898000D02*
X154014000Y-74246000D01*
X153025000Y-73835000D02*
X149775000Y-73835000D01*
%TO.N,/I2C_SCL*%
X149984000Y-73394000D02*
X154561000Y-73394000D01*
%TO.N,/I2C_SDA*%
X154014000Y-74246000D02*
X153436000Y-74246000D01*
%TO.N,/RX*%
X153075000Y-77210000D02*
X153325000Y-76960000D01*
X153075000Y-78010000D02*
X153075000Y-77210000D01*
X152875000Y-78210000D02*
X153075000Y-78010000D01*
%TO.N,/TX*%
X152475000Y-77660000D02*
X152675000Y-77460000D01*
X152675000Y-76793000D02*
X152904000Y-76564000D01*
X152675000Y-77460000D02*
X152675000Y-76793000D01*
%TO.N,/IRQ*%
X141725000Y-78660000D02*
X141725000Y-79910000D01*
X157025000Y-76785000D02*
X157625000Y-76785000D01*
X153649999Y-80960000D02*
X151875000Y-79185001D01*
X157625000Y-76785000D02*
X159025000Y-78185000D01*
X151025000Y-77560000D02*
X150700000Y-77885000D01*
X151875000Y-77935000D02*
X151500000Y-77560000D01*
X151500000Y-77560000D02*
X151025000Y-77560000D01*
X159025000Y-78185000D02*
X159025000Y-79385000D01*
X151875000Y-79185001D02*
X151875000Y-77935000D01*
X142500000Y-77885000D02*
X141725000Y-78660000D01*
X150700000Y-77885000D02*
X142500000Y-77885000D01*
X159025000Y-79385000D02*
X157450000Y-80960000D01*
X157450000Y-80960000D02*
X153649999Y-80960000D01*
%TO.N,/SWDIO*%
X168000000Y-83910000D02*
X170825000Y-83910000D01*
X161775003Y-77685003D02*
X168000000Y-83910000D01*
X170825000Y-83910000D02*
X170850000Y-83885000D01*
X161775003Y-74860000D02*
X161775003Y-77685003D01*
%TO.N,/SWDCLK*%
X162789000Y-78074000D02*
X168125000Y-83410000D01*
X161750000Y-74060000D02*
X162789000Y-75099000D01*
X162789000Y-75099000D02*
X162789000Y-78074000D01*
X168125000Y-83410000D02*
X169650000Y-83410000D01*
%TO.N,/nRESET*%
X161325000Y-77985000D02*
X167150000Y-83810000D01*
%TO.N,/INT2*%
X152900000Y-70560000D02*
X149725000Y-70560000D01*
%TO.N,/nRESET*%
X161325000Y-74860000D02*
X161325000Y-77985000D01*
%TO.N,/I2C_SCL*%
X149412500Y-72822500D02*
X149984000Y-73394000D01*
%TO.N,/I2C_SDA*%
X149450000Y-73510000D02*
X144225000Y-68285000D01*
%TO.N,/INT1*%
X153000000Y-71135000D02*
X152875000Y-71010000D01*
%TO.N,/INT2*%
X149725000Y-70560000D02*
X144650000Y-65485000D01*
X144650000Y-65485000D02*
X143675000Y-64510000D01*
%TO.N,/INT1*%
X143575000Y-65085000D02*
X143125000Y-65085000D01*
%TO.N,/INT2*%
X143675000Y-64510000D02*
X143075000Y-64510000D01*
%TO.N,/INT1*%
X152875000Y-71010000D02*
X149500000Y-71010000D01*
X149500000Y-71010000D02*
X143575000Y-65085000D01*
%TO.N,Net-(U3D-ANT)*%
X105525000Y-72685000D02*
X105725000Y-72885000D01*
X105525000Y-72086000D02*
X105525000Y-72685000D01*
X105512000Y-72073000D02*
X105525000Y-72086000D01*
%TO.N,Net-(U3A-DECR)*%
X105775000Y-71305000D02*
X106150000Y-71305000D01*
%TO.N,/SWDIO*%
X114925000Y-83885000D02*
X114950000Y-83860000D01*
X112100000Y-83885000D02*
X114925000Y-83885000D01*
X105875003Y-77660003D02*
X112100000Y-83885000D01*
X105875003Y-74835000D02*
X105875003Y-77660003D01*
%TO.N,/SWDCLK*%
X112225000Y-83385000D02*
X113750000Y-83385000D01*
X106889000Y-78049000D02*
X112225000Y-83385000D01*
X106889000Y-75074000D02*
X106889000Y-78049000D01*
X105850000Y-74035000D02*
X106889000Y-75074000D01*
%TO.N,/nRESET*%
X105425000Y-77960000D02*
X111250000Y-83785000D01*
X105425000Y-74835000D02*
X105425000Y-77960000D01*
%TO.N,/I2C_SCL*%
X93512500Y-72797500D02*
X94084000Y-73369000D01*
%TO.N,/I2C_SDA*%
X93550000Y-73485000D02*
X88325000Y-68260000D01*
%TO.N,/INT1*%
X87675000Y-65060000D02*
X87225000Y-65060000D01*
X93600000Y-70985000D02*
X87675000Y-65060000D01*
X96975000Y-70985000D02*
X93600000Y-70985000D01*
X97100000Y-71110000D02*
X96975000Y-70985000D01*
%TO.N,/INT2*%
X88750000Y-65460000D02*
X87775000Y-64485000D01*
X87775000Y-64485000D02*
X87175000Y-64485000D01*
X93825000Y-70535000D02*
X88750000Y-65460000D01*
X97000000Y-70535000D02*
X93825000Y-70535000D01*
D19*
%TO.N,/D+*%
X81078497Y-65211787D02*
X81078497Y-68362780D01*
X81477284Y-64813000D02*
X81078497Y-65211787D01*
X81078497Y-68362780D02*
X80925000Y-68516277D01*
X80925000Y-68516277D02*
X80925000Y-72410000D01*
X90056279Y-59385000D02*
X84628277Y-64813000D01*
X93175000Y-59385000D02*
X90056279Y-59385000D01*
X84628277Y-64813000D02*
X81477284Y-64813000D01*
%TO.N,/D-*%
X80425000Y-68410995D02*
X80425000Y-71210000D01*
X80650497Y-65385497D02*
X80650497Y-68185497D01*
X80650497Y-68185497D02*
X80425000Y-68410995D01*
X80650000Y-65385000D02*
X80650497Y-65385497D01*
X84450994Y-64385000D02*
X81300000Y-64385000D01*
X81300000Y-64385000D02*
X80650000Y-65035000D01*
X89925995Y-58910000D02*
X84450994Y-64385000D01*
X80650000Y-65035000D02*
X80650000Y-65385000D01*
X92875000Y-58910000D02*
X89925995Y-58910000D01*
D20*
%TO.N,/I2C_SDA*%
X85275000Y-66460000D02*
X86050000Y-66460000D01*
X86050000Y-66460000D02*
X86225000Y-66635000D01*
X88325000Y-68260000D02*
X88000000Y-68260000D01*
X93875000Y-73810000D02*
X93550000Y-73485000D01*
X98114000Y-74221000D02*
X97536000Y-74221000D01*
X97536000Y-74221000D02*
X97125000Y-73810000D01*
X98765000Y-73873000D02*
X98462000Y-73873000D01*
X98462000Y-73873000D02*
X98114000Y-74221000D01*
X97125000Y-73810000D02*
X93875000Y-73810000D01*
%TO.N,/I2C_SCL*%
X98661000Y-73369000D02*
X98765000Y-73473000D01*
X94084000Y-73369000D02*
X98661000Y-73369000D01*
X88100000Y-67385000D02*
X93512500Y-72797500D01*
X88100000Y-66335000D02*
X88100000Y-67385000D01*
%TO.N,/RX*%
X97175000Y-77185000D02*
X97425000Y-76935000D01*
X97175000Y-77985000D02*
X97175000Y-77185000D01*
X96975000Y-78185000D02*
X97175000Y-77985000D01*
%TO.N,/TX*%
X96775000Y-77435000D02*
X96775000Y-76768000D01*
X96775000Y-76768000D02*
X97004000Y-76539000D01*
X96575000Y-77635000D02*
X96775000Y-77435000D01*
%TO.N,/IRQ*%
X85825000Y-78635000D02*
X85825000Y-79885000D01*
X94800000Y-77860000D02*
X86600000Y-77860000D01*
X86600000Y-77860000D02*
X85825000Y-78635000D01*
X95125000Y-77535000D02*
X94800000Y-77860000D01*
X95600000Y-77535000D02*
X95125000Y-77535000D01*
X95975000Y-79160001D02*
X95975000Y-77910000D01*
X95975000Y-77910000D02*
X95600000Y-77535000D01*
X103125000Y-79360000D02*
X101550000Y-80935000D01*
X101550000Y-80935000D02*
X97749999Y-80935000D01*
X103125000Y-78160000D02*
X103125000Y-79360000D01*
X101725000Y-76760000D02*
X103125000Y-78160000D01*
X97749999Y-80935000D02*
X95975000Y-79160001D01*
X101125000Y-76760000D02*
X101725000Y-76760000D01*
%TO.N,/MIC_DATA*%
X95425000Y-79260000D02*
X95425000Y-78085000D01*
X97522000Y-81357000D02*
X95425000Y-79260000D01*
X103675000Y-79510000D02*
X101828000Y-81357000D01*
X103962000Y-75873000D02*
X103675000Y-76160000D01*
X103675000Y-76160000D02*
X103675000Y-79510000D01*
X103965000Y-75873000D02*
X103962000Y-75873000D01*
X101828000Y-81357000D02*
X97522000Y-81357000D01*
%TO.N,/MIC_CLOCK*%
X104160000Y-77000000D02*
X104165000Y-77000000D01*
X104175000Y-77015000D02*
X104160000Y-77000000D01*
X104175000Y-79785000D02*
X104175000Y-77015000D01*
X102225000Y-81735000D02*
X104175000Y-79785000D01*
X97252200Y-81735000D02*
X102225000Y-81735000D01*
X95813600Y-80296400D02*
X97252200Y-81735000D01*
D19*
%TO.N,/D+*%
X95150000Y-65975000D02*
X98840000Y-69665000D01*
X95150000Y-59257358D02*
X95150000Y-65975000D01*
X94277642Y-58385000D02*
X95150000Y-59257358D01*
X93450000Y-58385000D02*
X94277642Y-58385000D01*
%TO.N,/D-*%
X94050000Y-58910000D02*
X92875000Y-58910000D01*
X94675000Y-59535000D02*
X94050000Y-58910000D01*
X94675000Y-66217811D02*
X94675000Y-59535000D01*
X98730189Y-70273000D02*
X94675000Y-66217811D01*
X99165000Y-70273000D02*
X98730189Y-70273000D01*
D21*
%TO.N,VDD*%
X103960000Y-70285000D02*
X105022000Y-70285000D01*
X105022000Y-70285000D02*
X105610000Y-70873000D01*
D20*
%TO.N,Net-(U3A-DECR)*%
X106150000Y-70845900D02*
X106150000Y-71305000D01*
X106770000Y-71305000D02*
X106780000Y-71315000D01*
X104619100Y-69315000D02*
X106150000Y-70845900D01*
X103920000Y-69315000D02*
X104619100Y-69315000D01*
X106150000Y-71305000D02*
X106770000Y-71305000D01*
%TO.N,Net-(U3A-VBUS)*%
X98434000Y-68451455D02*
X99187545Y-69205000D01*
X96630000Y-62585000D02*
X96630000Y-64385000D01*
X98434000Y-66189000D02*
X98434000Y-68451455D01*
X99187545Y-69205000D02*
X99280000Y-69205000D01*
X96630000Y-64385000D02*
X98434000Y-66189000D01*
D21*
%TO.N,Net-(U3A-DECD)*%
X101375000Y-68460000D02*
X101760000Y-68075000D01*
X101760000Y-68050000D02*
X102290000Y-67520000D01*
X101760000Y-68075000D02*
X101760000Y-68050000D01*
X102290000Y-65215000D02*
X101930000Y-64855000D01*
X102290000Y-67520000D02*
X102290000Y-65215000D01*
D20*
%TO.N,Net-(U3A-DECN)*%
X102660000Y-64945000D02*
X98890000Y-61175000D01*
X102660000Y-67595000D02*
X102660000Y-64945000D01*
X103225000Y-68160000D02*
X102660000Y-67595000D01*
D21*
%TO.N,Net-(U3A-DCCD)*%
X100040000Y-62965000D02*
X100040000Y-63025000D01*
X101070000Y-68115000D02*
X100530000Y-68655000D01*
X100040000Y-63025000D02*
X101070000Y-64055000D01*
X101070000Y-64055000D02*
X101070000Y-68115000D01*
D20*
%TO.N,Net-(U6-GAIN_SLOT)*%
X118472455Y-69805000D02*
X119375000Y-70707545D01*
X119375000Y-70707545D02*
X119375000Y-71210000D01*
X118380000Y-69805000D02*
X118472455Y-69805000D01*
%TO.N,/ISET*%
X99707000Y-74694061D02*
X100172939Y-75160000D01*
X90775000Y-63585000D02*
X99707000Y-72517000D01*
X99707000Y-72517000D02*
X99707000Y-74694061D01*
X90775000Y-61210000D02*
X90775000Y-63585000D01*
X101965000Y-75160000D02*
X101965000Y-75873000D01*
X100172939Y-75160000D02*
X101965000Y-75160000D01*
D21*
%TO.N,/SDOUT*%
X103184500Y-69586638D02*
X103184500Y-69019538D01*
X116225000Y-68535000D02*
X117200000Y-69510000D01*
X103669038Y-68535000D02*
X116225000Y-68535000D01*
X102033745Y-69610000D02*
X103161138Y-69610000D01*
X117200000Y-69510000D02*
X117200000Y-69585000D01*
X101389000Y-69717255D02*
X101609255Y-69497000D01*
X101389000Y-70097000D02*
X101389000Y-69717255D01*
X101920745Y-69497000D02*
X102033745Y-69610000D01*
X103161138Y-69610000D02*
X103184500Y-69586638D01*
X101609255Y-69497000D02*
X101920745Y-69497000D01*
X103184500Y-69019538D02*
X103669038Y-68535000D01*
X101565000Y-70273000D02*
X101389000Y-70097000D01*
%TO.N,/SCK*%
X103512500Y-69722500D02*
X103512500Y-69155400D01*
X103512500Y-69155400D02*
X103753900Y-68914000D01*
X107125000Y-68914000D02*
X107130000Y-68909000D01*
X115849000Y-68909000D02*
X117250000Y-70310000D01*
X103753900Y-68914000D02*
X107125000Y-68914000D01*
X102962000Y-70273000D02*
X103512500Y-69722500D01*
X101965000Y-70273000D02*
X102962000Y-70273000D01*
X107130000Y-68909000D02*
X115849000Y-68909000D01*
D20*
%TO.N,/SD_MODE*%
X109975000Y-69310000D02*
X114200000Y-69310000D01*
X106956000Y-72649455D02*
X106956000Y-72329000D01*
X102450000Y-76285000D02*
X105503950Y-73231050D01*
X101800000Y-76285000D02*
X102450000Y-76285000D01*
X105503950Y-73231050D02*
X105558900Y-73286000D01*
X106956000Y-72329000D02*
X109975000Y-69310000D01*
X105558900Y-73286000D02*
X105891100Y-73286000D01*
X101565000Y-75873000D02*
X101565000Y-76050000D01*
X106706455Y-72899000D02*
X106956000Y-72649455D01*
X101565000Y-76050000D02*
X101800000Y-76285000D01*
X106126000Y-73051100D02*
X106126000Y-72899000D01*
X105891100Y-73286000D02*
X106126000Y-73051100D01*
X106126000Y-72899000D02*
X106706455Y-72899000D01*
%TD*%
M02*
