%TF.GenerationSoftware,KiCad,Pcbnew,9.0.7*%
%TF.CreationDate,2026-07-19T17:18:16+02:00*%
%TF.ProjectId,MSBE_V3,4d534245-5f56-4332-9e6b-696361645f70,rev?*%
%TF.SameCoordinates,Original*%
%TF.FileFunction,Copper,L3,Inr*%
%TF.FilePolarity,Positive*%
%FSLAX46Y46*%
G04 Gerber Fmt 4.6, Leading zero omitted, Abs format (unit mm)*
G04 Created by KiCad (PCBNEW 9.0.7) date 2026-07-19 17:18:16*
%MOMM*%
%LPD*%
G01*
G04 APERTURE LIST*
%TA.AperFunction,ComponentPad*%
%ADD10R,0.900000X0.500000*%
%TD*%
%TA.AperFunction,ComponentPad*%
%ADD11R,1.700000X1.700000*%
%TD*%
%TA.AperFunction,ComponentPad*%
%ADD12C,1.700000*%
%TD*%
%TA.AperFunction,ViaPad*%
%ADD13C,0.500000*%
%TD*%
%TA.AperFunction,ViaPad*%
%ADD14C,0.400000*%
%TD*%
%TA.AperFunction,ViaPad*%
%ADD15C,0.300000*%
%TD*%
%TA.AperFunction,ViaPad*%
%ADD16C,0.250000*%
%TD*%
%TA.AperFunction,ViaPad*%
%ADD17C,0.600000*%
%TD*%
%TA.AperFunction,Conductor*%
%ADD18C,0.500000*%
%TD*%
%TA.AperFunction,Conductor*%
%ADD19C,0.200000*%
%TD*%
%TA.AperFunction,Conductor*%
%ADD20C,0.300000*%
%TD*%
%TA.AperFunction,Conductor*%
%ADD21C,0.250000*%
%TD*%
G04 APERTURE END LIST*
D10*
%TO.N,GND*%
%TO.C,AE1*%
X170460000Y-59160000D03*
%TD*%
%TO.N,GND*%
%TO.C,AE1*%
X114560000Y-59135000D03*
%TD*%
D11*
%TO.N,/B5*%
%TO.C,J9*%
X133510000Y-91590000D03*
D12*
%TO.N,/B4*%
X133510000Y-94130000D03*
%TO.N,/B3*%
X133510000Y-96670000D03*
%TO.N,/B2*%
X133510000Y-99210000D03*
%TO.N,/B1*%
X133510000Y-101750000D03*
%TD*%
D13*
%TO.N,*%
X138570000Y-93265000D03*
X138570000Y-90945000D03*
X138570000Y-90945000D03*
X138570000Y-92685000D03*
X135840000Y-93265000D03*
X135840000Y-92105000D03*
X135840000Y-90945000D03*
X135840000Y-92685000D03*
X135840000Y-93265000D03*
X135840000Y-91525000D03*
X138570000Y-91525000D03*
X138570000Y-92105000D03*
X113085000Y-91525000D03*
X113085000Y-93265000D03*
X113085000Y-90945000D03*
X113085000Y-92105000D03*
X113085000Y-90945000D03*
X113085000Y-92685000D03*
X111600000Y-92685000D03*
X111600000Y-90945000D03*
X111600000Y-93265000D03*
X111600000Y-92105000D03*
X111600000Y-93265000D03*
X111600000Y-91525000D03*
X116690000Y-87295000D03*
X114950000Y-87295000D03*
X115530000Y-87295000D03*
X116110000Y-87295000D03*
X115530000Y-89245000D03*
X114370000Y-89245000D03*
X116690000Y-89245000D03*
X116110000Y-89245000D03*
X116690000Y-89245000D03*
X114370000Y-87295000D03*
X114370000Y-87295000D03*
X114950000Y-89245000D03*
X134430000Y-87325000D03*
X132690000Y-87325000D03*
X133270000Y-87325000D03*
X133850000Y-87325000D03*
X133270000Y-89275000D03*
X132110000Y-89275000D03*
X134430000Y-89275000D03*
X133850000Y-89275000D03*
X134430000Y-89275000D03*
X132110000Y-87325000D03*
X132110000Y-87325000D03*
X132690000Y-89275000D03*
X164320000Y-87325000D03*
X162580000Y-87325000D03*
X163160000Y-87325000D03*
X163740000Y-87325000D03*
X163160000Y-89275000D03*
X162000000Y-89275000D03*
X164320000Y-89275000D03*
X163740000Y-89275000D03*
X164320000Y-89275000D03*
X162000000Y-87325000D03*
X162000000Y-87325000D03*
X162580000Y-89275000D03*
X149050000Y-87319540D03*
X147310000Y-87319540D03*
X147890000Y-87319540D03*
X148470000Y-87319540D03*
X147890000Y-89269540D03*
X146730000Y-89269540D03*
X149050000Y-89269540D03*
X148470000Y-89269540D03*
X149050000Y-89269540D03*
X146730000Y-87319540D03*
X146730000Y-87319540D03*
X147310000Y-89269540D03*
X105590000Y-87295000D03*
X103850000Y-87295000D03*
X104430000Y-87295000D03*
X105010000Y-87295000D03*
X104430000Y-89245000D03*
X103270000Y-89245000D03*
X105590000Y-89245000D03*
X105010000Y-89245000D03*
X105590000Y-89245000D03*
X103270000Y-87295000D03*
X103270000Y-87295000D03*
X103850000Y-89245000D03*
X86260000Y-87295000D03*
X88000000Y-87295000D03*
X85680000Y-87295000D03*
X86840000Y-87295000D03*
X85680000Y-87295000D03*
X87420000Y-87295000D03*
X87420000Y-89245000D03*
X85680000Y-89245000D03*
X88000000Y-89245000D03*
X86840000Y-89245000D03*
X88000000Y-89245000D03*
X86260000Y-89245000D03*
X121370000Y-78470000D03*
X121370000Y-79630000D03*
X121370000Y-79050000D03*
X121370000Y-77890000D03*
X121370000Y-79630000D03*
X121370000Y-77310000D03*
X127550000Y-78470000D03*
X127550000Y-77310000D03*
X127550000Y-77890000D03*
X127550000Y-79050000D03*
X127550000Y-77310000D03*
X127550000Y-79630000D03*
X127550000Y-61235000D03*
X127550000Y-60075000D03*
X127550000Y-60655000D03*
X127550000Y-61815000D03*
X127550000Y-60075000D03*
X127550000Y-62395000D03*
X121370000Y-60075000D03*
X121370000Y-62395000D03*
X121370000Y-60655000D03*
X121370000Y-61815000D03*
X121370000Y-62395000D03*
X121370000Y-61235000D03*
D14*
%TO.N,/B1*%
X128035000Y-98545000D03*
X120460000Y-100770000D03*
%TO.N,/B5*%
X128835000Y-94120000D03*
X126685000Y-100745000D03*
%TO.N,/A5*%
X123010000Y-99095000D03*
X115935000Y-94140000D03*
%TO.N,/A4*%
X123185000Y-93795000D03*
X116410000Y-95620000D03*
%TO.N,Net-(J2-Pin_1)*%
X147420000Y-93370000D03*
%TO.N,Net-(J2-Pin_2)*%
X153795000Y-93370000D03*
%TO.N,Net-(J2-Pin_3)*%
X161720000Y-93245000D03*
%TO.N,Net-(J2-Pin_1)*%
X90050000Y-93370000D03*
%TO.N,Net-(J2-Pin_2)*%
X96425000Y-93370000D03*
%TO.N,Net-(J2-Pin_3)*%
X104350000Y-93245000D03*
%TO.N,+3.3V*%
X171275000Y-79535000D03*
%TO.N,GND*%
X173400000Y-73485000D03*
D15*
%TO.N,/I2C_SDA*%
X140525000Y-80885000D03*
%TO.N,GND*%
X161075000Y-85235000D03*
D14*
%TO.N,+3.3V*%
X147200000Y-56635000D03*
X172425000Y-63410000D03*
X175350000Y-68685000D03*
X169750000Y-79535000D03*
D15*
X163625000Y-85235000D03*
%TO.N,GND*%
X156600000Y-85235000D03*
%TO.N,/nRESET*%
X161325000Y-74860000D03*
%TO.N,GND*%
X151150000Y-68935000D03*
%TO.N,/SWDIO*%
X170850000Y-83885000D03*
%TO.N,/I2C_SCL*%
X149412500Y-72822500D03*
%TO.N,GND*%
X168425000Y-85235000D03*
%TO.N,/SWDIO*%
X161775003Y-74860000D03*
%TO.N,/SWDCLK*%
X169650000Y-83410000D03*
X161750000Y-74060000D03*
%TO.N,/nRESET*%
X167150000Y-83810000D03*
%TO.N,/I2C_SCL*%
X140875000Y-80485000D03*
%TO.N,/I2C_SDA*%
X149450000Y-73510000D03*
%TO.N,/INT1*%
X143125000Y-65085000D03*
%TO.N,/INT2*%
X143075000Y-64510000D03*
%TO.N,VDD*%
X142800000Y-63810000D03*
%TO.N,/I2C_SDA*%
X142125000Y-66660000D03*
D16*
%TO.N,/TX*%
X152904000Y-76564000D03*
D15*
%TO.N,VDD*%
X141560000Y-68685000D03*
%TO.N,/I2C_SCL*%
X144000000Y-66360000D03*
%TO.N,/INT1*%
X153000000Y-71135000D03*
%TO.N,/I2C_SCL*%
X139875000Y-65560000D03*
%TO.N,VDD*%
X142725000Y-67660000D03*
D16*
%TO.N,/RX*%
X153325000Y-76960000D03*
D15*
%TO.N,/INT2*%
X152900000Y-70560000D03*
D16*
%TO.N,/TX*%
X154050000Y-84035000D03*
D15*
%TO.N,/I2C_SDA*%
X143900000Y-68285000D03*
X141175000Y-66485000D03*
%TO.N,VDD*%
X139850000Y-63860000D03*
X151895000Y-69730000D03*
D16*
%TO.N,/TX*%
X152475000Y-77660000D03*
X154665000Y-72298000D03*
%TO.N,/RX*%
X154665000Y-72698000D03*
D15*
%TO.N,/D-*%
X136325000Y-71235000D03*
%TO.N,/D+*%
X149075000Y-59410000D03*
D16*
%TO.N,/MIC_DATA*%
X159865000Y-75898000D03*
D14*
%TO.N,GND*%
X136000000Y-68085000D03*
X172400000Y-61260000D03*
D15*
X138175000Y-80385000D03*
X139450000Y-84410000D03*
D14*
X175025000Y-67785000D03*
X134555000Y-66860000D03*
D15*
%TO.N,/MIC_CLOCK*%
X160065000Y-77025000D03*
D14*
%TO.N,GND*%
X130625000Y-77080000D03*
D16*
%TO.N,/RX*%
X152875000Y-78210000D03*
D15*
%TO.N,/D+*%
X136825000Y-72435000D03*
D14*
%TO.N,GND*%
X175025000Y-62035000D03*
D16*
%TO.N,/RX*%
X155325000Y-83960000D03*
D14*
%TO.N,GND*%
X134555000Y-77080000D03*
D15*
X155225000Y-80385000D03*
%TO.N,/D+*%
X149350000Y-58410000D03*
D14*
%TO.N,GND*%
X130625000Y-66860000D03*
%TO.N,/MIC_DATA*%
X151325000Y-78110000D03*
D15*
%TO.N,GND*%
X151850000Y-81935000D03*
%TO.N,/MIC_CLOCK*%
X151713600Y-80321400D03*
%TO.N,/D-*%
X148775000Y-58935000D03*
D14*
%TO.N,GND*%
X136375000Y-75185000D03*
X140425000Y-74335000D03*
X149425000Y-76035000D03*
X166750000Y-65035000D03*
X164050000Y-64185000D03*
X162792195Y-69366000D03*
X160250000Y-65035000D03*
X154250000Y-64885000D03*
X156000000Y-64885000D03*
%TO.N,VBUS*%
X148312500Y-57972500D03*
%TO.N,GND*%
X140400000Y-70110000D03*
X155140000Y-64835000D03*
%TO.N,VBUS*%
X153550000Y-57885000D03*
X149825000Y-56935000D03*
D15*
%TO.N,/SD_MODE*%
X170100000Y-69335000D03*
D14*
%TO.N,VBUS*%
X136660000Y-74370000D03*
D16*
%TO.N,/SD_MODE*%
X157465000Y-75898000D03*
D14*
%TO.N,VBUS*%
X137875000Y-68235000D03*
D16*
%TO.N,/INT1*%
X154665000Y-74298000D03*
D15*
%TO.N,/LRCLK*%
X174700000Y-70760000D03*
%TO.N,/SCK*%
X173150000Y-70335000D03*
D16*
%TO.N,/ISET*%
X157865000Y-75898000D03*
%TO.N,Net-(U6-GAIN_SLOT)*%
X175275000Y-71235000D03*
X174280000Y-69830000D03*
%TO.N,/I2C_SCL*%
X154665000Y-73498000D03*
D15*
%TO.N,Net-(U3D-XC1)*%
X161325000Y-69485000D03*
D16*
%TO.N,/I2C_SDA*%
X154665000Y-73898000D03*
D15*
%TO.N,VSYS*%
X144975000Y-57410000D03*
%TO.N,/D+*%
X154740000Y-69690000D03*
D16*
%TO.N,Net-(U3D-ANT)*%
X161412000Y-72098000D03*
D15*
%TO.N,/D-*%
X155065000Y-70298000D03*
%TO.N,Net-(U3A-DCCD)*%
X156430000Y-68680000D03*
%TO.N,Net-(U3D-XC1)*%
X164225000Y-66060000D03*
%TO.N,Net-(U3A-DECN)*%
X159125000Y-68185000D03*
%TO.N,Net-(U3A-DECD)*%
X157830000Y-64880000D03*
%TO.N,Net-(U3A-VBUS)*%
X152530000Y-62610000D03*
D16*
%TO.N,/INT2*%
X154665000Y-74698000D03*
D15*
%TO.N,Net-(U3A-DCCR)*%
X163925000Y-69335000D03*
X158637500Y-69222500D03*
D16*
%TO.N,Net-(U3D-ANT)*%
X161625000Y-72910000D03*
%TO.N,/SDOUT*%
X157465000Y-70298000D03*
D15*
%TO.N,/IRQ*%
X157025000Y-76785000D03*
%TO.N,/SDOUT*%
X173100000Y-69610000D03*
D16*
%TO.N,/SCK*%
X157865000Y-70298000D03*
D15*
%TO.N,Net-(U3A-DCCD)*%
X155940000Y-62990000D03*
D16*
%TO.N,/LRCLK*%
X157665000Y-69898000D03*
D15*
%TO.N,Net-(U3A-DECN)*%
X154790000Y-61200000D03*
%TO.N,/ISET*%
X146675000Y-61235000D03*
%TO.N,/IRQ*%
X141725000Y-79910000D03*
%TO.N,Net-(U3A-DECD)*%
X157275000Y-68485000D03*
%TO.N,VSYS*%
X147475000Y-57410000D03*
D14*
%TO.N,VDD*%
X159340000Y-63950000D03*
D15*
%TO.N,Net-(U3A-DECR)*%
X159820000Y-69340000D03*
D16*
%TO.N,VDD*%
X161510000Y-70898000D03*
D14*
X171240000Y-70810000D03*
D16*
X146960000Y-59840000D03*
D15*
X153450000Y-72050000D03*
X140275000Y-78710000D03*
X154760000Y-68300000D03*
X151800000Y-74435000D03*
X157825000Y-68735000D03*
X152430000Y-66435000D03*
%TO.N,Net-(U3A-DECR)*%
X162680000Y-71340000D03*
D16*
%TO.N,VDD*%
X159860000Y-70310000D03*
D15*
X162430000Y-72498000D03*
X156000000Y-69110000D03*
X153708000Y-75298000D03*
X142325000Y-78935000D03*
X154795000Y-79195000D03*
X172125000Y-83435000D03*
X162363000Y-75698000D03*
%TO.N,GND*%
X153540000Y-71300000D03*
D17*
X157665000Y-73098000D03*
D15*
X146450000Y-54075000D03*
D17*
X159300000Y-71670000D03*
D15*
X145800000Y-61010000D03*
X151425000Y-54135000D03*
D17*
X159290000Y-73090000D03*
D15*
X143175000Y-54060000D03*
%TO.N,VDD*%
X147575000Y-61360000D03*
D17*
%TO.N,GND*%
X156160000Y-73090000D03*
D16*
X147360000Y-60240000D03*
X146575000Y-60240000D03*
X156665000Y-70298000D03*
D17*
X159290000Y-74490000D03*
X156160000Y-71670000D03*
D15*
X148100000Y-60960000D03*
X149650000Y-54075000D03*
X153800000Y-73820000D03*
D17*
X157670000Y-74490000D03*
D16*
%TO.N,VDD*%
X149270000Y-63850000D03*
D17*
%TO.N,GND*%
X157680000Y-71670000D03*
X156160000Y-74490000D03*
D15*
%TO.N,Net-(U3A-DECR)*%
X161675000Y-71330000D03*
D14*
%TO.N,GND*%
X166025000Y-71660000D03*
X161793968Y-71815643D03*
D15*
%TO.N,Net-(U3A-VBUS)*%
X155180000Y-69230000D03*
D14*
%TO.N,GND*%
X161000000Y-61560000D03*
X139275000Y-67760000D03*
X165100000Y-79135000D03*
X166900000Y-79135000D03*
X140050000Y-61610000D03*
%TO.N,VDD*%
X147542500Y-65577500D03*
X91642500Y-65552500D03*
%TO.N,GND*%
X83375000Y-67735000D03*
X84150000Y-61585000D03*
X117500000Y-73460000D03*
X110125000Y-71635000D03*
X105893968Y-71790643D03*
X109200000Y-79110000D03*
X111000000Y-79110000D03*
X105100000Y-61535000D03*
X110850000Y-65010000D03*
X108150000Y-64160000D03*
X106892195Y-69341000D03*
X104350000Y-65010000D03*
X98350000Y-64860000D03*
X100100000Y-64860000D03*
X99240000Y-64810000D03*
%TO.N,VBUS*%
X97650000Y-57860000D03*
X93925000Y-56910000D03*
X80760000Y-74345000D03*
X92412500Y-57947500D03*
X81975000Y-68210000D03*
%TO.N,GND*%
X84525000Y-74310000D03*
X84500000Y-70085000D03*
X93525000Y-76010000D03*
%TO.N,+3.3V*%
X91300000Y-56610000D03*
X116525000Y-63385000D03*
X119450000Y-68660000D03*
X115375000Y-79510000D03*
X113850000Y-79510000D03*
D15*
X107725000Y-85210000D03*
%TO.N,GND*%
X100700000Y-85210000D03*
X105175000Y-85210000D03*
X112525000Y-85210000D03*
%TO.N,/SWDCLK*%
X113750000Y-83385000D03*
X105850000Y-74035000D03*
%TO.N,/SWDIO*%
X114950000Y-83860000D03*
X105875003Y-74835000D03*
%TO.N,/nRESET*%
X111250000Y-83785000D03*
X105425000Y-74835000D03*
%TO.N,/I2C_SCL*%
X93512500Y-72797500D03*
%TO.N,/I2C_SDA*%
X93550000Y-73485000D03*
X84625000Y-80860000D03*
%TO.N,/I2C_SCL*%
X84975000Y-80460000D03*
%TO.N,GND*%
X95250000Y-68910000D03*
%TO.N,VDD*%
X95995000Y-69705000D03*
%TO.N,/INT1*%
X87225000Y-65060000D03*
%TO.N,/INT2*%
X87175000Y-64485000D03*
X97000000Y-70535000D03*
%TO.N,/INT1*%
X97100000Y-71110000D03*
%TO.N,/I2C_SCL*%
X83975000Y-65535000D03*
%TO.N,VDD*%
X83950000Y-63835000D03*
X86900000Y-63785000D03*
%TO.N,/I2C_SDA*%
X85275000Y-66460000D03*
X86225000Y-66635000D03*
%TO.N,VDD*%
X85660000Y-68660000D03*
X86825000Y-67635000D03*
%TO.N,/I2C_SDA*%
X88000000Y-68260000D03*
%TO.N,/I2C_SCL*%
X88100000Y-66335000D03*
D16*
%TO.N,/RX*%
X97425000Y-76935000D03*
%TO.N,/TX*%
X97004000Y-76539000D03*
X98150000Y-84010000D03*
%TO.N,/RX*%
X99425000Y-83935000D03*
%TO.N,/TX*%
X98765000Y-72273000D03*
%TO.N,/RX*%
X98765000Y-72673000D03*
D15*
%TO.N,/D+*%
X93450000Y-58385000D03*
%TO.N,/D-*%
X80425000Y-71210000D03*
%TO.N,/D+*%
X80925000Y-72410000D03*
%TO.N,/D-*%
X92875000Y-58910000D03*
%TO.N,/D+*%
X93175000Y-59385000D03*
D14*
%TO.N,GND*%
X80475000Y-75160000D03*
X80100000Y-68060000D03*
X74725000Y-66835000D03*
X78655000Y-66835000D03*
X74725000Y-77055000D03*
X78655000Y-77055000D03*
D15*
X82275000Y-80360000D03*
X83550000Y-84385000D03*
X99325000Y-80360000D03*
X95950000Y-81910000D03*
%TO.N,/MIC_CLOCK*%
X104165000Y-77000000D03*
X95813600Y-80296400D03*
D16*
%TO.N,/MIC_DATA*%
X103965000Y-75873000D03*
D14*
X95425000Y-78085000D03*
%TO.N,GND*%
X116500000Y-61235000D03*
X119125000Y-62010000D03*
X119125000Y-67760000D03*
D17*
X101780000Y-71645000D03*
D15*
X87275000Y-54035000D03*
X97900000Y-73795000D03*
D17*
X101770000Y-74465000D03*
D16*
X91460000Y-60215000D03*
D15*
X93750000Y-54050000D03*
D17*
X100260000Y-74465000D03*
D16*
X100765000Y-70273000D03*
D17*
X100260000Y-73065000D03*
X103400000Y-71645000D03*
D15*
X92200000Y-60935000D03*
D17*
X100260000Y-71645000D03*
D15*
X95525000Y-54110000D03*
D17*
X103390000Y-74465000D03*
D15*
X90550000Y-54050000D03*
D16*
X90675000Y-60215000D03*
D17*
X101765000Y-73073000D03*
D15*
X97640000Y-71275000D03*
D17*
X103390000Y-73065000D03*
D15*
X89900000Y-60985000D03*
%TO.N,VDD*%
X91675000Y-61335000D03*
D16*
X93370000Y-63825000D03*
D15*
X106463000Y-75673000D03*
X95900000Y-74410000D03*
D16*
X103960000Y-70285000D03*
D14*
X103440000Y-63925000D03*
D15*
X96530000Y-66410000D03*
X100100000Y-69085000D03*
X106530000Y-72473000D03*
X101925000Y-68710000D03*
X98860000Y-68275000D03*
X97550000Y-72025000D03*
X84375000Y-78685000D03*
D16*
X91060000Y-59815000D03*
D15*
X116225000Y-83410000D03*
X98895000Y-79170000D03*
D14*
X115340000Y-70785000D03*
D15*
X86425000Y-78910000D03*
D16*
X105610000Y-70873000D03*
D15*
X97808000Y-75273000D03*
%TO.N,Net-(U3A-DECR)*%
X103920000Y-69315000D03*
X106780000Y-71315000D03*
X105775000Y-71305000D03*
%TO.N,Net-(U3A-VBUS)*%
X99280000Y-69205000D03*
X96630000Y-62585000D03*
%TO.N,Net-(U3A-DECD)*%
X101930000Y-64855000D03*
X101375000Y-68460000D03*
%TO.N,Net-(U3A-DECN)*%
X103225000Y-68160000D03*
X98890000Y-61175000D03*
D16*
%TO.N,Net-(U3D-ANT)*%
X105512000Y-72073000D03*
X105725000Y-72885000D03*
D15*
%TO.N,Net-(U3D-XC1)*%
X108325000Y-66035000D03*
X105425000Y-69460000D03*
%TO.N,Net-(U3A-DCCR)*%
X108025000Y-69310000D03*
X102737500Y-69197500D03*
%TO.N,Net-(U3A-DCCD)*%
X100530000Y-68655000D03*
X100040000Y-62965000D03*
%TO.N,/D-*%
X99165000Y-70273000D03*
%TO.N,/D+*%
X98840000Y-69665000D03*
%TO.N,VSYS*%
X91575000Y-57385000D03*
X89075000Y-57385000D03*
D16*
%TO.N,/I2C_SCL*%
X98765000Y-73473000D03*
%TO.N,/I2C_SDA*%
X98765000Y-73873000D03*
%TO.N,Net-(U6-GAIN_SLOT)*%
X118380000Y-69805000D03*
X119375000Y-71210000D03*
%TO.N,/INT2*%
X98765000Y-74673000D03*
D15*
%TO.N,/IRQ*%
X85825000Y-79885000D03*
X101125000Y-76760000D03*
D16*
%TO.N,/ISET*%
X101965000Y-75873000D03*
D15*
X90775000Y-61210000D03*
%TO.N,/SDOUT*%
X117200000Y-69585000D03*
D16*
X101565000Y-70273000D03*
D15*
%TO.N,/SCK*%
X117250000Y-70310000D03*
D16*
X101965000Y-70273000D03*
D15*
%TO.N,/LRCLK*%
X118800000Y-70735000D03*
D16*
X101765000Y-69873000D03*
%TO.N,/SD_MODE*%
X101565000Y-75873000D03*
D15*
X114200000Y-69310000D03*
D16*
%TO.N,/INT1*%
X98765000Y-74273000D03*
%TO.N,/TX*%
X96575000Y-77635000D03*
%TO.N,/RX*%
X96975000Y-78185000D03*
%TD*%
D18*
%TO.N,VDD*%
X152430000Y-65890000D02*
X150390000Y-63850000D01*
X150390000Y-63850000D02*
X149270000Y-63850000D01*
X152430000Y-67460000D02*
X153270000Y-68300000D01*
X152430000Y-66435000D02*
X152430000Y-65890000D01*
X153270000Y-68300000D02*
X154760000Y-68300000D01*
D19*
%TO.N,/LRCLK*%
X172222000Y-70332000D02*
X172650000Y-70760000D01*
X161134000Y-70742255D02*
X161354255Y-70522000D01*
X158550000Y-70760000D02*
X161134000Y-70760000D01*
X161354255Y-70522000D02*
X170852006Y-70522000D01*
X158241000Y-70142255D02*
X158241000Y-70453745D01*
X157665000Y-69898000D02*
X157699127Y-69932127D01*
X171042006Y-70332000D02*
X172222000Y-70332000D01*
X157699127Y-69932127D02*
X157709255Y-69922000D01*
X170852006Y-70522000D02*
X171042006Y-70332000D01*
X158242372Y-70452372D02*
X158550000Y-70760000D01*
X158020745Y-69922000D02*
X158241000Y-70142255D01*
X161134000Y-70760000D02*
X161134000Y-70742255D01*
X157709255Y-69922000D02*
X158020745Y-69922000D01*
X158241000Y-70453745D02*
X158242372Y-70452372D01*
X172650000Y-70760000D02*
X174700000Y-70760000D01*
D20*
%TO.N,VDD*%
X142325000Y-78185000D02*
X141560000Y-77420000D01*
D18*
X158211000Y-68349000D02*
X158211000Y-65278232D01*
X162430000Y-72498000D02*
X168422000Y-72498000D01*
X157825000Y-68735000D02*
X158211000Y-68349000D01*
X170470000Y-78000000D02*
X170470000Y-81800000D01*
X162363000Y-72565000D02*
X162430000Y-72498000D01*
X169900000Y-71020000D02*
X171030000Y-71020000D01*
X162363000Y-77337000D02*
X162363000Y-75698000D01*
X149270000Y-63070000D02*
X147570000Y-61370000D01*
X145460000Y-67660000D02*
X142725000Y-67660000D01*
X168422000Y-75952000D02*
X170470000Y-78000000D01*
D19*
X146960000Y-59840000D02*
X146960000Y-60445000D01*
D18*
X159340000Y-64149232D02*
X159340000Y-63950000D01*
X141560000Y-68685000D02*
X141560000Y-77420000D01*
X168422000Y-72498000D02*
X169900000Y-71020000D01*
X154795000Y-79195000D02*
X160505000Y-79195000D01*
D20*
X147570000Y-61365000D02*
X147575000Y-61360000D01*
D18*
X156121000Y-69231000D02*
X156000000Y-69110000D01*
D19*
%TO.N,Net-(U3A-DCCR)*%
X158637500Y-69222500D02*
X159301000Y-69886000D01*
X163374000Y-69886000D02*
X163925000Y-69335000D01*
%TO.N,Net-(U3D-XC1)*%
X164225000Y-66585000D02*
X161325000Y-69485000D01*
D21*
%TO.N,VSYS*%
X147475000Y-57410000D02*
X144975000Y-57410000D01*
D19*
%TO.N,Net-(U3D-XC1)*%
X164225000Y-66060000D02*
X164225000Y-66585000D01*
%TO.N,Net-(U3A-DCCR)*%
X159301000Y-69886000D02*
X163374000Y-69886000D01*
D18*
%TO.N,VDD*%
X156000000Y-69110000D02*
X155190000Y-68300000D01*
X141560000Y-77420000D02*
X140260000Y-78720000D01*
D20*
X140260000Y-78720000D02*
X140270000Y-78710000D01*
D18*
X149270000Y-63850000D02*
X146730000Y-66390000D01*
X160505000Y-79195000D02*
X162363000Y-77337000D01*
X157329000Y-69231000D02*
X156121000Y-69231000D01*
X157825000Y-68735000D02*
X157329000Y-69231000D01*
D19*
X147200000Y-60985000D02*
X147575000Y-61360000D01*
X146960000Y-60445000D02*
X147200000Y-60685000D01*
X147200000Y-60685000D02*
X147200000Y-60985000D01*
D20*
X147570000Y-61370000D02*
X147570000Y-61365000D01*
D18*
X168422000Y-72498000D02*
X168422000Y-75952000D01*
D20*
X172120000Y-83440000D02*
X172125000Y-83435000D01*
X140270000Y-78710000D02*
X140275000Y-78710000D01*
X172120000Y-83450000D02*
X172120000Y-83440000D01*
D18*
X149270000Y-63850000D02*
X149270000Y-63070000D01*
X155190000Y-68300000D02*
X154760000Y-68300000D01*
X158211000Y-65278232D02*
X159340000Y-64149232D01*
X170470000Y-81800000D02*
X172120000Y-83450000D01*
X171030000Y-71020000D02*
X171240000Y-70810000D01*
X162363000Y-75698000D02*
X162363000Y-72565000D01*
D20*
X142325000Y-78935000D02*
X142325000Y-78185000D01*
D18*
X146730000Y-66390000D02*
X145460000Y-67660000D01*
%TO.N,VBUS*%
X152600000Y-56935000D02*
X153550000Y-57885000D01*
%TO.N,+3.3V*%
X148450000Y-56635000D02*
X152175000Y-60360000D01*
X147200000Y-56635000D02*
X148450000Y-56635000D01*
X168425000Y-63410000D02*
X172425000Y-63410000D01*
%TO.N,VBUS*%
X149825000Y-56935000D02*
X152600000Y-56935000D01*
%TO.N,+3.3V*%
X152175000Y-60360000D02*
X165375000Y-60360000D01*
X165375000Y-60360000D02*
X168425000Y-63410000D01*
X175350000Y-68685000D02*
X173500000Y-68685000D01*
%TO.N,VBUS*%
X137875000Y-73485000D02*
X137875000Y-68235000D01*
X137875000Y-68235000D02*
X137875000Y-64946874D01*
X144849374Y-57972500D02*
X148312500Y-57972500D01*
%TO.N,+3.3V*%
X173500000Y-68685000D02*
X172425000Y-67610000D01*
%TO.N,VBUS*%
X136660000Y-74370000D02*
X136990000Y-74370000D01*
%TO.N,+3.3V*%
X172425000Y-67610000D02*
X172425000Y-63410000D01*
%TO.N,VBUS*%
X136990000Y-74370000D02*
X137875000Y-73485000D01*
X137875000Y-64946874D02*
X144849374Y-57972500D01*
D21*
%TO.N,/INT1*%
X155012000Y-74298000D02*
X155200000Y-74110000D01*
X154665000Y-74298000D02*
X155012000Y-74298000D01*
%TO.N,/INT2*%
X155578000Y-72038000D02*
X155225000Y-71685000D01*
X155162000Y-74698000D02*
X155525000Y-74335000D01*
%TO.N,/I2C_SCL*%
X143549000Y-67086000D02*
X144000000Y-66635000D01*
%TO.N,/INT2*%
X155578000Y-74282000D02*
X155578000Y-72038000D01*
X155525000Y-74335000D02*
X155578000Y-74282000D01*
X154665000Y-74698000D02*
X155162000Y-74698000D01*
%TO.N,/I2C_SCL*%
X139875000Y-65960000D02*
X141001000Y-67086000D01*
X139875000Y-65560000D02*
X139875000Y-65960000D01*
X141001000Y-67086000D02*
X143549000Y-67086000D01*
X144000000Y-66635000D02*
X144000000Y-66360000D01*
D18*
%TO.N,VDD*%
X139300000Y-66335000D02*
X139300000Y-64410000D01*
D21*
X139900000Y-63810000D02*
X139850000Y-63860000D01*
X142800000Y-63810000D02*
X139900000Y-63810000D01*
D18*
X141560000Y-67660000D02*
X140625000Y-67660000D01*
X140625000Y-67660000D02*
X139300000Y-66335000D01*
X139300000Y-64410000D02*
X139850000Y-63860000D01*
X141560000Y-67660000D02*
X141560000Y-68685000D01*
X142725000Y-67660000D02*
X141560000Y-67660000D01*
D21*
%TO.N,/RX*%
X154319545Y-72698000D02*
X153282000Y-73735545D01*
X154665000Y-72698000D02*
X154319545Y-72698000D01*
X153350000Y-76278000D02*
X153350000Y-76935000D01*
X153282000Y-73735545D02*
X153282000Y-76210000D01*
X153175000Y-81810000D02*
X155325000Y-83960000D01*
X153350000Y-76935000D02*
X153325000Y-76960000D01*
X153282000Y-76210000D02*
X153350000Y-76278000D01*
X153175000Y-78510000D02*
X153175000Y-81810000D01*
%TO.N,/TX*%
X152475000Y-78785000D02*
X152774000Y-79084000D01*
%TO.N,/RX*%
X152875000Y-78210000D02*
X153175000Y-78510000D01*
%TO.N,/TX*%
X154050000Y-83335000D02*
X154050000Y-84035000D01*
X152774000Y-82059000D02*
X154050000Y-83335000D01*
X152475000Y-77660000D02*
X152475000Y-78785000D01*
X152774000Y-79084000D02*
X152774000Y-82059000D01*
X152904000Y-73578972D02*
X154184972Y-72298000D01*
X152904000Y-76564000D02*
X152904000Y-73578972D01*
X154184972Y-72298000D02*
X154665000Y-72298000D01*
D18*
%TO.N,VDD*%
X151800000Y-74435000D02*
X151800000Y-76220000D01*
X154775000Y-79195000D02*
X154795000Y-79195000D01*
X152735000Y-72050000D02*
X153450000Y-72050000D01*
X151800000Y-74435000D02*
X151800000Y-72985000D01*
X151800000Y-72985000D02*
X152735000Y-72050000D01*
X151800000Y-76220000D02*
X154775000Y-79195000D01*
%TO.N,+3.3V*%
X169325000Y-79535000D02*
X163625000Y-85235000D01*
X175801000Y-75009000D02*
X175801000Y-69136000D01*
X169750000Y-79535000D02*
X169325000Y-79535000D01*
X175801000Y-69136000D02*
X175350000Y-68685000D01*
X171275000Y-79535000D02*
X175801000Y-75009000D01*
D21*
%TO.N,/I2C_SDA*%
X140551000Y-80911000D02*
X141861028Y-80911000D01*
X140525000Y-80885000D02*
X140551000Y-80911000D01*
%TO.N,/I2C_SCL*%
X141752455Y-80485000D02*
X140875000Y-80485000D01*
D18*
%TO.N,VDD*%
X151800000Y-67065000D02*
X151800000Y-71115000D01*
D21*
%TO.N,/I2C_SCL*%
X149412500Y-72822500D02*
X149412500Y-72824955D01*
%TO.N,/INT1*%
X153261000Y-70874000D02*
X153000000Y-71135000D01*
%TO.N,/I2C_SCL*%
X149412500Y-72824955D02*
X141752455Y-80485000D01*
%TO.N,/INT2*%
X152964000Y-70496000D02*
X152900000Y-70560000D01*
X154036000Y-70496000D02*
X152964000Y-70496000D01*
D18*
%TO.N,VDD*%
X152430000Y-66435000D02*
X151800000Y-67065000D01*
D21*
%TO.N,/INT1*%
X153808100Y-70874000D02*
X153261000Y-70874000D01*
X155200000Y-74110000D02*
X155200000Y-72265900D01*
%TO.N,/INT2*%
X155225000Y-71685000D02*
X154036000Y-70496000D01*
%TO.N,/I2C_SDA*%
X141861028Y-80911000D02*
X149262028Y-73510000D01*
X149262028Y-73510000D02*
X149450000Y-73510000D01*
%TO.N,/INT1*%
X155200000Y-72265900D02*
X153808100Y-70874000D01*
D18*
%TO.N,VDD*%
X151800000Y-71115000D02*
X152735000Y-72050000D01*
X90830000Y-66365000D02*
X89560000Y-67635000D01*
%TO.N,VBUS*%
X96700000Y-56910000D02*
X97650000Y-57860000D01*
X93925000Y-56910000D02*
X96700000Y-56910000D01*
%TO.N,+3.3V*%
X112525000Y-63385000D02*
X116525000Y-63385000D01*
X109475000Y-60335000D02*
X112525000Y-63385000D01*
X96275000Y-60335000D02*
X109475000Y-60335000D01*
X92550000Y-56610000D02*
X96275000Y-60335000D01*
X91300000Y-56610000D02*
X92550000Y-56610000D01*
%TO.N,VBUS*%
X81975000Y-73460000D02*
X81975000Y-68210000D01*
X81090000Y-74345000D02*
X81975000Y-73460000D01*
X80760000Y-74345000D02*
X81090000Y-74345000D01*
X81975000Y-68210000D02*
X81975000Y-64921874D01*
X81975000Y-64921874D02*
X88949374Y-57947500D01*
X88949374Y-57947500D02*
X92412500Y-57947500D01*
%TO.N,+3.3V*%
X116525000Y-67585000D02*
X116525000Y-63385000D01*
X117600000Y-68660000D02*
X116525000Y-67585000D01*
X119450000Y-68660000D02*
X117600000Y-68660000D01*
X113850000Y-79510000D02*
X113425000Y-79510000D01*
X113425000Y-79510000D02*
X107725000Y-85210000D01*
X119901000Y-69111000D02*
X119450000Y-68660000D01*
X119901000Y-74984000D02*
X119901000Y-69111000D01*
X115375000Y-79510000D02*
X119901000Y-74984000D01*
D21*
%TO.N,/I2C_SDA*%
X93362028Y-73485000D02*
X93550000Y-73485000D01*
X85961028Y-80886000D02*
X93362028Y-73485000D01*
X84651000Y-80886000D02*
X85961028Y-80886000D01*
X84625000Y-80860000D02*
X84651000Y-80886000D01*
%TO.N,/I2C_SCL*%
X85852455Y-80460000D02*
X84975000Y-80460000D01*
X93512500Y-72797500D02*
X93512500Y-72799955D01*
X93512500Y-72799955D02*
X85852455Y-80460000D01*
%TO.N,/INT2*%
X98136000Y-70471000D02*
X97064000Y-70471000D01*
X97064000Y-70471000D02*
X97000000Y-70535000D01*
X99325000Y-71660000D02*
X98136000Y-70471000D01*
D18*
%TO.N,VDD*%
X95900000Y-71090000D02*
X96835000Y-72025000D01*
X95900000Y-67040000D02*
X95900000Y-71090000D01*
X96530000Y-66410000D02*
X95900000Y-67040000D01*
D21*
%TO.N,/INT1*%
X97361000Y-70849000D02*
X97100000Y-71110000D01*
X97908100Y-70849000D02*
X97361000Y-70849000D01*
X99300000Y-72240900D02*
X97908100Y-70849000D01*
X99300000Y-74085000D02*
X99300000Y-72240900D01*
X99112000Y-74273000D02*
X99300000Y-74085000D01*
X98765000Y-74273000D02*
X99112000Y-74273000D01*
%TO.N,/INT2*%
X99678000Y-74257000D02*
X99678000Y-72013000D01*
X99625000Y-74310000D02*
X99678000Y-74257000D01*
X99262000Y-74673000D02*
X99625000Y-74310000D01*
X99678000Y-72013000D02*
X99325000Y-71660000D01*
X98765000Y-74673000D02*
X99262000Y-74673000D01*
%TO.N,/I2C_SCL*%
X88100000Y-66610000D02*
X88100000Y-66335000D01*
X87649000Y-67061000D02*
X88100000Y-66610000D01*
X83975000Y-65935000D02*
X85101000Y-67061000D01*
X85101000Y-67061000D02*
X87649000Y-67061000D01*
X83975000Y-65535000D02*
X83975000Y-65935000D01*
D18*
%TO.N,VDD*%
X83400000Y-64385000D02*
X83950000Y-63835000D01*
X83400000Y-66310000D02*
X83400000Y-64385000D01*
X84725000Y-67635000D02*
X83400000Y-66310000D01*
X85660000Y-67635000D02*
X84725000Y-67635000D01*
D21*
X84000000Y-63785000D02*
X83950000Y-63835000D01*
X86900000Y-63785000D02*
X84000000Y-63785000D01*
D18*
X85660000Y-67635000D02*
X85660000Y-68660000D01*
X86825000Y-67635000D02*
X85660000Y-67635000D01*
D21*
%TO.N,/RX*%
X96975000Y-78185000D02*
X97275000Y-78485000D01*
X97275000Y-78485000D02*
X97275000Y-81785000D01*
X97275000Y-81785000D02*
X99425000Y-83935000D01*
%TO.N,/TX*%
X98150000Y-83310000D02*
X98150000Y-84010000D01*
X96874000Y-82034000D02*
X98150000Y-83310000D01*
X96575000Y-77635000D02*
X96575000Y-78760000D01*
X96575000Y-78760000D02*
X96874000Y-79059000D01*
X96874000Y-79059000D02*
X96874000Y-82034000D01*
%TO.N,/RX*%
X97450000Y-76910000D02*
X97425000Y-76935000D01*
X97382000Y-76185000D02*
X97450000Y-76253000D01*
X97382000Y-73710545D02*
X97382000Y-76185000D01*
X98419545Y-72673000D02*
X97382000Y-73710545D01*
X97450000Y-76253000D02*
X97450000Y-76910000D01*
X98765000Y-72673000D02*
X98419545Y-72673000D01*
%TO.N,/TX*%
X97004000Y-73553972D02*
X98284972Y-72273000D01*
X98284972Y-72273000D02*
X98765000Y-72273000D01*
X97004000Y-76539000D02*
X97004000Y-73553972D01*
D18*
%TO.N,VDD*%
X95900000Y-76195000D02*
X98875000Y-79170000D01*
X95900000Y-74410000D02*
X95900000Y-76195000D01*
X98875000Y-79170000D02*
X98895000Y-79170000D01*
X96835000Y-72025000D02*
X97550000Y-72025000D01*
X95900000Y-72960000D02*
X96835000Y-72025000D01*
X95900000Y-74410000D02*
X95900000Y-72960000D01*
X94490000Y-63825000D02*
X93370000Y-63825000D01*
X96530000Y-65865000D02*
X94490000Y-63825000D01*
X96530000Y-66410000D02*
X96530000Y-65865000D01*
X96530000Y-67435000D02*
X97370000Y-68275000D01*
X97370000Y-68275000D02*
X98860000Y-68275000D01*
X114570000Y-81775000D02*
X116220000Y-83425000D01*
D20*
X86425000Y-78910000D02*
X86425000Y-78160000D01*
D18*
X106463000Y-75673000D02*
X106463000Y-72540000D01*
X115130000Y-70995000D02*
X115340000Y-70785000D01*
X102311000Y-65253232D02*
X103440000Y-64124232D01*
X99290000Y-68275000D02*
X98860000Y-68275000D01*
X93370000Y-63825000D02*
X93370000Y-63045000D01*
X85660000Y-77395000D02*
X84360000Y-78695000D01*
D20*
X84370000Y-78685000D02*
X84375000Y-78685000D01*
D18*
X101925000Y-68710000D02*
X101429000Y-69206000D01*
X101429000Y-69206000D02*
X100221000Y-69206000D01*
D20*
X116220000Y-83425000D02*
X116220000Y-83415000D01*
D19*
X91060000Y-60420000D02*
X91300000Y-60660000D01*
D18*
X93370000Y-63825000D02*
X90830000Y-66365000D01*
D20*
X84360000Y-78695000D02*
X84370000Y-78685000D01*
D19*
X91300000Y-60660000D02*
X91300000Y-60960000D01*
D18*
X112522000Y-72473000D02*
X112522000Y-75927000D01*
D20*
X91670000Y-61345000D02*
X91670000Y-61340000D01*
D18*
X100100000Y-69085000D02*
X99290000Y-68275000D01*
D20*
X116220000Y-83415000D02*
X116225000Y-83410000D01*
D19*
X91300000Y-60960000D02*
X91675000Y-61335000D01*
D18*
X104605000Y-79170000D02*
X106463000Y-77312000D01*
X102311000Y-68324000D02*
X102311000Y-65253232D01*
X89560000Y-67635000D02*
X86825000Y-67635000D01*
D20*
X91670000Y-61340000D02*
X91675000Y-61335000D01*
D18*
X114000000Y-70995000D02*
X115130000Y-70995000D01*
X106463000Y-77312000D02*
X106463000Y-75673000D01*
X106463000Y-72540000D02*
X106530000Y-72473000D01*
X112522000Y-75927000D02*
X114570000Y-77975000D01*
D20*
X86425000Y-78160000D02*
X85660000Y-77395000D01*
D18*
X98895000Y-79170000D02*
X104605000Y-79170000D01*
X101925000Y-68710000D02*
X102311000Y-68324000D01*
X100221000Y-69206000D02*
X100100000Y-69085000D01*
X106530000Y-72473000D02*
X112522000Y-72473000D01*
D19*
X91060000Y-59815000D02*
X91060000Y-60420000D01*
D18*
X93370000Y-63045000D02*
X91670000Y-61345000D01*
X85660000Y-68660000D02*
X85660000Y-77395000D01*
X112522000Y-72473000D02*
X114000000Y-70995000D01*
X103440000Y-64124232D02*
X103440000Y-63925000D01*
X114570000Y-77975000D02*
X114570000Y-81775000D01*
D19*
%TO.N,Net-(U3D-XC1)*%
X108325000Y-66035000D02*
X108325000Y-66560000D01*
X108325000Y-66560000D02*
X105425000Y-69460000D01*
%TO.N,Net-(U3A-DCCR)*%
X103401000Y-69861000D02*
X107474000Y-69861000D01*
X107474000Y-69861000D02*
X108025000Y-69310000D01*
X102737500Y-69197500D02*
X103401000Y-69861000D01*
D21*
%TO.N,VSYS*%
X91575000Y-57385000D02*
X89075000Y-57385000D01*
D19*
%TO.N,/LRCLK*%
X102342372Y-70427372D02*
X102650000Y-70735000D01*
X102650000Y-70735000D02*
X105234000Y-70735000D01*
X101799127Y-69907127D02*
X101809255Y-69897000D01*
X105234000Y-70717255D02*
X105454255Y-70497000D01*
X115142006Y-70307000D02*
X116322000Y-70307000D01*
X116750000Y-70735000D02*
X118800000Y-70735000D01*
X102341000Y-70428745D02*
X102342372Y-70427372D01*
X101765000Y-69873000D02*
X101799127Y-69907127D01*
X102120745Y-69897000D02*
X102341000Y-70117255D01*
X116322000Y-70307000D02*
X116750000Y-70735000D01*
X114952006Y-70497000D02*
X115142006Y-70307000D01*
X101809255Y-69897000D02*
X102120745Y-69897000D01*
X105454255Y-70497000D02*
X114952006Y-70497000D01*
X102341000Y-70117255D02*
X102341000Y-70428745D01*
X105234000Y-70735000D02*
X105234000Y-70717255D01*
%TD*%
M02*
