%TF.GenerationSoftware,KiCad,Pcbnew,9.0.7*%
%TF.CreationDate,2026-07-19T17:18:16+02:00*%
%TF.ProjectId,MSBE_V3,4d534245-5f56-4332-9e6b-696361645f70,rev?*%
%TF.SameCoordinates,Original*%
%TF.FileFunction,Copper,L1,Top*%
%TF.FilePolarity,Positive*%
%FSLAX46Y46*%
G04 Gerber Fmt 4.6, Leading zero omitted, Abs format (unit mm)*
G04 Created by KiCad (PCBNEW 9.0.7) date 2026-07-19 17:18:16*
%MOMM*%
%LPD*%
G01*
G04 APERTURE LIST*
G04 Aperture macros list*
%AMRoundRect*
0 Rectangle with rounded corners*
0 $1 Rounding radius*
0 $2 $3 $4 $5 $6 $7 $8 $9 X,Y pos of 4 corners*
0 Add a 4 corners polygon primitive as box body*
4,1,4,$2,$3,$4,$5,$6,$7,$8,$9,$2,$3,0*
0 Add four circle primitives for the rounded corners*
1,1,$1+$1,$2,$3*
1,1,$1+$1,$4,$5*
1,1,$1+$1,$6,$7*
1,1,$1+$1,$8,$9*
0 Add four rect primitives between the rounded corners*
20,1,$1+$1,$2,$3,$4,$5,0*
20,1,$1+$1,$4,$5,$6,$7,0*
20,1,$1+$1,$6,$7,$8,$9,0*
20,1,$1+$1,$8,$9,$2,$3,0*%
G04 Aperture macros list end*
%TA.AperFunction,EtchedComponent*%
%ADD10C,0.000000*%
%TD*%
%TA.AperFunction,SMDPad,CuDef*%
%ADD11R,0.736600X0.533400*%
%TD*%
%TA.AperFunction,SMDPad,CuDef*%
%ADD12R,0.451168X0.236418*%
%TD*%
%TA.AperFunction,SMDPad,CuDef*%
%ADD13R,0.800000X1.524000*%
%TD*%
%TA.AperFunction,SMDPad,CuDef*%
%ADD14RoundRect,0.218750X0.218750X0.256250X-0.218750X0.256250X-0.218750X-0.256250X0.218750X-0.256250X0*%
%TD*%
%TA.AperFunction,SMDPad,CuDef*%
%ADD15RoundRect,0.225000X-0.250000X0.225000X-0.250000X-0.225000X0.250000X-0.225000X0.250000X0.225000X0*%
%TD*%
%TA.AperFunction,SMDPad,CuDef*%
%ADD16RoundRect,0.150000X-0.425000X0.150000X-0.425000X-0.150000X0.425000X-0.150000X0.425000X0.150000X0*%
%TD*%
%TA.AperFunction,SMDPad,CuDef*%
%ADD17RoundRect,0.075000X-0.500000X0.075000X-0.500000X-0.075000X0.500000X-0.075000X0.500000X0.075000X0*%
%TD*%
%TA.AperFunction,SMDPad,CuDef*%
%ADD18RoundRect,0.250000X-0.750000X0.840000X-0.750000X-0.840000X0.750000X-0.840000X0.750000X0.840000X0*%
%TD*%
%TA.AperFunction,SMDPad,CuDef*%
%ADD19R,1.000000X0.500000*%
%TD*%
%TA.AperFunction,SMDPad,CuDef*%
%ADD20C,0.220000*%
%TD*%
%TA.AperFunction,SMDPad,CuDef*%
%ADD21RoundRect,0.200000X-0.275000X0.200000X-0.275000X-0.200000X0.275000X-0.200000X0.275000X0.200000X0*%
%TD*%
%TA.AperFunction,SMDPad,CuDef*%
%ADD22R,0.279400X0.279400*%
%TD*%
%TA.AperFunction,SMDPad,CuDef*%
%ADD23RoundRect,0.200000X0.275000X-0.200000X0.275000X0.200000X-0.275000X0.200000X-0.275000X-0.200000X0*%
%TD*%
%TA.AperFunction,SMDPad,CuDef*%
%ADD24RoundRect,0.225000X-0.225000X-0.250000X0.225000X-0.250000X0.225000X0.250000X-0.225000X0.250000X0*%
%TD*%
%TA.AperFunction,SMDPad,CuDef*%
%ADD25RoundRect,0.225000X0.250000X-0.225000X0.250000X0.225000X-0.250000X0.225000X-0.250000X-0.225000X0*%
%TD*%
%TA.AperFunction,SMDPad,CuDef*%
%ADD26R,1.397000X0.939800*%
%TD*%
%TA.AperFunction,SMDPad,CuDef*%
%ADD27R,0.787400X0.228600*%
%TD*%
%TA.AperFunction,SMDPad,CuDef*%
%ADD28R,0.228600X0.787400*%
%TD*%
%TA.AperFunction,SMDPad,CuDef*%
%ADD29R,0.787400X0.787400*%
%TD*%
%TA.AperFunction,SMDPad,CuDef*%
%ADD30RoundRect,0.218750X0.256250X-0.218750X0.256250X0.218750X-0.256250X0.218750X-0.256250X-0.218750X0*%
%TD*%
%TA.AperFunction,SMDPad,CuDef*%
%ADD31RoundRect,0.200000X0.200000X0.275000X-0.200000X0.275000X-0.200000X-0.275000X0.200000X-0.275000X0*%
%TD*%
%TA.AperFunction,SMDPad,CuDef*%
%ADD32RoundRect,0.200000X-0.200000X-0.275000X0.200000X-0.275000X0.200000X0.275000X-0.200000X0.275000X0*%
%TD*%
%TA.AperFunction,SMDPad,CuDef*%
%ADD33RoundRect,0.225000X0.225000X0.250000X-0.225000X0.250000X-0.225000X-0.250000X0.225000X-0.250000X0*%
%TD*%
%TA.AperFunction,ConnectorPad*%
%ADD34R,0.500000X0.500000*%
%TD*%
%TA.AperFunction,ComponentPad*%
%ADD35R,0.900000X0.500000*%
%TD*%
%TA.AperFunction,BGAPad,CuDef*%
%ADD36C,0.400000*%
%TD*%
%TA.AperFunction,BGAPad,CuDef*%
%ADD37C,0.200000*%
%TD*%
%TA.AperFunction,SMDPad,CuDef*%
%ADD38R,5.400000X5.000000*%
%TD*%
%TA.AperFunction,SMDPad,CuDef*%
%ADD39C,0.250000*%
%TD*%
%TA.AperFunction,SMDPad,CuDef*%
%ADD40RoundRect,0.218750X-0.256250X0.218750X-0.256250X-0.218750X0.256250X-0.218750X0.256250X0.218750X0*%
%TD*%
%TA.AperFunction,SMDPad,CuDef*%
%ADD41R,1.524000X0.800000*%
%TD*%
%TA.AperFunction,ComponentPad*%
%ADD42R,1.700000X1.700000*%
%TD*%
%TA.AperFunction,ComponentPad*%
%ADD43C,1.700000*%
%TD*%
%TA.AperFunction,ViaPad*%
%ADD44C,0.500000*%
%TD*%
%TA.AperFunction,ViaPad*%
%ADD45C,0.400000*%
%TD*%
%TA.AperFunction,ViaPad*%
%ADD46C,0.300000*%
%TD*%
%TA.AperFunction,ViaPad*%
%ADD47C,0.250000*%
%TD*%
%TA.AperFunction,ViaPad*%
%ADD48C,0.600000*%
%TD*%
%TA.AperFunction,Conductor*%
%ADD49C,0.300000*%
%TD*%
%TA.AperFunction,Conductor*%
%ADD50C,0.250000*%
%TD*%
%TA.AperFunction,Conductor*%
%ADD51C,0.500000*%
%TD*%
%TA.AperFunction,Conductor*%
%ADD52C,0.200000*%
%TD*%
G04 APERTURE END LIST*
D10*
%TA.AperFunction,EtchedComponent*%
%TO.C,LS1*%
G36*
X150113669Y-80800381D02*
G01*
X150340252Y-80915831D01*
X150520069Y-81095648D01*
X150635519Y-81322231D01*
X150675300Y-81573400D01*
X150635519Y-81824569D01*
X150520069Y-82051152D01*
X150340252Y-82230969D01*
X150113669Y-82346419D01*
X149862500Y-82386200D01*
X149791660Y-82383107D01*
X149818225Y-82079467D01*
X149862500Y-82081400D01*
X150019481Y-82056537D01*
X150161095Y-81984381D01*
X150273481Y-81871995D01*
X150345637Y-81730381D01*
X150370500Y-81573400D01*
X150345637Y-81416419D01*
X150273481Y-81274805D01*
X150161095Y-81162419D01*
X150019481Y-81090263D01*
X149862500Y-81065400D01*
X149818225Y-81067333D01*
X149791660Y-80763693D01*
X149862500Y-80760600D01*
X150113669Y-80800381D01*
G37*
%TD.AperFunction*%
%TA.AperFunction,EtchedComponent*%
G36*
X149933340Y-80763693D02*
G01*
X149906775Y-81067333D01*
X149862500Y-81065400D01*
X149705519Y-81090263D01*
X149563905Y-81162419D01*
X149451519Y-81274805D01*
X149379363Y-81416419D01*
X149354500Y-81573400D01*
X149379363Y-81730381D01*
X149451519Y-81871995D01*
X149563905Y-81984381D01*
X149705519Y-82056537D01*
X149862500Y-82081400D01*
X149906775Y-82079467D01*
X149933340Y-82383107D01*
X149862500Y-82386200D01*
X149611331Y-82346419D01*
X149384748Y-82230969D01*
X149204931Y-82051152D01*
X149089481Y-81824569D01*
X149049700Y-81573400D01*
X149089481Y-81322231D01*
X149204931Y-81095648D01*
X149384748Y-80915831D01*
X149611331Y-80800381D01*
X149862500Y-80760600D01*
X149933340Y-80763693D01*
G37*
%TD.AperFunction*%
%TA.AperFunction,EtchedComponent*%
%TO.C,AE1*%
G36*
X170910000Y-59410000D02*
G01*
X170010000Y-59410000D01*
X170010000Y-59151842D01*
X170311778Y-59151842D01*
X170318309Y-59201368D01*
X170338868Y-59246553D01*
X170372511Y-59281787D01*
X170391122Y-59292400D01*
X170436637Y-59305300D01*
X170485156Y-59306043D01*
X170527819Y-59293935D01*
X170535731Y-59289581D01*
X170573674Y-59256797D01*
X170597742Y-59214395D01*
X170607583Y-59166785D01*
X170602847Y-59118378D01*
X170583185Y-59073584D01*
X170548245Y-59036814D01*
X170515353Y-59019908D01*
X170467267Y-59012018D01*
X170417682Y-59018592D01*
X170372372Y-59038687D01*
X170337112Y-59071357D01*
X170320218Y-59103583D01*
X170311778Y-59151842D01*
X170010000Y-59151842D01*
X170010000Y-54510000D01*
X168610000Y-54510000D01*
X168610000Y-59410000D01*
X168110000Y-59410000D01*
X168110000Y-54510000D01*
X166410000Y-54510000D01*
X166410000Y-57150000D01*
X163410000Y-57150000D01*
X163410000Y-54510000D01*
X161710000Y-54510000D01*
X161710000Y-57150000D01*
X158710000Y-57150000D01*
X158710000Y-54510000D01*
X157010000Y-54510000D01*
X157010000Y-58450000D01*
X156510000Y-58450000D01*
X156510000Y-54010000D01*
X159210000Y-54010000D01*
X159210000Y-56650000D01*
X161210000Y-56650000D01*
X161210000Y-54010000D01*
X163910000Y-54010000D01*
X163910000Y-56650000D01*
X165910000Y-56650000D01*
X165910000Y-54010000D01*
X170910000Y-54010000D01*
X170910000Y-59166785D01*
X170910000Y-59410000D01*
G37*
%TD.AperFunction*%
%TA.AperFunction,EtchedComponent*%
%TO.C,LS1*%
G36*
X94213669Y-80775381D02*
G01*
X94440252Y-80890831D01*
X94620069Y-81070648D01*
X94735519Y-81297231D01*
X94775300Y-81548400D01*
X94735519Y-81799569D01*
X94620069Y-82026152D01*
X94440252Y-82205969D01*
X94213669Y-82321419D01*
X93962500Y-82361200D01*
X93891660Y-82358107D01*
X93918225Y-82054467D01*
X93962500Y-82056400D01*
X94119481Y-82031537D01*
X94261095Y-81959381D01*
X94373481Y-81846995D01*
X94445637Y-81705381D01*
X94470500Y-81548400D01*
X94445637Y-81391419D01*
X94373481Y-81249805D01*
X94261095Y-81137419D01*
X94119481Y-81065263D01*
X93962500Y-81040400D01*
X93918225Y-81042333D01*
X93891660Y-80738693D01*
X93962500Y-80735600D01*
X94213669Y-80775381D01*
G37*
%TD.AperFunction*%
%TA.AperFunction,EtchedComponent*%
G36*
X94033340Y-80738693D02*
G01*
X94006775Y-81042333D01*
X93962500Y-81040400D01*
X93805519Y-81065263D01*
X93663905Y-81137419D01*
X93551519Y-81249805D01*
X93479363Y-81391419D01*
X93454500Y-81548400D01*
X93479363Y-81705381D01*
X93551519Y-81846995D01*
X93663905Y-81959381D01*
X93805519Y-82031537D01*
X93962500Y-82056400D01*
X94006775Y-82054467D01*
X94033340Y-82358107D01*
X93962500Y-82361200D01*
X93711331Y-82321419D01*
X93484748Y-82205969D01*
X93304931Y-82026152D01*
X93189481Y-81799569D01*
X93149700Y-81548400D01*
X93189481Y-81297231D01*
X93304931Y-81070648D01*
X93484748Y-80890831D01*
X93711331Y-80775381D01*
X93962500Y-80735600D01*
X94033340Y-80738693D01*
G37*
%TD.AperFunction*%
%TA.AperFunction,EtchedComponent*%
%TO.C,AE1*%
G36*
X115010000Y-59385000D02*
G01*
X114110000Y-59385000D01*
X114110000Y-59126842D01*
X114411778Y-59126842D01*
X114418309Y-59176368D01*
X114438868Y-59221553D01*
X114472511Y-59256787D01*
X114491122Y-59267400D01*
X114536637Y-59280300D01*
X114585156Y-59281043D01*
X114627819Y-59268935D01*
X114635731Y-59264581D01*
X114673674Y-59231797D01*
X114697742Y-59189395D01*
X114707583Y-59141785D01*
X114702847Y-59093378D01*
X114683185Y-59048584D01*
X114648245Y-59011814D01*
X114615353Y-58994908D01*
X114567267Y-58987018D01*
X114517682Y-58993592D01*
X114472372Y-59013687D01*
X114437112Y-59046357D01*
X114420218Y-59078583D01*
X114411778Y-59126842D01*
X114110000Y-59126842D01*
X114110000Y-54485000D01*
X112710000Y-54485000D01*
X112710000Y-59385000D01*
X112210000Y-59385000D01*
X112210000Y-54485000D01*
X110510000Y-54485000D01*
X110510000Y-57125000D01*
X107510000Y-57125000D01*
X107510000Y-54485000D01*
X105810000Y-54485000D01*
X105810000Y-57125000D01*
X102810000Y-57125000D01*
X102810000Y-54485000D01*
X101110000Y-54485000D01*
X101110000Y-58425000D01*
X100610000Y-58425000D01*
X100610000Y-53985000D01*
X103310000Y-53985000D01*
X103310000Y-56625000D01*
X105310000Y-56625000D01*
X105310000Y-53985000D01*
X108010000Y-53985000D01*
X108010000Y-56625000D01*
X110010000Y-56625000D01*
X110010000Y-53985000D01*
X115010000Y-53985000D01*
X115010000Y-59141785D01*
X115010000Y-59385000D01*
G37*
%TD.AperFunction*%
%TD*%
D11*
%TO.P,LS1,1,DATA*%
%TO.N,/MIC_DATA*%
X149025000Y-79499400D03*
%TO.P,LS1,2,SELECT*%
%TO.N,unconnected-(LS1-SELECT-Pad2)*%
X149025000Y-80321400D03*
D12*
%TO.P,LS1,3,GROUND*%
%TO.N,GND*%
X149888084Y-82228209D03*
D11*
%TO.P,LS1,4,CLOCK*%
%TO.N,/MIC_CLOCK*%
X150700000Y-80321400D03*
%TO.P,LS1,5,VDD*%
%TO.N,VDD*%
X150700000Y-79499400D03*
%TD*%
D13*
%TO.P,J2,1,Pin_1*%
%TO.N,Net-(J2-Pin_1)*%
X145860000Y-85230000D03*
%TO.P,J2,2,Pin_2*%
%TO.N,Net-(J2-Pin_2)*%
X147130000Y-85230000D03*
%TO.P,J2,3,Pin_3*%
%TO.N,Net-(J2-Pin_3)*%
X148400000Y-85230000D03*
%TD*%
D14*
%TO.P,L2,1,1*%
%TO.N,Net-(C3-Pad1)*%
X166587500Y-74950000D03*
%TO.P,L2,2,2*%
%TO.N,Net-(U3D-ANT)*%
X165012500Y-74950000D03*
%TD*%
D15*
%TO.P,C10,1*%
%TO.N,GND*%
X138850000Y-62310000D03*
%TO.P,C10,2*%
%TO.N,VDD*%
X138850000Y-63860000D03*
%TD*%
D16*
%TO.P,J1,A1,GND*%
%TO.N,GND*%
X135130000Y-68770000D03*
%TO.P,J1,A4,VBUS*%
%TO.N,VBUS*%
X135130000Y-69570000D03*
D17*
%TO.P,J1,A5,CC1*%
%TO.N,Net-(J1-CC1)*%
X135130000Y-70720000D03*
%TO.P,J1,A6,D+*%
%TO.N,/D+*%
X135130000Y-71720000D03*
%TO.P,J1,A7,D-*%
%TO.N,/D-*%
X135130000Y-72220000D03*
%TO.P,J1,A8,SBU1*%
%TO.N,unconnected-(J1-SBU1-PadA8)*%
X135130000Y-73220000D03*
D16*
%TO.P,J1,A9,VBUS*%
%TO.N,VBUS*%
X135130000Y-74370000D03*
%TO.P,J1,A12,GND*%
%TO.N,GND*%
X135130000Y-75170000D03*
%TO.P,J1,B1,GND*%
X135130000Y-75170000D03*
%TO.P,J1,B4,VBUS*%
%TO.N,VBUS*%
X135130000Y-74370000D03*
D17*
%TO.P,J1,B5,CC2*%
%TO.N,Net-(J1-CC2)*%
X135130000Y-73720000D03*
%TO.P,J1,B6,D+*%
%TO.N,/D+*%
X135130000Y-72720000D03*
%TO.P,J1,B7,D-*%
%TO.N,/D-*%
X135130000Y-71220000D03*
%TO.P,J1,B8,SBU2*%
%TO.N,unconnected-(J1-SBU2-PadB8)*%
X135130000Y-70220000D03*
D16*
%TO.P,J1,B9,VBUS*%
%TO.N,VBUS*%
X135130000Y-69570000D03*
%TO.P,J1,B12,GND*%
%TO.N,GND*%
X135130000Y-68770000D03*
D18*
%TO.P,J1,S1,SHIELD*%
X134555000Y-66860000D03*
X130625000Y-66860000D03*
X134555000Y-77080000D03*
X130625000Y-77080000D03*
%TD*%
D13*
%TO.P,LS5,1,1*%
%TO.N,Net-(U6-OUTN)*%
X173530000Y-78530000D03*
%TO.P,LS5,2,2*%
%TO.N,Net-(U6-OUTP)*%
X174800000Y-78530000D03*
%TD*%
%TO.P,LS4,1,1*%
%TO.N,Net-(U6-OUTN)*%
X173530000Y-76120000D03*
%TO.P,LS4,2,2*%
%TO.N,Net-(U6-OUTP)*%
X174800000Y-76120000D03*
%TD*%
D15*
%TO.P,C3,1*%
%TO.N,Net-(C3-Pad1)*%
X166910000Y-76655000D03*
%TO.P,C3,2*%
%TO.N,GND*%
X166910000Y-78205000D03*
%TD*%
D19*
%TO.P,Y2,1,1*%
%TO.N,Net-(U3B-P0.01{slash}XL2)*%
X151770000Y-73550000D03*
%TO.P,Y2,2,2*%
%TO.N,Net-(U3B-P0.00{slash}XL1)*%
X151770000Y-72450000D03*
%TD*%
D20*
%TO.P,U4,A1,D-*%
%TO.N,/D-*%
X147760000Y-59040000D03*
%TO.P,U4,A2,D+*%
%TO.N,/D+*%
X147760000Y-59440000D03*
%TO.P,U4,A3,DEC*%
%TO.N,Net-(U4-DEC)*%
X147760000Y-59840000D03*
%TO.P,U4,A4,SW*%
%TO.N,Net-(U4-SW)*%
X147760000Y-60240000D03*
%TO.P,U4,A5,PVSS*%
%TO.N,GND*%
X147760000Y-60640000D03*
%TO.P,U4,B1,VBUS*%
%TO.N,VBUS*%
X147360000Y-59040000D03*
%TO.P,U4,B2,VBUS*%
X147360000Y-59440000D03*
%TO.P,U4,B3,VOUTBSET1*%
%TO.N,GND*%
X147360000Y-59840000D03*
%TO.P,U4,B4,VOUTBSET0*%
X147360000Y-60240000D03*
%TO.P,U4,B5,VOUTB*%
%TO.N,VDD*%
X147360000Y-60640000D03*
%TO.P,U4,C1,VSYS*%
%TO.N,VSYS*%
X146960000Y-59040000D03*
%TO.P,U4,C2,VSYS*%
X146960000Y-59440000D03*
%TO.P,U4,C3,VTERMSET*%
%TO.N,VDD*%
X146960000Y-59840000D03*
%TO.P,U4,C4,AVSS*%
%TO.N,GND*%
X146960000Y-60240000D03*
%TO.P,U4,C5,AVSS*%
X146960000Y-60640000D03*
%TO.P,U4,D1,VBAT*%
%TO.N,+3.3V*%
X146560000Y-59040000D03*
%TO.P,U4,D2,VBAT*%
X146560000Y-59440000D03*
%TO.P,U4,D3,SHPHLD*%
%TO.N,GND*%
X146560000Y-59840000D03*
%TO.P,U4,D4,SHPACT*%
X146560000Y-60240000D03*
%TO.P,U4,D5,ISET*%
%TO.N,/ISET*%
X146560000Y-60640000D03*
%TO.P,U4,E1,NTC*%
%TO.N,Net-(U4-NTC)*%
X146160000Y-59040000D03*
%TO.P,U4,E2,ICHG*%
%TO.N,Net-(U4-ICHG)*%
X146160000Y-59440000D03*
%TO.P,U4,E3,ERR*%
%TO.N,Net-(D1-K)*%
X146160000Y-59840000D03*
%TO.P,U4,E4,CHG*%
%TO.N,Net-(D2-K)*%
X146160000Y-60240000D03*
%TO.P,U4,E5,MODE*%
%TO.N,GND*%
X146160000Y-60640000D03*
%TD*%
D21*
%TO.P,R5,1*%
%TO.N,GND*%
X143990000Y-54075000D03*
%TO.P,R5,2*%
%TO.N,Net-(U4-ICHG)*%
X143990000Y-55725000D03*
%TD*%
D22*
%TO.P,U1,1,SDO*%
%TO.N,GND*%
X140598000Y-65758101D03*
%TO.P,U1,2,SDX*%
%TO.N,/I2C_SDA*%
X141110000Y-65770100D03*
%TO.P,U1,3,VDDIO*%
%TO.N,VDD*%
X141610000Y-65770100D03*
%TO.P,U1,4,NC*%
%TO.N,unconnected-(U1-NC-Pad4)*%
X142122000Y-65758101D03*
%TO.P,U1,5,INT1*%
%TO.N,/INT1*%
X142122000Y-65258100D03*
%TO.P,U1,6,INT2*%
%TO.N,/INT2*%
X142122000Y-64758100D03*
%TO.P,U1,7,VDD*%
%TO.N,VDD*%
X142110001Y-64246100D03*
%TO.P,U1,8,GNDIO*%
%TO.N,GND*%
X141610000Y-64246100D03*
%TO.P,U1,9,GND*%
X141110000Y-64246100D03*
%TO.P,U1,10,CSB*%
%TO.N,VDD*%
X140598000Y-64258099D03*
%TO.P,U1,11,NC*%
%TO.N,unconnected-(U1-NC-Pad11)*%
X140598000Y-64758100D03*
%TO.P,U1,12,SCX*%
%TO.N,/I2C_SCL*%
X140598000Y-65258100D03*
%TD*%
D23*
%TO.P,R34,1*%
%TO.N,VDD*%
X171250000Y-69770000D03*
%TO.P,R34,2*%
%TO.N,/SD_MODE*%
X171250000Y-68120000D03*
%TD*%
D24*
%TO.P,C4,1*%
%TO.N,Net-(C3-Pad1)*%
X169825000Y-62060000D03*
%TO.P,C4,2*%
%TO.N,GND*%
X171375000Y-62060000D03*
%TD*%
D25*
%TO.P,C12,1*%
%TO.N,VDD*%
X158530000Y-67433000D03*
%TO.P,C12,2*%
%TO.N,GND*%
X158530000Y-65883000D03*
%TD*%
D26*
%TO.P,Y1,1,1*%
%TO.N,Net-(U3D-XC1)*%
X163158100Y-66060000D03*
%TO.P,Y1,2,2*%
%TO.N,GND*%
X160541900Y-66060000D03*
%TO.P,Y1,3*%
%TO.N,Net-(U3D-XC2)*%
X160541900Y-67710000D03*
%TO.P,Y1,4*%
%TO.N,GND*%
X163158100Y-67710000D03*
%TD*%
D27*
%TO.P,U2,1,\u002AIRQ*%
%TO.N,/IRQ*%
X141840000Y-80539999D03*
%TO.P,U2,2,SCL*%
%TO.N,/I2C_SCL*%
X141840000Y-80940001D03*
%TO.P,U2,3,SDA*%
%TO.N,/I2C_SDA*%
X141840000Y-81340000D03*
%TO.P,U2,4,ADDR*%
%TO.N,GND*%
X141840000Y-81739999D03*
%TO.P,U2,5,VREG*%
%TO.N,Net-(U2-VREG)*%
X141840000Y-82140001D03*
D28*
%TO.P,U2,6,VSS*%
%TO.N,GND*%
X142449699Y-82749700D03*
%TO.P,U2,7,REXT*%
%TO.N,Net-(U2-REXT)*%
X142849701Y-82749700D03*
%TO.P,U2,8,ELE0*%
%TO.N,Net-(J2-Pin_1)*%
X143249700Y-82749700D03*
%TO.P,U2,9,ELE1*%
%TO.N,Net-(J2-Pin_2)*%
X143649699Y-82749700D03*
%TO.P,U2,10,ELE2*%
%TO.N,Net-(J2-Pin_3)*%
X144049701Y-82749700D03*
D27*
%TO.P,U2,11,ELE3*%
%TO.N,unconnected-(U2-ELE3-Pad11)*%
X144659400Y-82140001D03*
%TO.P,U2,12,ELE4*%
%TO.N,unconnected-(U2-ELE4-Pad12)*%
X144659400Y-81739999D03*
%TO.P,U2,13,ELE5*%
%TO.N,unconnected-(U2-ELE5-Pad13)*%
X144659400Y-81340000D03*
%TO.P,U2,14,ELE6*%
%TO.N,unconnected-(U2-ELE6-Pad14)*%
X144659400Y-80940001D03*
%TO.P,U2,15,ELE7*%
%TO.N,unconnected-(U2-ELE7-Pad15)*%
X144659400Y-80539999D03*
D28*
%TO.P,U2,16,ELE8*%
%TO.N,unconnected-(U2-ELE8-Pad16)*%
X144049701Y-79930300D03*
%TO.P,U2,17,ELE9*%
%TO.N,unconnected-(U2-ELE9-Pad17)*%
X143649699Y-79930300D03*
%TO.P,U2,18,ELE10*%
%TO.N,unconnected-(U2-ELE10-Pad18)*%
X143249700Y-79930300D03*
%TO.P,U2,19,ELE11*%
%TO.N,unconnected-(U2-ELE11-Pad19)*%
X142849701Y-79930300D03*
%TO.P,U2,20,VDD*%
%TO.N,VDD*%
X142449699Y-79930300D03*
D29*
%TO.P,U2,HTAB,HTAB*%
%TO.N,unconnected-(U2-PadHTAB)*%
X143249700Y-81340000D03*
%TD*%
D30*
%TO.P,L5,1,1*%
%TO.N,VDD*%
X149960000Y-63050000D03*
%TO.P,L5,2,2*%
%TO.N,Net-(U4-SW)*%
X149960000Y-61475000D03*
%TD*%
D31*
%TO.P,R1,1*%
%TO.N,Net-(U2-REXT)*%
X142750000Y-84585000D03*
%TO.P,R1,2*%
%TO.N,GND*%
X141100000Y-84585000D03*
%TD*%
D32*
%TO.P,R10,1*%
%TO.N,/I2C_SDA*%
X144810000Y-68160000D03*
%TO.P,R10,2*%
%TO.N,VDD*%
X146460000Y-68160000D03*
%TD*%
D23*
%TO.P,R11,1*%
%TO.N,Net-(D2-A)*%
X141470000Y-59045000D03*
%TO.P,R11,2*%
%TO.N,VSYS*%
X141470000Y-57395000D03*
%TD*%
D25*
%TO.P,C15,1*%
%TO.N,VDD*%
X153570000Y-67420000D03*
%TO.P,C15,2*%
%TO.N,GND*%
X153570000Y-65870000D03*
%TD*%
D32*
%TO.P,R8,1*%
%TO.N,GND*%
X173395000Y-72480000D03*
%TO.P,R8,2*%
%TO.N,Net-(U6-GAIN_SLOT)*%
X175045000Y-72480000D03*
%TD*%
D33*
%TO.P,C37,1*%
%TO.N,VDD*%
X151895000Y-75250000D03*
%TO.P,C37,2*%
%TO.N,GND*%
X150345000Y-75250000D03*
%TD*%
D24*
%TO.P,C7,1*%
%TO.N,Net-(U3D-XC2)*%
X161575000Y-64185000D03*
%TO.P,C7,2*%
%TO.N,GND*%
X163125000Y-64185000D03*
%TD*%
D31*
%TO.P,R2,1*%
%TO.N,GND*%
X139535000Y-70100000D03*
%TO.P,R2,2*%
%TO.N,Net-(J1-CC1)*%
X137885000Y-70100000D03*
%TD*%
D13*
%TO.P,J3,1,Pin_1*%
%TO.N,/TX*%
X154060000Y-85230000D03*
%TO.P,J3,2,Pin_2*%
%TO.N,/RX*%
X155330000Y-85230000D03*
%TO.P,J3,3,Pin_3*%
%TO.N,GND*%
X156600000Y-85230000D03*
%TD*%
D34*
%TO.P,AE1,1,A*%
%TO.N,Net-(AE1-A)*%
X168360000Y-59160000D03*
D35*
%TO.P,AE1,2,Shield*%
%TO.N,GND*%
X170460000Y-59160000D03*
%TD*%
D36*
%TO.P,U3,*%
%TO.N,*%
X154265000Y-69898000D03*
X154265000Y-76298000D03*
X160665000Y-69898000D03*
X160665000Y-76298000D03*
D37*
%TO.P,U3,A5,VBUS*%
%TO.N,Net-(U3A-VBUS)*%
X155265000Y-69898000D03*
%TO.P,U3,A13,DECA*%
%TO.N,Net-(U3A-DECA)*%
X156865000Y-69898000D03*
%TO.P,U3,A15,DECD*%
%TO.N,Net-(U3A-DECD)*%
X157265000Y-69898000D03*
%TO.P,U3,A17,P1.13*%
%TO.N,/LRCLK*%
X157665000Y-69898000D03*
%TO.P,U3,A19,VDD*%
%TO.N,VDD*%
X158065000Y-69898000D03*
%TO.P,U3,A21,DCCR*%
%TO.N,Net-(U3A-DCCR)*%
X158465000Y-69898000D03*
%TO.P,U3,A23,DECN*%
%TO.N,Net-(U3A-DECN)*%
X158865000Y-69898000D03*
%TO.P,U3,A25,VSS*%
%TO.N,GND*%
X159265000Y-69898000D03*
%TO.P,U3,A27,DECR*%
%TO.N,Net-(U3A-DECR)*%
X159665000Y-69898000D03*
%TO.P,U3,AA1,P0.03/NFC2*%
%TO.N,GND*%
X154265000Y-74098000D03*
%TO.P,U3,AA31,SWDIO*%
%TO.N,/SWDIO*%
X160665000Y-74098000D03*
%TO.P,U3,AB2,P0.06/AIN2*%
%TO.N,/INT1*%
X154665000Y-74298000D03*
%TO.P,U3,AC1,VDD*%
%TO.N,VDD*%
X154265000Y-74498000D03*
%TO.P,U3,AC31,nRESET*%
%TO.N,/nRESET*%
X160665000Y-74498000D03*
%TO.P,U3,AD2,P0.07/AIN3*%
%TO.N,/INT2*%
X154665000Y-74698000D03*
%TO.P,U3,AE1,P1.02/TWI*%
%TO.N,unconnected-(U3C-P1.02{slash}TWI-PadAE1)*%
X154265000Y-74898000D03*
%TO.P,U3,AE31,P0.28/AIN7*%
%TO.N,unconnected-(U3B-P0.28{slash}AIN7-PadAE31)*%
X160665000Y-74898000D03*
%TO.P,U3,AF2,P1.03/TWI*%
%TO.N,unconnected-(U3C-P1.03{slash}TWI-PadAF2)*%
X154665000Y-75098000D03*
%TO.P,U3,AG1,VDD*%
%TO.N,VDD*%
X154265000Y-75298000D03*
%TO.P,U3,AG31,DECF*%
%TO.N,unconnected-(U3A-DECF-PadAG31)*%
X160665000Y-75298000D03*
%TO.P,U3,AH2,P0.08/TRACEDATA3/SCK*%
%TO.N,unconnected-(U3B-P0.08{slash}TRACEDATA3{slash}SCK-PadAH2)*%
X154665000Y-75498000D03*
%TO.P,U3,AJ1,P0.09/TRACEDATA2/MOSI*%
%TO.N,unconnected-(U3B-P0.09{slash}TRACEDATA2{slash}MOSI-PadAJ1)*%
X154265000Y-75698000D03*
%TO.P,U3,AJ31,VDD*%
%TO.N,VDD*%
X160665000Y-75698000D03*
%TO.P,U3,AK2,P0.10/TRACEDATA1/MISO*%
%TO.N,unconnected-(U3B-P0.10{slash}TRACEDATA1{slash}MISO-PadAK2)*%
X154665000Y-75898000D03*
%TO.P,U3,AK4,P0.11/TRACEDATA0/CSN*%
%TO.N,unconnected-(U3B-P0.11{slash}TRACEDATA0{slash}CSN-PadAK4)*%
X155065000Y-75898000D03*
%TO.P,U3,AK6,P0.12/TRACECLK/DCX*%
%TO.N,unconnected-(U3B-P0.12{slash}TRACECLK{slash}DCX-PadAK6)*%
X155465000Y-75898000D03*
%TO.P,U3,AK8,P0.14/IO1*%
%TO.N,unconnected-(U3B-P0.14{slash}IO1-PadAK8)*%
X155865000Y-75898000D03*
%TO.P,U3,AK10,P0.15/IO2*%
%TO.N,unconnected-(U3B-P0.15{slash}IO2-PadAK10)*%
X156265000Y-75898000D03*
%TO.P,U3,AK12,P0.17/SCK*%
%TO.N,unconnected-(U3B-P0.17{slash}SCK-PadAK12)*%
X156665000Y-75898000D03*
%TO.P,U3,AK14,P0.18/CSN*%
%TO.N,unconnected-(U3B-P0.18{slash}CSN-PadAK14)*%
X157065000Y-75898000D03*
%TO.P,U3,AK16,P0.20*%
%TO.N,/SD_MODE*%
X157465000Y-75898000D03*
%TO.P,U3,AK18,P0.22*%
%TO.N,/ISET*%
X157865000Y-75898000D03*
%TO.P,U3,AK20,P0.23*%
%TO.N,unconnected-(U3B-P0.23-PadAK20)*%
X158265000Y-75898000D03*
%TO.P,U3,AK22,P1.05*%
%TO.N,unconnected-(U3C-P1.05-PadAK22)*%
X158665000Y-75898000D03*
%TO.P,U3,AK24,P1.07*%
%TO.N,unconnected-(U3C-P1.07-PadAK24)*%
X159065000Y-75898000D03*
%TO.P,U3,AK26,P1.09*%
%TO.N,unconnected-(U3C-P1.09-PadAK26)*%
X159465000Y-75898000D03*
%TO.P,U3,AK28,P0.25/AIN4*%
%TO.N,/MIC_DATA*%
X159865000Y-75898000D03*
%TO.P,U3,AK30,P0.27/AIN6*%
%TO.N,unconnected-(U3B-P0.27{slash}AIN6-PadAK30)*%
X160265000Y-75898000D03*
%TO.P,U3,AL3,VDD*%
%TO.N,VDD*%
X154865000Y-76298000D03*
%TO.P,U3,AL5,P0.13/IO0*%
%TO.N,unconnected-(U3B-P0.13{slash}IO0-PadAL5)*%
X155265000Y-76298000D03*
%TO.P,U3,AL7,VDD*%
%TO.N,VDD*%
X155665000Y-76298000D03*
%TO.P,U3,AL9,P0.16/IO3*%
%TO.N,unconnected-(U3B-P0.16{slash}IO3-PadAL9)*%
X156065000Y-76298000D03*
%TO.P,U3,AL11,VDD*%
%TO.N,VDD*%
X156465000Y-76298000D03*
%TO.P,U3,AL13,P0.19*%
%TO.N,unconnected-(U3B-P0.19-PadAL13)*%
X156865000Y-76298000D03*
%TO.P,U3,AL15,P0.21*%
%TO.N,/IRQ*%
X157265000Y-76298000D03*
%TO.P,U3,AL17,VDD*%
%TO.N,VDD*%
X157665000Y-76298000D03*
%TO.P,U3,AL19,P1.04*%
%TO.N,unconnected-(U3C-P1.04-PadAL19)*%
X158065000Y-76298000D03*
%TO.P,U3,AL21,P1.06*%
%TO.N,unconnected-(U3C-P1.06-PadAL21)*%
X158465000Y-76298000D03*
%TO.P,U3,AL23,P1.08*%
%TO.N,unconnected-(U3C-P1.08-PadAL23)*%
X158865000Y-76298000D03*
%TO.P,U3,AL25,VDD*%
%TO.N,VDD*%
X159265000Y-76298000D03*
%TO.P,U3,AL27,P0.24*%
%TO.N,unconnected-(U3B-P0.24-PadAL27)*%
X159665000Y-76298000D03*
%TO.P,U3,AL29,P0.26/AIN5*%
%TO.N,/MIC_CLOCK*%
X160065000Y-76298000D03*
%TO.P,U3,B2,D+*%
%TO.N,/D+*%
X154665000Y-70298000D03*
%TO.P,U3,B4,D-*%
%TO.N,/D-*%
X155065000Y-70298000D03*
%TO.P,U3,B6,DECUSB*%
%TO.N,Net-(U3A-DECUSB)*%
X155465000Y-70298000D03*
%TO.P,U3,B8,VDD*%
%TO.N,VDD*%
X155865000Y-70298000D03*
%TO.P,U3,B10,DCCD*%
%TO.N,Net-(U3A-DCCD)*%
X156265000Y-70298000D03*
%TO.P,U3,B12,VSS*%
%TO.N,GND*%
X156665000Y-70298000D03*
%TO.P,U3,B14,P1.15*%
%TO.N,unconnected-(U3C-P1.15-PadB14)*%
X157065000Y-70298000D03*
%TO.P,U3,B16,P1.14*%
%TO.N,/SDOUT*%
X157465000Y-70298000D03*
%TO.P,U3,B18,P1.12*%
%TO.N,/SCK*%
X157865000Y-70298000D03*
%TO.P,U3,B20,P1.11*%
%TO.N,unconnected-(U3C-P1.11-PadB20)*%
X158265000Y-70298000D03*
%TO.P,U3,B22,P0.31*%
%TO.N,unconnected-(U3B-P0.31-PadB22)*%
X158665000Y-70298000D03*
%TO.P,U3,B24,P0.30*%
%TO.N,unconnected-(U3B-P0.30-PadB24)*%
X159065000Y-70298000D03*
%TO.P,U3,B26,VSS*%
%TO.N,GND*%
X159465000Y-70298000D03*
%TO.P,U3,B28,VDD*%
%TO.N,VDD*%
X159865000Y-70298000D03*
%TO.P,U3,B30,XC2*%
%TO.N,Net-(U3D-XC2)*%
X160265000Y-70298000D03*
%TO.P,U3,C1,VDD*%
%TO.N,VDD*%
X154265000Y-70498000D03*
%TO.P,U3,C31,XC1*%
%TO.N,Net-(U3D-XC1)*%
X160665000Y-70498000D03*
%TO.P,U3,D2,NC*%
%TO.N,unconnected-(U3D-NC-PadD2)*%
X154665000Y-70698000D03*
%TO.P,U3,E1,VDDH*%
%TO.N,VDD*%
X154265000Y-70898000D03*
%TO.P,U3,E31,VDD*%
X160665000Y-70898000D03*
D38*
%TO.P,U3,EP*%
%TO.N,GND*%
X157665000Y-73098000D03*
D37*
%TO.P,U3,F2,NC*%
%TO.N,unconnected-(U3D-NC-PadF2)*%
X154665000Y-71098000D03*
%TO.P,U3,G1,VSS*%
%TO.N,GND*%
X154265000Y-71298000D03*
%TO.P,U3,G31,DECRF*%
%TO.N,Net-(U3A-DECR)*%
X160665000Y-71298000D03*
%TO.P,U3,H2,VSS*%
%TO.N,GND*%
X154665000Y-71498000D03*
%TO.P,U3,J1,DCCH*%
%TO.N,unconnected-(U3A-DCCH-PadJ1)*%
X154265000Y-71698000D03*
%TO.P,U3,J31,VSS*%
%TO.N,GND*%
X160665000Y-71698000D03*
%TO.P,U3,K2,NC*%
%TO.N,unconnected-(U3D-NC-PadK2)*%
X154665000Y-71898000D03*
%TO.P,U3,L1,VDD*%
%TO.N,VDD*%
X154265000Y-72098000D03*
%TO.P,U3,L31,ANT*%
%TO.N,Net-(U3D-ANT)*%
X160665000Y-72098000D03*
%TO.P,U3,M2,P1.00*%
%TO.N,/TX*%
X154665000Y-72298000D03*
%TO.P,U3,N1,P0.00/XL1*%
%TO.N,Net-(U3B-P0.00{slash}XL1)*%
X154265000Y-72498000D03*
%TO.P,U3,N31,VDD*%
%TO.N,VDD*%
X160665000Y-72498000D03*
%TO.P,U3,P2,P1.01*%
%TO.N,/RX*%
X154665000Y-72698000D03*
%TO.P,U3,R1,P0.01/XL2*%
%TO.N,Net-(U3B-P0.01{slash}XL2)*%
X154265000Y-72898000D03*
%TO.P,U3,R31,P1.10*%
%TO.N,unconnected-(U3C-P1.10-PadR31)*%
X160665000Y-72898000D03*
%TO.P,U3,T2,NC*%
%TO.N,unconnected-(U3D-NC-PadT2)*%
X154665000Y-73098000D03*
%TO.P,U3,U1,VDD*%
%TO.N,VDD*%
X154265000Y-73298000D03*
%TO.P,U3,U31,P0.29*%
%TO.N,unconnected-(U3B-P0.29-PadU31)*%
X160665000Y-73298000D03*
%TO.P,U3,V2,P0.04/AIN0*%
%TO.N,/I2C_SCL*%
X154665000Y-73498000D03*
%TO.P,U3,W1,P0.02/NFC1*%
%TO.N,GND*%
X154265000Y-73698000D03*
%TO.P,U3,W31,SWDCLK*%
%TO.N,/SWDCLK*%
X160665000Y-73698000D03*
%TO.P,U3,Y2,P0.05/AIN1*%
%TO.N,/I2C_SDA*%
X154665000Y-73898000D03*
%TD*%
D33*
%TO.P,C17,1*%
%TO.N,Net-(U3A-DECD)*%
X158297500Y-63830000D03*
%TO.P,C17,2*%
%TO.N,GND*%
X156747500Y-63830000D03*
%TD*%
%TO.P,C33,1*%
%TO.N,VDD*%
X151895000Y-69730000D03*
%TO.P,C33,2*%
%TO.N,GND*%
X150345000Y-69730000D03*
%TD*%
D21*
%TO.P,R6,1*%
%TO.N,GND*%
X145620000Y-54075000D03*
%TO.P,R6,2*%
%TO.N,Net-(U4-NTC)*%
X145620000Y-55725000D03*
%TD*%
D13*
%TO.P,BT1,1,+*%
%TO.N,+3.3V*%
X163620000Y-85240000D03*
%TO.P,BT1,2,-*%
%TO.N,GND*%
X161080000Y-85240000D03*
%TD*%
D23*
%TO.P,R12,1*%
%TO.N,Net-(D1-A)*%
X143300000Y-59050000D03*
%TO.P,R12,2*%
%TO.N,VSYS*%
X143300000Y-57400000D03*
%TD*%
D24*
%TO.P,C5,1*%
%TO.N,Net-(AE1-A)*%
X169825000Y-60535000D03*
%TO.P,C5,2*%
%TO.N,GND*%
X171375000Y-60535000D03*
%TD*%
D39*
%TO.P,U6,A1,SD_MODE*%
%TO.N,/SD_MODE*%
X173880000Y-69430000D03*
%TO.P,U6,A2,VDD*%
%TO.N,+3.3V*%
X174280000Y-69430000D03*
%TO.P,U6,A3,OUTP*%
%TO.N,Net-(U6-OUTP)*%
X174680000Y-69430000D03*
%TO.P,U6,B1,DIN*%
%TO.N,/SDOUT*%
X173880000Y-69830000D03*
%TO.P,U6,B2,GAIN_SLOT*%
%TO.N,Net-(U6-GAIN_SLOT)*%
X174280000Y-69830000D03*
%TO.P,U6,B3,OUTN*%
%TO.N,Net-(U6-OUTN)*%
X174680000Y-69830000D03*
%TO.P,U6,C1,BCLK*%
%TO.N,/SCK*%
X173880000Y-70230000D03*
%TO.P,U6,C2,GND*%
%TO.N,GND*%
X174280000Y-70230000D03*
%TO.P,U6,C3,LRCLK*%
%TO.N,/LRCLK*%
X174680000Y-70230000D03*
%TD*%
D15*
%TO.P,C14,1*%
%TO.N,Net-(U3A-VBUS)*%
X153545000Y-62255000D03*
%TO.P,C14,2*%
%TO.N,GND*%
X153545000Y-63805000D03*
%TD*%
%TO.P,C34,1*%
%TO.N,VDD*%
X156240000Y-78835000D03*
%TO.P,C34,2*%
%TO.N,GND*%
X156240000Y-80385000D03*
%TD*%
D30*
%TO.P,D1,1,K*%
%TO.N,Net-(D1-K)*%
X143310000Y-62132500D03*
%TO.P,D1,2,A*%
%TO.N,Net-(D1-A)*%
X143310000Y-60557500D03*
%TD*%
D24*
%TO.P,C23,1*%
%TO.N,+3.3V*%
X173480000Y-66780000D03*
%TO.P,C23,2*%
%TO.N,GND*%
X175030000Y-66780000D03*
%TD*%
D15*
%TO.P,C31,1*%
%TO.N,VDD*%
X162960000Y-76295000D03*
%TO.P,C31,2*%
%TO.N,GND*%
X162960000Y-77845000D03*
%TD*%
%TO.P,C11,1*%
%TO.N,VDD*%
X139289700Y-78820000D03*
%TO.P,C11,2*%
%TO.N,GND*%
X139289700Y-80370000D03*
%TD*%
D13*
%TO.P,J4,1,Pin_1*%
%TO.N,VDD*%
X172235000Y-85230000D03*
%TO.P,J4,2,Pin_2*%
%TO.N,/SWDIO*%
X170965000Y-85230000D03*
%TO.P,J4,3,Pin_3*%
%TO.N,/SWDCLK*%
X169695000Y-85230000D03*
%TO.P,J4,4,Pin_4*%
%TO.N,GND*%
X168425000Y-85230000D03*
%TO.P,J4,5,Pin_5*%
%TO.N,/nRESET*%
X167150000Y-85230000D03*
%TD*%
D15*
%TO.P,C28,1*%
%TO.N,GND*%
X150510000Y-54160000D03*
%TO.P,C28,2*%
%TO.N,Net-(U4-DEC)*%
X150510000Y-55710000D03*
%TD*%
%TO.P,C36,1*%
%TO.N,VDD*%
X157860000Y-78835000D03*
%TO.P,C36,2*%
%TO.N,GND*%
X157860000Y-80385000D03*
%TD*%
D30*
%TO.P,L3,1,1*%
%TO.N,Net-(U3A-DECR)*%
X165075000Y-69572500D03*
%TO.P,L3,2,2*%
%TO.N,Net-(U3A-DCCR)*%
X165075000Y-67997500D03*
%TD*%
D23*
%TO.P,R4,1*%
%TO.N,Net-(U3A-VBUS)*%
X153540000Y-60785000D03*
%TO.P,R4,2*%
%TO.N,VBUS*%
X153540000Y-59135000D03*
%TD*%
D33*
%TO.P,C1,1*%
%TO.N,VDD*%
X141717000Y-67778101D03*
%TO.P,C1,2*%
%TO.N,GND*%
X140167000Y-67778101D03*
%TD*%
%TO.P,C2,1*%
%TO.N,Net-(U2-VREG)*%
X140125000Y-82985000D03*
%TO.P,C2,2*%
%TO.N,GND*%
X138575000Y-82985000D03*
%TD*%
D25*
%TO.P,C13,1*%
%TO.N,Net-(U3A-DECR)*%
X166975000Y-69535000D03*
%TO.P,C13,2*%
%TO.N,GND*%
X166975000Y-67985000D03*
%TD*%
D24*
%TO.P,C19,1*%
%TO.N,Net-(U3A-DECR)*%
X163585000Y-71180000D03*
%TO.P,C19,2*%
%TO.N,GND*%
X165135000Y-71180000D03*
%TD*%
D30*
%TO.P,D2,1,K*%
%TO.N,Net-(D2-K)*%
X141480000Y-62132500D03*
%TO.P,D2,2,A*%
%TO.N,Net-(D2-A)*%
X141480000Y-60557500D03*
%TD*%
D24*
%TO.P,C30,1*%
%TO.N,VDD*%
X163585000Y-72990000D03*
%TO.P,C30,2*%
%TO.N,GND*%
X165135000Y-72990000D03*
%TD*%
D31*
%TO.P,R3,1*%
%TO.N,GND*%
X139585000Y-74340000D03*
%TO.P,R3,2*%
%TO.N,Net-(J1-CC2)*%
X137935000Y-74340000D03*
%TD*%
D40*
%TO.P,L1,1,1*%
%TO.N,Net-(AE1-A)*%
X168275000Y-60522500D03*
%TO.P,L1,2,2*%
%TO.N,Net-(C3-Pad1)*%
X168275000Y-62097500D03*
%TD*%
D15*
%TO.P,C6,1*%
%TO.N,Net-(U3D-ANT)*%
X165100000Y-76665000D03*
%TO.P,C6,2*%
%TO.N,GND*%
X165100000Y-78215000D03*
%TD*%
D24*
%TO.P,C8,1*%
%TO.N,Net-(U3D-XC1)*%
X165200000Y-65985000D03*
%TO.P,C8,2*%
%TO.N,GND*%
X166750000Y-65985000D03*
%TD*%
D25*
%TO.P,C20,1*%
%TO.N,Net-(U3A-DECA)*%
X156895000Y-67433000D03*
%TO.P,C20,2*%
%TO.N,GND*%
X156895000Y-65883000D03*
%TD*%
D33*
%TO.P,C35,1*%
%TO.N,VDD*%
X151895000Y-76870000D03*
%TO.P,C35,2*%
%TO.N,GND*%
X150345000Y-76870000D03*
%TD*%
D25*
%TO.P,C16,1*%
%TO.N,Net-(U3A-DECUSB)*%
X155245000Y-67433000D03*
%TO.P,C16,2*%
%TO.N,GND*%
X155245000Y-65883000D03*
%TD*%
D14*
%TO.P,L4,1,1*%
%TO.N,Net-(U3A-DECD)*%
X158307500Y-62250000D03*
%TO.P,L4,2,2*%
%TO.N,Net-(U3A-DCCD)*%
X156732500Y-62250000D03*
%TD*%
D15*
%TO.P,C9,1*%
%TO.N,VDD*%
X152870000Y-80375000D03*
%TO.P,C9,2*%
%TO.N,GND*%
X152870000Y-81925000D03*
%TD*%
D25*
%TO.P,C38,1*%
%TO.N,VDD*%
X159940000Y-63115000D03*
%TO.P,C38,2*%
%TO.N,GND*%
X159940000Y-61565000D03*
%TD*%
D15*
%TO.P,C21,1*%
%TO.N,GND*%
X147220000Y-54135000D03*
%TO.P,C21,2*%
%TO.N,+3.3V*%
X147220000Y-55685000D03*
%TD*%
D32*
%TO.P,R9,1*%
%TO.N,/I2C_SCL*%
X144810000Y-66390000D03*
%TO.P,R9,2*%
%TO.N,VDD*%
X146460000Y-66390000D03*
%TD*%
D24*
%TO.P,C27,1*%
%TO.N,GND*%
X146795000Y-63060000D03*
%TO.P,C27,2*%
%TO.N,VDD*%
X148345000Y-63060000D03*
%TD*%
%TO.P,C25,1*%
%TO.N,+3.3V*%
X173480000Y-64960000D03*
%TO.P,C25,2*%
%TO.N,GND*%
X175030000Y-64960000D03*
%TD*%
D15*
%TO.P,C26,1*%
%TO.N,GND*%
X148810000Y-54125000D03*
%TO.P,C26,2*%
%TO.N,VBUS*%
X148810000Y-55675000D03*
%TD*%
D24*
%TO.P,C32,1*%
%TO.N,+3.3V*%
X173480000Y-63040000D03*
%TO.P,C32,2*%
%TO.N,GND*%
X175030000Y-63040000D03*
%TD*%
D15*
%TO.P,C18,1*%
%TO.N,Net-(U3A-DECN)*%
X155140000Y-62255000D03*
%TO.P,C18,2*%
%TO.N,GND*%
X155140000Y-63805000D03*
%TD*%
D11*
%TO.P,LS1,1,DATA*%
%TO.N,/MIC_DATA*%
X93125000Y-79474400D03*
%TO.P,LS1,2,SELECT*%
%TO.N,unconnected-(LS1-SELECT-Pad2)*%
X93125000Y-80296400D03*
D12*
%TO.P,LS1,3,GROUND*%
%TO.N,GND*%
X93988084Y-82203209D03*
D11*
%TO.P,LS1,4,CLOCK*%
%TO.N,/MIC_CLOCK*%
X94800000Y-80296400D03*
%TO.P,LS1,5,VDD*%
%TO.N,VDD*%
X94800000Y-79474400D03*
%TD*%
D15*
%TO.P,C9,1*%
%TO.N,VDD*%
X96970000Y-80350000D03*
%TO.P,C9,2*%
%TO.N,GND*%
X96970000Y-81900000D03*
%TD*%
D36*
%TO.P,U3,*%
%TO.N,*%
X98365000Y-69873000D03*
X98365000Y-76273000D03*
X104765000Y-69873000D03*
X104765000Y-76273000D03*
D37*
%TO.P,U3,A5,VBUS*%
%TO.N,Net-(U3A-VBUS)*%
X99365000Y-69873000D03*
%TO.P,U3,A13,DECA*%
%TO.N,Net-(U3A-DECA)*%
X100965000Y-69873000D03*
%TO.P,U3,A15,DECD*%
%TO.N,Net-(U3A-DECD)*%
X101365000Y-69873000D03*
%TO.P,U3,A17,P1.13*%
%TO.N,/LRCLK*%
X101765000Y-69873000D03*
%TO.P,U3,A19,VDD*%
%TO.N,VDD*%
X102165000Y-69873000D03*
%TO.P,U3,A21,DCCR*%
%TO.N,Net-(U3A-DCCR)*%
X102565000Y-69873000D03*
%TO.P,U3,A23,DECN*%
%TO.N,Net-(U3A-DECN)*%
X102965000Y-69873000D03*
%TO.P,U3,A25,VSS*%
%TO.N,GND*%
X103365000Y-69873000D03*
%TO.P,U3,A27,DECR*%
%TO.N,Net-(U3A-DECR)*%
X103765000Y-69873000D03*
%TO.P,U3,AA1,P0.03/NFC2*%
%TO.N,GND*%
X98365000Y-74073000D03*
%TO.P,U3,AA31,SWDIO*%
%TO.N,/SWDIO*%
X104765000Y-74073000D03*
%TO.P,U3,AB2,P0.06/AIN2*%
%TO.N,/INT1*%
X98765000Y-74273000D03*
%TO.P,U3,AC1,VDD*%
%TO.N,VDD*%
X98365000Y-74473000D03*
%TO.P,U3,AC31,nRESET*%
%TO.N,/nRESET*%
X104765000Y-74473000D03*
%TO.P,U3,AD2,P0.07/AIN3*%
%TO.N,/INT2*%
X98765000Y-74673000D03*
%TO.P,U3,AE1,P1.02/TWI*%
%TO.N,unconnected-(U3C-P1.02{slash}TWI-PadAE1)*%
X98365000Y-74873000D03*
%TO.P,U3,AE31,P0.28/AIN7*%
%TO.N,unconnected-(U3B-P0.28{slash}AIN7-PadAE31)*%
X104765000Y-74873000D03*
%TO.P,U3,AF2,P1.03/TWI*%
%TO.N,unconnected-(U3C-P1.03{slash}TWI-PadAF2)*%
X98765000Y-75073000D03*
%TO.P,U3,AG1,VDD*%
%TO.N,VDD*%
X98365000Y-75273000D03*
%TO.P,U3,AG31,DECF*%
%TO.N,unconnected-(U3A-DECF-PadAG31)*%
X104765000Y-75273000D03*
%TO.P,U3,AH2,P0.08/TRACEDATA3/SCK*%
%TO.N,unconnected-(U3B-P0.08{slash}TRACEDATA3{slash}SCK-PadAH2)*%
X98765000Y-75473000D03*
%TO.P,U3,AJ1,P0.09/TRACEDATA2/MOSI*%
%TO.N,unconnected-(U3B-P0.09{slash}TRACEDATA2{slash}MOSI-PadAJ1)*%
X98365000Y-75673000D03*
%TO.P,U3,AJ31,VDD*%
%TO.N,VDD*%
X104765000Y-75673000D03*
%TO.P,U3,AK2,P0.10/TRACEDATA1/MISO*%
%TO.N,unconnected-(U3B-P0.10{slash}TRACEDATA1{slash}MISO-PadAK2)*%
X98765000Y-75873000D03*
%TO.P,U3,AK4,P0.11/TRACEDATA0/CSN*%
%TO.N,unconnected-(U3B-P0.11{slash}TRACEDATA0{slash}CSN-PadAK4)*%
X99165000Y-75873000D03*
%TO.P,U3,AK6,P0.12/TRACECLK/DCX*%
%TO.N,unconnected-(U3B-P0.12{slash}TRACECLK{slash}DCX-PadAK6)*%
X99565000Y-75873000D03*
%TO.P,U3,AK8,P0.14/IO1*%
%TO.N,unconnected-(U3B-P0.14{slash}IO1-PadAK8)*%
X99965000Y-75873000D03*
%TO.P,U3,AK10,P0.15/IO2*%
%TO.N,unconnected-(U3B-P0.15{slash}IO2-PadAK10)*%
X100365000Y-75873000D03*
%TO.P,U3,AK12,P0.17/SCK*%
%TO.N,unconnected-(U3B-P0.17{slash}SCK-PadAK12)*%
X100765000Y-75873000D03*
%TO.P,U3,AK14,P0.18/CSN*%
%TO.N,unconnected-(U3B-P0.18{slash}CSN-PadAK14)*%
X101165000Y-75873000D03*
%TO.P,U3,AK16,P0.20*%
%TO.N,/SD_MODE*%
X101565000Y-75873000D03*
%TO.P,U3,AK18,P0.22*%
%TO.N,/ISET*%
X101965000Y-75873000D03*
%TO.P,U3,AK20,P0.23*%
%TO.N,unconnected-(U3B-P0.23-PadAK20)*%
X102365000Y-75873000D03*
%TO.P,U3,AK22,P1.05*%
%TO.N,unconnected-(U3C-P1.05-PadAK22)*%
X102765000Y-75873000D03*
%TO.P,U3,AK24,P1.07*%
%TO.N,unconnected-(U3C-P1.07-PadAK24)*%
X103165000Y-75873000D03*
%TO.P,U3,AK26,P1.09*%
%TO.N,unconnected-(U3C-P1.09-PadAK26)*%
X103565000Y-75873000D03*
%TO.P,U3,AK28,P0.25/AIN4*%
%TO.N,/MIC_DATA*%
X103965000Y-75873000D03*
%TO.P,U3,AK30,P0.27/AIN6*%
%TO.N,unconnected-(U3B-P0.27{slash}AIN6-PadAK30)*%
X104365000Y-75873000D03*
%TO.P,U3,AL3,VDD*%
%TO.N,VDD*%
X98965000Y-76273000D03*
%TO.P,U3,AL5,P0.13/IO0*%
%TO.N,unconnected-(U3B-P0.13{slash}IO0-PadAL5)*%
X99365000Y-76273000D03*
%TO.P,U3,AL7,VDD*%
%TO.N,VDD*%
X99765000Y-76273000D03*
%TO.P,U3,AL9,P0.16/IO3*%
%TO.N,unconnected-(U3B-P0.16{slash}IO3-PadAL9)*%
X100165000Y-76273000D03*
%TO.P,U3,AL11,VDD*%
%TO.N,VDD*%
X100565000Y-76273000D03*
%TO.P,U3,AL13,P0.19*%
%TO.N,unconnected-(U3B-P0.19-PadAL13)*%
X100965000Y-76273000D03*
%TO.P,U3,AL15,P0.21*%
%TO.N,/IRQ*%
X101365000Y-76273000D03*
%TO.P,U3,AL17,VDD*%
%TO.N,VDD*%
X101765000Y-76273000D03*
%TO.P,U3,AL19,P1.04*%
%TO.N,unconnected-(U3C-P1.04-PadAL19)*%
X102165000Y-76273000D03*
%TO.P,U3,AL21,P1.06*%
%TO.N,unconnected-(U3C-P1.06-PadAL21)*%
X102565000Y-76273000D03*
%TO.P,U3,AL23,P1.08*%
%TO.N,unconnected-(U3C-P1.08-PadAL23)*%
X102965000Y-76273000D03*
%TO.P,U3,AL25,VDD*%
%TO.N,VDD*%
X103365000Y-76273000D03*
%TO.P,U3,AL27,P0.24*%
%TO.N,unconnected-(U3B-P0.24-PadAL27)*%
X103765000Y-76273000D03*
%TO.P,U3,AL29,P0.26/AIN5*%
%TO.N,/MIC_CLOCK*%
X104165000Y-76273000D03*
%TO.P,U3,B2,D+*%
%TO.N,/D+*%
X98765000Y-70273000D03*
%TO.P,U3,B4,D-*%
%TO.N,/D-*%
X99165000Y-70273000D03*
%TO.P,U3,B6,DECUSB*%
%TO.N,Net-(U3A-DECUSB)*%
X99565000Y-70273000D03*
%TO.P,U3,B8,VDD*%
%TO.N,VDD*%
X99965000Y-70273000D03*
%TO.P,U3,B10,DCCD*%
%TO.N,Net-(U3A-DCCD)*%
X100365000Y-70273000D03*
%TO.P,U3,B12,VSS*%
%TO.N,GND*%
X100765000Y-70273000D03*
%TO.P,U3,B14,P1.15*%
%TO.N,unconnected-(U3C-P1.15-PadB14)*%
X101165000Y-70273000D03*
%TO.P,U3,B16,P1.14*%
%TO.N,/SDOUT*%
X101565000Y-70273000D03*
%TO.P,U3,B18,P1.12*%
%TO.N,/SCK*%
X101965000Y-70273000D03*
%TO.P,U3,B20,P1.11*%
%TO.N,unconnected-(U3C-P1.11-PadB20)*%
X102365000Y-70273000D03*
%TO.P,U3,B22,P0.31*%
%TO.N,unconnected-(U3B-P0.31-PadB22)*%
X102765000Y-70273000D03*
%TO.P,U3,B24,P0.30*%
%TO.N,unconnected-(U3B-P0.30-PadB24)*%
X103165000Y-70273000D03*
%TO.P,U3,B26,VSS*%
%TO.N,GND*%
X103565000Y-70273000D03*
%TO.P,U3,B28,VDD*%
%TO.N,VDD*%
X103965000Y-70273000D03*
%TO.P,U3,B30,XC2*%
%TO.N,Net-(U3D-XC2)*%
X104365000Y-70273000D03*
%TO.P,U3,C1,VDD*%
%TO.N,VDD*%
X98365000Y-70473000D03*
%TO.P,U3,C31,XC1*%
%TO.N,Net-(U3D-XC1)*%
X104765000Y-70473000D03*
%TO.P,U3,D2,NC*%
%TO.N,unconnected-(U3D-NC-PadD2)*%
X98765000Y-70673000D03*
%TO.P,U3,E1,VDDH*%
%TO.N,VDD*%
X98365000Y-70873000D03*
%TO.P,U3,E31,VDD*%
X104765000Y-70873000D03*
D38*
%TO.P,U3,EP*%
%TO.N,GND*%
X101765000Y-73073000D03*
D37*
%TO.P,U3,F2,NC*%
%TO.N,unconnected-(U3D-NC-PadF2)*%
X98765000Y-71073000D03*
%TO.P,U3,G1,VSS*%
%TO.N,GND*%
X98365000Y-71273000D03*
%TO.P,U3,G31,DECRF*%
%TO.N,Net-(U3A-DECR)*%
X104765000Y-71273000D03*
%TO.P,U3,H2,VSS*%
%TO.N,GND*%
X98765000Y-71473000D03*
%TO.P,U3,J1,DCCH*%
%TO.N,unconnected-(U3A-DCCH-PadJ1)*%
X98365000Y-71673000D03*
%TO.P,U3,J31,VSS*%
%TO.N,GND*%
X104765000Y-71673000D03*
%TO.P,U3,K2,NC*%
%TO.N,unconnected-(U3D-NC-PadK2)*%
X98765000Y-71873000D03*
%TO.P,U3,L1,VDD*%
%TO.N,VDD*%
X98365000Y-72073000D03*
%TO.P,U3,L31,ANT*%
%TO.N,Net-(U3D-ANT)*%
X104765000Y-72073000D03*
%TO.P,U3,M2,P1.00*%
%TO.N,/TX*%
X98765000Y-72273000D03*
%TO.P,U3,N1,P0.00/XL1*%
%TO.N,Net-(U3B-P0.00{slash}XL1)*%
X98365000Y-72473000D03*
%TO.P,U3,N31,VDD*%
%TO.N,VDD*%
X104765000Y-72473000D03*
%TO.P,U3,P2,P1.01*%
%TO.N,/RX*%
X98765000Y-72673000D03*
%TO.P,U3,R1,P0.01/XL2*%
%TO.N,Net-(U3B-P0.01{slash}XL2)*%
X98365000Y-72873000D03*
%TO.P,U3,R31,P1.10*%
%TO.N,unconnected-(U3C-P1.10-PadR31)*%
X104765000Y-72873000D03*
%TO.P,U3,T2,NC*%
%TO.N,unconnected-(U3D-NC-PadT2)*%
X98765000Y-73073000D03*
%TO.P,U3,U1,VDD*%
%TO.N,VDD*%
X98365000Y-73273000D03*
%TO.P,U3,U31,P0.29*%
%TO.N,unconnected-(U3B-P0.29-PadU31)*%
X104765000Y-73273000D03*
%TO.P,U3,V2,P0.04/AIN0*%
%TO.N,/I2C_SCL*%
X98765000Y-73473000D03*
%TO.P,U3,W1,P0.02/NFC1*%
%TO.N,GND*%
X98365000Y-73673000D03*
%TO.P,U3,W31,SWDCLK*%
%TO.N,/SWDCLK*%
X104765000Y-73673000D03*
%TO.P,U3,Y2,P0.05/AIN1*%
%TO.N,/I2C_SDA*%
X98765000Y-73873000D03*
%TD*%
D33*
%TO.P,C17,1*%
%TO.N,Net-(U3A-DECD)*%
X102397500Y-63805000D03*
%TO.P,C17,2*%
%TO.N,GND*%
X100847500Y-63805000D03*
%TD*%
D34*
%TO.P,AE1,1,A*%
%TO.N,Net-(AE1-A)*%
X112460000Y-59135000D03*
D35*
%TO.P,AE1,2,Shield*%
%TO.N,GND*%
X114560000Y-59135000D03*
%TD*%
D24*
%TO.P,C50,1*%
%TO.N,/A2*%
X119785000Y-96045000D03*
%TO.P,C50,2*%
%TO.N,/B2*%
X121335000Y-96045000D03*
%TD*%
%TO.P,C25,1*%
%TO.N,+3.3V*%
X117580000Y-64935000D03*
%TO.P,C25,2*%
%TO.N,GND*%
X119130000Y-64935000D03*
%TD*%
%TO.P,C27,1*%
%TO.N,GND*%
X90895000Y-63035000D03*
%TO.P,C27,2*%
%TO.N,VDD*%
X92445000Y-63035000D03*
%TD*%
D32*
%TO.P,R9,1*%
%TO.N,/I2C_SCL*%
X88910000Y-66365000D03*
%TO.P,R9,2*%
%TO.N,VDD*%
X90560000Y-66365000D03*
%TD*%
D15*
%TO.P,C21,1*%
%TO.N,GND*%
X91320000Y-54110000D03*
%TO.P,C21,2*%
%TO.N,+3.3V*%
X91320000Y-55660000D03*
%TD*%
D25*
%TO.P,C38,1*%
%TO.N,VDD*%
X104040000Y-63090000D03*
%TO.P,C38,2*%
%TO.N,GND*%
X104040000Y-61540000D03*
%TD*%
D32*
%TO.P,R15,1*%
%TO.N,/A4*%
X125985000Y-93570000D03*
%TO.P,R15,2*%
%TO.N,Net-(R15-Pad2)*%
X127635000Y-93570000D03*
%TD*%
D15*
%TO.P,C51,1*%
%TO.N,/A5*%
X124335000Y-99920000D03*
%TO.P,C51,2*%
%TO.N,/B5*%
X124335000Y-101470000D03*
%TD*%
%TO.P,C18,1*%
%TO.N,Net-(U3A-DECN)*%
X99240000Y-62230000D03*
%TO.P,C18,2*%
%TO.N,GND*%
X99240000Y-63780000D03*
%TD*%
D31*
%TO.P,R24,1*%
%TO.N,/B2*%
X123160000Y-97820000D03*
%TO.P,R24,2*%
%TO.N,Net-(R22-Pad2)*%
X121510000Y-97820000D03*
%TD*%
D15*
%TO.P,C26,1*%
%TO.N,GND*%
X92910000Y-54100000D03*
%TO.P,C26,2*%
%TO.N,VBUS*%
X92910000Y-55650000D03*
%TD*%
D24*
%TO.P,C32,1*%
%TO.N,+3.3V*%
X117580000Y-63015000D03*
%TO.P,C32,2*%
%TO.N,GND*%
X119130000Y-63015000D03*
%TD*%
D23*
%TO.P,R19,1*%
%TO.N,/B3*%
X121135000Y-94170000D03*
%TO.P,R19,2*%
%TO.N,Net-(R18-Pad2)*%
X121135000Y-92520000D03*
%TD*%
D41*
%TO.P,J6,5,Pin_5*%
%TO.N,/A5*%
X114660000Y-94140000D03*
%TO.P,J6,4,Pin_4*%
%TO.N,/A4*%
X114660000Y-95415000D03*
%TO.P,J6,3,Pin_3*%
%TO.N,/A3*%
X114660000Y-96685000D03*
%TO.P,J6,2,Pin_2*%
%TO.N,/A2*%
X114660000Y-97955000D03*
%TO.P,J6,1,Pin_1*%
%TO.N,/A1*%
X114660000Y-99225000D03*
%TD*%
D32*
%TO.P,R23,1*%
%TO.N,/A5*%
X125935000Y-99795000D03*
%TO.P,R23,2*%
%TO.N,Net-(R23-Pad2)*%
X127585000Y-99795000D03*
%TD*%
D15*
%TO.P,C34,1*%
%TO.N,VDD*%
X100340000Y-78810000D03*
%TO.P,C34,2*%
%TO.N,GND*%
X100340000Y-80360000D03*
%TD*%
%TO.P,C14,1*%
%TO.N,Net-(U3A-VBUS)*%
X97645000Y-62230000D03*
%TO.P,C14,2*%
%TO.N,GND*%
X97645000Y-63780000D03*
%TD*%
%TO.P,C28,1*%
%TO.N,GND*%
X94610000Y-54135000D03*
%TO.P,C28,2*%
%TO.N,Net-(U4-DEC)*%
X94610000Y-55685000D03*
%TD*%
D24*
%TO.P,C23,1*%
%TO.N,+3.3V*%
X117580000Y-66755000D03*
%TO.P,C23,2*%
%TO.N,GND*%
X119130000Y-66755000D03*
%TD*%
D39*
%TO.P,U6,A1,SD_MODE*%
%TO.N,/SD_MODE*%
X117980000Y-69405000D03*
%TO.P,U6,A2,VDD*%
%TO.N,+3.3V*%
X118380000Y-69405000D03*
%TO.P,U6,A3,OUTP*%
%TO.N,Net-(U6-OUTP)*%
X118780000Y-69405000D03*
%TO.P,U6,B1,DIN*%
%TO.N,/SDOUT*%
X117980000Y-69805000D03*
%TO.P,U6,B2,GAIN_SLOT*%
%TO.N,Net-(U6-GAIN_SLOT)*%
X118380000Y-69805000D03*
%TO.P,U6,B3,OUTN*%
%TO.N,Net-(U6-OUTN)*%
X118780000Y-69805000D03*
%TO.P,U6,C1,BCLK*%
%TO.N,/SCK*%
X117980000Y-70205000D03*
%TO.P,U6,C2,GND*%
%TO.N,GND*%
X118380000Y-70205000D03*
%TO.P,U6,C3,LRCLK*%
%TO.N,/LRCLK*%
X118780000Y-70205000D03*
%TD*%
D15*
%TO.P,C11,1*%
%TO.N,VDD*%
X83389700Y-78795000D03*
%TO.P,C11,2*%
%TO.N,GND*%
X83389700Y-80345000D03*
%TD*%
D13*
%TO.P,J4,1,Pin_1*%
%TO.N,VDD*%
X116335000Y-85205000D03*
%TO.P,J4,2,Pin_2*%
%TO.N,/SWDIO*%
X115065000Y-85205000D03*
%TO.P,J4,3,Pin_3*%
%TO.N,/SWDCLK*%
X113795000Y-85205000D03*
%TO.P,J4,4,Pin_4*%
%TO.N,GND*%
X112525000Y-85205000D03*
%TO.P,J4,5,Pin_5*%
%TO.N,/nRESET*%
X111250000Y-85205000D03*
%TD*%
D30*
%TO.P,D1,1,K*%
%TO.N,Net-(D1-K)*%
X87410000Y-62107500D03*
%TO.P,D1,2,A*%
%TO.N,Net-(D1-A)*%
X87410000Y-60532500D03*
%TD*%
D23*
%TO.P,R12,1*%
%TO.N,Net-(D1-A)*%
X87400000Y-59025000D03*
%TO.P,R12,2*%
%TO.N,VSYS*%
X87400000Y-57375000D03*
%TD*%
D24*
%TO.P,C5,1*%
%TO.N,Net-(AE1-A)*%
X113925000Y-60510000D03*
%TO.P,C5,2*%
%TO.N,GND*%
X115475000Y-60510000D03*
%TD*%
D13*
%TO.P,BT1,1,+*%
%TO.N,+3.3V*%
X107720000Y-85215000D03*
%TO.P,BT1,2,-*%
%TO.N,GND*%
X105180000Y-85215000D03*
%TD*%
D15*
%TO.P,C31,1*%
%TO.N,VDD*%
X107060000Y-76270000D03*
%TO.P,C31,2*%
%TO.N,GND*%
X107060000Y-77820000D03*
%TD*%
D21*
%TO.P,R6,1*%
%TO.N,GND*%
X89720000Y-54050000D03*
%TO.P,R6,2*%
%TO.N,Net-(U4-NTC)*%
X89720000Y-55700000D03*
%TD*%
D32*
%TO.P,R16,1*%
%TO.N,/B1*%
X119660000Y-101570000D03*
%TO.P,R16,2*%
%TO.N,Net-(R14-Pad2)*%
X121310000Y-101570000D03*
%TD*%
D33*
%TO.P,C33,1*%
%TO.N,VDD*%
X95995000Y-69705000D03*
%TO.P,C33,2*%
%TO.N,GND*%
X94445000Y-69705000D03*
%TD*%
D15*
%TO.P,C42,1*%
%TO.N,/A1*%
X117910000Y-99970000D03*
%TO.P,C42,2*%
%TO.N,/B1*%
X117910000Y-101520000D03*
%TD*%
%TO.P,C6,1*%
%TO.N,Net-(U3D-ANT)*%
X109200000Y-76640000D03*
%TO.P,C6,2*%
%TO.N,GND*%
X109200000Y-78190000D03*
%TD*%
D14*
%TO.P,L4,1,1*%
%TO.N,Net-(U3A-DECD)*%
X102407500Y-62225000D03*
%TO.P,L4,2,2*%
%TO.N,Net-(U3A-DCCD)*%
X100832500Y-62225000D03*
%TD*%
D25*
%TO.P,C20,1*%
%TO.N,Net-(U3A-DECA)*%
X100995000Y-67408000D03*
%TO.P,C20,2*%
%TO.N,GND*%
X100995000Y-65858000D03*
%TD*%
D40*
%TO.P,L1,1,1*%
%TO.N,Net-(AE1-A)*%
X112375000Y-60497500D03*
%TO.P,L1,2,2*%
%TO.N,Net-(C3-Pad1)*%
X112375000Y-62072500D03*
%TD*%
D30*
%TO.P,D2,1,K*%
%TO.N,Net-(D2-K)*%
X85580000Y-62107500D03*
%TO.P,D2,2,A*%
%TO.N,Net-(D2-A)*%
X85580000Y-60532500D03*
%TD*%
D24*
%TO.P,C30,1*%
%TO.N,VDD*%
X107685000Y-72965000D03*
%TO.P,C30,2*%
%TO.N,GND*%
X109235000Y-72965000D03*
%TD*%
D25*
%TO.P,C16,1*%
%TO.N,Net-(U3A-DECUSB)*%
X99345000Y-67408000D03*
%TO.P,C16,2*%
%TO.N,GND*%
X99345000Y-65858000D03*
%TD*%
D24*
%TO.P,C19,1*%
%TO.N,Net-(U3A-DECR)*%
X107685000Y-71155000D03*
%TO.P,C19,2*%
%TO.N,GND*%
X109235000Y-71155000D03*
%TD*%
D33*
%TO.P,C35,1*%
%TO.N,VDD*%
X95995000Y-76845000D03*
%TO.P,C35,2*%
%TO.N,GND*%
X94445000Y-76845000D03*
%TD*%
D31*
%TO.P,R3,1*%
%TO.N,GND*%
X83685000Y-74315000D03*
%TO.P,R3,2*%
%TO.N,Net-(J1-CC2)*%
X82035000Y-74315000D03*
%TD*%
D25*
%TO.P,C13,1*%
%TO.N,Net-(U3A-DECR)*%
X111075000Y-69510000D03*
%TO.P,C13,2*%
%TO.N,GND*%
X111075000Y-67960000D03*
%TD*%
D33*
%TO.P,C2,1*%
%TO.N,Net-(U2-VREG)*%
X84225000Y-82960000D03*
%TO.P,C2,2*%
%TO.N,GND*%
X82675000Y-82960000D03*
%TD*%
D24*
%TO.P,C8,1*%
%TO.N,Net-(U3D-XC1)*%
X109300000Y-65960000D03*
%TO.P,C8,2*%
%TO.N,GND*%
X110850000Y-65960000D03*
%TD*%
D30*
%TO.P,L3,1,1*%
%TO.N,Net-(U3A-DECR)*%
X109175000Y-69547500D03*
%TO.P,L3,2,2*%
%TO.N,Net-(U3A-DCCR)*%
X109175000Y-67972500D03*
%TD*%
D23*
%TO.P,R4,1*%
%TO.N,Net-(U3A-VBUS)*%
X97640000Y-60760000D03*
%TO.P,R4,2*%
%TO.N,VBUS*%
X97640000Y-59110000D03*
%TD*%
D15*
%TO.P,C36,1*%
%TO.N,VDD*%
X101960000Y-78810000D03*
%TO.P,C36,2*%
%TO.N,GND*%
X101960000Y-80360000D03*
%TD*%
D33*
%TO.P,C1,1*%
%TO.N,VDD*%
X85817000Y-67753101D03*
%TO.P,C1,2*%
%TO.N,GND*%
X84267000Y-67753101D03*
%TD*%
D32*
%TO.P,R25,1*%
%TO.N,/B5*%
X125960000Y-101595000D03*
%TO.P,R25,2*%
%TO.N,Net-(R23-Pad2)*%
X127610000Y-101595000D03*
%TD*%
D24*
%TO.P,C7,1*%
%TO.N,Net-(U3D-XC2)*%
X105675000Y-64160000D03*
%TO.P,C7,2*%
%TO.N,GND*%
X107225000Y-64160000D03*
%TD*%
D32*
%TO.P,R14,1*%
%TO.N,/A1*%
X119660000Y-99895000D03*
%TO.P,R14,2*%
%TO.N,Net-(R14-Pad2)*%
X121310000Y-99895000D03*
%TD*%
D31*
%TO.P,R2,1*%
%TO.N,GND*%
X83635000Y-70075000D03*
%TO.P,R2,2*%
%TO.N,Net-(J1-CC1)*%
X81985000Y-70075000D03*
%TD*%
D42*
%TO.P,J9,1,Pin_1*%
%TO.N,/B5*%
X133510000Y-91590000D03*
D43*
%TO.P,J9,2,Pin_2*%
%TO.N,/B4*%
X133510000Y-94130000D03*
%TO.P,J9,3,Pin_3*%
%TO.N,/B3*%
X133510000Y-96670000D03*
%TO.P,J9,4,Pin_4*%
%TO.N,/B2*%
X133510000Y-99210000D03*
%TO.P,J9,5,Pin_5*%
%TO.N,/B1*%
X133510000Y-101750000D03*
%TD*%
D32*
%TO.P,R8,1*%
%TO.N,GND*%
X117495000Y-72455000D03*
%TO.P,R8,2*%
%TO.N,Net-(U6-GAIN_SLOT)*%
X119145000Y-72455000D03*
%TD*%
D24*
%TO.P,C49,1*%
%TO.N,/A3*%
X117885000Y-94195000D03*
%TO.P,C49,2*%
%TO.N,/B3*%
X119435000Y-94195000D03*
%TD*%
D13*
%TO.P,J3,1,Pin_1*%
%TO.N,/TX*%
X98160000Y-85205000D03*
%TO.P,J3,2,Pin_2*%
%TO.N,/RX*%
X99430000Y-85205000D03*
%TO.P,J3,3,Pin_3*%
%TO.N,GND*%
X100700000Y-85205000D03*
%TD*%
D32*
%TO.P,R18,1*%
%TO.N,/A3*%
X117835000Y-92445000D03*
%TO.P,R18,2*%
%TO.N,Net-(R18-Pad2)*%
X119485000Y-92445000D03*
%TD*%
D25*
%TO.P,C15,1*%
%TO.N,VDD*%
X97670000Y-67395000D03*
%TO.P,C15,2*%
%TO.N,GND*%
X97670000Y-65845000D03*
%TD*%
D33*
%TO.P,C37,1*%
%TO.N,VDD*%
X95995000Y-75225000D03*
%TO.P,C37,2*%
%TO.N,GND*%
X94445000Y-75225000D03*
%TD*%
D32*
%TO.P,R10,1*%
%TO.N,/I2C_SDA*%
X88910000Y-68135000D03*
%TO.P,R10,2*%
%TO.N,VDD*%
X90560000Y-68135000D03*
%TD*%
D23*
%TO.P,R11,1*%
%TO.N,Net-(D2-A)*%
X85570000Y-59020000D03*
%TO.P,R11,2*%
%TO.N,VSYS*%
X85570000Y-57370000D03*
%TD*%
D30*
%TO.P,L5,1,1*%
%TO.N,VDD*%
X94060000Y-63025000D03*
%TO.P,L5,2,2*%
%TO.N,Net-(U4-SW)*%
X94060000Y-61450000D03*
%TD*%
D27*
%TO.P,U2,1,\u002AIRQ*%
%TO.N,/IRQ*%
X85940000Y-80514999D03*
%TO.P,U2,2,SCL*%
%TO.N,/I2C_SCL*%
X85940000Y-80915001D03*
%TO.P,U2,3,SDA*%
%TO.N,/I2C_SDA*%
X85940000Y-81315000D03*
%TO.P,U2,4,ADDR*%
%TO.N,GND*%
X85940000Y-81714999D03*
%TO.P,U2,5,VREG*%
%TO.N,Net-(U2-VREG)*%
X85940000Y-82115001D03*
D28*
%TO.P,U2,6,VSS*%
%TO.N,GND*%
X86549699Y-82724700D03*
%TO.P,U2,7,REXT*%
%TO.N,Net-(U2-REXT)*%
X86949701Y-82724700D03*
%TO.P,U2,8,ELE0*%
%TO.N,Net-(J2-Pin_1)*%
X87349700Y-82724700D03*
%TO.P,U2,9,ELE1*%
%TO.N,Net-(J2-Pin_2)*%
X87749699Y-82724700D03*
%TO.P,U2,10,ELE2*%
%TO.N,Net-(J2-Pin_3)*%
X88149701Y-82724700D03*
D27*
%TO.P,U2,11,ELE3*%
%TO.N,unconnected-(U2-ELE3-Pad11)*%
X88759400Y-82115001D03*
%TO.P,U2,12,ELE4*%
%TO.N,unconnected-(U2-ELE4-Pad12)*%
X88759400Y-81714999D03*
%TO.P,U2,13,ELE5*%
%TO.N,unconnected-(U2-ELE5-Pad13)*%
X88759400Y-81315000D03*
%TO.P,U2,14,ELE6*%
%TO.N,unconnected-(U2-ELE6-Pad14)*%
X88759400Y-80915001D03*
%TO.P,U2,15,ELE7*%
%TO.N,unconnected-(U2-ELE7-Pad15)*%
X88759400Y-80514999D03*
D28*
%TO.P,U2,16,ELE8*%
%TO.N,unconnected-(U2-ELE8-Pad16)*%
X88149701Y-79905300D03*
%TO.P,U2,17,ELE9*%
%TO.N,unconnected-(U2-ELE9-Pad17)*%
X87749699Y-79905300D03*
%TO.P,U2,18,ELE10*%
%TO.N,unconnected-(U2-ELE10-Pad18)*%
X87349700Y-79905300D03*
%TO.P,U2,19,ELE11*%
%TO.N,unconnected-(U2-ELE11-Pad19)*%
X86949701Y-79905300D03*
%TO.P,U2,20,VDD*%
%TO.N,VDD*%
X86549699Y-79905300D03*
D29*
%TO.P,U2,HTAB,HTAB*%
%TO.N,unconnected-(U2-PadHTAB)*%
X87349700Y-81315000D03*
%TD*%
D31*
%TO.P,R1,1*%
%TO.N,Net-(U2-REXT)*%
X86850000Y-84560000D03*
%TO.P,R1,2*%
%TO.N,GND*%
X85200000Y-84560000D03*
%TD*%
D26*
%TO.P,Y1,1,1*%
%TO.N,Net-(U3D-XC1)*%
X107258100Y-66035000D03*
%TO.P,Y1,2,2*%
%TO.N,GND*%
X104641900Y-66035000D03*
%TO.P,Y1,3*%
%TO.N,Net-(U3D-XC2)*%
X104641900Y-67685000D03*
%TO.P,Y1,4*%
%TO.N,GND*%
X107258100Y-67685000D03*
%TD*%
D32*
%TO.P,R17,1*%
%TO.N,/B4*%
X125985000Y-95345000D03*
%TO.P,R17,2*%
%TO.N,Net-(R15-Pad2)*%
X127635000Y-95345000D03*
%TD*%
%TO.P,R22,1*%
%TO.N,/A2*%
X117835000Y-97820000D03*
%TO.P,R22,2*%
%TO.N,Net-(R22-Pad2)*%
X119485000Y-97820000D03*
%TD*%
D15*
%TO.P,C3,1*%
%TO.N,Net-(C3-Pad1)*%
X111010000Y-76630000D03*
%TO.P,C3,2*%
%TO.N,GND*%
X111010000Y-78180000D03*
%TD*%
D20*
%TO.P,U4,A1,D-*%
%TO.N,/D-*%
X91860000Y-59015000D03*
%TO.P,U4,A2,D+*%
%TO.N,/D+*%
X91860000Y-59415000D03*
%TO.P,U4,A3,DEC*%
%TO.N,Net-(U4-DEC)*%
X91860000Y-59815000D03*
%TO.P,U4,A4,SW*%
%TO.N,Net-(U4-SW)*%
X91860000Y-60215000D03*
%TO.P,U4,A5,PVSS*%
%TO.N,GND*%
X91860000Y-60615000D03*
%TO.P,U4,B1,VBUS*%
%TO.N,VBUS*%
X91460000Y-59015000D03*
%TO.P,U4,B2,VBUS*%
X91460000Y-59415000D03*
%TO.P,U4,B3,VOUTBSET1*%
%TO.N,GND*%
X91460000Y-59815000D03*
%TO.P,U4,B4,VOUTBSET0*%
X91460000Y-60215000D03*
%TO.P,U4,B5,VOUTB*%
%TO.N,VDD*%
X91460000Y-60615000D03*
%TO.P,U4,C1,VSYS*%
%TO.N,VSYS*%
X91060000Y-59015000D03*
%TO.P,U4,C2,VSYS*%
X91060000Y-59415000D03*
%TO.P,U4,C3,VTERMSET*%
%TO.N,VDD*%
X91060000Y-59815000D03*
%TO.P,U4,C4,AVSS*%
%TO.N,GND*%
X91060000Y-60215000D03*
%TO.P,U4,C5,AVSS*%
X91060000Y-60615000D03*
%TO.P,U4,D1,VBAT*%
%TO.N,+3.3V*%
X90660000Y-59015000D03*
%TO.P,U4,D2,VBAT*%
X90660000Y-59415000D03*
%TO.P,U4,D3,SHPHLD*%
%TO.N,GND*%
X90660000Y-59815000D03*
%TO.P,U4,D4,SHPACT*%
X90660000Y-60215000D03*
%TO.P,U4,D5,ISET*%
%TO.N,/ISET*%
X90660000Y-60615000D03*
%TO.P,U4,E1,NTC*%
%TO.N,Net-(U4-NTC)*%
X90260000Y-59015000D03*
%TO.P,U4,E2,ICHG*%
%TO.N,Net-(U4-ICHG)*%
X90260000Y-59415000D03*
%TO.P,U4,E3,ERR*%
%TO.N,Net-(D1-K)*%
X90260000Y-59815000D03*
%TO.P,U4,E4,CHG*%
%TO.N,Net-(D2-K)*%
X90260000Y-60215000D03*
%TO.P,U4,E5,MODE*%
%TO.N,GND*%
X90260000Y-60615000D03*
%TD*%
D24*
%TO.P,C4,1*%
%TO.N,Net-(C3-Pad1)*%
X113925000Y-62035000D03*
%TO.P,C4,2*%
%TO.N,GND*%
X115475000Y-62035000D03*
%TD*%
D23*
%TO.P,R34,1*%
%TO.N,VDD*%
X115350000Y-69745000D03*
%TO.P,R34,2*%
%TO.N,/SD_MODE*%
X115350000Y-68095000D03*
%TD*%
D25*
%TO.P,C12,1*%
%TO.N,VDD*%
X102630000Y-67408000D03*
%TO.P,C12,2*%
%TO.N,GND*%
X102630000Y-65858000D03*
%TD*%
D19*
%TO.P,Y2,1,1*%
%TO.N,Net-(U3B-P0.01{slash}XL2)*%
X95870000Y-73525000D03*
%TO.P,Y2,2,2*%
%TO.N,Net-(U3B-P0.00{slash}XL1)*%
X95870000Y-72425000D03*
%TD*%
D15*
%TO.P,C45,1*%
%TO.N,/A4*%
X124410000Y-93695000D03*
%TO.P,C45,2*%
%TO.N,/B4*%
X124410000Y-95245000D03*
%TD*%
D13*
%TO.P,LS4,1,1*%
%TO.N,Net-(U6-OUTN)*%
X117630000Y-76095000D03*
%TO.P,LS4,2,2*%
%TO.N,Net-(U6-OUTP)*%
X118900000Y-76095000D03*
%TD*%
%TO.P,LS5,1,1*%
%TO.N,Net-(U6-OUTN)*%
X117630000Y-78505000D03*
%TO.P,LS5,2,2*%
%TO.N,Net-(U6-OUTP)*%
X118900000Y-78505000D03*
%TD*%
D41*
%TO.P,J8,1,Pin_1*%
%TO.N,/B1*%
X129985000Y-99212500D03*
%TO.P,J8,2,Pin_2*%
%TO.N,/B2*%
X129985000Y-97942500D03*
%TO.P,J8,3,Pin_3*%
%TO.N,/B3*%
X129985000Y-96672500D03*
%TO.P,J8,4,Pin_4*%
%TO.N,/B4*%
X129985000Y-95402500D03*
%TO.P,J8,5,Pin_5*%
%TO.N,/B5*%
X129985000Y-94127500D03*
%TD*%
D22*
%TO.P,U1,1,SDO*%
%TO.N,GND*%
X84698000Y-65733101D03*
%TO.P,U1,2,SDX*%
%TO.N,/I2C_SDA*%
X85210000Y-65745100D03*
%TO.P,U1,3,VDDIO*%
%TO.N,VDD*%
X85710000Y-65745100D03*
%TO.P,U1,4,NC*%
%TO.N,unconnected-(U1-NC-Pad4)*%
X86222000Y-65733101D03*
%TO.P,U1,5,INT1*%
%TO.N,/INT1*%
X86222000Y-65233100D03*
%TO.P,U1,6,INT2*%
%TO.N,/INT2*%
X86222000Y-64733100D03*
%TO.P,U1,7,VDD*%
%TO.N,VDD*%
X86210001Y-64221100D03*
%TO.P,U1,8,GNDIO*%
%TO.N,GND*%
X85710000Y-64221100D03*
%TO.P,U1,9,GND*%
X85210000Y-64221100D03*
%TO.P,U1,10,CSB*%
%TO.N,VDD*%
X84698000Y-64233099D03*
%TO.P,U1,11,NC*%
%TO.N,unconnected-(U1-NC-Pad11)*%
X84698000Y-64733100D03*
%TO.P,U1,12,SCX*%
%TO.N,/I2C_SCL*%
X84698000Y-65233100D03*
%TD*%
D16*
%TO.P,J1,A1,GND*%
%TO.N,GND*%
X79230000Y-68745000D03*
%TO.P,J1,A4,VBUS*%
%TO.N,VBUS*%
X79230000Y-69545000D03*
D17*
%TO.P,J1,A5,CC1*%
%TO.N,Net-(J1-CC1)*%
X79230000Y-70695000D03*
%TO.P,J1,A6,D+*%
%TO.N,/D+*%
X79230000Y-71695000D03*
%TO.P,J1,A7,D-*%
%TO.N,/D-*%
X79230000Y-72195000D03*
%TO.P,J1,A8,SBU1*%
%TO.N,unconnected-(J1-SBU1-PadA8)*%
X79230000Y-73195000D03*
D16*
%TO.P,J1,A9,VBUS*%
%TO.N,VBUS*%
X79230000Y-74345000D03*
%TO.P,J1,A12,GND*%
%TO.N,GND*%
X79230000Y-75145000D03*
%TO.P,J1,B1,GND*%
X79230000Y-75145000D03*
%TO.P,J1,B4,VBUS*%
%TO.N,VBUS*%
X79230000Y-74345000D03*
D17*
%TO.P,J1,B5,CC2*%
%TO.N,Net-(J1-CC2)*%
X79230000Y-73695000D03*
%TO.P,J1,B6,D+*%
%TO.N,/D+*%
X79230000Y-72695000D03*
%TO.P,J1,B7,D-*%
%TO.N,/D-*%
X79230000Y-71195000D03*
%TO.P,J1,B8,SBU2*%
%TO.N,unconnected-(J1-SBU2-PadB8)*%
X79230000Y-70195000D03*
D16*
%TO.P,J1,B9,VBUS*%
%TO.N,VBUS*%
X79230000Y-69545000D03*
%TO.P,J1,B12,GND*%
%TO.N,GND*%
X79230000Y-68745000D03*
D18*
%TO.P,J1,S1,SHIELD*%
X78655000Y-66835000D03*
X74725000Y-66835000D03*
X78655000Y-77055000D03*
X74725000Y-77055000D03*
%TD*%
D21*
%TO.P,R5,1*%
%TO.N,GND*%
X88090000Y-54050000D03*
%TO.P,R5,2*%
%TO.N,Net-(U4-ICHG)*%
X88090000Y-55700000D03*
%TD*%
D15*
%TO.P,C10,1*%
%TO.N,GND*%
X82950000Y-62285000D03*
%TO.P,C10,2*%
%TO.N,VDD*%
X82950000Y-63835000D03*
%TD*%
D13*
%TO.P,J2,1,Pin_1*%
%TO.N,Net-(J2-Pin_1)*%
X89960000Y-85205000D03*
%TO.P,J2,2,Pin_2*%
%TO.N,Net-(J2-Pin_2)*%
X91230000Y-85205000D03*
%TO.P,J2,3,Pin_3*%
%TO.N,Net-(J2-Pin_3)*%
X92500000Y-85205000D03*
%TD*%
D14*
%TO.P,L2,1,1*%
%TO.N,Net-(C3-Pad1)*%
X110687500Y-74925000D03*
%TO.P,L2,2,2*%
%TO.N,Net-(U3D-ANT)*%
X109112500Y-74925000D03*
%TD*%
D44*
%TO.N,*%
X138570000Y-93265000D03*
X138570000Y-90945000D03*
X138570000Y-90945000D03*
X138570000Y-92685000D03*
X135840000Y-93265000D03*
X135840000Y-92105000D03*
X135840000Y-90945000D03*
X135840000Y-92685000D03*
X135840000Y-93265000D03*
X135840000Y-91525000D03*
X138570000Y-91525000D03*
X138570000Y-92105000D03*
X113085000Y-91525000D03*
X113085000Y-93265000D03*
X113085000Y-90945000D03*
X113085000Y-92105000D03*
X113085000Y-90945000D03*
X113085000Y-92685000D03*
X111600000Y-92685000D03*
X111600000Y-90945000D03*
X111600000Y-93265000D03*
X111600000Y-92105000D03*
X111600000Y-93265000D03*
X111600000Y-91525000D03*
X116690000Y-87295000D03*
X114950000Y-87295000D03*
X115530000Y-87295000D03*
X116110000Y-87295000D03*
X115530000Y-89245000D03*
X114370000Y-89245000D03*
X116690000Y-89245000D03*
X116110000Y-89245000D03*
X116690000Y-89245000D03*
X114370000Y-87295000D03*
X114370000Y-87295000D03*
X114950000Y-89245000D03*
X134430000Y-87325000D03*
X132690000Y-87325000D03*
X133270000Y-87325000D03*
X133850000Y-87325000D03*
X133270000Y-89275000D03*
X132110000Y-89275000D03*
X134430000Y-89275000D03*
X133850000Y-89275000D03*
X134430000Y-89275000D03*
X132110000Y-87325000D03*
X132110000Y-87325000D03*
X132690000Y-89275000D03*
X164320000Y-87325000D03*
X162580000Y-87325000D03*
X163160000Y-87325000D03*
X163740000Y-87325000D03*
X163160000Y-89275000D03*
X162000000Y-89275000D03*
X164320000Y-89275000D03*
X163740000Y-89275000D03*
X164320000Y-89275000D03*
X162000000Y-87325000D03*
X162000000Y-87325000D03*
X162580000Y-89275000D03*
X149050000Y-87319540D03*
X147310000Y-87319540D03*
X147890000Y-87319540D03*
X148470000Y-87319540D03*
X147890000Y-89269540D03*
X146730000Y-89269540D03*
X149050000Y-89269540D03*
X148470000Y-89269540D03*
X149050000Y-89269540D03*
X146730000Y-87319540D03*
X146730000Y-87319540D03*
X147310000Y-89269540D03*
X105590000Y-87295000D03*
X103850000Y-87295000D03*
X104430000Y-87295000D03*
X105010000Y-87295000D03*
X104430000Y-89245000D03*
X103270000Y-89245000D03*
X105590000Y-89245000D03*
X105010000Y-89245000D03*
X105590000Y-89245000D03*
X103270000Y-87295000D03*
X103270000Y-87295000D03*
X103850000Y-89245000D03*
X86260000Y-87295000D03*
X88000000Y-87295000D03*
X85680000Y-87295000D03*
X86840000Y-87295000D03*
X85680000Y-87295000D03*
X87420000Y-87295000D03*
X87420000Y-89245000D03*
X85680000Y-89245000D03*
X88000000Y-89245000D03*
X86840000Y-89245000D03*
X88000000Y-89245000D03*
X86260000Y-89245000D03*
X121370000Y-78470000D03*
X121370000Y-79630000D03*
X121370000Y-79050000D03*
X121370000Y-77890000D03*
X121370000Y-79630000D03*
X121370000Y-77310000D03*
X127550000Y-78470000D03*
X127550000Y-77310000D03*
X127550000Y-77890000D03*
X127550000Y-79050000D03*
X127550000Y-77310000D03*
X127550000Y-79630000D03*
X127550000Y-61235000D03*
X127550000Y-60075000D03*
X127550000Y-60655000D03*
X127550000Y-61815000D03*
X127550000Y-60075000D03*
X127550000Y-62395000D03*
X121370000Y-60075000D03*
X121370000Y-62395000D03*
X121370000Y-60655000D03*
X121370000Y-61815000D03*
X121370000Y-62395000D03*
X121370000Y-61235000D03*
D45*
%TO.N,/B1*%
X128035000Y-98545000D03*
X120460000Y-100770000D03*
%TO.N,/B5*%
X128835000Y-94120000D03*
X126685000Y-100745000D03*
%TO.N,/A5*%
X123010000Y-99095000D03*
X115935000Y-94140000D03*
%TO.N,/A4*%
X123185000Y-93795000D03*
X116410000Y-95620000D03*
%TO.N,Net-(J2-Pin_1)*%
X147420000Y-93370000D03*
%TO.N,Net-(J2-Pin_2)*%
X153795000Y-93370000D03*
%TO.N,Net-(J2-Pin_3)*%
X161720000Y-93245000D03*
%TO.N,Net-(J2-Pin_1)*%
X90050000Y-93370000D03*
%TO.N,Net-(J2-Pin_2)*%
X96425000Y-93370000D03*
%TO.N,Net-(J2-Pin_3)*%
X104350000Y-93245000D03*
%TO.N,+3.3V*%
X171275000Y-79535000D03*
%TO.N,GND*%
X173400000Y-73485000D03*
D46*
%TO.N,/I2C_SDA*%
X140525000Y-80885000D03*
%TO.N,GND*%
X161075000Y-85235000D03*
D45*
%TO.N,+3.3V*%
X147200000Y-56635000D03*
X172425000Y-63410000D03*
X175350000Y-68685000D03*
X169750000Y-79535000D03*
D46*
X163625000Y-85235000D03*
%TO.N,GND*%
X156600000Y-85235000D03*
%TO.N,/nRESET*%
X161325000Y-74860000D03*
%TO.N,GND*%
X151150000Y-68935000D03*
%TO.N,/SWDIO*%
X170850000Y-83885000D03*
%TO.N,/I2C_SCL*%
X149412500Y-72822500D03*
%TO.N,GND*%
X168425000Y-85235000D03*
%TO.N,/SWDIO*%
X161775003Y-74860000D03*
%TO.N,/SWDCLK*%
X169650000Y-83410000D03*
X161750000Y-74060000D03*
%TO.N,/nRESET*%
X167150000Y-83810000D03*
%TO.N,/I2C_SCL*%
X140875000Y-80485000D03*
%TO.N,/I2C_SDA*%
X149450000Y-73510000D03*
%TO.N,/INT1*%
X143125000Y-65085000D03*
%TO.N,/INT2*%
X143075000Y-64510000D03*
%TO.N,VDD*%
X142800000Y-63810000D03*
%TO.N,/I2C_SDA*%
X142125000Y-66660000D03*
D47*
%TO.N,/TX*%
X152904000Y-76564000D03*
D46*
%TO.N,VDD*%
X141560000Y-68685000D03*
%TO.N,/I2C_SCL*%
X144000000Y-66360000D03*
%TO.N,/INT1*%
X153000000Y-71135000D03*
%TO.N,/I2C_SCL*%
X139875000Y-65560000D03*
%TO.N,VDD*%
X142725000Y-67660000D03*
D47*
%TO.N,/RX*%
X153325000Y-76960000D03*
D46*
%TO.N,/INT2*%
X152900000Y-70560000D03*
D47*
%TO.N,/TX*%
X154050000Y-84035000D03*
D46*
%TO.N,/I2C_SDA*%
X143900000Y-68285000D03*
X141175000Y-66485000D03*
%TO.N,VDD*%
X139850000Y-63860000D03*
X151895000Y-69730000D03*
D47*
%TO.N,/TX*%
X152475000Y-77660000D03*
X154665000Y-72298000D03*
%TO.N,/RX*%
X154665000Y-72698000D03*
D46*
%TO.N,/D-*%
X136325000Y-71235000D03*
%TO.N,/D+*%
X149075000Y-59410000D03*
D47*
%TO.N,/MIC_DATA*%
X159865000Y-75898000D03*
D45*
%TO.N,GND*%
X136000000Y-68085000D03*
X172400000Y-61260000D03*
D46*
X138175000Y-80385000D03*
X139450000Y-84410000D03*
D45*
X175025000Y-67785000D03*
X134555000Y-66860000D03*
D46*
%TO.N,/MIC_CLOCK*%
X160065000Y-77025000D03*
D45*
%TO.N,GND*%
X130625000Y-77080000D03*
D47*
%TO.N,/RX*%
X152875000Y-78210000D03*
D46*
%TO.N,/D+*%
X136825000Y-72435000D03*
D45*
%TO.N,GND*%
X175025000Y-62035000D03*
D47*
%TO.N,/RX*%
X155325000Y-83960000D03*
D45*
%TO.N,GND*%
X134555000Y-77080000D03*
D46*
X155225000Y-80385000D03*
%TO.N,/D+*%
X149350000Y-58410000D03*
D45*
%TO.N,GND*%
X130625000Y-66860000D03*
%TO.N,/MIC_DATA*%
X151325000Y-78110000D03*
D46*
%TO.N,GND*%
X151850000Y-81935000D03*
%TO.N,/MIC_CLOCK*%
X151713600Y-80321400D03*
%TO.N,/D-*%
X148775000Y-58935000D03*
D45*
%TO.N,GND*%
X136375000Y-75185000D03*
X140425000Y-74335000D03*
X149425000Y-76035000D03*
X166750000Y-65035000D03*
X164050000Y-64185000D03*
X162792195Y-69366000D03*
X160250000Y-65035000D03*
X154250000Y-64885000D03*
X156000000Y-64885000D03*
%TO.N,VBUS*%
X148312500Y-57972500D03*
%TO.N,GND*%
X140400000Y-70110000D03*
X155140000Y-64835000D03*
%TO.N,VBUS*%
X153550000Y-57885000D03*
X149825000Y-56935000D03*
D46*
%TO.N,/SD_MODE*%
X170100000Y-69335000D03*
D45*
%TO.N,VBUS*%
X136660000Y-74370000D03*
D47*
%TO.N,/SD_MODE*%
X157465000Y-75898000D03*
D45*
%TO.N,VBUS*%
X137875000Y-68235000D03*
D47*
%TO.N,/INT1*%
X154665000Y-74298000D03*
D46*
%TO.N,/LRCLK*%
X174700000Y-70760000D03*
%TO.N,/SCK*%
X173150000Y-70335000D03*
D47*
%TO.N,/ISET*%
X157865000Y-75898000D03*
%TO.N,Net-(U6-GAIN_SLOT)*%
X175275000Y-71235000D03*
X174280000Y-69830000D03*
%TO.N,/I2C_SCL*%
X154665000Y-73498000D03*
D46*
%TO.N,Net-(U3D-XC1)*%
X161325000Y-69485000D03*
D47*
%TO.N,/I2C_SDA*%
X154665000Y-73898000D03*
D46*
%TO.N,VSYS*%
X144975000Y-57410000D03*
%TO.N,/D+*%
X154740000Y-69690000D03*
D47*
%TO.N,Net-(U3D-ANT)*%
X161412000Y-72098000D03*
D46*
%TO.N,/D-*%
X155065000Y-70298000D03*
%TO.N,Net-(U3A-DCCD)*%
X156430000Y-68680000D03*
%TO.N,Net-(U3D-XC1)*%
X164225000Y-66060000D03*
%TO.N,Net-(U3A-DECN)*%
X159125000Y-68185000D03*
%TO.N,Net-(U3A-DECD)*%
X157830000Y-64880000D03*
%TO.N,Net-(U3A-VBUS)*%
X152530000Y-62610000D03*
D47*
%TO.N,/INT2*%
X154665000Y-74698000D03*
D46*
%TO.N,Net-(U3A-DCCR)*%
X163925000Y-69335000D03*
X158637500Y-69222500D03*
D47*
%TO.N,Net-(U3D-ANT)*%
X161625000Y-72910000D03*
%TO.N,/SDOUT*%
X157465000Y-70298000D03*
D46*
%TO.N,/IRQ*%
X157025000Y-76785000D03*
%TO.N,/SDOUT*%
X173100000Y-69610000D03*
D47*
%TO.N,/SCK*%
X157865000Y-70298000D03*
D46*
%TO.N,Net-(U3A-DCCD)*%
X155940000Y-62990000D03*
D47*
%TO.N,/LRCLK*%
X157665000Y-69898000D03*
D46*
%TO.N,Net-(U3A-DECN)*%
X154790000Y-61200000D03*
%TO.N,/ISET*%
X146675000Y-61235000D03*
%TO.N,/IRQ*%
X141725000Y-79910000D03*
%TO.N,Net-(U3A-DECD)*%
X157275000Y-68485000D03*
%TO.N,VSYS*%
X147475000Y-57410000D03*
D45*
%TO.N,VDD*%
X159340000Y-63950000D03*
D46*
%TO.N,Net-(U3A-DECR)*%
X159820000Y-69340000D03*
D47*
%TO.N,VDD*%
X161510000Y-70898000D03*
D45*
X171240000Y-70810000D03*
D47*
X146960000Y-59840000D03*
D46*
X153450000Y-72050000D03*
X140275000Y-78710000D03*
X154760000Y-68300000D03*
X151800000Y-74435000D03*
X157825000Y-68735000D03*
X152430000Y-66435000D03*
%TO.N,Net-(U3A-DECR)*%
X162680000Y-71340000D03*
D47*
%TO.N,VDD*%
X159860000Y-70310000D03*
D46*
X162430000Y-72498000D03*
X156000000Y-69110000D03*
X153708000Y-75298000D03*
X142325000Y-78935000D03*
X154795000Y-79195000D03*
X172125000Y-83435000D03*
X162363000Y-75698000D03*
%TO.N,GND*%
X153540000Y-71300000D03*
D48*
X157665000Y-73098000D03*
D46*
X146450000Y-54075000D03*
D48*
X159300000Y-71670000D03*
D46*
X145800000Y-61010000D03*
X151425000Y-54135000D03*
D48*
X159290000Y-73090000D03*
D46*
X143175000Y-54060000D03*
%TO.N,VDD*%
X147575000Y-61360000D03*
D48*
%TO.N,GND*%
X156160000Y-73090000D03*
D47*
X147360000Y-60240000D03*
X146575000Y-60240000D03*
X156665000Y-70298000D03*
D48*
X159290000Y-74490000D03*
X156160000Y-71670000D03*
D46*
X148100000Y-60960000D03*
X149650000Y-54075000D03*
X153800000Y-73820000D03*
D48*
X157670000Y-74490000D03*
D47*
%TO.N,VDD*%
X149270000Y-63850000D03*
D48*
%TO.N,GND*%
X157680000Y-71670000D03*
X156160000Y-74490000D03*
D46*
%TO.N,Net-(U3A-DECR)*%
X161675000Y-71330000D03*
D45*
%TO.N,GND*%
X166025000Y-71660000D03*
X161793968Y-71815643D03*
D46*
%TO.N,Net-(U3A-VBUS)*%
X155180000Y-69230000D03*
D45*
%TO.N,GND*%
X161000000Y-61560000D03*
X139275000Y-67760000D03*
X165100000Y-79135000D03*
X166900000Y-79135000D03*
X140050000Y-61610000D03*
%TO.N,VDD*%
X147542500Y-65577500D03*
X91642500Y-65552500D03*
%TO.N,GND*%
X83375000Y-67735000D03*
X84150000Y-61585000D03*
X117500000Y-73460000D03*
X110125000Y-71635000D03*
X105893968Y-71790643D03*
X109200000Y-79110000D03*
X111000000Y-79110000D03*
X105100000Y-61535000D03*
X110850000Y-65010000D03*
X108150000Y-64160000D03*
X106892195Y-69341000D03*
X104350000Y-65010000D03*
X98350000Y-64860000D03*
X100100000Y-64860000D03*
X99240000Y-64810000D03*
%TO.N,VBUS*%
X97650000Y-57860000D03*
X93925000Y-56910000D03*
X80760000Y-74345000D03*
X92412500Y-57947500D03*
X81975000Y-68210000D03*
%TO.N,GND*%
X84525000Y-74310000D03*
X84500000Y-70085000D03*
X93525000Y-76010000D03*
%TO.N,+3.3V*%
X91300000Y-56610000D03*
X116525000Y-63385000D03*
X119450000Y-68660000D03*
X115375000Y-79510000D03*
X113850000Y-79510000D03*
D46*
X107725000Y-85210000D03*
%TO.N,GND*%
X100700000Y-85210000D03*
X105175000Y-85210000D03*
X112525000Y-85210000D03*
%TO.N,/SWDCLK*%
X113750000Y-83385000D03*
X105850000Y-74035000D03*
%TO.N,/SWDIO*%
X114950000Y-83860000D03*
X105875003Y-74835000D03*
%TO.N,/nRESET*%
X111250000Y-83785000D03*
X105425000Y-74835000D03*
%TO.N,/I2C_SCL*%
X93512500Y-72797500D03*
%TO.N,/I2C_SDA*%
X93550000Y-73485000D03*
X84625000Y-80860000D03*
%TO.N,/I2C_SCL*%
X84975000Y-80460000D03*
%TO.N,GND*%
X95250000Y-68910000D03*
%TO.N,VDD*%
X95995000Y-69705000D03*
%TO.N,/INT1*%
X87225000Y-65060000D03*
%TO.N,/INT2*%
X87175000Y-64485000D03*
X97000000Y-70535000D03*
%TO.N,/INT1*%
X97100000Y-71110000D03*
%TO.N,/I2C_SCL*%
X83975000Y-65535000D03*
%TO.N,VDD*%
X83950000Y-63835000D03*
X86900000Y-63785000D03*
%TO.N,/I2C_SDA*%
X85275000Y-66460000D03*
X86225000Y-66635000D03*
%TO.N,VDD*%
X85660000Y-68660000D03*
X86825000Y-67635000D03*
%TO.N,/I2C_SDA*%
X88000000Y-68260000D03*
%TO.N,/I2C_SCL*%
X88100000Y-66335000D03*
D47*
%TO.N,/RX*%
X97425000Y-76935000D03*
%TO.N,/TX*%
X97004000Y-76539000D03*
X98150000Y-84010000D03*
%TO.N,/RX*%
X99425000Y-83935000D03*
%TO.N,/TX*%
X98765000Y-72273000D03*
%TO.N,/RX*%
X98765000Y-72673000D03*
D46*
%TO.N,/D+*%
X93450000Y-58385000D03*
%TO.N,/D-*%
X80425000Y-71210000D03*
%TO.N,/D+*%
X80925000Y-72410000D03*
%TO.N,/D-*%
X92875000Y-58910000D03*
%TO.N,/D+*%
X93175000Y-59385000D03*
D45*
%TO.N,GND*%
X80475000Y-75160000D03*
X80100000Y-68060000D03*
X74725000Y-66835000D03*
X78655000Y-66835000D03*
X74725000Y-77055000D03*
X78655000Y-77055000D03*
D46*
X82275000Y-80360000D03*
X83550000Y-84385000D03*
X99325000Y-80360000D03*
X95950000Y-81910000D03*
%TO.N,/MIC_CLOCK*%
X104165000Y-77000000D03*
X95813600Y-80296400D03*
D47*
%TO.N,/MIC_DATA*%
X103965000Y-75873000D03*
D45*
X95425000Y-78085000D03*
%TO.N,GND*%
X116500000Y-61235000D03*
X119125000Y-62010000D03*
X119125000Y-67760000D03*
D48*
X101780000Y-71645000D03*
D46*
X87275000Y-54035000D03*
X97900000Y-73795000D03*
D48*
X101770000Y-74465000D03*
D47*
X91460000Y-60215000D03*
D46*
X93750000Y-54050000D03*
D48*
X100260000Y-74465000D03*
D47*
X100765000Y-70273000D03*
D48*
X100260000Y-73065000D03*
X103400000Y-71645000D03*
D46*
X92200000Y-60935000D03*
D48*
X100260000Y-71645000D03*
D46*
X95525000Y-54110000D03*
D48*
X103390000Y-74465000D03*
D46*
X90550000Y-54050000D03*
D47*
X90675000Y-60215000D03*
D48*
X101765000Y-73073000D03*
D46*
X97640000Y-71275000D03*
D48*
X103390000Y-73065000D03*
D46*
X89900000Y-60985000D03*
%TO.N,VDD*%
X91675000Y-61335000D03*
D47*
X93370000Y-63825000D03*
D46*
X106463000Y-75673000D03*
X95900000Y-74410000D03*
D47*
X103960000Y-70285000D03*
D45*
X103440000Y-63925000D03*
D46*
X96530000Y-66410000D03*
X100100000Y-69085000D03*
X106530000Y-72473000D03*
X101925000Y-68710000D03*
X98860000Y-68275000D03*
X97550000Y-72025000D03*
X84375000Y-78685000D03*
D47*
X91060000Y-59815000D03*
D46*
X116225000Y-83410000D03*
X98895000Y-79170000D03*
D45*
X115340000Y-70785000D03*
D46*
X86425000Y-78910000D03*
D47*
X105610000Y-70873000D03*
D46*
X97808000Y-75273000D03*
%TO.N,Net-(U3A-DECR)*%
X103920000Y-69315000D03*
X106780000Y-71315000D03*
X105775000Y-71305000D03*
%TO.N,Net-(U3A-VBUS)*%
X99280000Y-69205000D03*
X96630000Y-62585000D03*
%TO.N,Net-(U3A-DECD)*%
X101930000Y-64855000D03*
X101375000Y-68460000D03*
%TO.N,Net-(U3A-DECN)*%
X103225000Y-68160000D03*
X98890000Y-61175000D03*
D47*
%TO.N,Net-(U3D-ANT)*%
X105512000Y-72073000D03*
X105725000Y-72885000D03*
D46*
%TO.N,Net-(U3D-XC1)*%
X108325000Y-66035000D03*
X105425000Y-69460000D03*
%TO.N,Net-(U3A-DCCR)*%
X108025000Y-69310000D03*
X102737500Y-69197500D03*
%TO.N,Net-(U3A-DCCD)*%
X100530000Y-68655000D03*
X100040000Y-62965000D03*
%TO.N,/D-*%
X99165000Y-70273000D03*
%TO.N,/D+*%
X98840000Y-69665000D03*
%TO.N,VSYS*%
X91575000Y-57385000D03*
X89075000Y-57385000D03*
D47*
%TO.N,/I2C_SCL*%
X98765000Y-73473000D03*
%TO.N,/I2C_SDA*%
X98765000Y-73873000D03*
%TO.N,Net-(U6-GAIN_SLOT)*%
X118380000Y-69805000D03*
X119375000Y-71210000D03*
%TO.N,/INT2*%
X98765000Y-74673000D03*
D46*
%TO.N,/IRQ*%
X85825000Y-79885000D03*
X101125000Y-76760000D03*
D47*
%TO.N,/ISET*%
X101965000Y-75873000D03*
D46*
X90775000Y-61210000D03*
%TO.N,/SDOUT*%
X117200000Y-69585000D03*
D47*
X101565000Y-70273000D03*
D46*
%TO.N,/SCK*%
X117250000Y-70310000D03*
D47*
X101965000Y-70273000D03*
D46*
%TO.N,/LRCLK*%
X118800000Y-70735000D03*
D47*
X101765000Y-69873000D03*
%TO.N,/SD_MODE*%
X101565000Y-75873000D03*
D46*
X114200000Y-69310000D03*
D47*
%TO.N,/INT1*%
X98765000Y-74273000D03*
%TO.N,/TX*%
X96575000Y-77635000D03*
%TO.N,/RX*%
X96975000Y-78185000D03*
%TD*%
D49*
%TO.N,/B5*%
X131415000Y-91590000D02*
X133510000Y-91590000D01*
X129985000Y-93020000D02*
X131415000Y-91590000D01*
X129985000Y-94127500D02*
X129985000Y-93020000D01*
%TO.N,/B4*%
X129985000Y-95402500D02*
X132237500Y-95402500D01*
X132237500Y-95402500D02*
X133510000Y-94130000D01*
%TO.N,/B3*%
X133507500Y-96672500D02*
X133510000Y-96670000D01*
X129985000Y-96672500D02*
X133507500Y-96672500D01*
%TO.N,/B2*%
X132242500Y-97942500D02*
X133510000Y-99210000D01*
X129985000Y-97942500D02*
X132242500Y-97942500D01*
%TO.N,/B1*%
X131190000Y-101750000D02*
X133510000Y-101750000D01*
X129985000Y-100545000D02*
X131190000Y-101750000D01*
X129985000Y-99212500D02*
X129985000Y-100545000D01*
%TO.N,/B3*%
X129759500Y-96898000D02*
X129985000Y-96672500D01*
X124013000Y-96898000D02*
X129759500Y-96898000D01*
X121285000Y-94170000D02*
X124013000Y-96898000D01*
X121135000Y-94170000D02*
X121285000Y-94170000D01*
%TO.N,/B4*%
X128285000Y-96370000D02*
X129252500Y-95402500D01*
X129252500Y-95402500D02*
X129985000Y-95402500D01*
X126360000Y-96370000D02*
X128285000Y-96370000D01*
X125985000Y-95995000D02*
X126360000Y-96370000D01*
X125985000Y-95345000D02*
X125985000Y-95995000D01*
%TO.N,/A5*%
X115935000Y-94140000D02*
X114660000Y-94140000D01*
%TO.N,/B1*%
X128702500Y-99212500D02*
X129985000Y-99212500D01*
X128035000Y-98545000D02*
X128702500Y-99212500D01*
X119660000Y-101570000D02*
X120460000Y-100770000D01*
%TO.N,/B5*%
X129977500Y-94120000D02*
X129985000Y-94127500D01*
X128835000Y-94120000D02*
X129977500Y-94120000D01*
X125960000Y-101470000D02*
X126685000Y-100745000D01*
X125960000Y-101595000D02*
X125960000Y-101470000D01*
%TO.N,Net-(R23-Pad2)*%
X127610000Y-99820000D02*
X127585000Y-99795000D01*
X127610000Y-101595000D02*
X127610000Y-99820000D01*
%TO.N,/B5*%
X125835000Y-101470000D02*
X125960000Y-101595000D01*
X124335000Y-101470000D02*
X125835000Y-101470000D01*
%TO.N,/A5*%
X125810000Y-99920000D02*
X125935000Y-99795000D01*
X124335000Y-99920000D02*
X125810000Y-99920000D01*
X123010000Y-99095000D02*
X123510000Y-99095000D01*
X123510000Y-99095000D02*
X124335000Y-99920000D01*
%TO.N,Net-(R15-Pad2)*%
X127635000Y-95345000D02*
X127635000Y-93570000D01*
%TO.N,/B4*%
X125885000Y-95245000D02*
X125985000Y-95345000D01*
X124410000Y-95245000D02*
X125885000Y-95245000D01*
%TO.N,/A4*%
X125860000Y-93695000D02*
X125985000Y-93570000D01*
X124410000Y-93695000D02*
X125860000Y-93695000D01*
X124310000Y-93795000D02*
X124410000Y-93695000D01*
X123185000Y-93795000D02*
X124310000Y-93795000D01*
X116205000Y-95415000D02*
X116410000Y-95620000D01*
X114660000Y-95415000D02*
X116205000Y-95415000D01*
%TO.N,Net-(R18-Pad2)*%
X121060000Y-92445000D02*
X121135000Y-92520000D01*
X119485000Y-92445000D02*
X121060000Y-92445000D01*
%TO.N,/B3*%
X121110000Y-94195000D02*
X121135000Y-94170000D01*
X119435000Y-94195000D02*
X121110000Y-94195000D01*
%TO.N,/A3*%
X116720000Y-96685000D02*
X114660000Y-96685000D01*
X117885000Y-95520000D02*
X116720000Y-96685000D01*
X117885000Y-94195000D02*
X117885000Y-95520000D01*
X117835000Y-94145000D02*
X117885000Y-94195000D01*
X117835000Y-92445000D02*
X117835000Y-94145000D01*
%TO.N,/B2*%
X129862500Y-97820000D02*
X129985000Y-97942500D01*
X123160000Y-97820000D02*
X129862500Y-97820000D01*
X121385000Y-96045000D02*
X123160000Y-97820000D01*
X121335000Y-96045000D02*
X121385000Y-96045000D01*
%TO.N,Net-(R22-Pad2)*%
X119485000Y-97820000D02*
X121510000Y-97820000D01*
%TO.N,/A2*%
X119610000Y-96045000D02*
X117835000Y-97820000D01*
X119785000Y-96045000D02*
X119610000Y-96045000D01*
X117700000Y-97955000D02*
X117835000Y-97820000D01*
X114660000Y-97955000D02*
X117700000Y-97955000D01*
%TO.N,Net-(R14-Pad2)*%
X121310000Y-101570000D02*
X121310000Y-99895000D01*
%TO.N,/B1*%
X119610000Y-101520000D02*
X119660000Y-101570000D01*
X117910000Y-101520000D02*
X119610000Y-101520000D01*
%TO.N,/A1*%
X119585000Y-99970000D02*
X119660000Y-99895000D01*
X117910000Y-99970000D02*
X119585000Y-99970000D01*
X117165000Y-99225000D02*
X117910000Y-99970000D01*
X114660000Y-99225000D02*
X117165000Y-99225000D01*
%TO.N,/D+*%
X149350000Y-59135000D02*
X149075000Y-59410000D01*
X149350000Y-58410000D02*
X149350000Y-59135000D01*
%TO.N,VDD*%
X152430000Y-66960000D02*
X152730000Y-67260000D01*
X152730000Y-67260000D02*
X152775000Y-67260000D01*
X152775000Y-67260000D02*
X152935000Y-67420000D01*
X152935000Y-67420000D02*
X153570000Y-67420000D01*
X152430000Y-66435000D02*
X152430000Y-66960000D01*
D50*
%TO.N,/D-*%
X147760000Y-59040000D02*
X148670000Y-59040000D01*
%TO.N,Net-(U4-DEC)*%
X150510000Y-58810000D02*
X150510000Y-55710000D01*
%TO.N,Net-(U4-SW)*%
X149960000Y-60770000D02*
X149960000Y-61475000D01*
%TO.N,/D+*%
X136125000Y-72435000D02*
X136125000Y-71985000D01*
D49*
X136825000Y-72435000D02*
X136125000Y-72435000D01*
D50*
X147760000Y-59440000D02*
X149045000Y-59440000D01*
%TO.N,GND*%
X136000000Y-68085000D02*
X135315000Y-68770000D01*
X135315000Y-68770000D02*
X135130000Y-68770000D01*
D49*
%TO.N,/D-*%
X136310000Y-71220000D02*
X136325000Y-71235000D01*
D50*
%TO.N,Net-(U4-DEC)*%
X147760000Y-59840000D02*
X149480000Y-59840000D01*
%TO.N,/D+*%
X135130000Y-72720000D02*
X135840000Y-72720000D01*
%TO.N,/D-*%
X148670000Y-59040000D02*
X148775000Y-58935000D01*
%TO.N,/D+*%
X135860000Y-71720000D02*
X135130000Y-71720000D01*
X136125000Y-71985000D02*
X135860000Y-71720000D01*
%TO.N,Net-(U4-SW)*%
X149430000Y-60240000D02*
X149960000Y-60770000D01*
%TO.N,/D+*%
X149045000Y-59440000D02*
X149075000Y-59410000D01*
D49*
%TO.N,/D-*%
X135130000Y-71220000D02*
X136310000Y-71220000D01*
D50*
%TO.N,Net-(U4-DEC)*%
X149480000Y-59840000D02*
X150510000Y-58810000D01*
%TO.N,/D+*%
X135840000Y-72720000D02*
X136125000Y-72435000D01*
%TO.N,Net-(U4-SW)*%
X147760000Y-60240000D02*
X149430000Y-60240000D01*
%TO.N,/D-*%
X134265000Y-71220000D02*
X134075000Y-71410000D01*
%TO.N,GND*%
X138575000Y-82985000D02*
X139820001Y-81739999D01*
%TO.N,Net-(U2-REXT)*%
X142849701Y-84485299D02*
X142750000Y-84585000D01*
%TO.N,Net-(J2-Pin_2)*%
X143649699Y-83359699D02*
X144275000Y-83985000D01*
X144275000Y-83985000D02*
X146650000Y-83985000D01*
%TO.N,GND*%
X142449699Y-82749700D02*
X142449699Y-83235301D01*
%TO.N,/D-*%
X134260000Y-72220000D02*
X135130000Y-72220000D01*
%TO.N,Net-(U2-VREG)*%
X140125000Y-82985000D02*
X140995001Y-82985000D01*
%TO.N,GND*%
X139820001Y-81739999D02*
X141840000Y-81739999D01*
%TO.N,/D-*%
X134075000Y-72035000D02*
X134260000Y-72220000D01*
%TO.N,GND*%
X142449699Y-83235301D02*
X141100000Y-84585000D01*
%TO.N,/D-*%
X134075000Y-71410000D02*
X134075000Y-72035000D01*
%TO.N,Net-(J1-CC2)*%
X137935000Y-74340000D02*
X137315000Y-73720000D01*
%TO.N,GND*%
X138575000Y-82985000D02*
X138575000Y-83535000D01*
X138575000Y-83535000D02*
X139450000Y-84410000D01*
%TO.N,Net-(J1-CC1)*%
X137265000Y-70720000D02*
X135130000Y-70720000D01*
%TO.N,GND*%
X136360000Y-75170000D02*
X136375000Y-75185000D01*
X139625000Y-84585000D02*
X139450000Y-84410000D01*
%TO.N,Net-(J1-CC1)*%
X137885000Y-70100000D02*
X137265000Y-70720000D01*
%TO.N,Net-(J1-CC2)*%
X137315000Y-73720000D02*
X135130000Y-73720000D01*
%TO.N,GND*%
X141100000Y-84585000D02*
X139625000Y-84585000D01*
X138190000Y-80370000D02*
X138175000Y-80385000D01*
%TO.N,Net-(J2-Pin_2)*%
X147130000Y-84465000D02*
X147130000Y-85230000D01*
%TO.N,GND*%
X135130000Y-75170000D02*
X136360000Y-75170000D01*
X139289700Y-80370000D02*
X138190000Y-80370000D01*
X139289700Y-80370000D02*
X139289700Y-81209698D01*
%TO.N,Net-(U2-REXT)*%
X142849701Y-82749700D02*
X142849701Y-84485299D01*
%TO.N,Net-(J2-Pin_2)*%
X143649699Y-82749700D02*
X143649699Y-83359699D01*
%TO.N,GND*%
X139289700Y-81209698D02*
X139820001Y-81739999D01*
%TO.N,/D-*%
X135130000Y-71220000D02*
X134265000Y-71220000D01*
%TO.N,Net-(U2-VREG)*%
X140995001Y-82985000D02*
X141840000Y-82140001D01*
%TO.N,Net-(J2-Pin_2)*%
X146650000Y-83985000D02*
X147130000Y-84465000D01*
%TO.N,Net-(J2-Pin_1)*%
X144850856Y-85230000D02*
X145860000Y-85230000D01*
X143249700Y-82749700D02*
X143249700Y-83628844D01*
X143249700Y-83628844D02*
X144850856Y-85230000D01*
D51*
%TO.N,VDD*%
X156240000Y-78835000D02*
X155155000Y-78835000D01*
D50*
%TO.N,/MIC_CLOCK*%
X151713600Y-80321400D02*
X150700000Y-80321400D01*
D51*
%TO.N,VDD*%
X153615000Y-80375000D02*
X154795000Y-79195000D01*
%TO.N,GND*%
X157860000Y-80385000D02*
X156240000Y-80385000D01*
%TO.N,VDD*%
X155155000Y-78835000D02*
X154795000Y-79195000D01*
X156240000Y-78835000D02*
X157860000Y-78835000D01*
X152870000Y-80375000D02*
X153615000Y-80375000D01*
%TO.N,GND*%
X156240000Y-80385000D02*
X155225000Y-80385000D01*
D50*
%TO.N,/MIC_CLOCK*%
X160065000Y-77025000D02*
X160065000Y-76298000D01*
D49*
%TO.N,/SD_MODE*%
X170100000Y-68660000D02*
X170640000Y-68120000D01*
%TO.N,GND*%
X175030000Y-67780000D02*
X175025000Y-67785000D01*
X171375000Y-60535000D02*
X171375000Y-61260000D01*
X171350000Y-60535000D02*
X170460000Y-59645000D01*
X175030000Y-62040000D02*
X175025000Y-62035000D01*
%TO.N,/SD_MODE*%
X171250000Y-68120000D02*
X172570000Y-68120000D01*
X172570000Y-68120000D02*
X173877000Y-69427000D01*
%TO.N,GND*%
X171375000Y-61260000D02*
X172400000Y-61260000D01*
X175030000Y-63040000D02*
X175030000Y-62040000D01*
X175030000Y-66780000D02*
X175030000Y-67780000D01*
%TO.N,/SD_MODE*%
X170640000Y-68120000D02*
X171250000Y-68120000D01*
X170100000Y-69335000D02*
X170100000Y-68660000D01*
%TO.N,GND*%
X170460000Y-59645000D02*
X170460000Y-59160000D01*
X171375000Y-60535000D02*
X171350000Y-60535000D01*
D50*
%TO.N,/MIC_DATA*%
X149800000Y-78110000D02*
X151325000Y-78110000D01*
X149025000Y-78885000D02*
X149800000Y-78110000D01*
X149025000Y-79499400D02*
X149025000Y-78885000D01*
D52*
%TO.N,Net-(U3B-P0.01{slash}XL2)*%
X153252000Y-72898000D02*
X152610000Y-73540000D01*
D50*
%TO.N,/TX*%
X154050000Y-85220000D02*
X154060000Y-85230000D01*
D52*
%TO.N,Net-(U3B-P0.00{slash}XL1)*%
X151818000Y-72498000D02*
X151770000Y-72450000D01*
X154265000Y-72498000D02*
X151818000Y-72498000D01*
%TO.N,Net-(U3B-P0.01{slash}XL2)*%
X151780000Y-73540000D02*
X151770000Y-73550000D01*
X152610000Y-73540000D02*
X151780000Y-73540000D01*
X154265000Y-72898000D02*
X153252000Y-72898000D01*
%TO.N,/LRCLK*%
X174700000Y-70250000D02*
X174680000Y-70230000D01*
D50*
%TO.N,Net-(U6-OUTN)*%
X174147000Y-75105000D02*
X174183000Y-75105000D01*
X173530000Y-78530000D02*
X173530000Y-76120000D01*
X174183000Y-75105000D02*
X175900000Y-73388000D01*
%TO.N,/ISET*%
X146560000Y-60640000D02*
X146560000Y-61120000D01*
%TO.N,Net-(U6-OUTP)*%
X174800000Y-76120000D02*
X174800000Y-78530000D01*
%TO.N,Net-(U4-NTC)*%
X146160000Y-56265000D02*
X145620000Y-55725000D01*
D52*
%TO.N,/SCK*%
X173150000Y-70335000D02*
X173775000Y-70335000D01*
X173775000Y-70335000D02*
X173880000Y-70230000D01*
D50*
%TO.N,Net-(U6-GAIN_SLOT)*%
X175275000Y-71235000D02*
X175275000Y-72250000D01*
%TO.N,Net-(U4-ICHG)*%
X145700000Y-59135000D02*
X145700000Y-57435000D01*
X146005000Y-59440000D02*
X145700000Y-59135000D01*
%TO.N,Net-(U6-OUTN)*%
X175900000Y-73388000D02*
X175900000Y-70644572D01*
%TO.N,Net-(U6-OUTP)*%
X174800000Y-76120000D02*
X176375000Y-74545000D01*
%TO.N,/ISET*%
X146560000Y-61120000D02*
X146675000Y-61235000D01*
%TO.N,/IRQ*%
X141725000Y-80424999D02*
X141840000Y-80539999D01*
%TO.N,Net-(U6-OUTN)*%
X175900000Y-70644572D02*
X175085428Y-69830000D01*
X173530000Y-75758000D02*
X174147000Y-75141000D01*
%TO.N,Net-(U6-OUTP)*%
X176375000Y-70585000D02*
X175220000Y-69430000D01*
X176375000Y-74545000D02*
X176375000Y-70585000D01*
D52*
%TO.N,/LRCLK*%
X174700000Y-70760000D02*
X174700000Y-70250000D01*
D50*
%TO.N,Net-(U6-OUTP)*%
X175220000Y-69430000D02*
X174680000Y-69430000D01*
D52*
%TO.N,/SDOUT*%
X173320000Y-69830000D02*
X173880000Y-69830000D01*
D50*
%TO.N,Net-(U6-GAIN_SLOT)*%
X175275000Y-72250000D02*
X175045000Y-72480000D01*
%TO.N,Net-(U6-OUTN)*%
X175085428Y-69830000D02*
X174680000Y-69830000D01*
D52*
%TO.N,/SDOUT*%
X173100000Y-69610000D02*
X173320000Y-69830000D01*
D50*
%TO.N,/IRQ*%
X141725000Y-79910000D02*
X141725000Y-80424999D01*
%TO.N,Net-(U4-NTC)*%
X146160000Y-59040000D02*
X146160000Y-56265000D01*
%TO.N,Net-(U6-OUTN)*%
X174147000Y-75141000D02*
X174147000Y-75105000D01*
%TO.N,Net-(U4-ICHG)*%
X145700000Y-57435000D02*
X143990000Y-55725000D01*
X146160000Y-59440000D02*
X146005000Y-59440000D01*
D49*
%TO.N,VDD*%
X151863000Y-74498000D02*
X154265000Y-74498000D01*
X151800000Y-75155000D02*
X151800000Y-74435000D01*
X151895000Y-75250000D02*
X151800000Y-75155000D01*
D50*
%TO.N,/TX*%
X154050000Y-84035000D02*
X154050000Y-85220000D01*
D49*
%TO.N,VDD*%
X151800000Y-74435000D02*
X151863000Y-74498000D01*
D50*
%TO.N,/RX*%
X155325000Y-85225000D02*
X155330000Y-85230000D01*
%TO.N,Net-(U3A-DECR)*%
X163425000Y-71340000D02*
X163585000Y-71180000D01*
D49*
%TO.N,Net-(AE1-A)*%
X168360000Y-60437500D02*
X168275000Y-60522500D01*
%TO.N,Net-(U3A-DECR)*%
X165090000Y-69557500D02*
X165172500Y-69557500D01*
D50*
X159665000Y-69495000D02*
X159820000Y-69340000D01*
X159665000Y-69898000D02*
X159665000Y-69495000D01*
D49*
X165180000Y-69550000D02*
X166960000Y-69550000D01*
%TO.N,Net-(AE1-A)*%
X168275000Y-60522500D02*
X168287500Y-60535000D01*
X168360000Y-59160000D02*
X168360000Y-60437500D01*
%TO.N,Net-(U3A-DECR)*%
X163585000Y-71180000D02*
X163585000Y-70462500D01*
X165172500Y-69557500D02*
X165180000Y-69550000D01*
%TO.N,Net-(AE1-A)*%
X168287500Y-60535000D02*
X169825000Y-60535000D01*
%TO.N,Net-(U3A-DECR)*%
X166960000Y-69550000D02*
X166975000Y-69535000D01*
X165075000Y-69572500D02*
X165090000Y-69557500D01*
X163585000Y-70462500D02*
X164475000Y-69572500D01*
X164475000Y-69572500D02*
X165075000Y-69572500D01*
D50*
X162680000Y-71340000D02*
X163425000Y-71340000D01*
D52*
%TO.N,VSYS*%
X146960000Y-58800000D02*
X147225000Y-58535000D01*
D49*
%TO.N,Net-(C3-Pad1)*%
X168275000Y-62097500D02*
X168275000Y-73262500D01*
D52*
%TO.N,Net-(U3A-DCCD)*%
X156265000Y-69412100D02*
X156265000Y-70298000D01*
D49*
%TO.N,Net-(C3-Pad1)*%
X168312500Y-62060000D02*
X168275000Y-62097500D01*
D50*
%TO.N,VSYS*%
X143310000Y-57410000D02*
X143300000Y-57400000D01*
X141475000Y-57400000D02*
X141470000Y-57395000D01*
D52*
X146960000Y-59040000D02*
X146960000Y-58800000D01*
%TO.N,/D+*%
X154740000Y-70040000D02*
X154740000Y-69690000D01*
D49*
%TO.N,Net-(C3-Pad1)*%
X168275000Y-73262500D02*
X166587500Y-74950000D01*
D50*
%TO.N,VSYS*%
X144975000Y-57410000D02*
X143310000Y-57410000D01*
X147475000Y-57410000D02*
X147225000Y-57660000D01*
D52*
%TO.N,Net-(U3A-DCCD)*%
X156732500Y-62250000D02*
X156680000Y-62250000D01*
%TO.N,Net-(U3A-DCCR)*%
X165075000Y-67997500D02*
X165075000Y-68185000D01*
%TO.N,Net-(U3D-XC1)*%
X161325000Y-69960000D02*
X160787000Y-70498000D01*
D50*
%TO.N,Net-(D1-K)*%
X145602500Y-59840000D02*
X146160000Y-59840000D01*
D52*
%TO.N,/D+*%
X154665000Y-70298000D02*
X154665000Y-70115000D01*
D50*
%TO.N,Net-(D2-K)*%
X141975000Y-63160000D02*
X141480000Y-62665000D01*
D49*
%TO.N,Net-(C3-Pad1)*%
X166587500Y-76332500D02*
X166910000Y-76655000D01*
D52*
%TO.N,Net-(U3A-DCCR)*%
X158465000Y-69395000D02*
X158465000Y-69898000D01*
X158637500Y-69222500D02*
X158465000Y-69395000D01*
X165075000Y-68185000D02*
X163925000Y-69335000D01*
%TO.N,Net-(U3A-DCCD)*%
X156430000Y-68680000D02*
X156401000Y-68709000D01*
D50*
%TO.N,Net-(U6-OUTN)*%
X173530000Y-76120000D02*
X173530000Y-75758000D01*
D52*
%TO.N,Net-(U3D-XC1)*%
X160787000Y-70498000D02*
X160665000Y-70498000D01*
D50*
%TO.N,Net-(D2-K)*%
X141480000Y-62665000D02*
X141480000Y-62132500D01*
X144350000Y-61760000D02*
X144350000Y-62585000D01*
X143775000Y-63160000D02*
X141975000Y-63160000D01*
X146160000Y-60240000D02*
X146160000Y-60277000D01*
D49*
%TO.N,Net-(D2-A)*%
X141470000Y-59045000D02*
X141470000Y-60547500D01*
D52*
%TO.N,Net-(U3A-DCCD)*%
X156401000Y-69276100D02*
X156265000Y-69412100D01*
D49*
%TO.N,Net-(C3-Pad1)*%
X169825000Y-62060000D02*
X168312500Y-62060000D01*
D50*
%TO.N,Net-(D1-K)*%
X143310000Y-62132500D02*
X145602500Y-59840000D01*
D52*
%TO.N,Net-(U3A-DCCD)*%
X156401000Y-68709000D02*
X156401000Y-69276100D01*
X156680000Y-62250000D02*
X155940000Y-62990000D01*
D50*
%TO.N,VSYS*%
X143300000Y-57400000D02*
X141475000Y-57400000D01*
D49*
%TO.N,Net-(D2-A)*%
X141470000Y-60547500D02*
X141480000Y-60557500D01*
D50*
%TO.N,Net-(D2-K)*%
X146160000Y-60277000D02*
X145833000Y-60277000D01*
D49*
%TO.N,Net-(D1-A)*%
X143300000Y-59050000D02*
X143300000Y-60547500D01*
%TO.N,Net-(C3-Pad1)*%
X166587500Y-74950000D02*
X166587500Y-76332500D01*
D52*
%TO.N,Net-(U3D-XC1)*%
X161325000Y-69485000D02*
X161325000Y-69960000D01*
D50*
%TO.N,Net-(D2-K)*%
X145833000Y-60277000D02*
X144350000Y-61760000D01*
%TO.N,VSYS*%
X147225000Y-57660000D02*
X147225000Y-58535000D01*
D52*
X146960000Y-59440000D02*
X146960000Y-59040000D01*
%TO.N,/D+*%
X154665000Y-70115000D02*
X154740000Y-70040000D01*
D50*
%TO.N,Net-(D2-K)*%
X144350000Y-62585000D02*
X143775000Y-63160000D01*
D49*
%TO.N,Net-(D1-A)*%
X143300000Y-60547500D02*
X143310000Y-60557500D01*
%TO.N,Net-(U3D-ANT)*%
X163665000Y-74950000D02*
X161625000Y-72910000D01*
D52*
%TO.N,Net-(U3A-DECN)*%
X159129138Y-69570000D02*
X158937000Y-69762138D01*
X158937000Y-69762138D02*
X158937000Y-69826000D01*
D50*
%TO.N,Net-(U3A-VBUS)*%
X152530000Y-62610000D02*
X152990000Y-62150000D01*
D52*
%TO.N,Net-(U3A-DECD)*%
X157275000Y-68485000D02*
X157275000Y-69065000D01*
X158297500Y-63830000D02*
X158297500Y-64412500D01*
%TO.N,Net-(U3A-DECUSB)*%
X155465000Y-70161863D02*
X155593000Y-70033863D01*
D50*
%TO.N,Net-(U3A-VBUS)*%
X153545000Y-60790000D02*
X153540000Y-60785000D01*
D52*
%TO.N,Net-(U3A-DECD)*%
X157265000Y-69075000D02*
X157265000Y-69898000D01*
%TO.N,Net-(U3D-XC2)*%
X160265000Y-70298000D02*
X160237000Y-70270000D01*
%TO.N,Net-(U3A-DECN)*%
X159125000Y-68185000D02*
X159125000Y-68815000D01*
%TO.N,Net-(U3D-XC2)*%
X160237000Y-70270000D02*
X160237000Y-68014900D01*
D49*
%TO.N,Net-(U3D-ANT)*%
X165012500Y-74950000D02*
X163665000Y-74950000D01*
%TO.N,Net-(U3A-DECD)*%
X158307500Y-62250000D02*
X158307500Y-63820000D01*
D50*
%TO.N,Net-(U3A-VBUS)*%
X153545000Y-62255000D02*
X153545000Y-60790000D01*
D49*
%TO.N,Net-(U3D-ANT)*%
X165012500Y-74950000D02*
X165012500Y-76577500D01*
D52*
%TO.N,Net-(U3A-DECD)*%
X158297500Y-64412500D02*
X157830000Y-64880000D01*
%TO.N,Net-(U3A-DECN)*%
X158937000Y-69826000D02*
X158865000Y-69898000D01*
%TO.N,Net-(U3A-DECUSB)*%
X155593000Y-70033863D02*
X155593000Y-67781000D01*
D49*
%TO.N,Net-(U3D-ANT)*%
X165012500Y-76577500D02*
X165100000Y-76665000D01*
D50*
%TO.N,Net-(U3A-DECN)*%
X155140000Y-62255000D02*
X155140000Y-61550000D01*
D52*
X159250000Y-68940000D02*
X159250000Y-69513000D01*
D49*
%TO.N,Net-(U3A-DECD)*%
X158307500Y-63820000D02*
X158297500Y-63830000D01*
D52*
%TO.N,Net-(U3A-DECUSB)*%
X155465000Y-70298000D02*
X155465000Y-70161863D01*
%TO.N,Net-(U3A-DECN)*%
X159193000Y-69570000D02*
X159129138Y-69570000D01*
%TO.N,Net-(U3A-VBUS)*%
X155265000Y-69475000D02*
X155265000Y-69315000D01*
%TO.N,Net-(U3A-DECA)*%
X156865000Y-67463000D02*
X156895000Y-67433000D01*
X156865000Y-69898000D02*
X156865000Y-67463000D01*
D50*
%TO.N,Net-(U3A-DECN)*%
X155140000Y-61550000D02*
X154790000Y-61200000D01*
D52*
X159125000Y-68815000D02*
X159250000Y-68940000D01*
%TO.N,Net-(U3A-DECUSB)*%
X155593000Y-67781000D02*
X155245000Y-67433000D01*
%TO.N,Net-(U3A-VBUS)*%
X155265000Y-69315000D02*
X155180000Y-69230000D01*
X155265000Y-69898000D02*
X155265000Y-69475000D01*
D50*
X152990000Y-62150000D02*
X153440000Y-62150000D01*
D52*
%TO.N,Net-(U3A-DECN)*%
X159250000Y-69513000D02*
X159193000Y-69570000D01*
%TO.N,Net-(U3A-DECD)*%
X157275000Y-69065000D02*
X157265000Y-69075000D01*
D50*
%TO.N,Net-(U3A-VBUS)*%
X153440000Y-62150000D02*
X153545000Y-62255000D01*
D52*
%TO.N,Net-(U3D-XC2)*%
X160237000Y-68014900D02*
X160541900Y-67710000D01*
%TO.N,VDD*%
X158530000Y-68030000D02*
X158530000Y-67433000D01*
D50*
X160665000Y-70898000D02*
X161510000Y-70898000D01*
D52*
X159865000Y-70298000D02*
X159865000Y-70305000D01*
D49*
X149325000Y-63060000D02*
X149950000Y-63060000D01*
D50*
X163093000Y-72498000D02*
X163585000Y-72990000D01*
D49*
X150700000Y-79499400D02*
X151300600Y-79499400D01*
X149950000Y-63060000D02*
X149960000Y-63050000D01*
D50*
X161810000Y-72498000D02*
X162430000Y-72498000D01*
X162250000Y-71290000D02*
X162250000Y-72488000D01*
D52*
X159865000Y-70305000D02*
X159860000Y-70310000D01*
X154760000Y-68300000D02*
X153880000Y-67420000D01*
D49*
%TO.N,GND*%
X151400000Y-54160000D02*
X151425000Y-54135000D01*
X173900000Y-71010000D02*
X173900000Y-70860000D01*
X143990000Y-54075000D02*
X150425000Y-54075000D01*
X153570000Y-63830000D02*
X153545000Y-63805000D01*
D50*
%TO.N,VDD*%
X156465000Y-78610000D02*
X156240000Y-78835000D01*
D49*
%TO.N,GND*%
X156747500Y-65735500D02*
X156895000Y-65883000D01*
D52*
X146160000Y-60650000D02*
X145800000Y-61010000D01*
X154265000Y-73820000D02*
X153800000Y-73820000D01*
X147760000Y-60640000D02*
X147780000Y-60640000D01*
D49*
X153545000Y-64835000D02*
X153545000Y-65845000D01*
X173900000Y-71340000D02*
X173395000Y-71845000D01*
D50*
%TO.N,VDD*%
X154265000Y-70498000D02*
X154265000Y-70898000D01*
D52*
%TO.N,VBUS*%
X147360000Y-59040000D02*
X147360000Y-58925000D01*
D51*
%TO.N,VDD*%
X171240000Y-70810000D02*
X171240000Y-69780000D01*
D50*
X160665000Y-75698000D02*
X161820000Y-75698000D01*
D52*
%TO.N,GND*%
X154601137Y-71498000D02*
X154665000Y-71498000D01*
X154265000Y-71298000D02*
X154401137Y-71298000D01*
D49*
X156747500Y-63830000D02*
X153570000Y-63830000D01*
D52*
X154263000Y-71300000D02*
X154265000Y-71298000D01*
X154265000Y-73820000D02*
X154265000Y-74098000D01*
X147780000Y-60640000D02*
X148100000Y-60960000D01*
D49*
X143990000Y-54075000D02*
X143190000Y-54075000D01*
D52*
X174280000Y-70480000D02*
X174280000Y-70230000D01*
X159265000Y-69997217D02*
X159265000Y-69898000D01*
D49*
X150425000Y-54075000D02*
X150510000Y-54160000D01*
D52*
%TO.N,VDD*%
X157825000Y-68735000D02*
X158530000Y-68030000D01*
D50*
%TO.N,GND*%
X147360000Y-59840000D02*
X147360000Y-59995563D01*
D49*
%TO.N,VDD*%
X152870000Y-79880000D02*
X151895000Y-78905000D01*
D51*
%TO.N,GND*%
X163320000Y-78205000D02*
X162960000Y-77845000D01*
D49*
X143190000Y-54075000D02*
X143175000Y-54060000D01*
X156747500Y-63830000D02*
X156747500Y-64885000D01*
D52*
%TO.N,VBUS*%
X147360000Y-59440000D02*
X147360000Y-59040000D01*
X147360000Y-58925000D02*
X148312500Y-57972500D01*
%TO.N,GND*%
X159465000Y-70197217D02*
X159265000Y-69997217D01*
D49*
X150510000Y-54160000D02*
X151400000Y-54160000D01*
X158517000Y-65870000D02*
X158530000Y-65883000D01*
D50*
X147360000Y-60240000D02*
X147360000Y-59840000D01*
X146560000Y-59953360D02*
X146560000Y-59840000D01*
D49*
%TO.N,VDD*%
X153390000Y-74498000D02*
X153349000Y-74457000D01*
D50*
X161820000Y-75698000D02*
X162363000Y-75698000D01*
D52*
X155865000Y-70298000D02*
X155921000Y-70242000D01*
D49*
%TO.N,GND*%
X153570000Y-65870000D02*
X158517000Y-65870000D01*
D51*
X175030000Y-63040000D02*
X175030000Y-66780000D01*
D50*
%TO.N,VDD*%
X160665000Y-72498000D02*
X161810000Y-72498000D01*
%TO.N,GND*%
X146560000Y-60240000D02*
X146575000Y-60240000D01*
D49*
%TO.N,VDD*%
X159940000Y-63115000D02*
X159940000Y-63350000D01*
D50*
X161510000Y-70898000D02*
X161858000Y-70898000D01*
D52*
%TO.N,GND*%
X154265000Y-73698000D02*
X154265000Y-73820000D01*
D49*
X159282000Y-73098000D02*
X159290000Y-73090000D01*
D52*
%TO.N,VDD*%
X158041000Y-69742255D02*
X158041000Y-69874000D01*
D49*
X153708000Y-75298000D02*
X153390000Y-74980000D01*
D50*
X157665000Y-78640000D02*
X157860000Y-78835000D01*
X161858000Y-70898000D02*
X162250000Y-71290000D01*
%TO.N,GND*%
X146560000Y-60240000D02*
X146560000Y-59840000D01*
%TO.N,VDD*%
X162240000Y-72498000D02*
X162430000Y-72498000D01*
D49*
X172125000Y-83435000D02*
X172125000Y-85120000D01*
D52*
X156465000Y-77330000D02*
X156465000Y-78610000D01*
D49*
X172125000Y-85120000D02*
X172235000Y-85230000D01*
X149325000Y-63795000D02*
X149270000Y-63850000D01*
D52*
X147360000Y-61145000D02*
X147575000Y-61360000D01*
D49*
X139399700Y-78710000D02*
X139289700Y-78820000D01*
D50*
X142449699Y-79059699D02*
X142325000Y-78935000D01*
X153498000Y-72098000D02*
X153450000Y-72050000D01*
D52*
X147360000Y-60640000D02*
X147360000Y-61145000D01*
D49*
X159940000Y-63350000D02*
X159340000Y-63950000D01*
D50*
X161820000Y-72508000D02*
X161810000Y-72498000D01*
D52*
X155921000Y-70242000D02*
X155921000Y-69189000D01*
D49*
X153542000Y-73298000D02*
X154265000Y-73298000D01*
D52*
X155921000Y-69189000D02*
X156000000Y-69110000D01*
D49*
X148345000Y-63060000D02*
X149325000Y-63060000D01*
X149325000Y-63060000D02*
X149325000Y-63795000D01*
X152870000Y-80375000D02*
X152870000Y-79880000D01*
X151895000Y-78905000D02*
X151895000Y-76870000D01*
X153349000Y-74457000D02*
X153349000Y-73491000D01*
D50*
X162430000Y-72498000D02*
X163093000Y-72498000D01*
X142449699Y-79930300D02*
X142449699Y-79059699D01*
X156465000Y-76298000D02*
X156465000Y-78610000D01*
X157665000Y-76298000D02*
X157665000Y-76835000D01*
D49*
X153349000Y-73491000D02*
X153542000Y-73298000D01*
D52*
X158041000Y-69874000D02*
X158065000Y-69898000D01*
D51*
X171240000Y-69780000D02*
X171250000Y-69770000D01*
D49*
X153390000Y-74980000D02*
X153390000Y-74498000D01*
D50*
X162250000Y-72488000D02*
X162240000Y-72498000D01*
D49*
X151300600Y-79499400D02*
X151895000Y-78905000D01*
D50*
X162363000Y-75698000D02*
X162960000Y-76295000D01*
X154265000Y-72098000D02*
X153498000Y-72098000D01*
D49*
X151895000Y-76870000D02*
X151895000Y-75250000D01*
D50*
X157665000Y-77200000D02*
X157665000Y-78640000D01*
D49*
X140275000Y-78710000D02*
X139399700Y-78710000D01*
D52*
X153880000Y-67420000D02*
X153570000Y-67420000D01*
X157825000Y-69526255D02*
X158041000Y-69742255D01*
X156465000Y-76885000D02*
X156465000Y-77330000D01*
X157825000Y-68735000D02*
X157825000Y-69526255D01*
D49*
X154265000Y-75298000D02*
X153708000Y-75298000D01*
D50*
%TO.N,/RX*%
X155325000Y-83960000D02*
X155325000Y-85225000D01*
D52*
%TO.N,+3.3V*%
X146800000Y-58335000D02*
X146560000Y-58575000D01*
D50*
X174280000Y-68660000D02*
X174280000Y-69430000D01*
D49*
%TO.N,GND*%
X157665000Y-74445000D02*
X157670000Y-74450000D01*
D50*
X146575000Y-60240000D02*
X147360000Y-60240000D01*
D52*
%TO.N,+3.3V*%
X146800000Y-58310000D02*
X146800000Y-58335000D01*
X146560000Y-59440000D02*
X146560000Y-59040000D01*
D49*
%TO.N,GND*%
X153545000Y-65845000D02*
X153570000Y-65870000D01*
X157665000Y-73098000D02*
X157508000Y-73098000D01*
D51*
X166910000Y-78205000D02*
X163320000Y-78205000D01*
D52*
X154401137Y-71298000D02*
X154601137Y-71498000D01*
X146160000Y-60640000D02*
X146160000Y-60650000D01*
D49*
X173395000Y-71845000D02*
X173395000Y-72480000D01*
X171375000Y-61260000D02*
X171375000Y-62060000D01*
D52*
X153540000Y-71300000D02*
X154263000Y-71300000D01*
X173900000Y-70860000D02*
X174280000Y-70480000D01*
%TO.N,+3.3V*%
X146560000Y-58575000D02*
X146560000Y-59040000D01*
D51*
X173480000Y-63040000D02*
X173480000Y-66780000D01*
D52*
%TO.N,GND*%
X159465000Y-70298000D02*
X159465000Y-70197217D01*
D49*
X165135000Y-72990000D02*
X165135000Y-72035000D01*
X157665000Y-73098000D02*
X157452000Y-73098000D01*
D52*
X146960000Y-60640000D02*
X146960000Y-60240000D01*
D49*
X173900000Y-71010000D02*
X173900000Y-71340000D01*
X149875000Y-82260000D02*
X149875000Y-82635000D01*
D50*
%TO.N,Net-(J2-Pin_3)*%
X144450000Y-83535000D02*
X147067000Y-83535000D01*
D51*
%TO.N,VDD*%
X146460000Y-66390000D02*
X146730000Y-66390000D01*
D50*
%TO.N,Net-(J2-Pin_3)*%
X148400000Y-84868000D02*
X148400000Y-85230000D01*
D49*
%TO.N,GND*%
X151050000Y-82735000D02*
X151850000Y-81935000D01*
D51*
%TO.N,VDD*%
X146730000Y-66390000D02*
X147542500Y-65577500D01*
D50*
%TO.N,Net-(J2-Pin_3)*%
X144049701Y-83134701D02*
X144450000Y-83535000D01*
D49*
%TO.N,GND*%
X151860000Y-81925000D02*
X151850000Y-81935000D01*
D50*
%TO.N,Net-(J2-Pin_3)*%
X147067000Y-83535000D02*
X148400000Y-84868000D01*
D49*
%TO.N,GND*%
X152870000Y-81925000D02*
X151860000Y-81925000D01*
D50*
%TO.N,Net-(J2-Pin_3)*%
X144049701Y-82749700D02*
X144049701Y-83134701D01*
D49*
%TO.N,GND*%
X149875000Y-82635000D02*
X149975000Y-82735000D01*
D51*
%TO.N,VDD*%
X146460000Y-68160000D02*
X146460000Y-66390000D01*
D49*
%TO.N,GND*%
X149975000Y-82735000D02*
X151050000Y-82735000D01*
X160541900Y-65326900D02*
X160250000Y-65035000D01*
D52*
X160665000Y-71698000D02*
X161475900Y-71698000D01*
X146250000Y-63060000D02*
X145800000Y-62610000D01*
D49*
%TO.N,Net-(U3D-XC2)*%
X160150000Y-64185000D02*
X161575000Y-64185000D01*
D52*
%TO.N,GND*%
X156065000Y-71498000D02*
X157665000Y-73098000D01*
D49*
X166910000Y-79125000D02*
X166900000Y-79135000D01*
X173395000Y-73480000D02*
X173400000Y-73485000D01*
X165100000Y-78215000D02*
X165100000Y-79135000D01*
D52*
X161709325Y-71731000D02*
X161793968Y-71815643D01*
X145800000Y-62610000D02*
X145800000Y-61010000D01*
X161508900Y-71731000D02*
X161709325Y-71731000D01*
D49*
X159940000Y-61565000D02*
X160995000Y-61565000D01*
D52*
X159465000Y-70298000D02*
X159465000Y-71505000D01*
X159065000Y-71698000D02*
X157665000Y-73098000D01*
D50*
%TO.N,Net-(U3D-ANT)*%
X161412000Y-72098000D02*
X160665000Y-72098000D01*
D49*
%TO.N,GND*%
X173395000Y-72480000D02*
X173395000Y-73480000D01*
X165135000Y-72035000D02*
X165135000Y-71180000D01*
D50*
%TO.N,Net-(U3A-DECR)*%
X161643000Y-71298000D02*
X161675000Y-71330000D01*
%TO.N,GND*%
X140167000Y-67778101D02*
X139293101Y-67778101D01*
D49*
%TO.N,Net-(U3D-XC2)*%
X159375000Y-64960000D02*
X160150000Y-64185000D01*
%TO.N,GND*%
X165650000Y-72035000D02*
X166025000Y-71660000D01*
D52*
X146795000Y-63060000D02*
X146250000Y-63060000D01*
X160665000Y-71698000D02*
X159065000Y-71698000D01*
X161475900Y-71698000D02*
X161508900Y-71731000D01*
D49*
X160541900Y-66060000D02*
X160541900Y-65326900D01*
D50*
X139293101Y-67778101D02*
X139275000Y-67760000D01*
%TO.N,Net-(U3A-DECR)*%
X160665000Y-71298000D02*
X161643000Y-71298000D01*
D52*
%TO.N,GND*%
X154665000Y-71498000D02*
X156065000Y-71498000D01*
D49*
X165135000Y-72035000D02*
X165650000Y-72035000D01*
X160995000Y-61565000D02*
X161000000Y-61560000D01*
X166910000Y-78205000D02*
X166910000Y-79125000D01*
D50*
X140050000Y-62310000D02*
X140050000Y-61610000D01*
D52*
X159465000Y-71505000D02*
X159300000Y-71670000D01*
D51*
%TO.N,VBUS*%
X153550000Y-59125000D02*
X153540000Y-59135000D01*
D49*
%TO.N,Net-(U3D-XC2)*%
X160541900Y-67710000D02*
X159800000Y-67710000D01*
D50*
%TO.N,GND*%
X156747500Y-64885000D02*
X154250000Y-64885000D01*
D51*
%TO.N,VBUS*%
X148810000Y-56910000D02*
X149800000Y-56910000D01*
D50*
%TO.N,GND*%
X153595000Y-64885000D02*
X153545000Y-64835000D01*
D51*
%TO.N,VBUS*%
X148810000Y-56910000D02*
X148810000Y-57475000D01*
D50*
%TO.N,GND*%
X163158100Y-69000095D02*
X162792195Y-69366000D01*
D49*
X156747500Y-64885000D02*
X156747500Y-65735500D01*
%TO.N,Net-(U3D-XC1)*%
X163158100Y-66060000D02*
X165125000Y-66060000D01*
%TO.N,GND*%
X166975000Y-66210000D02*
X166750000Y-65985000D01*
D51*
%TO.N,VBUS*%
X153550000Y-57885000D02*
X153550000Y-59125000D01*
D49*
%TO.N,GND*%
X166750000Y-65035000D02*
X166750000Y-65985000D01*
D51*
%TO.N,VBUS*%
X149800000Y-56910000D02*
X149825000Y-56935000D01*
D49*
%TO.N,GND*%
X164050000Y-64185000D02*
X163125000Y-64185000D01*
D50*
X154250000Y-64885000D02*
X153595000Y-64885000D01*
D49*
%TO.N,Net-(U3D-XC1)*%
X165125000Y-66060000D02*
X165200000Y-65985000D01*
%TO.N,GND*%
X166975000Y-67985000D02*
X166975000Y-66210000D01*
X153545000Y-63805000D02*
X153545000Y-64835000D01*
%TO.N,Net-(U3D-XC2)*%
X159800000Y-67710000D02*
X159375000Y-67285000D01*
X159375000Y-67285000D02*
X159375000Y-64960000D01*
D50*
%TO.N,GND*%
X163158100Y-67710000D02*
X163158100Y-69000095D01*
X155140000Y-65778000D02*
X155245000Y-65883000D01*
X155140000Y-63805000D02*
X155140000Y-65778000D01*
D49*
X140420000Y-74340000D02*
X140425000Y-74335000D01*
D51*
%TO.N,VBUS*%
X137875000Y-68235000D02*
X137900000Y-68210000D01*
X136660000Y-74370000D02*
X135130000Y-74370000D01*
D49*
%TO.N,GND*%
X139535000Y-70100000D02*
X140390000Y-70100000D01*
X150345000Y-76035000D02*
X149425000Y-76035000D01*
D51*
%TO.N,VBUS*%
X148810000Y-57475000D02*
X148312500Y-57972500D01*
D49*
%TO.N,GND*%
X140390000Y-70100000D02*
X140400000Y-70110000D01*
D51*
%TO.N,VBUS*%
X135130000Y-69570000D02*
X136540000Y-69570000D01*
D49*
%TO.N,GND*%
X139585000Y-74340000D02*
X140420000Y-74340000D01*
D50*
X155140000Y-63805000D02*
X155140000Y-63985000D01*
D49*
X150345000Y-76870000D02*
X150345000Y-76035000D01*
X150345000Y-76035000D02*
X150345000Y-75250000D01*
D51*
%TO.N,VBUS*%
X136540000Y-69570000D02*
X137875000Y-68235000D01*
X148810000Y-55675000D02*
X148810000Y-56910000D01*
D50*
%TO.N,/I2C_SCL*%
X140176900Y-65258100D02*
X139875000Y-65560000D01*
X140598000Y-65258100D02*
X140176900Y-65258100D01*
%TO.N,VDD*%
X141610000Y-65770100D02*
X141610000Y-67671101D01*
X142606899Y-67778101D02*
X142725000Y-67660000D01*
X140199901Y-63860000D02*
X140598000Y-64258099D01*
X141610000Y-67671101D02*
X141717000Y-67778101D01*
X138850000Y-63860000D02*
X139850000Y-63860000D01*
%TO.N,GND*%
X140050000Y-62310000D02*
X138850000Y-62310000D01*
%TO.N,/I2C_SDA*%
X142327455Y-66660000D02*
X143900000Y-68232545D01*
X142125000Y-66660000D02*
X142327455Y-66660000D01*
%TO.N,GND*%
X141110000Y-64246100D02*
X141610000Y-64246100D01*
X140598000Y-67347101D02*
X140167000Y-67778101D01*
%TO.N,VDD*%
X139850000Y-63860000D02*
X140199901Y-63860000D01*
X142110001Y-64246100D02*
X142363900Y-64246100D01*
X141717000Y-67778101D02*
X141717000Y-68528000D01*
%TO.N,GND*%
X141110000Y-64246100D02*
X141110000Y-63370000D01*
%TO.N,/I2C_SDA*%
X141110000Y-66420000D02*
X141175000Y-66485000D01*
%TO.N,GND*%
X141110000Y-63370000D02*
X140050000Y-62310000D01*
%TO.N,VDD*%
X142363900Y-64246100D02*
X142800000Y-63810000D01*
X141717000Y-68528000D02*
X141560000Y-68685000D01*
X141717000Y-67778101D02*
X142606899Y-67778101D01*
%TO.N,GND*%
X140598000Y-65758101D02*
X140598000Y-67347101D01*
%TO.N,/I2C_SDA*%
X143900000Y-68232545D02*
X143900000Y-68285000D01*
X141110000Y-65770100D02*
X141110000Y-66420000D01*
%TO.N,/I2C_SCL*%
X144780000Y-66360000D02*
X144810000Y-66390000D01*
X144000000Y-66360000D02*
X144780000Y-66360000D01*
%TO.N,/I2C_SDA*%
X143900000Y-68285000D02*
X144685000Y-68285000D01*
X144685000Y-68285000D02*
X144810000Y-68160000D01*
%TO.N,/IRQ*%
X157265000Y-76545000D02*
X157265000Y-76298000D01*
%TO.N,VDD*%
X159265000Y-76735000D02*
X159265000Y-76298000D01*
X157665000Y-76835000D02*
X159165000Y-76835000D01*
X159165000Y-76835000D02*
X159265000Y-76735000D01*
%TO.N,/IRQ*%
X157025000Y-76785000D02*
X157265000Y-76545000D01*
%TO.N,VDD*%
X155665000Y-76875000D02*
X155675000Y-76885000D01*
X155150000Y-76885000D02*
X155675000Y-76885000D01*
D52*
X156465000Y-76298000D02*
X156465000Y-76885000D01*
D50*
X154865000Y-76298000D02*
X154865000Y-76600000D01*
X155665000Y-76298000D02*
X155665000Y-76875000D01*
X155037500Y-76772500D02*
X155150000Y-76885000D01*
X154865000Y-76600000D02*
X155037500Y-76772500D01*
X155675000Y-76885000D02*
X156465000Y-76885000D01*
X157665000Y-76835000D02*
X157665000Y-77200000D01*
D51*
%TO.N,+3.3V*%
X147200000Y-56635000D02*
X147220000Y-56615000D01*
D50*
X146800000Y-57035000D02*
X146800000Y-58310000D01*
%TO.N,GND*%
X168425000Y-85230000D02*
X168425000Y-85235000D01*
%TO.N,+3.3V*%
X163620000Y-85240000D02*
X163625000Y-85235000D01*
D51*
X174280000Y-68660000D02*
X174275000Y-68660000D01*
D50*
%TO.N,GND*%
X156600000Y-85230000D02*
X156600000Y-85235000D01*
D51*
%TO.N,+3.3V*%
X173480000Y-63040000D02*
X172795000Y-63040000D01*
X174305000Y-68685000D02*
X174280000Y-68660000D01*
X172795000Y-63040000D02*
X172425000Y-63410000D01*
X169750000Y-79535000D02*
X171275000Y-79535000D01*
X173475000Y-67860000D02*
X173475000Y-66785000D01*
D50*
%TO.N,GND*%
X161080000Y-85240000D02*
X161075000Y-85235000D01*
D51*
%TO.N,+3.3V*%
X173475000Y-66785000D02*
X173480000Y-66780000D01*
D50*
X147200000Y-56635000D02*
X146800000Y-57035000D01*
D51*
X147220000Y-56615000D02*
X147220000Y-55685000D01*
X174275000Y-68660000D02*
X173475000Y-67860000D01*
X175350000Y-68685000D02*
X174305000Y-68685000D01*
D50*
%TO.N,/SWDCLK*%
X169650000Y-83410000D02*
X169650000Y-85185000D01*
X160665000Y-73698000D02*
X161388000Y-73698000D01*
%TO.N,/SWDIO*%
X161775003Y-74707548D02*
X161775003Y-74860000D01*
X170850000Y-85115000D02*
X170965000Y-85230000D01*
X170850000Y-83885000D02*
X170850000Y-85115000D01*
%TO.N,/SWDCLK*%
X161388000Y-73698000D02*
X161750000Y-74060000D01*
X169650000Y-85185000D02*
X169695000Y-85230000D01*
%TO.N,/SWDIO*%
X161165455Y-74098000D02*
X161775003Y-74707548D01*
X160665000Y-74098000D02*
X161165455Y-74098000D01*
%TO.N,/nRESET*%
X167150000Y-83810000D02*
X167150000Y-85230000D01*
%TO.N,VDD*%
X153808000Y-70498000D02*
X154265000Y-70498000D01*
%TO.N,/nRESET*%
X160963000Y-74498000D02*
X161325000Y-74860000D01*
X160665000Y-74498000D02*
X160963000Y-74498000D01*
%TO.N,GND*%
X150345000Y-69730000D02*
X150355000Y-69730000D01*
X150355000Y-69730000D02*
X151150000Y-68935000D01*
%TO.N,/I2C_SDA*%
X141840000Y-81340000D02*
X140980000Y-81340000D01*
%TO.N,VDD*%
X153040000Y-69730000D02*
X153808000Y-70498000D01*
X151895000Y-69730000D02*
X153040000Y-69730000D01*
%TO.N,/INT2*%
X142826900Y-64758100D02*
X142122000Y-64758100D01*
X143075000Y-64510000D02*
X142826900Y-64758100D01*
%TO.N,/I2C_SCL*%
X141840000Y-80940001D02*
X141330001Y-80940001D01*
%TO.N,/I2C_SDA*%
X140980000Y-81340000D02*
X140525000Y-80885000D01*
%TO.N,/I2C_SCL*%
X141330001Y-80940001D02*
X140875000Y-80485000D01*
%TO.N,/INT1*%
X142951900Y-65258100D02*
X142122000Y-65258100D01*
X143125000Y-65085000D02*
X142951900Y-65258100D01*
%TO.N,Net-(J2-Pin_3)*%
X91167000Y-83510000D02*
X92500000Y-84843000D01*
X92500000Y-84843000D02*
X92500000Y-85205000D01*
X88550000Y-83510000D02*
X91167000Y-83510000D01*
X88149701Y-83109701D02*
X88550000Y-83510000D01*
X88149701Y-82724700D02*
X88149701Y-83109701D01*
D51*
%TO.N,VDD*%
X90560000Y-66365000D02*
X90830000Y-66365000D01*
X90830000Y-66365000D02*
X91642500Y-65552500D01*
X90560000Y-68135000D02*
X90560000Y-66365000D01*
D49*
%TO.N,GND*%
X95150000Y-82710000D02*
X95950000Y-81910000D01*
X94075000Y-82710000D02*
X95150000Y-82710000D01*
X93975000Y-82610000D02*
X94075000Y-82710000D01*
X93975000Y-82235000D02*
X93975000Y-82610000D01*
X95960000Y-81900000D02*
X95950000Y-81910000D01*
X96970000Y-81900000D02*
X95960000Y-81900000D01*
D50*
X83393101Y-67753101D02*
X83375000Y-67735000D01*
X84267000Y-67753101D02*
X83393101Y-67753101D01*
X84150000Y-62285000D02*
X84150000Y-61585000D01*
D52*
X90350000Y-63035000D02*
X89900000Y-62585000D01*
X90895000Y-63035000D02*
X90350000Y-63035000D01*
X89900000Y-62585000D02*
X89900000Y-60985000D01*
D49*
X117495000Y-73455000D02*
X117500000Y-73460000D01*
X117495000Y-72455000D02*
X117495000Y-73455000D01*
D52*
X105809325Y-71706000D02*
X105893968Y-71790643D01*
X105575900Y-71673000D02*
X105608900Y-71706000D01*
X105608900Y-71706000D02*
X105809325Y-71706000D01*
X104765000Y-71673000D02*
X105575900Y-71673000D01*
X103165000Y-71673000D02*
X101765000Y-73073000D01*
X104765000Y-71673000D02*
X103165000Y-71673000D01*
X100165000Y-71473000D02*
X101765000Y-73073000D01*
X98765000Y-71473000D02*
X100165000Y-71473000D01*
X103565000Y-71480000D02*
X103400000Y-71645000D01*
X103565000Y-70273000D02*
X103565000Y-71480000D01*
D49*
X109235000Y-72010000D02*
X109750000Y-72010000D01*
X109750000Y-72010000D02*
X110125000Y-71635000D01*
X109235000Y-72010000D02*
X109235000Y-71155000D01*
D50*
%TO.N,Net-(U3D-ANT)*%
X105512000Y-72073000D02*
X104765000Y-72073000D01*
%TO.N,Net-(U3A-DECR)*%
X105743000Y-71273000D02*
X105775000Y-71305000D01*
X104765000Y-71273000D02*
X105743000Y-71273000D01*
D49*
%TO.N,GND*%
X109200000Y-78190000D02*
X109200000Y-79110000D01*
X111010000Y-79100000D02*
X111000000Y-79110000D01*
X111010000Y-78180000D02*
X111010000Y-79100000D01*
X105095000Y-61540000D02*
X105100000Y-61535000D01*
X104040000Y-61540000D02*
X105095000Y-61540000D01*
X104641900Y-65301900D02*
X104350000Y-65010000D01*
X104641900Y-66035000D02*
X104641900Y-65301900D01*
%TO.N,Net-(U3D-XC2)*%
X104250000Y-64160000D02*
X105675000Y-64160000D01*
X103475000Y-64935000D02*
X104250000Y-64160000D01*
X103475000Y-67260000D02*
X103475000Y-64935000D01*
X103900000Y-67685000D02*
X103475000Y-67260000D01*
X104641900Y-67685000D02*
X103900000Y-67685000D01*
%TO.N,Net-(U3D-XC1)*%
X107258100Y-66035000D02*
X109225000Y-66035000D01*
X109225000Y-66035000D02*
X109300000Y-65960000D01*
%TO.N,GND*%
X110850000Y-65010000D02*
X110850000Y-65960000D01*
X108150000Y-64160000D02*
X107225000Y-64160000D01*
X111075000Y-67960000D02*
X111075000Y-66185000D01*
X111075000Y-66185000D02*
X110850000Y-65960000D01*
D50*
X107258100Y-68975095D02*
X106892195Y-69341000D01*
X107258100Y-67685000D02*
X107258100Y-68975095D01*
X98350000Y-64860000D02*
X97695000Y-64860000D01*
X97695000Y-64860000D02*
X97645000Y-64810000D01*
X100847500Y-64860000D02*
X98350000Y-64860000D01*
D49*
X97645000Y-63780000D02*
X97645000Y-64810000D01*
X100847500Y-64860000D02*
X100847500Y-65710500D01*
D50*
X99240000Y-63780000D02*
X99240000Y-63960000D01*
X99240000Y-65753000D02*
X99345000Y-65858000D01*
X99240000Y-63780000D02*
X99240000Y-65753000D01*
D51*
%TO.N,VBUS*%
X97650000Y-59100000D02*
X97640000Y-59110000D01*
X97650000Y-57860000D02*
X97650000Y-59100000D01*
X93900000Y-56885000D02*
X93925000Y-56910000D01*
X92910000Y-56885000D02*
X93900000Y-56885000D01*
X92910000Y-56885000D02*
X92910000Y-57450000D01*
X80760000Y-74345000D02*
X79230000Y-74345000D01*
X92910000Y-57450000D02*
X92412500Y-57947500D01*
X92910000Y-55650000D02*
X92910000Y-56885000D01*
X81975000Y-68210000D02*
X82000000Y-68185000D01*
X80640000Y-69545000D02*
X81975000Y-68210000D01*
X79230000Y-69545000D02*
X80640000Y-69545000D01*
D49*
%TO.N,GND*%
X84520000Y-74315000D02*
X84525000Y-74310000D01*
X83685000Y-74315000D02*
X84520000Y-74315000D01*
X84490000Y-70075000D02*
X84500000Y-70085000D01*
X83635000Y-70075000D02*
X84490000Y-70075000D01*
X94445000Y-76010000D02*
X93525000Y-76010000D01*
X94445000Y-76010000D02*
X94445000Y-75225000D01*
X94445000Y-76845000D02*
X94445000Y-76010000D01*
D51*
%TO.N,+3.3V*%
X91300000Y-56610000D02*
X91320000Y-56590000D01*
D50*
X90900000Y-57010000D02*
X90900000Y-58285000D01*
X91300000Y-56610000D02*
X90900000Y-57010000D01*
D51*
X91320000Y-56590000D02*
X91320000Y-55660000D01*
X116895000Y-63015000D02*
X116525000Y-63385000D01*
X117580000Y-63015000D02*
X116895000Y-63015000D01*
X113850000Y-79510000D02*
X115375000Y-79510000D01*
X117575000Y-67835000D02*
X117575000Y-66760000D01*
X118380000Y-68635000D02*
X118375000Y-68635000D01*
X118375000Y-68635000D02*
X117575000Y-67835000D01*
X117575000Y-66760000D02*
X117580000Y-66755000D01*
X118405000Y-68660000D02*
X118380000Y-68635000D01*
X119450000Y-68660000D02*
X118405000Y-68660000D01*
D50*
X107720000Y-85215000D02*
X107725000Y-85210000D01*
%TO.N,GND*%
X100700000Y-85205000D02*
X100700000Y-85210000D01*
X105180000Y-85215000D02*
X105175000Y-85210000D01*
X112525000Y-85205000D02*
X112525000Y-85210000D01*
%TO.N,/SWDCLK*%
X113750000Y-85160000D02*
X113795000Y-85205000D01*
X113750000Y-83385000D02*
X113750000Y-85160000D01*
X105488000Y-73673000D02*
X105850000Y-74035000D01*
X104765000Y-73673000D02*
X105488000Y-73673000D01*
%TO.N,/SWDIO*%
X114950000Y-85090000D02*
X115065000Y-85205000D01*
X114950000Y-83860000D02*
X114950000Y-85090000D01*
X105875003Y-74682548D02*
X105875003Y-74835000D01*
X105265455Y-74073000D02*
X105875003Y-74682548D01*
X104765000Y-74073000D02*
X105265455Y-74073000D01*
%TO.N,/nRESET*%
X111250000Y-83785000D02*
X111250000Y-85205000D01*
X105063000Y-74473000D02*
X105425000Y-74835000D01*
X104765000Y-74473000D02*
X105063000Y-74473000D01*
%TO.N,/I2C_SDA*%
X85080000Y-81315000D02*
X84625000Y-80860000D01*
X85940000Y-81315000D02*
X85080000Y-81315000D01*
%TO.N,/I2C_SCL*%
X85430001Y-80915001D02*
X84975000Y-80460000D01*
X85940000Y-80915001D02*
X85430001Y-80915001D01*
%TO.N,GND*%
X94455000Y-69705000D02*
X95250000Y-68910000D01*
X94445000Y-69705000D02*
X94455000Y-69705000D01*
%TO.N,VDD*%
X97908000Y-70473000D02*
X98365000Y-70473000D01*
X97140000Y-69705000D02*
X97908000Y-70473000D01*
X95995000Y-69705000D02*
X97140000Y-69705000D01*
%TO.N,/INT2*%
X86926900Y-64733100D02*
X86222000Y-64733100D01*
X87175000Y-64485000D02*
X86926900Y-64733100D01*
%TO.N,/INT1*%
X87051900Y-65233100D02*
X86222000Y-65233100D01*
X87225000Y-65060000D02*
X87051900Y-65233100D01*
%TO.N,/I2C_SCL*%
X84276900Y-65233100D02*
X83975000Y-65535000D01*
X84698000Y-65233100D02*
X84276900Y-65233100D01*
%TO.N,VDD*%
X83950000Y-63835000D02*
X84299901Y-63835000D01*
X86463900Y-64221100D02*
X86900000Y-63785000D01*
X86210001Y-64221100D02*
X86463900Y-64221100D01*
X84299901Y-63835000D02*
X84698000Y-64233099D01*
X82950000Y-63835000D02*
X83950000Y-63835000D01*
%TO.N,GND*%
X84150000Y-62285000D02*
X82950000Y-62285000D01*
X85210000Y-63345000D02*
X84150000Y-62285000D01*
X85210000Y-64221100D02*
X85210000Y-63345000D01*
X85210000Y-64221100D02*
X85710000Y-64221100D01*
X84698000Y-67322101D02*
X84267000Y-67753101D01*
X84698000Y-65733101D02*
X84698000Y-67322101D01*
%TO.N,/I2C_SDA*%
X88000000Y-68207545D02*
X88000000Y-68260000D01*
X86225000Y-66635000D02*
X86427455Y-66635000D01*
X86427455Y-66635000D02*
X88000000Y-68207545D01*
X85210000Y-66395000D02*
X85275000Y-66460000D01*
X85210000Y-65745100D02*
X85210000Y-66395000D01*
%TO.N,VDD*%
X85817000Y-68503000D02*
X85660000Y-68660000D01*
X85817000Y-67753101D02*
X85817000Y-68503000D01*
X86706899Y-67753101D02*
X86825000Y-67635000D01*
X85817000Y-67753101D02*
X86706899Y-67753101D01*
X85710000Y-67646101D02*
X85817000Y-67753101D01*
X85710000Y-65745100D02*
X85710000Y-67646101D01*
%TO.N,/I2C_SDA*%
X88000000Y-68260000D02*
X88785000Y-68260000D01*
X88785000Y-68260000D02*
X88910000Y-68135000D01*
%TO.N,/I2C_SCL*%
X88880000Y-66335000D02*
X88910000Y-66365000D01*
X88100000Y-66335000D02*
X88880000Y-66335000D01*
%TO.N,/IRQ*%
X101365000Y-76520000D02*
X101365000Y-76273000D01*
X101125000Y-76760000D02*
X101365000Y-76520000D01*
%TO.N,VDD*%
X103365000Y-76710000D02*
X103365000Y-76273000D01*
X103265000Y-76810000D02*
X103365000Y-76710000D01*
X101765000Y-76810000D02*
X103265000Y-76810000D01*
X101765000Y-76810000D02*
X101765000Y-77175000D01*
X99765000Y-76850000D02*
X99775000Y-76860000D01*
X99765000Y-76273000D02*
X99765000Y-76850000D01*
X99775000Y-76860000D02*
X100565000Y-76860000D01*
X99250000Y-76860000D02*
X99775000Y-76860000D01*
X99137500Y-76747500D02*
X99250000Y-76860000D01*
D52*
X100565000Y-76273000D02*
X100565000Y-76860000D01*
D50*
X98965000Y-76575000D02*
X99137500Y-76747500D01*
X98965000Y-76273000D02*
X98965000Y-76575000D01*
%TO.N,/RX*%
X99425000Y-85200000D02*
X99430000Y-85205000D01*
X99425000Y-83935000D02*
X99425000Y-85200000D01*
%TO.N,/TX*%
X98150000Y-85195000D02*
X98160000Y-85205000D01*
X98150000Y-84010000D02*
X98150000Y-85195000D01*
D49*
%TO.N,VDD*%
X95995000Y-75225000D02*
X95900000Y-75130000D01*
X95963000Y-74473000D02*
X98365000Y-74473000D01*
X95900000Y-74410000D02*
X95963000Y-74473000D01*
X95900000Y-75130000D02*
X95900000Y-74410000D01*
%TO.N,/D+*%
X93450000Y-59110000D02*
X93175000Y-59385000D01*
X93450000Y-58385000D02*
X93450000Y-59110000D01*
%TO.N,VDD*%
X97035000Y-67395000D02*
X97670000Y-67395000D01*
X96530000Y-66935000D02*
X96830000Y-67235000D01*
X96530000Y-66410000D02*
X96530000Y-66935000D01*
X96830000Y-67235000D02*
X96875000Y-67235000D01*
X96875000Y-67235000D02*
X97035000Y-67395000D01*
D50*
%TO.N,GND*%
X79415000Y-68745000D02*
X79230000Y-68745000D01*
X80100000Y-68060000D02*
X79415000Y-68745000D01*
D49*
%TO.N,/D-*%
X80410000Y-71195000D02*
X80425000Y-71210000D01*
X79230000Y-71195000D02*
X80410000Y-71195000D01*
%TO.N,/D+*%
X80925000Y-72410000D02*
X80225000Y-72410000D01*
D50*
%TO.N,/D-*%
X92770000Y-59015000D02*
X92875000Y-58910000D01*
X91860000Y-59015000D02*
X92770000Y-59015000D01*
%TO.N,/D+*%
X93145000Y-59415000D02*
X93175000Y-59385000D01*
X91860000Y-59415000D02*
X93145000Y-59415000D01*
%TO.N,Net-(U4-DEC)*%
X94610000Y-58785000D02*
X94610000Y-55685000D01*
X93580000Y-59815000D02*
X94610000Y-58785000D01*
X91860000Y-59815000D02*
X93580000Y-59815000D01*
%TO.N,Net-(U4-SW)*%
X94060000Y-60745000D02*
X94060000Y-61450000D01*
X93530000Y-60215000D02*
X94060000Y-60745000D01*
X91860000Y-60215000D02*
X93530000Y-60215000D01*
%TO.N,/D+*%
X80225000Y-71960000D02*
X79960000Y-71695000D01*
X80225000Y-72410000D02*
X80225000Y-71960000D01*
X79960000Y-71695000D02*
X79230000Y-71695000D01*
X79940000Y-72695000D02*
X80225000Y-72410000D01*
X79230000Y-72695000D02*
X79940000Y-72695000D01*
%TO.N,/D-*%
X78175000Y-72010000D02*
X78360000Y-72195000D01*
X78360000Y-72195000D02*
X79230000Y-72195000D01*
X79230000Y-71195000D02*
X78365000Y-71195000D01*
X78365000Y-71195000D02*
X78175000Y-71385000D01*
X78175000Y-71385000D02*
X78175000Y-72010000D01*
%TO.N,Net-(J1-CC1)*%
X81365000Y-70695000D02*
X79230000Y-70695000D01*
X81985000Y-70075000D02*
X81365000Y-70695000D01*
%TO.N,Net-(J1-CC2)*%
X82035000Y-74315000D02*
X81415000Y-73695000D01*
X81415000Y-73695000D02*
X79230000Y-73695000D01*
%TO.N,GND*%
X80460000Y-75145000D02*
X80475000Y-75160000D01*
X79230000Y-75145000D02*
X80460000Y-75145000D01*
X82290000Y-80345000D02*
X82275000Y-80360000D01*
X83389700Y-80345000D02*
X82290000Y-80345000D01*
X83725000Y-84560000D02*
X83550000Y-84385000D01*
X85200000Y-84560000D02*
X83725000Y-84560000D01*
X82675000Y-83510000D02*
X83550000Y-84385000D01*
X82675000Y-82960000D02*
X82675000Y-83510000D01*
X83389700Y-81184698D02*
X83920001Y-81714999D01*
X83389700Y-80345000D02*
X83389700Y-81184698D01*
X83920001Y-81714999D02*
X85940000Y-81714999D01*
X82675000Y-82960000D02*
X83920001Y-81714999D01*
%TO.N,Net-(U2-VREG)*%
X85095001Y-82960000D02*
X85940000Y-82115001D01*
X84225000Y-82960000D02*
X85095001Y-82960000D01*
%TO.N,GND*%
X86549699Y-82724700D02*
X86549699Y-83210301D01*
X86549699Y-83210301D02*
X85200000Y-84560000D01*
%TO.N,Net-(U2-REXT)*%
X86949701Y-84460299D02*
X86850000Y-84560000D01*
X86949701Y-82724700D02*
X86949701Y-84460299D01*
%TO.N,Net-(J2-Pin_2)*%
X90750000Y-83960000D02*
X91230000Y-84440000D01*
X88375000Y-83960000D02*
X90750000Y-83960000D01*
X87749699Y-82724700D02*
X87749699Y-83334699D01*
X87749699Y-83334699D02*
X88375000Y-83960000D01*
X91230000Y-84440000D02*
X91230000Y-85205000D01*
%TO.N,Net-(J2-Pin_1)*%
X88950856Y-85205000D02*
X89960000Y-85205000D01*
X87349700Y-83603844D02*
X88950856Y-85205000D01*
X87349700Y-82724700D02*
X87349700Y-83603844D01*
D51*
%TO.N,VDD*%
X100340000Y-78810000D02*
X101960000Y-78810000D01*
X99255000Y-78810000D02*
X98895000Y-79170000D01*
X100340000Y-78810000D02*
X99255000Y-78810000D01*
X97715000Y-80350000D02*
X98895000Y-79170000D01*
X96970000Y-80350000D02*
X97715000Y-80350000D01*
%TO.N,GND*%
X100340000Y-80360000D02*
X99325000Y-80360000D01*
X101960000Y-80360000D02*
X100340000Y-80360000D01*
D50*
%TO.N,/MIC_CLOCK*%
X95813600Y-80296400D02*
X94800000Y-80296400D01*
X104165000Y-77000000D02*
X104165000Y-76273000D01*
%TO.N,/MIC_DATA*%
X93900000Y-78085000D02*
X95425000Y-78085000D01*
X93125000Y-78860000D02*
X93900000Y-78085000D01*
X93125000Y-79474400D02*
X93125000Y-78860000D01*
D49*
%TO.N,/SD_MODE*%
X115350000Y-68095000D02*
X116670000Y-68095000D01*
X116670000Y-68095000D02*
X117977000Y-69402000D01*
X114740000Y-68095000D02*
X115350000Y-68095000D01*
X114200000Y-68635000D02*
X114740000Y-68095000D01*
X114200000Y-69310000D02*
X114200000Y-68635000D01*
%TO.N,GND*%
X115475000Y-61235000D02*
X116500000Y-61235000D01*
X115475000Y-60510000D02*
X115475000Y-61235000D01*
X114560000Y-59620000D02*
X114560000Y-59135000D01*
X115450000Y-60510000D02*
X114560000Y-59620000D01*
X115475000Y-60510000D02*
X115450000Y-60510000D01*
X119130000Y-62015000D02*
X119125000Y-62010000D01*
X119130000Y-63015000D02*
X119130000Y-62015000D01*
X119130000Y-67755000D02*
X119125000Y-67760000D01*
X119130000Y-66755000D02*
X119130000Y-67755000D01*
D52*
%TO.N,+3.3V*%
X90900000Y-58310000D02*
X90660000Y-58550000D01*
D51*
X117580000Y-63015000D02*
X117580000Y-66755000D01*
D50*
X118380000Y-68635000D02*
X118380000Y-69405000D01*
D52*
X90660000Y-58550000D02*
X90660000Y-59015000D01*
X90660000Y-59415000D02*
X90660000Y-59015000D01*
X90900000Y-58285000D02*
X90900000Y-58310000D01*
%TO.N,GND*%
X118000000Y-70835000D02*
X118380000Y-70455000D01*
D49*
X117495000Y-71820000D02*
X117495000Y-72455000D01*
D52*
X90260000Y-60615000D02*
X90260000Y-60625000D01*
X98501137Y-71273000D02*
X98701137Y-71473000D01*
X97640000Y-71275000D02*
X98363000Y-71275000D01*
D50*
X90675000Y-60215000D02*
X91460000Y-60215000D01*
D51*
X111010000Y-78180000D02*
X107420000Y-78180000D01*
D49*
X101765000Y-74420000D02*
X101770000Y-74425000D01*
X115475000Y-61235000D02*
X115475000Y-62035000D01*
X101765000Y-73073000D02*
X101608000Y-73073000D01*
X97645000Y-65820000D02*
X97670000Y-65845000D01*
D52*
X91060000Y-60615000D02*
X91060000Y-60215000D01*
D49*
X101765000Y-73073000D02*
X101552000Y-73073000D01*
X109235000Y-72965000D02*
X109235000Y-72010000D01*
X118000000Y-70985000D02*
X118000000Y-71315000D01*
D52*
X103565000Y-70273000D02*
X103565000Y-70172217D01*
D49*
X95500000Y-54135000D02*
X95525000Y-54110000D01*
X102617000Y-65845000D02*
X102630000Y-65858000D01*
D51*
X119130000Y-63015000D02*
X119130000Y-66755000D01*
D52*
X98363000Y-71275000D02*
X98365000Y-71273000D01*
D50*
X90660000Y-60215000D02*
X90660000Y-59815000D01*
D49*
X88090000Y-54050000D02*
X94525000Y-54050000D01*
X100847500Y-63805000D02*
X97670000Y-63805000D01*
X97645000Y-64810000D02*
X97645000Y-65820000D01*
X103382000Y-73073000D02*
X103390000Y-73065000D01*
D50*
X90660000Y-60215000D02*
X90675000Y-60215000D01*
D49*
X118000000Y-71315000D02*
X117495000Y-71820000D01*
D52*
X91860000Y-60615000D02*
X91880000Y-60615000D01*
D49*
X97670000Y-65845000D02*
X102617000Y-65845000D01*
X88090000Y-54050000D02*
X87290000Y-54050000D01*
D50*
X90660000Y-59928360D02*
X90660000Y-59815000D01*
D52*
X103565000Y-70172217D02*
X103365000Y-69972217D01*
D49*
X100847500Y-63805000D02*
X100847500Y-64860000D01*
D52*
X103365000Y-69972217D02*
X103365000Y-69873000D01*
X98365000Y-73795000D02*
X97900000Y-73795000D01*
X98365000Y-73673000D02*
X98365000Y-73795000D01*
D50*
X91460000Y-60215000D02*
X91460000Y-59815000D01*
D52*
X90260000Y-60625000D02*
X89900000Y-60985000D01*
D49*
X94525000Y-54050000D02*
X94610000Y-54135000D01*
X97670000Y-63805000D02*
X97645000Y-63780000D01*
X87290000Y-54050000D02*
X87275000Y-54035000D01*
D52*
X91880000Y-60615000D02*
X92200000Y-60935000D01*
D49*
X118000000Y-70985000D02*
X118000000Y-70835000D01*
D51*
X107420000Y-78180000D02*
X107060000Y-77820000D01*
D49*
X100847500Y-65710500D02*
X100995000Y-65858000D01*
D52*
X98365000Y-73795000D02*
X98365000Y-74073000D01*
X98701137Y-71473000D02*
X98765000Y-71473000D01*
X118380000Y-70455000D02*
X118380000Y-70205000D01*
X98365000Y-71273000D02*
X98501137Y-71273000D01*
D50*
X91460000Y-59815000D02*
X91460000Y-59970563D01*
D49*
X94610000Y-54135000D02*
X95500000Y-54135000D01*
D52*
%TO.N,VBUS*%
X91460000Y-59015000D02*
X91460000Y-58900000D01*
X91460000Y-58900000D02*
X92412500Y-57947500D01*
X91460000Y-59415000D02*
X91460000Y-59015000D01*
D50*
%TO.N,VDD*%
X104765000Y-75673000D02*
X105920000Y-75673000D01*
D51*
X115340000Y-70785000D02*
X115340000Y-69755000D01*
D52*
X99965000Y-70273000D02*
X100021000Y-70217000D01*
D50*
X105920000Y-75673000D02*
X106463000Y-75673000D01*
X98365000Y-70473000D02*
X98365000Y-70873000D01*
X105610000Y-70873000D02*
X105958000Y-70873000D01*
D49*
X96970000Y-79855000D02*
X95995000Y-78880000D01*
D50*
X100565000Y-78585000D02*
X100340000Y-78810000D01*
D52*
X101925000Y-68710000D02*
X102630000Y-68005000D01*
D49*
X104040000Y-63090000D02*
X104040000Y-63325000D01*
D50*
X104765000Y-72473000D02*
X105910000Y-72473000D01*
X105958000Y-70873000D02*
X106350000Y-71265000D01*
X101765000Y-78615000D02*
X101960000Y-78810000D01*
D49*
X97490000Y-74473000D02*
X97449000Y-74432000D01*
X97808000Y-75273000D02*
X97490000Y-74955000D01*
D52*
X102141000Y-69717255D02*
X102141000Y-69849000D01*
D49*
X94800000Y-79474400D02*
X95400600Y-79474400D01*
D50*
X105910000Y-72473000D02*
X106530000Y-72473000D01*
X104765000Y-70873000D02*
X105610000Y-70873000D01*
D49*
X94050000Y-63035000D02*
X94060000Y-63025000D01*
D52*
X103965000Y-70280000D02*
X103960000Y-70285000D01*
D50*
X106350000Y-71265000D02*
X106350000Y-72463000D01*
X107193000Y-72473000D02*
X107685000Y-72965000D01*
D52*
X102630000Y-68005000D02*
X102630000Y-67408000D01*
X98860000Y-68275000D02*
X97980000Y-67395000D01*
D49*
X93425000Y-63035000D02*
X94050000Y-63035000D01*
D52*
X103965000Y-70273000D02*
X103965000Y-70280000D01*
D49*
X97449000Y-73466000D02*
X97642000Y-73273000D01*
D50*
X97598000Y-72073000D02*
X97550000Y-72025000D01*
D52*
X101925000Y-69501255D02*
X102141000Y-69717255D01*
D50*
X101765000Y-76273000D02*
X101765000Y-76810000D01*
D52*
X97980000Y-67395000D02*
X97670000Y-67395000D01*
D49*
X95995000Y-76845000D02*
X95995000Y-75225000D01*
X83499700Y-78685000D02*
X83389700Y-78795000D01*
D52*
X91460000Y-60615000D02*
X91460000Y-61120000D01*
X100565000Y-76860000D02*
X100565000Y-77305000D01*
D49*
X116225000Y-85095000D02*
X116335000Y-85205000D01*
D52*
X100021000Y-69164000D02*
X100100000Y-69085000D01*
D49*
X97490000Y-74955000D02*
X97490000Y-74473000D01*
X98365000Y-75273000D02*
X97808000Y-75273000D01*
X84375000Y-78685000D02*
X83499700Y-78685000D01*
X97642000Y-73273000D02*
X98365000Y-73273000D01*
D50*
X86549699Y-79034699D02*
X86425000Y-78910000D01*
D52*
X100021000Y-70217000D02*
X100021000Y-69164000D01*
D49*
X93425000Y-63035000D02*
X93425000Y-63770000D01*
D50*
X105920000Y-72483000D02*
X105910000Y-72473000D01*
D49*
X96970000Y-80350000D02*
X96970000Y-79855000D01*
D52*
X102141000Y-69849000D02*
X102165000Y-69873000D01*
X101925000Y-68710000D02*
X101925000Y-69501255D01*
D50*
X98365000Y-72073000D02*
X97598000Y-72073000D01*
D49*
X97449000Y-74432000D02*
X97449000Y-73466000D01*
D51*
X115340000Y-69755000D02*
X115350000Y-69745000D01*
D50*
X106463000Y-75673000D02*
X107060000Y-76270000D01*
X86549699Y-79905300D02*
X86549699Y-79034699D01*
D49*
X95400600Y-79474400D02*
X95995000Y-78880000D01*
X93425000Y-63770000D02*
X93370000Y-63825000D01*
D52*
X91460000Y-61120000D02*
X91675000Y-61335000D01*
X100565000Y-77305000D02*
X100565000Y-78585000D01*
D49*
X104040000Y-63325000D02*
X103440000Y-63925000D01*
X95995000Y-78880000D02*
X95995000Y-76845000D01*
D50*
X101765000Y-77175000D02*
X101765000Y-78615000D01*
X100565000Y-76273000D02*
X100565000Y-78585000D01*
X106530000Y-72473000D02*
X107193000Y-72473000D01*
X106350000Y-72463000D02*
X106340000Y-72473000D01*
D49*
X116225000Y-83410000D02*
X116225000Y-85095000D01*
X92445000Y-63035000D02*
X93425000Y-63035000D01*
D50*
X106340000Y-72473000D02*
X106530000Y-72473000D01*
D49*
%TO.N,Net-(AE1-A)*%
X112387500Y-60510000D02*
X113925000Y-60510000D01*
X112460000Y-59135000D02*
X112460000Y-60412500D01*
X112375000Y-60497500D02*
X112387500Y-60510000D01*
X112460000Y-60412500D02*
X112375000Y-60497500D01*
%TO.N,Net-(U3A-DECR)*%
X109280000Y-69525000D02*
X111060000Y-69525000D01*
D50*
X103765000Y-69873000D02*
X103765000Y-69470000D01*
D49*
X108575000Y-69547500D02*
X109175000Y-69547500D01*
X107685000Y-71155000D02*
X107685000Y-70437500D01*
X109190000Y-69532500D02*
X109272500Y-69532500D01*
D50*
X107525000Y-71315000D02*
X107685000Y-71155000D01*
D49*
X109272500Y-69532500D02*
X109280000Y-69525000D01*
D50*
X106780000Y-71315000D02*
X107525000Y-71315000D01*
X103765000Y-69470000D02*
X103920000Y-69315000D01*
D49*
X107685000Y-70437500D02*
X108575000Y-69547500D01*
X109175000Y-69547500D02*
X109190000Y-69532500D01*
X111060000Y-69525000D02*
X111075000Y-69510000D01*
D52*
%TO.N,Net-(U3A-VBUS)*%
X99365000Y-69450000D02*
X99365000Y-69290000D01*
X99365000Y-69290000D02*
X99280000Y-69205000D01*
D50*
X97540000Y-62125000D02*
X97645000Y-62230000D01*
X97645000Y-62230000D02*
X97645000Y-60765000D01*
D52*
X99365000Y-69873000D02*
X99365000Y-69450000D01*
D50*
X97090000Y-62125000D02*
X97540000Y-62125000D01*
X97645000Y-60765000D02*
X97640000Y-60760000D01*
X96630000Y-62585000D02*
X97090000Y-62125000D01*
D52*
%TO.N,Net-(U3A-DECUSB)*%
X99565000Y-70273000D02*
X99565000Y-70136863D01*
X99693000Y-70008863D02*
X99693000Y-67756000D01*
X99693000Y-67756000D02*
X99345000Y-67408000D01*
X99565000Y-70136863D02*
X99693000Y-70008863D01*
%TO.N,Net-(U3A-DECD)*%
X101365000Y-69050000D02*
X101365000Y-69873000D01*
X102397500Y-63805000D02*
X102397500Y-64387500D01*
D49*
X102407500Y-62225000D02*
X102407500Y-63795000D01*
X102407500Y-63795000D02*
X102397500Y-63805000D01*
D52*
X102397500Y-64387500D02*
X101930000Y-64855000D01*
X101375000Y-68460000D02*
X101375000Y-69040000D01*
X101375000Y-69040000D02*
X101365000Y-69050000D01*
%TO.N,Net-(U3A-DECN)*%
X103037000Y-69737138D02*
X103037000Y-69801000D01*
X103225000Y-68160000D02*
X103225000Y-68790000D01*
X103350000Y-69488000D02*
X103293000Y-69545000D01*
X103037000Y-69801000D02*
X102965000Y-69873000D01*
X103225000Y-68790000D02*
X103350000Y-68915000D01*
X103350000Y-68915000D02*
X103350000Y-69488000D01*
D50*
X99240000Y-62230000D02*
X99240000Y-61525000D01*
D52*
X103293000Y-69545000D02*
X103229138Y-69545000D01*
X103229138Y-69545000D02*
X103037000Y-69737138D01*
D50*
X99240000Y-61525000D02*
X98890000Y-61175000D01*
D52*
%TO.N,Net-(U3A-DECA)*%
X100965000Y-69873000D02*
X100965000Y-67438000D01*
X100965000Y-67438000D02*
X100995000Y-67408000D01*
D49*
%TO.N,Net-(U3D-ANT)*%
X109112500Y-76552500D02*
X109200000Y-76640000D01*
X109112500Y-74925000D02*
X109112500Y-76552500D01*
X107765000Y-74925000D02*
X105725000Y-72885000D01*
X109112500Y-74925000D02*
X107765000Y-74925000D01*
D52*
%TO.N,Net-(U3D-XC2)*%
X104337000Y-70245000D02*
X104337000Y-67989900D01*
X104337000Y-67989900D02*
X104641900Y-67685000D01*
X104365000Y-70273000D02*
X104337000Y-70245000D01*
%TO.N,Net-(U3D-XC1)*%
X105425000Y-69460000D02*
X105425000Y-69935000D01*
X104887000Y-70473000D02*
X104765000Y-70473000D01*
X105425000Y-69935000D02*
X104887000Y-70473000D01*
%TO.N,Net-(U3A-DCCR)*%
X109175000Y-67972500D02*
X109175000Y-68160000D01*
X102737500Y-69197500D02*
X102565000Y-69370000D01*
X109175000Y-68160000D02*
X108025000Y-69310000D01*
X102565000Y-69370000D02*
X102565000Y-69873000D01*
%TO.N,Net-(U3A-DCCD)*%
X100780000Y-62225000D02*
X100040000Y-62965000D01*
X100501000Y-68684000D02*
X100501000Y-69251100D01*
X100530000Y-68655000D02*
X100501000Y-68684000D01*
X100832500Y-62225000D02*
X100780000Y-62225000D01*
X100501000Y-69251100D02*
X100365000Y-69387100D01*
X100365000Y-69387100D02*
X100365000Y-70273000D01*
D49*
%TO.N,Net-(C3-Pad1)*%
X110687500Y-76307500D02*
X111010000Y-76630000D01*
X113925000Y-62035000D02*
X112412500Y-62035000D01*
X112412500Y-62035000D02*
X112375000Y-62072500D01*
X110687500Y-74925000D02*
X110687500Y-76307500D01*
X112375000Y-73237500D02*
X110687500Y-74925000D01*
X112375000Y-62072500D02*
X112375000Y-73237500D01*
D50*
%TO.N,Net-(D1-K)*%
X87410000Y-62107500D02*
X89702500Y-59815000D01*
X89702500Y-59815000D02*
X90260000Y-59815000D01*
D49*
%TO.N,Net-(D1-A)*%
X87400000Y-60522500D02*
X87410000Y-60532500D01*
X87400000Y-59025000D02*
X87400000Y-60522500D01*
D50*
%TO.N,Net-(D2-K)*%
X86075000Y-63135000D02*
X85580000Y-62640000D01*
X90260000Y-60215000D02*
X90260000Y-60252000D01*
X90260000Y-60252000D02*
X89933000Y-60252000D01*
X88450000Y-61735000D02*
X88450000Y-62560000D01*
X87875000Y-63135000D02*
X86075000Y-63135000D01*
X85580000Y-62640000D02*
X85580000Y-62107500D01*
X88450000Y-62560000D02*
X87875000Y-63135000D01*
X89933000Y-60252000D02*
X88450000Y-61735000D01*
D49*
%TO.N,Net-(D2-A)*%
X85570000Y-60522500D02*
X85580000Y-60532500D01*
X85570000Y-59020000D02*
X85570000Y-60522500D01*
D52*
%TO.N,/D+*%
X98765000Y-70273000D02*
X98765000Y-70090000D01*
X98840000Y-70015000D02*
X98840000Y-69665000D01*
X98765000Y-70090000D02*
X98840000Y-70015000D01*
D50*
%TO.N,VSYS*%
X91325000Y-57635000D02*
X91325000Y-58510000D01*
X91575000Y-57385000D02*
X91325000Y-57635000D01*
X85575000Y-57375000D02*
X85570000Y-57370000D01*
D52*
X91060000Y-59415000D02*
X91060000Y-59015000D01*
X91060000Y-59015000D02*
X91060000Y-58775000D01*
D50*
X87410000Y-57385000D02*
X87400000Y-57375000D01*
X87400000Y-57375000D02*
X85575000Y-57375000D01*
X89075000Y-57385000D02*
X87410000Y-57385000D01*
D52*
X91060000Y-58775000D02*
X91325000Y-58510000D01*
D50*
%TO.N,Net-(U6-OUTN)*%
X117630000Y-76095000D02*
X117630000Y-75733000D01*
X119185428Y-69805000D02*
X118780000Y-69805000D01*
X120000000Y-73363000D02*
X120000000Y-70619572D01*
X117630000Y-75733000D02*
X118247000Y-75116000D01*
X118247000Y-75116000D02*
X118247000Y-75080000D01*
X120000000Y-70619572D02*
X119185428Y-69805000D01*
X118247000Y-75080000D02*
X118283000Y-75080000D01*
X118283000Y-75080000D02*
X120000000Y-73363000D01*
X117630000Y-78505000D02*
X117630000Y-76095000D01*
%TO.N,Net-(U6-OUTP)*%
X118900000Y-76095000D02*
X120475000Y-74520000D01*
X120475000Y-70560000D02*
X119320000Y-69405000D01*
X120475000Y-74520000D02*
X120475000Y-70560000D01*
X118900000Y-76095000D02*
X118900000Y-78505000D01*
X119320000Y-69405000D02*
X118780000Y-69405000D01*
%TO.N,Net-(U4-ICHG)*%
X90260000Y-59415000D02*
X90105000Y-59415000D01*
X89800000Y-57410000D02*
X88090000Y-55700000D01*
X90105000Y-59415000D02*
X89800000Y-59110000D01*
X89800000Y-59110000D02*
X89800000Y-57410000D01*
%TO.N,Net-(U4-NTC)*%
X90260000Y-56240000D02*
X89720000Y-55700000D01*
X90260000Y-59015000D02*
X90260000Y-56240000D01*
%TO.N,Net-(U6-GAIN_SLOT)*%
X119375000Y-72225000D02*
X119145000Y-72455000D01*
X119375000Y-71210000D02*
X119375000Y-72225000D01*
%TO.N,/IRQ*%
X85825000Y-79885000D02*
X85825000Y-80399999D01*
X85825000Y-80399999D02*
X85940000Y-80514999D01*
%TO.N,/ISET*%
X90660000Y-60615000D02*
X90660000Y-61095000D01*
X90660000Y-61095000D02*
X90775000Y-61210000D01*
D52*
%TO.N,/SDOUT*%
X117420000Y-69805000D02*
X117980000Y-69805000D01*
X117200000Y-69585000D02*
X117420000Y-69805000D01*
%TO.N,/SCK*%
X117875000Y-70310000D02*
X117980000Y-70205000D01*
X117250000Y-70310000D02*
X117875000Y-70310000D01*
%TO.N,/LRCLK*%
X118800000Y-70735000D02*
X118800000Y-70225000D01*
X118800000Y-70225000D02*
X118780000Y-70205000D01*
%TO.N,Net-(U3B-P0.01{slash}XL2)*%
X96710000Y-73515000D02*
X95880000Y-73515000D01*
X98365000Y-72873000D02*
X97352000Y-72873000D01*
X95880000Y-73515000D02*
X95870000Y-73525000D01*
X97352000Y-72873000D02*
X96710000Y-73515000D01*
%TO.N,Net-(U3B-P0.00{slash}XL1)*%
X95918000Y-72473000D02*
X95870000Y-72425000D01*
X98365000Y-72473000D02*
X95918000Y-72473000D01*
%TD*%
%TA.AperFunction,Conductor*%
%TO.N,Net-(J2-Pin_3)*%
G36*
X105362001Y-89691293D02*
G01*
X105396808Y-89711389D01*
X105396809Y-89711389D01*
X105396814Y-89711392D01*
X105524108Y-89745500D01*
X105524110Y-89745500D01*
X105655890Y-89745500D01*
X105655892Y-89745500D01*
X105726073Y-89726695D01*
X105790258Y-89726695D01*
X105860438Y-89745500D01*
X105939562Y-89745500D01*
X110975500Y-89745500D01*
X111042539Y-89765185D01*
X111088294Y-89817989D01*
X111099500Y-89869500D01*
X111099500Y-90595438D01*
X111099500Y-90674562D01*
X111117857Y-90743071D01*
X111118304Y-90744738D01*
X111118304Y-90808924D01*
X111099500Y-90879102D01*
X111099500Y-91010891D01*
X111133608Y-91138185D01*
X111133610Y-91138190D01*
X111153708Y-91173002D01*
X111170179Y-91240902D01*
X111153708Y-91296998D01*
X111133610Y-91331809D01*
X111133608Y-91331814D01*
X111099500Y-91459108D01*
X111099500Y-91590891D01*
X111133608Y-91718185D01*
X111133610Y-91718190D01*
X111153708Y-91753002D01*
X111170179Y-91820902D01*
X111153708Y-91876998D01*
X111133610Y-91911809D01*
X111133608Y-91911814D01*
X111099500Y-92039108D01*
X111099500Y-92170891D01*
X111133608Y-92298185D01*
X111133610Y-92298190D01*
X111153708Y-92333002D01*
X111170179Y-92400902D01*
X111153708Y-92456998D01*
X111133610Y-92491809D01*
X111133608Y-92491814D01*
X111099500Y-92619108D01*
X111099500Y-92750891D01*
X111133608Y-92878185D01*
X111133610Y-92878190D01*
X111153708Y-92913002D01*
X111170179Y-92980902D01*
X111153708Y-93036998D01*
X111133610Y-93071809D01*
X111133608Y-93071814D01*
X111099500Y-93199108D01*
X111099500Y-93330888D01*
X111099499Y-93330888D01*
X111099500Y-93330891D01*
X111099500Y-93330892D01*
X111107545Y-93360918D01*
X111118305Y-93401076D01*
X111118304Y-93465260D01*
X111099500Y-93535437D01*
X111099500Y-94020500D01*
X111079815Y-94087539D01*
X111027011Y-94133294D01*
X110975500Y-94144500D01*
X103750862Y-94144500D01*
X103721421Y-94135855D01*
X103691435Y-94129332D01*
X103686419Y-94125577D01*
X103683823Y-94124815D01*
X103663181Y-94108181D01*
X103611718Y-94056718D01*
X103578233Y-93995395D01*
X103575419Y-93971248D01*
X103575340Y-93966832D01*
X103575339Y-93966824D01*
X103560644Y-93919896D01*
X103545551Y-93871694D01*
X103512066Y-93810371D01*
X103468485Y-93752153D01*
X103468480Y-93752148D01*
X103468472Y-93752139D01*
X99673513Y-89957181D01*
X99640028Y-89895858D01*
X99645012Y-89826166D01*
X99686884Y-89770233D01*
X99752348Y-89745816D01*
X99761194Y-89745500D01*
X102999560Y-89745500D01*
X102999562Y-89745500D01*
X103069742Y-89726695D01*
X103133926Y-89726695D01*
X103204108Y-89745500D01*
X103204110Y-89745500D01*
X103335890Y-89745500D01*
X103335892Y-89745500D01*
X103463186Y-89711392D01*
X103470280Y-89707296D01*
X103497999Y-89691293D01*
X103565899Y-89674819D01*
X103622001Y-89691293D01*
X103656808Y-89711389D01*
X103656809Y-89711389D01*
X103656814Y-89711392D01*
X103784108Y-89745500D01*
X103784110Y-89745500D01*
X103915890Y-89745500D01*
X103915892Y-89745500D01*
X104043186Y-89711392D01*
X104050280Y-89707296D01*
X104077999Y-89691293D01*
X104145899Y-89674819D01*
X104202001Y-89691293D01*
X104236808Y-89711389D01*
X104236809Y-89711389D01*
X104236814Y-89711392D01*
X104364108Y-89745500D01*
X104364110Y-89745500D01*
X104495890Y-89745500D01*
X104495892Y-89745500D01*
X104623186Y-89711392D01*
X104630280Y-89707296D01*
X104657999Y-89691293D01*
X104725899Y-89674819D01*
X104782001Y-89691293D01*
X104816808Y-89711389D01*
X104816809Y-89711389D01*
X104816814Y-89711392D01*
X104944108Y-89745500D01*
X104944110Y-89745500D01*
X105075890Y-89745500D01*
X105075892Y-89745500D01*
X105203186Y-89711392D01*
X105210280Y-89707296D01*
X105237999Y-89691293D01*
X105305899Y-89674819D01*
X105362001Y-89691293D01*
G37*
%TD.AperFunction*%
%TD*%
%TA.AperFunction,Conductor*%
%TO.N,Net-(J2-Pin_2)*%
G36*
X99116177Y-89765185D02*
G01*
X99136819Y-89781819D01*
X103287819Y-93932819D01*
X103321304Y-93994142D01*
X103316320Y-94063834D01*
X103274448Y-94119767D01*
X103208984Y-94144184D01*
X103200138Y-94144500D01*
X92500862Y-94144500D01*
X92471421Y-94135855D01*
X92441435Y-94129332D01*
X92436419Y-94125577D01*
X92433823Y-94124815D01*
X92413181Y-94108181D01*
X92361718Y-94056718D01*
X92328233Y-93995395D01*
X92325419Y-93971248D01*
X92325340Y-93966832D01*
X92325339Y-93966824D01*
X92310941Y-93920846D01*
X92295551Y-93871694D01*
X92262066Y-93810371D01*
X92218485Y-93752153D01*
X92218480Y-93752148D01*
X92218472Y-93752139D01*
X88423513Y-89957181D01*
X88390028Y-89895858D01*
X88395012Y-89826166D01*
X88436884Y-89770233D01*
X88502348Y-89745816D01*
X88511194Y-89745500D01*
X99049138Y-89745500D01*
X99116177Y-89765185D01*
G37*
%TD.AperFunction*%
%TD*%
%TA.AperFunction,Conductor*%
%TO.N,Net-(J2-Pin_1)*%
G36*
X87728768Y-89678597D02*
G01*
X87738865Y-89678086D01*
X87771671Y-89691103D01*
X87771908Y-89691239D01*
X87806814Y-89711392D01*
X87807279Y-89711516D01*
X87814596Y-89715711D01*
X87840606Y-89735606D01*
X92037819Y-93932819D01*
X92071304Y-93994142D01*
X92066320Y-94063834D01*
X92024448Y-94119767D01*
X91958984Y-94144184D01*
X91950138Y-94144500D01*
X81824500Y-94144500D01*
X81757461Y-94124815D01*
X81711706Y-94072011D01*
X81700500Y-94020500D01*
X81700500Y-89869500D01*
X81720185Y-89802461D01*
X81772989Y-89756706D01*
X81824500Y-89745500D01*
X85409560Y-89745500D01*
X85409562Y-89745500D01*
X85479742Y-89726695D01*
X85543926Y-89726695D01*
X85614108Y-89745500D01*
X85614110Y-89745500D01*
X85745890Y-89745500D01*
X85745892Y-89745500D01*
X85873186Y-89711392D01*
X85880280Y-89707296D01*
X85907999Y-89691293D01*
X85975899Y-89674819D01*
X86032001Y-89691293D01*
X86066808Y-89711389D01*
X86066809Y-89711389D01*
X86066814Y-89711392D01*
X86194108Y-89745500D01*
X86194110Y-89745500D01*
X86325890Y-89745500D01*
X86325892Y-89745500D01*
X86453186Y-89711392D01*
X86460280Y-89707296D01*
X86487999Y-89691293D01*
X86555899Y-89674819D01*
X86612001Y-89691293D01*
X86646808Y-89711389D01*
X86646809Y-89711389D01*
X86646814Y-89711392D01*
X86774108Y-89745500D01*
X86774110Y-89745500D01*
X86905890Y-89745500D01*
X86905892Y-89745500D01*
X87033186Y-89711392D01*
X87040280Y-89707296D01*
X87067999Y-89691293D01*
X87135899Y-89674819D01*
X87192001Y-89691293D01*
X87226808Y-89711389D01*
X87226809Y-89711389D01*
X87226814Y-89711392D01*
X87354108Y-89745500D01*
X87354110Y-89745500D01*
X87485890Y-89745500D01*
X87485892Y-89745500D01*
X87613186Y-89711392D01*
X87620280Y-89707296D01*
X87647999Y-89691293D01*
X87659481Y-89688507D01*
X87669085Y-89681624D01*
X87692808Y-89680421D01*
X87715899Y-89674819D01*
X87728768Y-89678597D01*
G37*
%TD.AperFunction*%
%TD*%
%TA.AperFunction,Conductor*%
%TO.N,Net-(J2-Pin_2)*%
G36*
X148822001Y-89715833D02*
G01*
X148856808Y-89735929D01*
X148856809Y-89735929D01*
X148856814Y-89735932D01*
X148984108Y-89770040D01*
X148984110Y-89770040D01*
X149115890Y-89770040D01*
X149115892Y-89770040D01*
X149231866Y-89738965D01*
X149296053Y-89738966D01*
X149311278Y-89743045D01*
X149320438Y-89745500D01*
X149320439Y-89745500D01*
X156419138Y-89745500D01*
X156486177Y-89765185D01*
X156506819Y-89781819D01*
X160667819Y-93942819D01*
X160701304Y-94004142D01*
X160696320Y-94073834D01*
X160654448Y-94129767D01*
X160588984Y-94154184D01*
X160580138Y-94154500D01*
X149880862Y-94154500D01*
X149851421Y-94145855D01*
X149821435Y-94139332D01*
X149816419Y-94135577D01*
X149813823Y-94134815D01*
X149793181Y-94118181D01*
X149741718Y-94066718D01*
X149708233Y-94005395D01*
X149705419Y-93981248D01*
X149705340Y-93976832D01*
X149705339Y-93976824D01*
X149690941Y-93930846D01*
X149675551Y-93881694D01*
X149642066Y-93820371D01*
X149598485Y-93762153D01*
X149598480Y-93762148D01*
X149598472Y-93762139D01*
X145793513Y-89957181D01*
X145760028Y-89895858D01*
X145765012Y-89826166D01*
X145806884Y-89770233D01*
X145872348Y-89745816D01*
X145881194Y-89745500D01*
X146459561Y-89745500D01*
X146459562Y-89745500D01*
X146483945Y-89738965D01*
X146548133Y-89738965D01*
X146664108Y-89770040D01*
X146664110Y-89770040D01*
X146795890Y-89770040D01*
X146795892Y-89770040D01*
X146923186Y-89735932D01*
X146930280Y-89731836D01*
X146957999Y-89715833D01*
X147025899Y-89699359D01*
X147082001Y-89715833D01*
X147116808Y-89735929D01*
X147116809Y-89735929D01*
X147116814Y-89735932D01*
X147244108Y-89770040D01*
X147244110Y-89770040D01*
X147375890Y-89770040D01*
X147375892Y-89770040D01*
X147503186Y-89735932D01*
X147510280Y-89731836D01*
X147537999Y-89715833D01*
X147605899Y-89699359D01*
X147662001Y-89715833D01*
X147696808Y-89735929D01*
X147696809Y-89735929D01*
X147696814Y-89735932D01*
X147824108Y-89770040D01*
X147824110Y-89770040D01*
X147955890Y-89770040D01*
X147955892Y-89770040D01*
X148083186Y-89735932D01*
X148090280Y-89731836D01*
X148117999Y-89715833D01*
X148185899Y-89699359D01*
X148242001Y-89715833D01*
X148276808Y-89735929D01*
X148276809Y-89735929D01*
X148276814Y-89735932D01*
X148404108Y-89770040D01*
X148404110Y-89770040D01*
X148535890Y-89770040D01*
X148535892Y-89770040D01*
X148663186Y-89735932D01*
X148670280Y-89731836D01*
X148697999Y-89715833D01*
X148765899Y-89699359D01*
X148822001Y-89715833D01*
G37*
%TD.AperFunction*%
%TD*%
%TA.AperFunction,Conductor*%
%TO.N,Net-(J2-Pin_1)*%
G36*
X145236177Y-89765185D02*
G01*
X145256819Y-89781819D01*
X149417819Y-93942819D01*
X149451304Y-94004142D01*
X149446320Y-94073834D01*
X149404448Y-94129767D01*
X149338984Y-94154184D01*
X149330138Y-94154500D01*
X139194500Y-94154500D01*
X139127461Y-94134815D01*
X139081706Y-94082011D01*
X139070500Y-94030500D01*
X139070500Y-93535439D01*
X139051695Y-93465259D01*
X139051695Y-93401072D01*
X139054531Y-93390489D01*
X139070500Y-93330892D01*
X139070500Y-93199108D01*
X139036392Y-93071814D01*
X139016293Y-93037001D01*
X138999819Y-92969101D01*
X139016293Y-92912999D01*
X139036389Y-92878191D01*
X139036388Y-92878191D01*
X139036392Y-92878186D01*
X139070500Y-92750892D01*
X139070500Y-92619108D01*
X139036392Y-92491814D01*
X139016293Y-92457001D01*
X138999819Y-92389101D01*
X139016293Y-92332999D01*
X139036389Y-92298191D01*
X139036388Y-92298191D01*
X139036392Y-92298186D01*
X139070500Y-92170892D01*
X139070500Y-92039108D01*
X139036392Y-91911814D01*
X139016293Y-91877001D01*
X138999819Y-91809101D01*
X139016293Y-91752999D01*
X139036389Y-91718191D01*
X139036388Y-91718191D01*
X139036392Y-91718186D01*
X139070500Y-91590892D01*
X139070500Y-91459108D01*
X139036392Y-91331814D01*
X139016293Y-91297001D01*
X138999819Y-91229101D01*
X139016293Y-91172999D01*
X139036389Y-91138191D01*
X139036388Y-91138191D01*
X139036392Y-91138186D01*
X139070500Y-91010892D01*
X139070500Y-90879108D01*
X139051695Y-90808926D01*
X139051695Y-90744740D01*
X139070500Y-90674562D01*
X139070500Y-89869500D01*
X139090185Y-89802461D01*
X139142989Y-89756706D01*
X139194500Y-89745500D01*
X145169138Y-89745500D01*
X145236177Y-89765185D01*
G37*
%TD.AperFunction*%
%TD*%
%TA.AperFunction,Conductor*%
%TO.N,Net-(J2-Pin_3)*%
G36*
X164092001Y-89721293D02*
G01*
X164126808Y-89741389D01*
X164126809Y-89741389D01*
X164126814Y-89741392D01*
X164254108Y-89775500D01*
X164254110Y-89775500D01*
X164385890Y-89775500D01*
X164385892Y-89775500D01*
X164512055Y-89741695D01*
X164576241Y-89741695D01*
X164590438Y-89745500D01*
X164669562Y-89745500D01*
X168355500Y-89745500D01*
X168422539Y-89765185D01*
X168468294Y-89817989D01*
X168479500Y-89869500D01*
X168479500Y-94030500D01*
X168459815Y-94097539D01*
X168407011Y-94143294D01*
X168355500Y-94154500D01*
X161130862Y-94154500D01*
X161101421Y-94145855D01*
X161071435Y-94139332D01*
X161066419Y-94135577D01*
X161063823Y-94134815D01*
X161043181Y-94118181D01*
X160991718Y-94066718D01*
X160958233Y-94005395D01*
X160955419Y-93981248D01*
X160955340Y-93976832D01*
X160955339Y-93976824D01*
X160940644Y-93929896D01*
X160925551Y-93881694D01*
X160892066Y-93820371D01*
X160848485Y-93762153D01*
X160848480Y-93762148D01*
X160848472Y-93762139D01*
X157043513Y-89957181D01*
X157010028Y-89895858D01*
X157015012Y-89826166D01*
X157056884Y-89770233D01*
X157122348Y-89745816D01*
X157131194Y-89745500D01*
X161729560Y-89745500D01*
X161729562Y-89745500D01*
X161743757Y-89741695D01*
X161807944Y-89741695D01*
X161934108Y-89775500D01*
X161934110Y-89775500D01*
X162065890Y-89775500D01*
X162065892Y-89775500D01*
X162193186Y-89741392D01*
X162200280Y-89737296D01*
X162227999Y-89721293D01*
X162295899Y-89704819D01*
X162352001Y-89721293D01*
X162386808Y-89741389D01*
X162386809Y-89741389D01*
X162386814Y-89741392D01*
X162514108Y-89775500D01*
X162514110Y-89775500D01*
X162645890Y-89775500D01*
X162645892Y-89775500D01*
X162773186Y-89741392D01*
X162780280Y-89737296D01*
X162807999Y-89721293D01*
X162875899Y-89704819D01*
X162932001Y-89721293D01*
X162966808Y-89741389D01*
X162966809Y-89741389D01*
X162966814Y-89741392D01*
X163094108Y-89775500D01*
X163094110Y-89775500D01*
X163225890Y-89775500D01*
X163225892Y-89775500D01*
X163353186Y-89741392D01*
X163360280Y-89737296D01*
X163387999Y-89721293D01*
X163455899Y-89704819D01*
X163512001Y-89721293D01*
X163546808Y-89741389D01*
X163546809Y-89741389D01*
X163546814Y-89741392D01*
X163674108Y-89775500D01*
X163674110Y-89775500D01*
X163805890Y-89775500D01*
X163805892Y-89775500D01*
X163933186Y-89741392D01*
X163940280Y-89737296D01*
X163967999Y-89721293D01*
X164035899Y-89704819D01*
X164092001Y-89721293D01*
G37*
%TD.AperFunction*%
%TD*%
M02*
