M48
; DRILL file {KiCad 9.0.7} date 2026-07-19T17:18:21+0200
; FORMAT={-:-/ absolute / metric / decimal}
; #@! TF.CreationDate,2026-07-19T17:18:21+02:00
; #@! TF.GenerationSoftware,Kicad,Pcbnew,9.0.7
; #@! TF.FileFunction,Plated,1,4,PTH
FMAT,2
METRIC
; #@! TA.AperFunction,Plated,PTH,ViaDrill
T1C0.150
; #@! TA.AperFunction,Plated,PTH,ViaDrill
T2C0.200
; #@! TA.AperFunction,Plated,PTH,ViaDrill
T3C0.300
; #@! TA.AperFunction,Plated,PTH,ComponentDrill
T4C0.300
; #@! TA.AperFunction,Plated,PTH,ComponentDrill
T5C1.000
%
G90
G05
T1
X90.675Y-60.215
X91.06Y-59.815
X91.46Y-60.215
X93.37Y-63.825
X96.575Y-77.635
X96.975Y-78.185
X97.004Y-76.539
X97.425Y-76.935
X98.15Y-84.01
X98.765Y-72.273
X98.765Y-72.673
X98.765Y-73.473
X98.765Y-73.873
X98.765Y-74.273
X98.765Y-74.673
X99.425Y-83.935
X100.765Y-70.273
X101.565Y-70.273
X101.565Y-75.873
X101.765Y-69.873
X101.965Y-70.273
X101.965Y-75.873
X103.96Y-70.285
X103.965Y-75.873
X105.512Y-72.073
X105.61Y-70.873
X105.725Y-72.885
X118.38Y-69.805
X119.375Y-71.21
X146.575Y-60.24
X146.96Y-59.84
X147.36Y-60.24
X149.27Y-63.85
X152.475Y-77.66
X152.875Y-78.21
X152.904Y-76.564
X153.325Y-76.96
X154.05Y-84.035
X154.665Y-72.298
X154.665Y-72.698
X154.665Y-73.498
X154.665Y-73.898
X154.665Y-74.298
X154.665Y-74.698
X155.325Y-83.96
X156.665Y-70.298
X157.465Y-70.298
X157.465Y-75.898
X157.665Y-69.898
X157.865Y-70.298
X157.865Y-75.898
X159.86Y-70.31
X159.865Y-75.898
X161.412Y-72.098
X161.51Y-70.898
X161.625Y-72.91
X174.28Y-69.83
X175.275Y-71.235
T2
X74.725Y-66.835
X74.725Y-77.055
X78.655Y-66.835
X78.655Y-77.055
X80.1Y-68.06
X80.425Y-71.21
X80.475Y-75.16
X80.76Y-74.345
X80.925Y-72.41
X81.975Y-68.21
X82.275Y-80.36
X83.375Y-67.735
X83.55Y-84.385
X83.95Y-63.835
X83.975Y-65.535
X84.15Y-61.585
X84.375Y-78.685
X84.5Y-70.085
X84.525Y-74.31
X84.625Y-80.86
X84.975Y-80.46
X85.275Y-66.46
X85.66Y-68.66
X85.825Y-79.885
X86.225Y-66.635
X86.425Y-78.91
X86.825Y-67.635
X86.9Y-63.785
X87.175Y-64.485
X87.225Y-65.06
X87.275Y-54.035
X88.0Y-68.26
X88.1Y-66.335
X89.075Y-57.385
X89.9Y-60.985
X90.05Y-93.37
X90.55Y-54.05
X90.775Y-61.21
X91.3Y-56.61
X91.575Y-57.385
X91.642Y-65.552
X91.675Y-61.335
X92.2Y-60.935
X92.412Y-57.947
X92.875Y-58.91
X93.175Y-59.385
X93.45Y-58.385
X93.513Y-72.797
X93.525Y-76.01
X93.55Y-73.485
X93.75Y-54.05
X93.925Y-56.91
X95.25Y-68.91
X95.425Y-78.085
X95.525Y-54.11
X95.814Y-80.296
X95.9Y-74.41
X95.95Y-81.91
X95.995Y-69.705
X96.425Y-93.37
X96.53Y-66.41
X96.63Y-62.585
X97.0Y-70.535
X97.1Y-71.11
X97.55Y-72.025
X97.64Y-71.275
X97.65Y-57.86
X97.808Y-75.273
X97.9Y-73.795
X98.35Y-64.86
X98.84Y-69.665
X98.86Y-68.275
X98.89Y-61.175
X98.895Y-79.17
X99.165Y-70.273
X99.24Y-64.81
X99.28Y-69.205
X99.325Y-80.36
X100.04Y-62.965
X100.1Y-64.86
X100.1Y-69.085
X100.53Y-68.655
X100.7Y-85.21
X101.125Y-76.76
X101.375Y-68.46
X101.925Y-68.71
X101.93Y-64.855
X102.737Y-69.197
X103.225Y-68.16
X103.44Y-63.925
X103.92Y-69.315
X104.165Y-77.0
X104.35Y-65.01
X104.35Y-93.245
X105.1Y-61.535
X105.175Y-85.21
X105.425Y-69.46
X105.425Y-74.835
X105.775Y-71.305
X105.85Y-74.035
X105.875Y-74.835
X105.894Y-71.791
X106.463Y-75.673
X106.53Y-72.473
X106.78Y-71.315
X106.892Y-69.341
X107.725Y-85.21
X108.025Y-69.31
X108.15Y-64.16
X108.325Y-66.035
X109.2Y-79.11
X110.125Y-71.635
X110.85Y-65.01
X111.0Y-79.11
X111.25Y-83.785
X112.525Y-85.21
X113.75Y-83.385
X113.85Y-79.51
X114.2Y-69.31
X114.95Y-83.86
X115.34Y-70.785
X115.375Y-79.51
X115.935Y-94.14
X116.225Y-83.41
X116.41Y-95.62
X116.5Y-61.235
X116.525Y-63.385
X117.2Y-69.585
X117.25Y-70.31
X117.5Y-73.46
X118.8Y-70.735
X119.125Y-62.01
X119.125Y-67.76
X119.45Y-68.66
X120.46Y-100.77
X123.01Y-99.095
X123.185Y-93.795
X126.685Y-100.745
X128.035Y-98.545
X128.835Y-94.12
X130.625Y-66.86
X130.625Y-77.08
X134.555Y-66.86
X134.555Y-77.08
X136.0Y-68.085
X136.325Y-71.235
X136.375Y-75.185
X136.66Y-74.37
X136.825Y-72.435
X137.875Y-68.235
X138.175Y-80.385
X139.275Y-67.76
X139.45Y-84.41
X139.85Y-63.86
X139.875Y-65.56
X140.05Y-61.61
X140.275Y-78.71
X140.4Y-70.11
X140.425Y-74.335
X140.525Y-80.885
X140.875Y-80.485
X141.175Y-66.485
X141.56Y-68.685
X141.725Y-79.91
X142.125Y-66.66
X142.325Y-78.935
X142.725Y-67.66
X142.8Y-63.81
X143.075Y-64.51
X143.125Y-65.085
X143.175Y-54.06
X143.9Y-68.285
X144.0Y-66.36
X144.975Y-57.41
X145.8Y-61.01
X146.45Y-54.075
X146.675Y-61.235
X147.2Y-56.635
X147.42Y-93.37
X147.475Y-57.41
X147.542Y-65.578
X147.575Y-61.36
X148.1Y-60.96
X148.312Y-57.972
X148.775Y-58.935
X149.075Y-59.41
X149.35Y-58.41
X149.412Y-72.822
X149.425Y-76.035
X149.45Y-73.51
X149.65Y-54.075
X149.825Y-56.935
X151.15Y-68.935
X151.325Y-78.11
X151.425Y-54.135
X151.714Y-80.321
X151.8Y-74.435
X151.85Y-81.935
X151.895Y-69.73
X152.43Y-66.435
X152.53Y-62.61
X152.9Y-70.56
X153.0Y-71.135
X153.45Y-72.05
X153.54Y-71.3
X153.55Y-57.885
X153.708Y-75.298
X153.795Y-93.37
X153.8Y-73.82
X154.25Y-64.885
X154.74Y-69.69
X154.76Y-68.3
X154.79Y-61.2
X154.795Y-79.195
X155.065Y-70.298
X155.14Y-64.835
X155.18Y-69.23
X155.225Y-80.385
X155.94Y-62.99
X156.0Y-64.885
X156.0Y-69.11
X156.43Y-68.68
X156.6Y-85.235
X157.025Y-76.785
X157.275Y-68.485
X157.825Y-68.735
X157.83Y-64.88
X158.637Y-69.222
X159.125Y-68.185
X159.34Y-63.95
X159.82Y-69.34
X160.065Y-77.025
X160.25Y-65.035
X161.0Y-61.56
X161.075Y-85.235
X161.325Y-69.485
X161.325Y-74.86
X161.675Y-71.33
X161.72Y-93.245
X161.75Y-74.06
X161.775Y-74.86
X161.794Y-71.816
X162.363Y-75.698
X162.43Y-72.498
X162.68Y-71.34
X162.792Y-69.366
X163.625Y-85.235
X163.925Y-69.335
X164.05Y-64.185
X164.225Y-66.06
X165.1Y-79.135
X166.025Y-71.66
X166.75Y-65.035
X166.9Y-79.135
X167.15Y-83.81
X168.425Y-85.235
X169.65Y-83.41
X169.75Y-79.535
X170.1Y-69.335
X170.85Y-83.885
X171.24Y-70.81
X171.275Y-79.535
X172.125Y-83.435
X172.4Y-61.26
X172.425Y-63.41
X173.1Y-69.61
X173.15Y-70.335
X173.4Y-73.485
X174.7Y-70.76
X175.025Y-62.035
X175.025Y-67.785
X175.35Y-68.685
T3
X85.68Y-87.295
X85.68Y-87.295
X85.68Y-89.245
X86.26Y-87.295
X86.26Y-89.245
X86.84Y-87.295
X86.84Y-89.245
X87.42Y-87.295
X87.42Y-89.245
X88.0Y-87.295
X88.0Y-89.245
X88.0Y-89.245
X100.26Y-71.645
X100.26Y-73.065
X100.26Y-74.465
X101.765Y-73.073
X101.77Y-74.465
X101.78Y-71.645
X103.27Y-87.295
X103.27Y-87.295
X103.27Y-89.245
X103.39Y-73.065
X103.39Y-74.465
X103.4Y-71.645
X103.85Y-87.295
X103.85Y-89.245
X104.43Y-87.295
X104.43Y-89.245
X105.01Y-87.295
X105.01Y-89.245
X105.59Y-87.295
X105.59Y-89.245
X105.59Y-89.245
X111.6Y-90.945
X111.6Y-91.525
X111.6Y-92.105
X111.6Y-92.685
X111.6Y-93.265
X111.6Y-93.265
X113.085Y-90.945
X113.085Y-90.945
X113.085Y-91.525
X113.085Y-92.105
X113.085Y-92.685
X113.085Y-93.265
X114.37Y-87.295
X114.37Y-87.295
X114.37Y-89.245
X114.95Y-87.295
X114.95Y-89.245
X115.53Y-87.295
X115.53Y-89.245
X116.11Y-87.295
X116.11Y-89.245
X116.69Y-87.295
X116.69Y-89.245
X116.69Y-89.245
X121.37Y-60.075
X121.37Y-60.655
X121.37Y-61.235
X121.37Y-61.815
X121.37Y-62.395
X121.37Y-62.395
X121.37Y-77.31
X121.37Y-77.89
X121.37Y-78.47
X121.37Y-79.05
X121.37Y-79.63
X121.37Y-79.63
X127.55Y-60.075
X127.55Y-60.075
X127.55Y-60.655
X127.55Y-61.235
X127.55Y-61.815
X127.55Y-62.395
X127.55Y-77.31
X127.55Y-77.31
X127.55Y-77.89
X127.55Y-78.47
X127.55Y-79.05
X127.55Y-79.63
X132.11Y-87.325
X132.11Y-87.325
X132.11Y-89.275
X132.69Y-87.325
X132.69Y-89.275
X133.27Y-87.325
X133.27Y-89.275
X133.85Y-87.325
X133.85Y-89.275
X134.43Y-87.325
X134.43Y-89.275
X134.43Y-89.275
X135.84Y-90.945
X135.84Y-91.525
X135.84Y-92.105
X135.84Y-92.685
X135.84Y-93.265
X135.84Y-93.265
X138.57Y-90.945
X138.57Y-90.945
X138.57Y-91.525
X138.57Y-92.105
X138.57Y-92.685
X138.57Y-93.265
X146.73Y-87.32
X146.73Y-87.32
X146.73Y-89.27
X147.31Y-87.32
X147.31Y-89.27
X147.89Y-87.32
X147.89Y-89.27
X148.47Y-87.32
X148.47Y-89.27
X149.05Y-87.32
X149.05Y-89.27
X149.05Y-89.27
X156.16Y-71.67
X156.16Y-73.09
X156.16Y-74.49
X157.665Y-73.098
X157.67Y-74.49
X157.68Y-71.67
X159.29Y-73.09
X159.29Y-74.49
X159.3Y-71.67
X162.0Y-87.325
X162.0Y-87.325
X162.0Y-89.275
X162.58Y-87.325
X162.58Y-89.275
X163.16Y-87.325
X163.16Y-89.275
X163.74Y-87.325
X163.74Y-89.275
X164.32Y-87.325
X164.32Y-89.275
X164.32Y-89.275
T4
X114.56Y-59.135
X170.46Y-59.16
T5
X133.51Y-91.59
X133.51Y-94.13
X133.51Y-96.67
X133.51Y-99.21
X133.51Y-101.75
M30
