%TF.GenerationSoftware,KiCad,Pcbnew,9.0.7*%
%TF.CreationDate,2026-07-19T17:18:16+02:00*%
%TF.ProjectId,MSBE_V3,4d534245-5f56-4332-9e6b-696361645f70,rev?*%
%TF.SameCoordinates,Original*%
%TF.FileFunction,Legend,Bot*%
%TF.FilePolarity,Positive*%
%FSLAX46Y46*%
G04 Gerber Fmt 4.6, Leading zero omitted, Abs format (unit mm)*
G04 Created by KiCad (PCBNEW 9.0.7) date 2026-07-19 17:18:16*
%MOMM*%
%LPD*%
G01*
G04 APERTURE LIST*
%ADD10C,0.150000*%
G04 APERTURE END LIST*
D10*
X119344875Y-90707969D02*
X119344875Y-90231779D01*
X119344875Y-90231779D02*
X118344875Y-90231779D01*
X119344875Y-91184160D02*
X119297256Y-91088922D01*
X119297256Y-91088922D02*
X119249636Y-91041303D01*
X119249636Y-91041303D02*
X119154398Y-90993684D01*
X119154398Y-90993684D02*
X118868684Y-90993684D01*
X118868684Y-90993684D02*
X118773446Y-91041303D01*
X118773446Y-91041303D02*
X118725827Y-91088922D01*
X118725827Y-91088922D02*
X118678208Y-91184160D01*
X118678208Y-91184160D02*
X118678208Y-91327017D01*
X118678208Y-91327017D02*
X118725827Y-91422255D01*
X118725827Y-91422255D02*
X118773446Y-91469874D01*
X118773446Y-91469874D02*
X118868684Y-91517493D01*
X118868684Y-91517493D02*
X119154398Y-91517493D01*
X119154398Y-91517493D02*
X119249636Y-91469874D01*
X119249636Y-91469874D02*
X119297256Y-91422255D01*
X119297256Y-91422255D02*
X119344875Y-91327017D01*
X119344875Y-91327017D02*
X119344875Y-91184160D01*
X118678208Y-92374636D02*
X119487732Y-92374636D01*
X119487732Y-92374636D02*
X119582970Y-92327017D01*
X119582970Y-92327017D02*
X119630589Y-92279398D01*
X119630589Y-92279398D02*
X119678208Y-92184160D01*
X119678208Y-92184160D02*
X119678208Y-92041303D01*
X119678208Y-92041303D02*
X119630589Y-91946065D01*
X119297256Y-92374636D02*
X119344875Y-92279398D01*
X119344875Y-92279398D02*
X119344875Y-92088922D01*
X119344875Y-92088922D02*
X119297256Y-91993684D01*
X119297256Y-91993684D02*
X119249636Y-91946065D01*
X119249636Y-91946065D02*
X119154398Y-91898446D01*
X119154398Y-91898446D02*
X118868684Y-91898446D01*
X118868684Y-91898446D02*
X118773446Y-91946065D01*
X118773446Y-91946065D02*
X118725827Y-91993684D01*
X118725827Y-91993684D02*
X118678208Y-92088922D01*
X118678208Y-92088922D02*
X118678208Y-92279398D01*
X118678208Y-92279398D02*
X118725827Y-92374636D01*
X119344875Y-92850827D02*
X118678208Y-92850827D01*
X118344875Y-92850827D02*
X118392494Y-92803208D01*
X118392494Y-92803208D02*
X118440113Y-92850827D01*
X118440113Y-92850827D02*
X118392494Y-92898446D01*
X118392494Y-92898446D02*
X118344875Y-92850827D01*
X118344875Y-92850827D02*
X118440113Y-92850827D01*
X119297256Y-93755588D02*
X119344875Y-93660350D01*
X119344875Y-93660350D02*
X119344875Y-93469874D01*
X119344875Y-93469874D02*
X119297256Y-93374636D01*
X119297256Y-93374636D02*
X119249636Y-93327017D01*
X119249636Y-93327017D02*
X119154398Y-93279398D01*
X119154398Y-93279398D02*
X118868684Y-93279398D01*
X118868684Y-93279398D02*
X118773446Y-93327017D01*
X118773446Y-93327017D02*
X118725827Y-93374636D01*
X118725827Y-93374636D02*
X118678208Y-93469874D01*
X118678208Y-93469874D02*
X118678208Y-93660350D01*
X118678208Y-93660350D02*
X118725827Y-93755588D01*
X119344875Y-95422255D02*
X119344875Y-94946065D01*
X119344875Y-94946065D02*
X118344875Y-94946065D01*
X119297256Y-96136541D02*
X119344875Y-96041303D01*
X119344875Y-96041303D02*
X119344875Y-95850827D01*
X119344875Y-95850827D02*
X119297256Y-95755589D01*
X119297256Y-95755589D02*
X119202017Y-95707970D01*
X119202017Y-95707970D02*
X118821065Y-95707970D01*
X118821065Y-95707970D02*
X118725827Y-95755589D01*
X118725827Y-95755589D02*
X118678208Y-95850827D01*
X118678208Y-95850827D02*
X118678208Y-96041303D01*
X118678208Y-96041303D02*
X118725827Y-96136541D01*
X118725827Y-96136541D02*
X118821065Y-96184160D01*
X118821065Y-96184160D02*
X118916303Y-96184160D01*
X118916303Y-96184160D02*
X119011541Y-95707970D01*
X118678208Y-96517494D02*
X119344875Y-96755589D01*
X119344875Y-96755589D02*
X118678208Y-96993684D01*
X119297256Y-97755589D02*
X119344875Y-97660351D01*
X119344875Y-97660351D02*
X119344875Y-97469875D01*
X119344875Y-97469875D02*
X119297256Y-97374637D01*
X119297256Y-97374637D02*
X119202017Y-97327018D01*
X119202017Y-97327018D02*
X118821065Y-97327018D01*
X118821065Y-97327018D02*
X118725827Y-97374637D01*
X118725827Y-97374637D02*
X118678208Y-97469875D01*
X118678208Y-97469875D02*
X118678208Y-97660351D01*
X118678208Y-97660351D02*
X118725827Y-97755589D01*
X118725827Y-97755589D02*
X118821065Y-97803208D01*
X118821065Y-97803208D02*
X118916303Y-97803208D01*
X118916303Y-97803208D02*
X119011541Y-97327018D01*
X119344875Y-98374637D02*
X119297256Y-98279399D01*
X119297256Y-98279399D02*
X119202017Y-98231780D01*
X119202017Y-98231780D02*
X118344875Y-98231780D01*
X120907200Y-90184160D02*
X120954819Y-90327017D01*
X120954819Y-90327017D02*
X120954819Y-90565112D01*
X120954819Y-90565112D02*
X120907200Y-90660350D01*
X120907200Y-90660350D02*
X120859580Y-90707969D01*
X120859580Y-90707969D02*
X120764342Y-90755588D01*
X120764342Y-90755588D02*
X120669104Y-90755588D01*
X120669104Y-90755588D02*
X120573866Y-90707969D01*
X120573866Y-90707969D02*
X120526247Y-90660350D01*
X120526247Y-90660350D02*
X120478628Y-90565112D01*
X120478628Y-90565112D02*
X120431009Y-90374636D01*
X120431009Y-90374636D02*
X120383390Y-90279398D01*
X120383390Y-90279398D02*
X120335771Y-90231779D01*
X120335771Y-90231779D02*
X120240533Y-90184160D01*
X120240533Y-90184160D02*
X120145295Y-90184160D01*
X120145295Y-90184160D02*
X120050057Y-90231779D01*
X120050057Y-90231779D02*
X120002438Y-90279398D01*
X120002438Y-90279398D02*
X119954819Y-90374636D01*
X119954819Y-90374636D02*
X119954819Y-90612731D01*
X119954819Y-90612731D02*
X120002438Y-90755588D01*
X120954819Y-91184160D02*
X119954819Y-91184160D01*
X120954819Y-91612731D02*
X120431009Y-91612731D01*
X120431009Y-91612731D02*
X120335771Y-91565112D01*
X120335771Y-91565112D02*
X120288152Y-91469874D01*
X120288152Y-91469874D02*
X120288152Y-91327017D01*
X120288152Y-91327017D02*
X120335771Y-91231779D01*
X120335771Y-91231779D02*
X120383390Y-91184160D01*
X120954819Y-92088922D02*
X120288152Y-92088922D01*
X119954819Y-92088922D02*
X120002438Y-92041303D01*
X120002438Y-92041303D02*
X120050057Y-92088922D01*
X120050057Y-92088922D02*
X120002438Y-92136541D01*
X120002438Y-92136541D02*
X119954819Y-92088922D01*
X119954819Y-92088922D02*
X120050057Y-92088922D01*
X120288152Y-92422255D02*
X120288152Y-92803207D01*
X120954819Y-92565112D02*
X120097676Y-92565112D01*
X120097676Y-92565112D02*
X120002438Y-92612731D01*
X120002438Y-92612731D02*
X119954819Y-92707969D01*
X119954819Y-92707969D02*
X119954819Y-92803207D01*
X120288152Y-92993684D02*
X120288152Y-93374636D01*
X119954819Y-93136541D02*
X120811961Y-93136541D01*
X120811961Y-93136541D02*
X120907200Y-93184160D01*
X120907200Y-93184160D02*
X120954819Y-93279398D01*
X120954819Y-93279398D02*
X120954819Y-93374636D01*
X120907200Y-94088922D02*
X120954819Y-93993684D01*
X120954819Y-93993684D02*
X120954819Y-93803208D01*
X120954819Y-93803208D02*
X120907200Y-93707970D01*
X120907200Y-93707970D02*
X120811961Y-93660351D01*
X120811961Y-93660351D02*
X120431009Y-93660351D01*
X120431009Y-93660351D02*
X120335771Y-93707970D01*
X120335771Y-93707970D02*
X120288152Y-93803208D01*
X120288152Y-93803208D02*
X120288152Y-93993684D01*
X120288152Y-93993684D02*
X120335771Y-94088922D01*
X120335771Y-94088922D02*
X120431009Y-94136541D01*
X120431009Y-94136541D02*
X120526247Y-94136541D01*
X120526247Y-94136541D02*
X120621485Y-93660351D01*
X120954819Y-94565113D02*
X120288152Y-94565113D01*
X120478628Y-94565113D02*
X120383390Y-94612732D01*
X120383390Y-94612732D02*
X120335771Y-94660351D01*
X120335771Y-94660351D02*
X120288152Y-94755589D01*
X120288152Y-94755589D02*
X120288152Y-94850827D01*
X120954819Y-95946066D02*
X119954819Y-95946066D01*
X119954819Y-95946066D02*
X119954819Y-96327018D01*
X119954819Y-96327018D02*
X120002438Y-96422256D01*
X120002438Y-96422256D02*
X120050057Y-96469875D01*
X120050057Y-96469875D02*
X120145295Y-96517494D01*
X120145295Y-96517494D02*
X120288152Y-96517494D01*
X120288152Y-96517494D02*
X120383390Y-96469875D01*
X120383390Y-96469875D02*
X120431009Y-96422256D01*
X120431009Y-96422256D02*
X120478628Y-96327018D01*
X120478628Y-96327018D02*
X120478628Y-95946066D01*
X120954819Y-96946066D02*
X120288152Y-96946066D01*
X120478628Y-96946066D02*
X120383390Y-96993685D01*
X120383390Y-96993685D02*
X120335771Y-97041304D01*
X120335771Y-97041304D02*
X120288152Y-97136542D01*
X120288152Y-97136542D02*
X120288152Y-97231780D01*
X120954819Y-97707971D02*
X120907200Y-97612733D01*
X120907200Y-97612733D02*
X120859580Y-97565114D01*
X120859580Y-97565114D02*
X120764342Y-97517495D01*
X120764342Y-97517495D02*
X120478628Y-97517495D01*
X120478628Y-97517495D02*
X120383390Y-97565114D01*
X120383390Y-97565114D02*
X120335771Y-97612733D01*
X120335771Y-97612733D02*
X120288152Y-97707971D01*
X120288152Y-97707971D02*
X120288152Y-97850828D01*
X120288152Y-97850828D02*
X120335771Y-97946066D01*
X120335771Y-97946066D02*
X120383390Y-97993685D01*
X120383390Y-97993685D02*
X120478628Y-98041304D01*
X120478628Y-98041304D02*
X120764342Y-98041304D01*
X120764342Y-98041304D02*
X120859580Y-97993685D01*
X120859580Y-97993685D02*
X120907200Y-97946066D01*
X120907200Y-97946066D02*
X120954819Y-97850828D01*
X120954819Y-97850828D02*
X120954819Y-97707971D01*
X120288152Y-98898447D02*
X121097676Y-98898447D01*
X121097676Y-98898447D02*
X121192914Y-98850828D01*
X121192914Y-98850828D02*
X121240533Y-98803209D01*
X121240533Y-98803209D02*
X121288152Y-98707971D01*
X121288152Y-98707971D02*
X121288152Y-98565114D01*
X121288152Y-98565114D02*
X121240533Y-98469876D01*
X120907200Y-98898447D02*
X120954819Y-98803209D01*
X120954819Y-98803209D02*
X120954819Y-98612733D01*
X120954819Y-98612733D02*
X120907200Y-98517495D01*
X120907200Y-98517495D02*
X120859580Y-98469876D01*
X120859580Y-98469876D02*
X120764342Y-98422257D01*
X120764342Y-98422257D02*
X120478628Y-98422257D01*
X120478628Y-98422257D02*
X120383390Y-98469876D01*
X120383390Y-98469876D02*
X120335771Y-98517495D01*
X120335771Y-98517495D02*
X120288152Y-98612733D01*
X120288152Y-98612733D02*
X120288152Y-98803209D01*
X120288152Y-98803209D02*
X120335771Y-98898447D01*
X120954819Y-99374638D02*
X120288152Y-99374638D01*
X120478628Y-99374638D02*
X120383390Y-99422257D01*
X120383390Y-99422257D02*
X120335771Y-99469876D01*
X120335771Y-99469876D02*
X120288152Y-99565114D01*
X120288152Y-99565114D02*
X120288152Y-99660352D01*
X120954819Y-100422257D02*
X120431009Y-100422257D01*
X120431009Y-100422257D02*
X120335771Y-100374638D01*
X120335771Y-100374638D02*
X120288152Y-100279400D01*
X120288152Y-100279400D02*
X120288152Y-100088924D01*
X120288152Y-100088924D02*
X120335771Y-99993686D01*
X120907200Y-100422257D02*
X120954819Y-100327019D01*
X120954819Y-100327019D02*
X120954819Y-100088924D01*
X120954819Y-100088924D02*
X120907200Y-99993686D01*
X120907200Y-99993686D02*
X120811961Y-99946067D01*
X120811961Y-99946067D02*
X120716723Y-99946067D01*
X120716723Y-99946067D02*
X120621485Y-99993686D01*
X120621485Y-99993686D02*
X120573866Y-100088924D01*
X120573866Y-100088924D02*
X120573866Y-100327019D01*
X120573866Y-100327019D02*
X120526247Y-100422257D01*
X120954819Y-100898448D02*
X120288152Y-100898448D01*
X120383390Y-100898448D02*
X120335771Y-100946067D01*
X120335771Y-100946067D02*
X120288152Y-101041305D01*
X120288152Y-101041305D02*
X120288152Y-101184162D01*
X120288152Y-101184162D02*
X120335771Y-101279400D01*
X120335771Y-101279400D02*
X120431009Y-101327019D01*
X120431009Y-101327019D02*
X120954819Y-101327019D01*
X120431009Y-101327019D02*
X120335771Y-101374638D01*
X120335771Y-101374638D02*
X120288152Y-101469876D01*
X120288152Y-101469876D02*
X120288152Y-101612733D01*
X120288152Y-101612733D02*
X120335771Y-101707972D01*
X120335771Y-101707972D02*
X120431009Y-101755591D01*
X120431009Y-101755591D02*
X120954819Y-101755591D01*
X120907200Y-102612733D02*
X120954819Y-102517495D01*
X120954819Y-102517495D02*
X120954819Y-102327019D01*
X120954819Y-102327019D02*
X120907200Y-102231781D01*
X120907200Y-102231781D02*
X120811961Y-102184162D01*
X120811961Y-102184162D02*
X120431009Y-102184162D01*
X120431009Y-102184162D02*
X120335771Y-102231781D01*
X120335771Y-102231781D02*
X120288152Y-102327019D01*
X120288152Y-102327019D02*
X120288152Y-102517495D01*
X120288152Y-102517495D02*
X120335771Y-102612733D01*
X120335771Y-102612733D02*
X120431009Y-102660352D01*
X120431009Y-102660352D02*
X120526247Y-102660352D01*
X120526247Y-102660352D02*
X120621485Y-102184162D01*
X120954819Y-103088924D02*
X120288152Y-103088924D01*
X120478628Y-103088924D02*
X120383390Y-103136543D01*
X120383390Y-103136543D02*
X120335771Y-103184162D01*
X120335771Y-103184162D02*
X120288152Y-103279400D01*
X120288152Y-103279400D02*
X120288152Y-103374638D01*
X129446779Y-92231133D02*
X130208684Y-92231133D01*
X130684874Y-92516847D02*
X131446779Y-92231133D01*
X131446779Y-92231133D02*
X130684874Y-91945419D01*
X129421779Y-101156133D02*
X130183684Y-101156133D01*
X130659874Y-101441847D02*
X131421779Y-101156133D01*
X131421779Y-101156133D02*
X130659874Y-100870419D01*
X113846779Y-101181133D02*
X114608684Y-101181133D01*
X115084874Y-101466847D02*
X115846779Y-101181133D01*
X115846779Y-101181133D02*
X115084874Y-100895419D01*
X113871779Y-92256133D02*
X114633684Y-92256133D01*
X115109874Y-92541847D02*
X115871779Y-92256133D01*
X115871779Y-92256133D02*
X115109874Y-91970419D01*
X114979819Y-94431779D02*
X113979819Y-94431779D01*
X114456009Y-94431779D02*
X114456009Y-95003207D01*
X114979819Y-95003207D02*
X113979819Y-95003207D01*
X114979819Y-95479398D02*
X113979819Y-95479398D01*
X114027438Y-96479397D02*
X113979819Y-96384159D01*
X113979819Y-96384159D02*
X113979819Y-96241302D01*
X113979819Y-96241302D02*
X114027438Y-96098445D01*
X114027438Y-96098445D02*
X114122676Y-96003207D01*
X114122676Y-96003207D02*
X114217914Y-95955588D01*
X114217914Y-95955588D02*
X114408390Y-95907969D01*
X114408390Y-95907969D02*
X114551247Y-95907969D01*
X114551247Y-95907969D02*
X114741723Y-95955588D01*
X114741723Y-95955588D02*
X114836961Y-96003207D01*
X114836961Y-96003207D02*
X114932200Y-96098445D01*
X114932200Y-96098445D02*
X114979819Y-96241302D01*
X114979819Y-96241302D02*
X114979819Y-96336540D01*
X114979819Y-96336540D02*
X114932200Y-96479397D01*
X114932200Y-96479397D02*
X114884580Y-96527016D01*
X114884580Y-96527016D02*
X114551247Y-96527016D01*
X114551247Y-96527016D02*
X114551247Y-96336540D01*
X114979819Y-96955588D02*
X113979819Y-96955588D01*
X114456009Y-96955588D02*
X114456009Y-97527016D01*
X114979819Y-97527016D02*
X113979819Y-97527016D01*
X113979819Y-98622255D02*
X114979819Y-98955588D01*
X114979819Y-98955588D02*
X113979819Y-99288921D01*
X131179819Y-94982969D02*
X131179819Y-94506779D01*
X131179819Y-94506779D02*
X130179819Y-94506779D01*
X130179819Y-95506779D02*
X130179819Y-95697255D01*
X130179819Y-95697255D02*
X130227438Y-95792493D01*
X130227438Y-95792493D02*
X130322676Y-95887731D01*
X130322676Y-95887731D02*
X130513152Y-95935350D01*
X130513152Y-95935350D02*
X130846485Y-95935350D01*
X130846485Y-95935350D02*
X131036961Y-95887731D01*
X131036961Y-95887731D02*
X131132200Y-95792493D01*
X131132200Y-95792493D02*
X131179819Y-95697255D01*
X131179819Y-95697255D02*
X131179819Y-95506779D01*
X131179819Y-95506779D02*
X131132200Y-95411541D01*
X131132200Y-95411541D02*
X131036961Y-95316303D01*
X131036961Y-95316303D02*
X130846485Y-95268684D01*
X130846485Y-95268684D02*
X130513152Y-95268684D01*
X130513152Y-95268684D02*
X130322676Y-95316303D01*
X130322676Y-95316303D02*
X130227438Y-95411541D01*
X130227438Y-95411541D02*
X130179819Y-95506779D01*
X130179819Y-96268684D02*
X131179819Y-96506779D01*
X131179819Y-96506779D02*
X130465533Y-96697255D01*
X130465533Y-96697255D02*
X131179819Y-96887731D01*
X131179819Y-96887731D02*
X130179819Y-97125827D01*
X130179819Y-98125827D02*
X131179819Y-98459160D01*
X131179819Y-98459160D02*
X130179819Y-98792493D01*
M02*
